<?xml version="1.0" encoding="utf-8"?>
<!-- Generator: Adobe Illustrator 27.0.0, SVG Export Plug-In . SVG Version: 6.00 Build 0)  -->
<svg version="1.1" id="Laag_1" xmlns="http://www.w3.org/2000/svg" xmlns:xlink="http://www.w3.org/1999/xlink" x="0px" y="0px"
	 viewBox="0 0 115.01 115.01" style="enable-background:new 0 0 115.01 115.01;" xml:space="preserve">
<style type="text/css">
	.st0{fill:none;stroke:#231916;stroke-miterlimit:22.9256;}
	.st1{fill-rule:evenodd;clip-rule:evenodd;fill:#231916;}
	.st2{fill:#231916;}
	.st3{font-family:'ArialMT';}
	.st4{font-size:10.68px;}
	.st5{font-size:7px;}
</style>
<g>
	<path d="M49.75,39.48v3.42h0.96c0.3,0,0.53-0.03,0.7-0.08s0.3-0.13,0.4-0.23c0.14-0.14,0.25-0.33,0.33-0.57s0.12-0.53,0.12-0.86
		c0-0.47-0.08-0.83-0.23-1.08c-0.15-0.25-0.34-0.42-0.56-0.51c-0.16-0.06-0.41-0.09-0.77-0.09H49.75z"/>
	<path d="M60.74,39.39c-0.25,0-0.45,0.11-0.6,0.32c-0.19,0.27-0.28,0.78-0.28,1.51s0.09,1.22,0.26,1.47s0.38,0.37,0.64,0.37
		s0.46-0.12,0.64-0.37c0.17-0.24,0.26-0.73,0.26-1.47c0-0.74-0.09-1.23-0.26-1.47S61,39.39,60.74,39.39z"/>
	<path d="M36.72,42.56c0.06-0.12,0.09-0.31,0.09-0.55v-0.2c-0.2,0.08-0.5,0.15-0.9,0.21c-0.23,0.03-0.39,0.07-0.48,0.11
		c-0.09,0.04-0.17,0.1-0.22,0.18c-0.05,0.08-0.08,0.17-0.08,0.26c0,0.15,0.06,0.27,0.17,0.37c0.11,0.1,0.27,0.15,0.49,0.15
		c0.21,0,0.4-0.05,0.57-0.14C36.52,42.85,36.64,42.72,36.72,42.56z"/>
	<path d="M31.43,49.16c-0.09,0.04-0.17,0.1-0.22,0.18c-0.05,0.08-0.08,0.17-0.08,0.26c0,0.15,0.06,0.27,0.17,0.37
		c0.11,0.1,0.27,0.15,0.49,0.15c0.21,0,0.4-0.05,0.57-0.14c0.16-0.09,0.29-0.22,0.36-0.38c0.06-0.12,0.09-0.31,0.09-0.55v-0.2
		c-0.2,0.08-0.5,0.15-0.9,0.21C31.68,49.09,31.52,49.12,31.43,49.16z"/>
	<path d="M76.77,21.05c0.36,0,0.66-0.13,0.89-0.39S78,20.01,78,19.49c0-0.51-0.11-0.9-0.34-1.15c-0.22-0.25-0.52-0.38-0.9-0.38
		c-0.37,0-0.67,0.13-0.9,0.38c-0.23,0.26-0.34,0.64-0.34,1.16c0,0.51,0.12,0.89,0.35,1.15C76.11,20.92,76.41,21.05,76.77,21.05z"/>
	<path d="M28.04,33c-0.12-0.33-0.22-0.6-0.28-0.81c-0.05,0.25-0.12,0.5-0.21,0.75l-0.43,1.15h1.33L28.04,33z"/>
	<path d="M57.38,33.19c-0.24,0-0.44,0.09-0.6,0.27c-0.16,0.18-0.24,0.45-0.24,0.82c0,0.36,0.08,0.64,0.24,0.82
		c0.16,0.18,0.36,0.27,0.6,0.27c0.24,0,0.44-0.09,0.6-0.27s0.24-0.46,0.24-0.83c0-0.35-0.08-0.62-0.24-0.8
		C57.81,33.28,57.61,33.19,57.38,33.19z"/>
	<path d="M50.11,33.47c-0.15-0.19-0.35-0.28-0.6-0.28c-0.22,0-0.41,0.07-0.56,0.22c-0.15,0.15-0.23,0.35-0.25,0.59h1.59
		C50.27,33.77,50.21,33.59,50.11,33.47z"/>
	<path d="M64.05,33.47c-0.15-0.19-0.35-0.28-0.6-0.28c-0.22,0-0.41,0.07-0.56,0.22c-0.15,0.15-0.23,0.35-0.25,0.59h1.59
		C64.21,33.77,64.15,33.59,64.05,33.47z"/>
	<path d="M19.6,14.73v39.11h75.09V14.73H19.6z M74.8,18.39c0.1-0.23,0.24-0.43,0.42-0.61s0.37-0.32,0.58-0.4
		c0.28-0.12,0.6-0.18,0.97-0.18c0.66,0,1.19,0.2,1.58,0.61c0.4,0.41,0.59,0.98,0.59,1.71c0,0.72-0.2,1.29-0.59,1.7
		c-0.39,0.41-0.92,0.61-1.58,0.61c-0.67,0-1.2-0.2-1.59-0.61c-0.39-0.41-0.59-0.97-0.59-1.68C74.59,19.08,74.66,18.7,74.8,18.39z
		 M70.8,17.27h3.07v0.76h-2.17v1.06h1.87v0.76h-1.87v1.9h-0.9V17.27z M66.13,17.27h0.88l1.83,2.99v-2.99h0.84v4.48h-0.91l-1.81-2.92
		v2.92h-0.84V17.27z M64.2,17.27h0.9v4.48h-0.9V17.27z M58,17.27h3.32v0.76H58.9v0.99h2.25v0.75H58.9v1.22h2.5v0.75H58V17.27z
		 M54.19,17.27l1.13,3.32l1.1-3.32h0.96l-1.6,4.48h-0.97l-1.6-4.48H54.19z M51.7,17.27l1.79,4.48h-0.98l-0.39-1.02h-1.79l-0.37,1.02
		H49l1.74-4.48H51.7z M44.23,17.27l0.68,3.08l0.82-3.08h1.08l0.79,3.13l0.69-3.13h0.91l-1.09,4.48h-0.96l-0.89-3.35l-0.89,3.35
		h-0.98l-1.07-4.48H44.23z M39.38,20.93l2.35-2.91h-2.09v-0.76h3.28v0.7l-2.45,3.02h2.55v0.75h-3.64V20.93z M39.15,22.55h39.89v0.78
		H39.15V22.55z M63.93,40.31c-0.22,0.13-0.41,0.22-0.58,0.28v-0.53c0.31-0.14,0.58-0.32,0.81-0.53c0.23-0.21,0.39-0.41,0.49-0.6H65
		v4.5h-0.55v-3.5C64.32,40.06,64.14,40.18,63.93,40.31z M55.81,40.82v-0.63h0.63v0.63H55.81z M56.43,42.81v0.63h-0.63v-0.63H56.43z
		 M46.84,27.36v-0.63h0.63v0.63H46.84z M47.47,29.35v0.63h-0.63v-0.63H47.47z M43.14,26.02V25.5h3.55v0.53h-1.48v3.95h-0.59v-3.95
		H43.14z M38.89,26.48c0.18-0.35,0.43-0.61,0.76-0.79c0.33-0.18,0.69-0.27,1.09-0.27c0.45,0,0.82,0.11,1.13,0.34
		c0.31,0.23,0.52,0.55,0.64,0.96l-0.58,0.14c-0.1-0.33-0.25-0.56-0.45-0.71c-0.2-0.15-0.45-0.22-0.75-0.22
		c-0.34,0-0.63,0.08-0.86,0.25c-0.23,0.16-0.39,0.39-0.49,0.66c-0.09,0.28-0.14,0.56-0.14,0.86c0,0.38,0.06,0.71,0.17,1
		c0.11,0.28,0.28,0.5,0.52,0.64c0.23,0.14,0.49,0.21,0.76,0.21c0.33,0,0.61-0.1,0.84-0.29s0.39-0.48,0.47-0.85l0.59,0.15
		c-0.12,0.49-0.35,0.86-0.67,1.11s-0.72,0.38-1.18,0.38c-0.48,0-0.88-0.1-1.18-0.29c-0.3-0.2-0.53-0.48-0.69-0.85
		c-0.16-0.37-0.24-0.77-0.24-1.2C38.63,27.24,38.72,26.83,38.89,26.48z M41.1,32.36c-0.14-0.13-0.31-0.2-0.53-0.2
		c-0.23,0-0.42,0.07-0.56,0.21c-0.14,0.14-0.21,0.33-0.21,0.58l-0.49-0.05c0.03-0.37,0.16-0.65,0.38-0.84
		c0.22-0.19,0.52-0.29,0.89-0.29c0.38,0,0.67,0.1,0.89,0.31c0.22,0.21,0.33,0.47,0.33,0.78c0,0.16-0.03,0.31-0.1,0.46
		c-0.06,0.15-0.17,0.31-0.32,0.48c-0.15,0.17-0.4,0.4-0.74,0.69c-0.29,0.24-0.47,0.41-0.56,0.49c-0.08,0.09-0.15,0.17-0.2,0.26h1.92
		v0.46h-2.59c0-0.12,0.02-0.23,0.06-0.33c0.07-0.18,0.17-0.35,0.32-0.52c0.15-0.17,0.36-0.37,0.63-0.59
		c0.43-0.35,0.71-0.63,0.86-0.83c0.15-0.2,0.22-0.4,0.22-0.58C41.31,32.65,41.24,32.49,41.1,32.36z M34.48,25.5h3.24v0.53h-2.65
		v1.37h2.48v0.53h-2.48v1.52h2.75v0.53h-3.34V25.5z M34.36,32.79c0.17,0,0.32,0.04,0.46,0.11c0.13,0.07,0.24,0.17,0.33,0.28v-1.41
		h0.48v3.92h-0.45v-0.36c-0.18,0.28-0.44,0.42-0.79,0.42c-0.23,0-0.43-0.06-0.62-0.19c-0.19-0.12-0.34-0.3-0.44-0.52
		c-0.1-0.22-0.16-0.48-0.16-0.77c0-0.28,0.05-0.54,0.14-0.77c0.09-0.23,0.24-0.41,0.43-0.53S34.13,32.79,34.36,32.79z M30.81,25.5
		h0.59v3.95h2.21v0.53h-2.8V25.5z M30.12,33.51c0.09-0.23,0.24-0.41,0.43-0.53c0.19-0.12,0.4-0.18,0.63-0.18
		c0.17,0,0.32,0.04,0.46,0.11c0.13,0.07,0.24,0.17,0.33,0.28v-1.41h0.48v3.92h-0.45v-0.36c-0.18,0.28-0.44,0.42-0.79,0.42
		c-0.23,0-0.43-0.06-0.62-0.19c-0.19-0.12-0.34-0.3-0.44-0.52c-0.1-0.22-0.16-0.48-0.16-0.77C29.98,34,30.02,33.74,30.12,33.51z
		 M26.51,25.5h3.24v0.53h-2.65v1.37h2.48v0.53h-2.48v1.52h2.75v0.53h-3.34V25.5z M27.5,31.78h0.56l1.6,3.92h-0.59l-0.46-1.19h-1.64
		l-0.43,1.19h-0.55L27.5,31.78z M24.84,28.39c-0.08-0.11-0.22-0.19-0.4-0.26c-0.12-0.05-0.39-0.12-0.8-0.22s-0.7-0.19-0.86-0.28
		c-0.21-0.11-0.37-0.25-0.48-0.42c-0.11-0.17-0.16-0.35-0.16-0.56c0-0.23,0.06-0.44,0.19-0.63c0.13-0.2,0.32-0.35,0.56-0.45
		s0.52-0.15,0.82-0.15c0.33,0,0.62,0.05,0.88,0.16c0.25,0.11,0.45,0.26,0.59,0.47s0.21,0.44,0.22,0.71l-0.57,0.04
		c-0.03-0.28-0.13-0.5-0.31-0.64c-0.18-0.14-0.44-0.22-0.78-0.22c-0.36,0-0.62,0.07-0.78,0.2s-0.25,0.29-0.25,0.48
		c0,0.16,0.06,0.29,0.17,0.4c0.11,0.1,0.41,0.21,0.89,0.32s0.81,0.2,0.99,0.29c0.26,0.12,0.45,0.27,0.58,0.46
		c0.12,0.18,0.19,0.4,0.19,0.64c0,0.24-0.07,0.46-0.2,0.67c-0.14,0.21-0.33,0.37-0.59,0.49s-0.54,0.18-0.86,0.18
		c-0.41,0-0.75-0.06-1.02-0.18s-0.49-0.3-0.64-0.53c-0.16-0.24-0.24-0.51-0.25-0.81l0.56-0.05c0.03,0.22,0.09,0.41,0.18,0.55
		c0.1,0.14,0.25,0.26,0.45,0.35c0.2,0.09,0.43,0.13,0.69,0.13c0.23,0,0.43-0.03,0.6-0.1c0.17-0.07,0.3-0.16,0.39-0.28
		c0.08-0.12,0.13-0.24,0.13-0.38C24.96,28.62,24.92,28.5,24.84,28.39z M22.57,32.96c-0.19,0.11-0.36,0.19-0.51,0.25v-0.47
		c0.27-0.13,0.5-0.28,0.71-0.46c0.2-0.18,0.34-0.35,0.43-0.52h0.31v3.94h-0.48v-3.07C22.91,32.74,22.75,32.85,22.57,32.96z
		 M21.95,36.63h14.08v0.78H21.95V36.63z M34.12,40.19l-1.01,3.24h-0.57l-0.52-1.94l-0.13-0.55l-0.66,2.5h-0.57l-0.99-3.24h0.57
		l0.52,1.87l0.19,0.7c0.01-0.03,0.06-0.26,0.17-0.67l0.52-1.9h0.57l0.49,1.88l0.16,0.62l0.19-0.63l0.56-1.88H34.12z M23.9,42.88
		l2.29-2.87c0.16-0.2,0.32-0.38,0.46-0.53h-2.5v-0.53h3.21v0.53l-2.51,3.11l-0.27,0.31h2.86v0.53H23.9V42.88z M27.74,49.88
		c-0.14,0.21-0.33,0.37-0.59,0.49c-0.26,0.12-0.54,0.18-0.86,0.18c-0.41,0-0.75-0.06-1.02-0.18s-0.49-0.3-0.64-0.53
		c-0.16-0.24-0.24-0.51-0.25-0.81l0.56-0.05c0.03,0.22,0.09,0.41,0.18,0.55s0.25,0.26,0.45,0.35c0.2,0.09,0.43,0.13,0.69,0.13
		c0.23,0,0.43-0.03,0.6-0.1c0.17-0.07,0.3-0.16,0.39-0.28s0.13-0.24,0.13-0.38c0-0.14-0.04-0.26-0.12-0.37
		c-0.08-0.11-0.22-0.19-0.4-0.26c-0.12-0.05-0.39-0.12-0.8-0.22c-0.41-0.1-0.7-0.19-0.86-0.28c-0.21-0.11-0.37-0.25-0.48-0.42
		c-0.11-0.17-0.16-0.35-0.16-0.56c0-0.23,0.06-0.44,0.19-0.63c0.13-0.2,0.32-0.35,0.56-0.45c0.25-0.1,0.52-0.15,0.82-0.15
		c0.33,0,0.62,0.05,0.88,0.16c0.25,0.11,0.45,0.26,0.59,0.47s0.21,0.44,0.22,0.71l-0.57,0.04c-0.03-0.28-0.13-0.5-0.31-0.64
		c-0.18-0.14-0.44-0.22-0.78-0.22c-0.36,0-0.62,0.07-0.78,0.2c-0.16,0.13-0.25,0.29-0.25,0.48c0,0.16,0.06,0.29,0.17,0.4
		c0.11,0.1,0.41,0.21,0.89,0.32s0.81,0.2,0.99,0.29c0.26,0.12,0.45,0.27,0.58,0.46c0.12,0.18,0.19,0.4,0.19,0.64
		C27.95,49.45,27.88,49.67,27.74,49.88z M29.71,50.52c-0.2,0-0.35-0.03-0.46-0.09c-0.11-0.06-0.19-0.15-0.23-0.25
		c-0.04-0.1-0.07-0.32-0.07-0.65v-1.87h-0.4v-0.43h0.4v-0.8l0.55-0.33v1.13h0.55v0.43h-0.55v1.9c0,0.16,0.01,0.26,0.03,0.3
		c0.02,0.04,0.05,0.08,0.09,0.11C29.66,49.99,29.72,50,29.8,50c0.06,0,0.14-0.01,0.24-0.02l0.08,0.49
		C29.97,50.5,29.83,50.52,29.71,50.52z M32.96,50.47c-0.06-0.11-0.09-0.25-0.11-0.4c-0.2,0.17-0.4,0.3-0.59,0.37
		c-0.19,0.07-0.39,0.11-0.61,0.11c-0.36,0-0.63-0.09-0.82-0.26s-0.29-0.4-0.29-0.67c0-0.16,0.04-0.3,0.11-0.44
		c0.07-0.13,0.17-0.24,0.28-0.32c0.12-0.08,0.25-0.14,0.4-0.18c0.11-0.03,0.27-0.06,0.49-0.08c0.44-0.05,0.77-0.12,0.98-0.19
		c0-0.08,0-0.12,0-0.14c0-0.22-0.05-0.38-0.16-0.47c-0.14-0.12-0.35-0.19-0.63-0.19c-0.26,0-0.45,0.05-0.57,0.14
		c-0.12,0.09-0.21,0.25-0.27,0.48l-0.54-0.07c0.05-0.23,0.13-0.42,0.24-0.56c0.11-0.14,0.27-0.25,0.49-0.33
		c0.21-0.08,0.46-0.11,0.74-0.11c0.28,0,0.5,0.03,0.68,0.1c0.17,0.07,0.3,0.15,0.38,0.25c0.08,0.1,0.14,0.22,0.17,0.37
		c0.02,0.09,0.03,0.26,0.03,0.51v0.73c0,0.51,0.01,0.83,0.04,0.97s0.07,0.27,0.14,0.39H32.96z M35.24,50.52
		c-0.2,0-0.35-0.03-0.46-0.09s-0.19-0.15-0.23-0.25c-0.04-0.1-0.07-0.32-0.07-0.65v-1.87h-0.4v-0.43h0.4v-0.8l0.55-0.33v1.13h0.55
		v0.43h-0.55v1.9c0,0.16,0.01,0.26,0.03,0.3c0.02,0.04,0.05,0.08,0.09,0.11c0.04,0.03,0.11,0.04,0.19,0.04
		c0.06,0,0.14-0.01,0.24-0.02l0.08,0.49C35.5,50.5,35.36,50.52,35.24,50.52z M34.84,43.25c-0.19-0.17-0.29-0.4-0.29-0.67
		c0-0.16,0.04-0.3,0.11-0.44c0.07-0.13,0.17-0.24,0.28-0.32c0.12-0.08,0.25-0.14,0.4-0.18c0.11-0.03,0.27-0.06,0.49-0.08
		c0.44-0.05,0.77-0.12,0.98-0.19c0-0.08,0-0.12,0-0.14c0-0.22-0.05-0.38-0.16-0.47c-0.14-0.12-0.35-0.19-0.63-0.19
		c-0.26,0-0.45,0.05-0.57,0.14c-0.12,0.09-0.21,0.25-0.27,0.48l-0.54-0.07c0.05-0.23,0.13-0.42,0.24-0.56
		c0.11-0.14,0.27-0.25,0.49-0.33c0.21-0.08,0.46-0.11,0.74-0.11c0.28,0,0.5,0.03,0.68,0.1c0.17,0.07,0.3,0.15,0.38,0.25
		c0.08,0.1,0.14,0.22,0.17,0.37c0.02,0.09,0.03,0.26,0.03,0.51v0.73c0,0.51,0.01,0.83,0.04,0.97s0.07,0.27,0.14,0.39h-0.57
		c-0.06-0.11-0.09-0.25-0.11-0.4c-0.2,0.17-0.4,0.3-0.59,0.37c-0.19,0.07-0.39,0.11-0.61,0.11C35.3,43.51,35.03,43.42,34.84,43.25z
		 M38.89,50.47h-0.49V50c-0.25,0.37-0.6,0.55-1.03,0.55c-0.19,0-0.37-0.04-0.54-0.11c-0.17-0.07-0.29-0.17-0.37-0.28
		c-0.08-0.11-0.14-0.25-0.17-0.41c-0.02-0.11-0.03-0.28-0.03-0.51v-2.01h0.55v1.8c0,0.29,0.01,0.48,0.03,0.58
		c0.03,0.14,0.11,0.26,0.22,0.34c0.11,0.08,0.25,0.12,0.42,0.12s0.32-0.04,0.46-0.13c0.14-0.08,0.25-0.2,0.31-0.35
		c0.06-0.15,0.09-0.36,0.09-0.63v-1.74h0.55V50.47z M38.04,40.19h0.58l0.7,1.94c0.08,0.21,0.14,0.43,0.21,0.65
		c0.05-0.17,0.12-0.38,0.2-0.62l0.72-1.98h0.57l-1.23,3.24h-0.51L38.04,40.19z M42.22,50.04c-0.11,0.16-0.26,0.29-0.46,0.38
		c-0.2,0.09-0.43,0.13-0.68,0.13c-0.42,0-0.74-0.09-0.96-0.26c-0.22-0.18-0.36-0.44-0.42-0.78l0.54-0.09
		c0.03,0.22,0.12,0.38,0.26,0.5c0.14,0.12,0.33,0.17,0.59,0.17c0.25,0,0.44-0.05,0.56-0.15c0.12-0.1,0.18-0.22,0.18-0.36
		c0-0.12-0.05-0.22-0.16-0.29c-0.08-0.05-0.26-0.11-0.56-0.19c-0.4-0.1-0.68-0.19-0.84-0.26s-0.27-0.18-0.35-0.31
		c-0.08-0.13-0.12-0.28-0.12-0.44c0-0.14,0.03-0.28,0.1-0.4s0.16-0.23,0.27-0.31c0.09-0.06,0.2-0.12,0.35-0.16
		c0.15-0.04,0.31-0.07,0.48-0.07c0.25,0,0.48,0.04,0.67,0.11s0.33,0.17,0.43,0.3c0.09,0.13,0.15,0.29,0.19,0.5l-0.54,0.07
		c-0.02-0.17-0.1-0.3-0.21-0.39c-0.12-0.09-0.28-0.14-0.5-0.14c-0.25,0-0.43,0.04-0.54,0.13c-0.11,0.08-0.16,0.18-0.16,0.29
		c0,0.07,0.02,0.14,0.07,0.19c0.04,0.06,0.11,0.11,0.21,0.15c0.05,0.02,0.22,0.07,0.49,0.14c0.39,0.1,0.66,0.19,0.81,0.26
		c0.15,0.07,0.27,0.16,0.36,0.29s0.13,0.28,0.13,0.47C42.38,49.7,42.33,49.88,42.22,50.04z M44.46,41.95h-2.42
		c0.02,0.36,0.12,0.63,0.3,0.82c0.18,0.19,0.41,0.28,0.68,0.28c0.2,0,0.37-0.05,0.52-0.16c0.14-0.11,0.26-0.27,0.34-0.51l0.57,0.07
		c-0.09,0.33-0.26,0.59-0.5,0.77c-0.24,0.18-0.55,0.27-0.93,0.27c-0.47,0-0.85-0.15-1.13-0.44s-0.42-0.7-0.42-1.23
		c0-0.55,0.14-0.97,0.42-1.27s0.65-0.45,1.09-0.45c0.43,0,0.79,0.15,1.06,0.44s0.41,0.71,0.41,1.25
		C44.46,41.84,44.46,41.89,44.46,41.95z M45.86,50.47h-0.63v-0.63h0.63V50.47z M45.86,47.86h-0.63v-0.63h0.63V47.86z M46.61,34.88
		c-0.15-0.24-0.28-0.42-0.37-0.54c-0.1-0.12-0.19-0.21-0.26-0.26c-0.08-0.05-0.16-0.08-0.24-0.1c-0.06-0.01-0.16-0.02-0.29-0.02
		h-0.6v1.74h-0.52v-3.92h1.74c0.35,0,0.61,0.04,0.8,0.11c0.18,0.07,0.33,0.19,0.44,0.37c0.11,0.18,0.16,0.38,0.16,0.59
		c0,0.28-0.09,0.51-0.27,0.7c-0.18,0.19-0.46,0.31-0.83,0.36c0.14,0.07,0.24,0.13,0.31,0.2c0.15,0.14,0.29,0.31,0.43,0.52l0.68,1.07
		h-0.65L46.61,34.88z M47.95,43.43h-0.59v-4.48h0.59V43.43z M48.18,34.3c0-0.48,0.12-0.85,0.37-1.11c0.25-0.26,0.56-0.4,0.96-0.4
		c0.38,0,0.69,0.13,0.93,0.39c0.24,0.26,0.36,0.62,0.36,1.09c0,0.03,0,0.07,0,0.13h-2.12c0.02,0.31,0.11,0.55,0.26,0.72
		s0.36,0.25,0.59,0.25c0.18,0,0.33-0.05,0.45-0.14c0.12-0.09,0.22-0.24,0.3-0.44l0.5,0.06c-0.08,0.29-0.22,0.52-0.44,0.68
		c-0.21,0.16-0.48,0.24-0.81,0.24c-0.42,0-0.74-0.13-0.99-0.38C48.31,35.12,48.18,34.76,48.18,34.3z M51.49,39.02
		c0.26,0.06,0.48,0.17,0.66,0.32c0.24,0.2,0.41,0.45,0.53,0.77s0.18,0.67,0.18,1.06c0,0.34-0.04,0.64-0.12,0.9
		c-0.08,0.26-0.18,0.48-0.31,0.65s-0.26,0.31-0.41,0.41c-0.15,0.1-0.33,0.17-0.53,0.22c-0.21,0.05-0.45,0.08-0.72,0.08h-1.62v-4.48
		h1.54C51.04,38.96,51.31,38.98,51.49,39.02z M49.64,50.47h-0.59V46h0.59V50.47z M53.41,50.47h-0.55V48.5c0-0.22-0.02-0.39-0.06-0.5
		s-0.12-0.2-0.23-0.27c-0.11-0.07-0.24-0.1-0.38-0.1c-0.23,0-0.44,0.07-0.61,0.22c-0.17,0.15-0.26,0.43-0.26,0.85v1.77h-0.55v-3.24
		h0.49v0.46c0.24-0.36,0.58-0.53,1.03-0.53c0.2,0,0.38,0.04,0.54,0.11c0.16,0.07,0.29,0.16,0.37,0.28c0.08,0.11,0.14,0.25,0.17,0.41
		c0.02,0.1,0.03,0.28,0.03,0.53V50.47z M53.69,34.05v1.65h-0.48v-1.84c0-0.21-0.04-0.37-0.12-0.48s-0.21-0.16-0.38-0.16
		c-0.14,0-0.26,0.04-0.38,0.11c-0.11,0.07-0.2,0.18-0.25,0.31s-0.08,0.33-0.08,0.59v1.47h-0.48v-2.84h0.43v0.4
		c0.09-0.14,0.21-0.25,0.36-0.34c0.15-0.08,0.32-0.13,0.51-0.13c0.21,0,0.38,0.04,0.52,0.13c0.13,0.09,0.23,0.21,0.28,0.37
		c0.22-0.33,0.52-0.5,0.88-0.5c0.28,0,0.5,0.08,0.65,0.23c0.15,0.16,0.23,0.4,0.23,0.72v1.95H54.9v-1.79c0-0.19-0.02-0.33-0.05-0.42
		c-0.03-0.08-0.09-0.15-0.17-0.2c-0.08-0.05-0.18-0.08-0.29-0.08c-0.2,0-0.37,0.07-0.5,0.2C53.76,33.54,53.69,33.76,53.69,34.05z
		 M56.61,50.23c-0.24,0.21-0.54,0.32-0.9,0.32c-0.44,0-0.8-0.15-1.07-0.44c-0.27-0.29-0.4-0.71-0.4-1.25c0-0.35,0.06-0.66,0.17-0.92
		s0.29-0.46,0.53-0.59c0.24-0.13,0.5-0.2,0.77-0.2c0.35,0,0.64,0.09,0.86,0.27c0.22,0.18,0.37,0.43,0.43,0.76l-0.53,0.08
		c-0.05-0.22-0.14-0.38-0.27-0.49c-0.13-0.11-0.29-0.16-0.47-0.16c-0.28,0-0.5,0.1-0.68,0.3c-0.17,0.2-0.26,0.51-0.26,0.94
		c0,0.44,0.08,0.75,0.25,0.95c0.17,0.2,0.38,0.3,0.65,0.3c0.22,0,0.4-0.07,0.54-0.2s0.24-0.34,0.27-0.61l0.54,0.07
		C57,49.73,56.85,50.02,56.61,50.23z M58.23,50.47h-0.55V46h0.55V50.47z M58.54,35.1c-0.11,0.21-0.27,0.37-0.48,0.49
		c-0.21,0.12-0.44,0.17-0.69,0.17c-0.4,0-0.72-0.13-0.96-0.38c-0.24-0.25-0.37-0.62-0.37-1.1c0-0.53,0.15-0.92,0.44-1.17
		c0.24-0.21,0.54-0.32,0.89-0.32c0.39,0,0.71,0.13,0.96,0.38c0.25,0.26,0.37,0.61,0.37,1.06C58.71,34.6,58.65,34.89,58.54,35.1z
		 M59.62,32.86l0.61,1.7c0.07,0.18,0.13,0.37,0.18,0.57c0.04-0.15,0.1-0.33,0.18-0.54l0.63-1.73h0.49l-1.07,2.84h-0.45l-1.08-2.84
		H59.62z M61.86,50.47h-0.49V50c-0.25,0.37-0.6,0.55-1.03,0.55c-0.19,0-0.37-0.04-0.54-0.11c-0.17-0.07-0.29-0.17-0.37-0.28
		c-0.08-0.11-0.14-0.25-0.17-0.41c-0.02-0.11-0.03-0.28-0.03-0.51v-2.01h0.55v1.8c0,0.29,0.01,0.48,0.03,0.58
		c0.03,0.14,0.11,0.26,0.22,0.34c0.11,0.08,0.25,0.12,0.42,0.12s0.32-0.04,0.46-0.13c0.14-0.08,0.25-0.2,0.31-0.35
		c0.06-0.15,0.09-0.36,0.09-0.63v-1.74h0.55V50.47z M62.05,42.5c-0.11,0.32-0.27,0.57-0.48,0.75c-0.22,0.18-0.49,0.26-0.81,0.26
		c-0.43,0-0.77-0.15-1.02-0.46c-0.3-0.37-0.44-0.98-0.44-1.82c0-0.53,0.05-0.96,0.16-1.28s0.27-0.57,0.49-0.75
		c0.22-0.18,0.49-0.26,0.81-0.26c0.24,0,0.45,0.05,0.63,0.15c0.18,0.1,0.33,0.24,0.45,0.42c0.12,0.18,0.21,0.4,0.28,0.67
		s0.1,0.61,0.1,1.06C62.21,41.75,62.16,42.18,62.05,42.5z M62.12,34.3c0-0.48,0.12-0.85,0.37-1.11c0.25-0.26,0.56-0.4,0.96-0.4
		c0.38,0,0.69,0.13,0.93,0.39c0.24,0.26,0.36,0.62,0.36,1.09c0,0.03,0,0.07,0,0.13h-2.12c0.02,0.31,0.11,0.55,0.26,0.72
		s0.36,0.25,0.59,0.25c0.18,0,0.33-0.05,0.45-0.14c0.12-0.09,0.22-0.24,0.3-0.44l0.5,0.06c-0.08,0.29-0.22,0.52-0.44,0.68
		c-0.21,0.16-0.48,0.24-0.81,0.24c-0.42,0-0.74-0.13-0.99-0.38C62.24,35.12,62.12,34.76,62.12,34.3z M65.19,50.04
		c-0.11,0.16-0.26,0.29-0.46,0.38c-0.2,0.09-0.43,0.13-0.68,0.13c-0.42,0-0.74-0.09-0.96-0.26c-0.22-0.18-0.36-0.44-0.42-0.78
		l0.54-0.09c0.03,0.22,0.12,0.38,0.26,0.5c0.14,0.12,0.33,0.17,0.59,0.17c0.25,0,0.44-0.05,0.56-0.15c0.12-0.1,0.18-0.22,0.18-0.36
		c0-0.12-0.05-0.22-0.16-0.29c-0.08-0.05-0.26-0.11-0.56-0.19c-0.4-0.1-0.68-0.19-0.84-0.26s-0.27-0.18-0.35-0.31
		s-0.12-0.28-0.12-0.44c0-0.14,0.03-0.28,0.1-0.4c0.07-0.12,0.16-0.23,0.27-0.31c0.09-0.06,0.2-0.12,0.35-0.16
		c0.15-0.04,0.31-0.07,0.48-0.07c0.25,0,0.48,0.04,0.67,0.11c0.19,0.07,0.33,0.17,0.43,0.3s0.15,0.29,0.19,0.5l-0.54,0.07
		c-0.02-0.17-0.1-0.3-0.21-0.39s-0.28-0.14-0.5-0.14c-0.25,0-0.43,0.04-0.54,0.13s-0.16,0.18-0.16,0.29c0,0.07,0.02,0.14,0.07,0.19
		c0.04,0.06,0.11,0.11,0.21,0.15c0.05,0.02,0.22,0.07,0.49,0.14c0.39,0.1,0.66,0.19,0.81,0.26c0.15,0.07,0.27,0.16,0.36,0.29
		c0.09,0.13,0.13,0.28,0.13,0.47C65.35,49.7,65.29,49.88,65.19,50.04z M66.71,50.47h-0.55v-3.24h0.55V50.47z M66.71,46.63h-0.55V46
		h0.55V46.63z M66.56,42.26l0.58-0.05c0.04,0.28,0.14,0.49,0.3,0.63s0.34,0.21,0.56,0.21c0.26,0,0.49-0.1,0.67-0.3
		c0.18-0.2,0.27-0.46,0.27-0.79c0-0.31-0.09-0.56-0.26-0.74s-0.41-0.27-0.69-0.27c-0.18,0-0.34,0.04-0.48,0.12s-0.25,0.18-0.34,0.31
		l-0.52-0.07l0.43-2.3h2.23v0.53h-1.79l-0.24,1.2c0.27-0.19,0.55-0.28,0.85-0.28c0.39,0,0.72,0.14,0.99,0.41
		c0.27,0.27,0.4,0.62,0.4,1.04c0,0.41-0.12,0.76-0.35,1.05c-0.29,0.36-0.68,0.54-1.18,0.54c-0.41,0-0.74-0.11-1-0.34
		C66.75,42.94,66.6,42.64,66.56,42.26z M70.35,49.79c-0.13,0.24-0.31,0.43-0.55,0.56c-0.24,0.13-0.5,0.2-0.78,0.2
		c-0.45,0-0.82-0.15-1.1-0.44s-0.42-0.71-0.42-1.26c0-0.6,0.17-1.05,0.5-1.34c0.28-0.24,0.62-0.36,1.02-0.36
		c0.45,0,0.81,0.15,1.09,0.44c0.28,0.29,0.42,0.7,0.42,1.21C70.54,49.22,70.48,49.55,70.35,49.79z M70.84,35.41
		c-0.25,0.24-0.56,0.36-0.95,0.36c-0.34,0-0.63-0.1-0.86-0.31c-0.23-0.21-0.36-0.47-0.39-0.8l0.48-0.06
		c0.06,0.27,0.15,0.47,0.28,0.59c0.13,0.12,0.29,0.18,0.49,0.18c0.23,0,0.42-0.08,0.57-0.24c0.16-0.16,0.23-0.35,0.23-0.58
		c0-0.22-0.07-0.4-0.22-0.55c-0.14-0.14-0.33-0.22-0.55-0.22c-0.09,0-0.2,0.02-0.34,0.05l0.05-0.42c0.03,0,0.06,0.01,0.08,0.01
		c0.21,0,0.39-0.05,0.55-0.16c0.16-0.11,0.25-0.27,0.25-0.49c0-0.18-0.06-0.32-0.18-0.44c-0.12-0.12-0.27-0.17-0.46-0.17
		c-0.19,0-0.34,0.06-0.47,0.18c-0.12,0.12-0.21,0.29-0.24,0.53l-0.48-0.09c0.06-0.32,0.19-0.57,0.4-0.75
		c0.21-0.18,0.47-0.27,0.78-0.27c0.21,0,0.41,0.05,0.59,0.14c0.18,0.09,0.32,0.22,0.41,0.38c0.1,0.16,0.14,0.33,0.14,0.51
		c0,0.17-0.05,0.32-0.14,0.46s-0.23,0.25-0.4,0.33c0.23,0.05,0.41,0.16,0.54,0.33c0.13,0.17,0.19,0.38,0.19,0.63
		C71.21,34.88,71.09,35.17,70.84,35.41z M73.98,50.47h-0.55V48.5c0-0.22-0.02-0.39-0.06-0.5c-0.04-0.11-0.12-0.2-0.23-0.27
		c-0.11-0.07-0.24-0.1-0.38-0.1c-0.23,0-0.44,0.07-0.61,0.22c-0.17,0.15-0.26,0.43-0.26,0.85v1.77h-0.55v-3.24h0.49v0.46
		c0.24-0.36,0.58-0.53,1.03-0.53c0.2,0,0.38,0.04,0.54,0.11c0.16,0.07,0.29,0.16,0.37,0.28c0.08,0.11,0.14,0.25,0.17,0.41
		c0.02,0.1,0.03,0.28,0.03,0.53V50.47z M76.49,35.7l-0.52-0.82c-0.15-0.24-0.28-0.42-0.37-0.54c-0.1-0.12-0.19-0.21-0.26-0.26
		c-0.08-0.05-0.16-0.08-0.24-0.1c-0.06-0.01-0.16-0.02-0.29-0.02h-0.6v1.74h-0.52v-3.92h1.74c0.35,0,0.61,0.04,0.8,0.11
		c0.18,0.07,0.33,0.19,0.44,0.37c0.11,0.18,0.16,0.38,0.16,0.59c0,0.28-0.09,0.51-0.27,0.7s-0.46,0.31-0.83,0.36
		c0.14,0.07,0.24,0.13,0.31,0.2c0.15,0.14,0.29,0.31,0.43,0.52l0.68,1.07H76.49z M80.16,34.4h-2.12c0.02,0.31,0.11,0.55,0.26,0.72
		c0.16,0.17,0.36,0.25,0.59,0.25c0.18,0,0.33-0.05,0.45-0.14c0.12-0.09,0.22-0.24,0.3-0.44l0.5,0.06c-0.08,0.29-0.22,0.52-0.44,0.68
		c-0.21,0.16-0.48,0.24-0.81,0.24c-0.42,0-0.74-0.13-0.99-0.38c-0.24-0.26-0.36-0.61-0.36-1.08c0-0.48,0.12-0.85,0.37-1.11
		c0.25-0.26,0.56-0.4,0.96-0.4c0.38,0,0.69,0.13,0.93,0.39c0.24,0.26,0.36,0.62,0.36,1.09C80.17,34.3,80.17,34.34,80.16,34.4z
		 M82.92,35.32c-0.09,0.14-0.23,0.25-0.41,0.33c-0.18,0.08-0.38,0.12-0.6,0.12c-0.37,0-0.65-0.08-0.84-0.23
		c-0.19-0.15-0.32-0.38-0.37-0.68l0.48-0.07c0.03,0.19,0.1,0.34,0.22,0.44c0.12,0.1,0.29,0.15,0.51,0.15c0.22,0,0.38-0.05,0.49-0.14
		c0.11-0.09,0.16-0.2,0.16-0.32c0-0.11-0.05-0.19-0.14-0.26c-0.07-0.04-0.23-0.1-0.49-0.16c-0.35-0.09-0.6-0.17-0.73-0.23
		c-0.14-0.06-0.24-0.16-0.31-0.27c-0.07-0.12-0.11-0.24-0.11-0.38c0-0.13,0.03-0.24,0.09-0.35c0.06-0.11,0.14-0.2,0.24-0.27
		c0.07-0.06,0.18-0.1,0.31-0.14c0.13-0.04,0.27-0.06,0.42-0.06c0.22,0,0.42,0.03,0.59,0.1c0.17,0.06,0.29,0.15,0.37,0.26
		c0.08,0.11,0.14,0.26,0.17,0.44l-0.47,0.06c-0.02-0.15-0.08-0.26-0.19-0.34c-0.1-0.08-0.25-0.12-0.43-0.12
		c-0.22,0-0.38,0.04-0.47,0.11c-0.09,0.07-0.14,0.16-0.14,0.26c0,0.06,0.02,0.12,0.06,0.17c0.04,0.05,0.1,0.09,0.18,0.13
		c0.05,0.02,0.19,0.06,0.43,0.12c0.34,0.09,0.58,0.17,0.71,0.22c0.13,0.06,0.24,0.14,0.32,0.25s0.11,0.25,0.11,0.41
		C83.06,35.02,83.01,35.18,82.92,35.32z M86.22,34.4H84.1c0.02,0.31,0.11,0.55,0.26,0.72s0.36,0.25,0.59,0.25
		c0.18,0,0.33-0.05,0.45-0.14c0.12-0.09,0.22-0.24,0.3-0.44l0.5,0.06c-0.08,0.29-0.22,0.52-0.44,0.68
		c-0.21,0.16-0.48,0.24-0.81,0.24c-0.42,0-0.74-0.13-0.99-0.38c-0.24-0.26-0.36-0.61-0.36-1.08c0-0.48,0.12-0.85,0.37-1.11
		c0.25-0.26,0.56-0.4,0.96-0.4c0.38,0,0.69,0.13,0.93,0.39c0.24,0.26,0.36,0.62,0.36,1.09C86.22,34.3,86.22,34.34,86.22,34.4z
		 M87.7,35.73c-0.17,0-0.31-0.03-0.41-0.08s-0.16-0.13-0.2-0.22c-0.04-0.09-0.06-0.28-0.06-0.57v-1.63h-0.35v-0.37h0.35v-0.7
		l0.48-0.29v0.99H88v0.37h-0.48v1.66c0,0.14,0.01,0.23,0.03,0.26c0.02,0.04,0.04,0.07,0.08,0.09c0.04,0.02,0.09,0.03,0.16,0.03
		c0.05,0,0.12-0.01,0.21-0.02l0.07,0.43C87.93,35.72,87.81,35.73,87.7,35.73z"/>
	<path d="M46.82,33.2c0.07-0.11,0.1-0.22,0.1-0.35c0-0.19-0.07-0.34-0.2-0.46c-0.13-0.12-0.35-0.18-0.64-0.18h-1.24v1.3h1.11
		c0.24,0,0.42-0.02,0.56-0.07C46.65,33.39,46.75,33.31,46.82,33.2z"/>
	<path d="M78.88,33.19c-0.22,0-0.41,0.07-0.56,0.22c-0.15,0.15-0.23,0.35-0.25,0.59h1.59c-0.02-0.24-0.08-0.42-0.18-0.54
		C79.32,33.28,79.12,33.19,78.88,33.19z"/>
	<path d="M76.18,33.2c0.07-0.11,0.1-0.22,0.1-0.35c0-0.19-0.07-0.34-0.2-0.46c-0.13-0.12-0.35-0.18-0.64-0.18h-1.24v1.3h1.11
		c0.24,0,0.42-0.02,0.56-0.07C76.01,33.39,76.11,33.31,76.18,33.2z"/>
	<path d="M84.94,33.19c-0.22,0-0.41,0.07-0.56,0.22c-0.15,0.15-0.23,0.35-0.25,0.59h1.59c-0.02-0.24-0.08-0.42-0.18-0.54
		C85.38,33.28,85.18,33.19,84.94,33.19z"/>
	<path d="M34.43,35.37c0.21,0,0.39-0.09,0.54-0.26c0.15-0.17,0.22-0.43,0.22-0.79c0-0.39-0.07-0.67-0.22-0.86
		c-0.15-0.18-0.33-0.27-0.55-0.27c-0.21,0-0.39,0.09-0.54,0.26c-0.14,0.17-0.22,0.45-0.22,0.83c0,0.36,0.08,0.64,0.23,0.82
		C34.04,35.28,34.22,35.37,34.43,35.37z"/>
	<path d="M31.24,35.37c0.21,0,0.39-0.09,0.54-0.26c0.15-0.17,0.22-0.43,0.22-0.79c0-0.39-0.07-0.67-0.22-0.86
		c-0.15-0.18-0.33-0.27-0.55-0.27c-0.21,0-0.39,0.09-0.54,0.26c-0.14,0.17-0.22,0.45-0.22,0.83c0,0.36,0.08,0.64,0.23,0.82
		C30.85,35.28,31.03,35.37,31.24,35.37z"/>
	<polygon points="51.22,18.31 50.61,19.97 51.83,19.97 	"/>
	<path d="M42.99,40.57c-0.25,0-0.46,0.08-0.64,0.25s-0.27,0.4-0.29,0.68h1.81c-0.02-0.27-0.09-0.48-0.21-0.61
		C43.5,40.67,43.27,40.57,42.99,40.57z"/>
	<path d="M69.02,47.61c-0.27,0-0.5,0.1-0.68,0.31c-0.18,0.21-0.27,0.52-0.27,0.93c0,0.42,0.09,0.73,0.27,0.93
		c0.18,0.21,0.41,0.31,0.68,0.31c0.27,0,0.5-0.1,0.68-0.31s0.27-0.52,0.27-0.95c0-0.4-0.09-0.71-0.27-0.91S69.29,47.61,69.02,47.61z
		"/>
</g>
<path class="st0" d="M1.87,0.5h111.26c0.76,0,1.37,0.62,1.37,1.37v111.26c0,0.76-0.62,1.37-1.37,1.37H1.87
	c-0.75,0-1.37-0.62-1.37-1.37V1.87C0.5,1.12,1.12,0.5,1.87,0.5z"/>
<polygon class="st1" points="91.24,71.6 93.36,74.77 95.48,77.95 91.24,77.95 86.99,77.95 89.12,74.77 "/>
<polygon class="st1" points="91.24,102.54 93.36,99.36 95.48,96.19 91.24,96.19 86.99,96.19 89.12,99.36 "/>
<text transform="matrix(1 0 0 1 54.2499 90.8637)" class="st2 st3 st4">F</text>
<path d="M22.94,70.91c2.59-0.61,5.41,1.11,6.09,3.68c0.75,2.48-0.66,5.34-3.07,6.25c-2.36,0.98-5.32-0.07-6.5-2.34
	c-0.84-1.5-0.86-3.43-0.04-4.94C20.12,72.21,21.44,71.19,22.94,70.91 M22.92,71.94c-1.84,0.46-3.19,2.28-3.11,4.18
	c0.02,1.77,1.32,3.41,3.02,3.87c1.39,0.43,2.98,0.02,4.02-0.96c1.16-1.07,1.62-2.82,1.12-4.3C27.38,72.65,25.01,71.33,22.92,71.94z"
	/>
<path d="M23.45,74.35c0.14-0.7,0.36-1.37,0.54-2.07c0.34,1.12,0.7,2.27,0.55,3.44c0.82,0,1.59,0.34,2.39,0.5
	c-0.61,0.16-1.2,0.36-1.8,0.48c-0.57,0.07-1.12,0.02-1.7,0.04C23.45,75.96,23.42,75.15,23.45,74.35z"/>
<g>
	<path d="M23.35,91.49c2.59-0.61,5.41,1.11,6.09,3.68c0.75,2.48-0.66,5.34-3.07,6.25c-2.36,0.98-5.32-0.07-6.5-2.34
		c-0.84-1.5-0.86-3.43-0.04-4.94C20.53,92.79,21.85,91.77,23.35,91.49 M23.33,92.52c-1.84,0.46-3.19,2.28-3.11,4.18
		c0.02,1.77,1.32,3.41,3.02,3.87c1.39,0.43,2.98,0.02,4.02-0.96c1.16-1.07,1.62-2.82,1.12-4.3C27.79,93.24,25.42,91.92,23.33,92.52z
		"/>
	<text transform="matrix(1 0 0 1 21.5141 99.0776)" class="st2 st3 st5">M</text>
</g>
</svg>
