<?xml version="1.0" encoding="utf-8"?>
<!-- Generator: Adobe Illustrator 27.0.0, SVG Export Plug-In . SVG Version: 6.00 Build 0)  -->
<svg version="1.1" id="Laag_1" xmlns="http://www.w3.org/2000/svg" xmlns:xlink="http://www.w3.org/1999/xlink" x="0px" y="0px"
	 viewBox="0 0 115.01 115.01" style="enable-background:new 0 0 115.01 115.01;" xml:space="preserve">
<style type="text/css">
	.st0{fill:none;stroke:#231916;stroke-miterlimit:22.9256;}
	.st1{fill-rule:evenodd;clip-rule:evenodd;fill:#231916;}
	.st2{fill:#231916;}
	.st3{font-family:'ArialMT';}
	.st4{font-size:10.68px;}
	.st5{font-size:7px;}
</style>
<g>
	<path d="M51.35,39.63c-0.16-0.06-0.41-0.09-0.77-0.09h-0.94v3.42h0.96c0.3,0,0.53-0.03,0.7-0.08s0.3-0.13,0.4-0.23
		c0.14-0.14,0.25-0.33,0.33-0.57c0.08-0.24,0.12-0.53,0.12-0.86c0-0.47-0.08-0.83-0.23-1.08C51.76,39.88,51.57,39.72,51.35,39.63z"
		/>
	<path d="M60.64,39.45c-0.25,0-0.45,0.11-0.6,0.32c-0.19,0.27-0.28,0.78-0.28,1.51s0.09,1.22,0.26,1.47s0.38,0.37,0.64,0.37
		c0.25,0,0.46-0.12,0.64-0.37c0.17-0.24,0.26-0.73,0.26-1.47c0-0.74-0.09-1.23-0.26-1.47C61.11,39.57,60.9,39.45,60.64,39.45z"/>
	<path d="M36.61,42.61c0.06-0.12,0.09-0.31,0.09-0.55v-0.2c-0.2,0.08-0.5,0.15-0.9,0.21c-0.23,0.03-0.39,0.07-0.48,0.11
		c-0.09,0.04-0.17,0.1-0.22,0.18c-0.05,0.08-0.08,0.17-0.08,0.26c0,0.15,0.06,0.27,0.17,0.37s0.27,0.15,0.49,0.15
		c0.21,0,0.4-0.05,0.57-0.14C36.41,42.9,36.54,42.77,36.61,42.61z"/>
	<path d="M31.33,49.22c-0.09,0.04-0.17,0.1-0.22,0.18c-0.05,0.08-0.08,0.17-0.08,0.26c0,0.15,0.06,0.27,0.17,0.37
		c0.11,0.1,0.27,0.15,0.49,0.15c0.21,0,0.4-0.05,0.57-0.14s0.29-0.22,0.36-0.38c0.06-0.12,0.09-0.31,0.09-0.55v-0.2
		c-0.2,0.08-0.5,0.15-0.9,0.21C31.58,49.14,31.42,49.18,31.33,49.22z"/>
	<path d="M76.66,21.1c0.36,0,0.66-0.13,0.89-0.39c0.23-0.26,0.35-0.65,0.35-1.17c0-0.51-0.11-0.9-0.34-1.15s-0.52-0.38-0.9-0.38
		c-0.37,0-0.67,0.13-0.9,0.38c-0.23,0.26-0.34,0.64-0.34,1.16c0,0.51,0.12,0.89,0.35,1.15C76,20.97,76.3,21.1,76.66,21.1z"/>
	<path d="M27.94,33.06c-0.12-0.33-0.22-0.6-0.28-0.81c-0.05,0.25-0.12,0.5-0.21,0.75l-0.43,1.15h1.33L27.94,33.06z"/>
	<path d="M57.87,35.15c0.16-0.18,0.24-0.46,0.24-0.83c0-0.35-0.08-0.62-0.24-0.8c-0.16-0.18-0.36-0.27-0.6-0.27
		c-0.24,0-0.44,0.09-0.6,0.27c-0.16,0.18-0.24,0.45-0.24,0.82s0.08,0.64,0.24,0.82c0.16,0.18,0.36,0.27,0.6,0.27
		C57.51,35.42,57.71,35.33,57.87,35.15z"/>
	<path d="M49.41,33.24c-0.22,0-0.41,0.07-0.56,0.22c-0.15,0.15-0.23,0.35-0.25,0.59h1.59c-0.02-0.24-0.08-0.42-0.18-0.54
		C49.85,33.34,49.66,33.24,49.41,33.24z"/>
	<path d="M63.35,33.24c-0.22,0-0.41,0.07-0.56,0.22c-0.15,0.15-0.23,0.35-0.25,0.59h1.59c-0.02-0.24-0.08-0.42-0.18-0.54
		C63.79,33.34,63.59,33.24,63.35,33.24z"/>
	<path d="M19.49,14.78v39.11h75.09V14.78H19.49z M74.69,18.44c0.1-0.23,0.24-0.43,0.42-0.61s0.37-0.32,0.58-0.4
		c0.28-0.12,0.6-0.18,0.97-0.18c0.66,0,1.19,0.2,1.58,0.61c0.4,0.41,0.59,0.98,0.59,1.71c0,0.72-0.2,1.29-0.59,1.7
		c-0.39,0.41-0.92,0.61-1.58,0.61c-0.67,0-1.2-0.2-1.59-0.61c-0.39-0.41-0.59-0.97-0.59-1.68C74.49,19.13,74.55,18.75,74.69,18.44z
		 M70.7,17.32h3.07v0.76H71.6v1.06h1.87v0.76H71.6v1.9h-0.9V17.32z M66.02,17.32h0.88l1.83,2.99v-2.99h0.84v4.48h-0.91l-1.81-2.92
		v2.92h-0.84V17.32z M64.09,17.32H65v4.48h-0.9V17.32z M57.9,17.32h3.32v0.76H58.8v0.99h2.25v0.75H58.8v1.22h2.5v0.75H57.9V17.32z
		 M54.09,17.32l1.13,3.32l1.1-3.32h0.96l-1.6,4.48h-0.97l-1.6-4.48H54.09z M51.6,17.32l1.79,4.48h-0.98l-0.39-1.02h-1.79l-0.37,1.02
		H48.9l1.74-4.48H51.6z M44.13,17.32l0.68,3.08l0.82-3.08h1.08l0.79,3.13l0.69-3.13h0.91l-1.09,4.48h-0.96l-0.89-3.35l-0.89,3.35
		h-0.98l-1.07-4.48H44.13z M39.27,20.99l2.35-2.91h-2.09v-0.76h3.28v0.7l-2.45,3.02h2.55v0.75h-3.64V20.99z M39.05,22.6h39.89v0.78
		H39.05V22.6z M63.82,40.36c-0.22,0.13-0.41,0.22-0.58,0.28v-0.53c0.31-0.14,0.58-0.32,0.81-0.53c0.23-0.21,0.39-0.41,0.49-0.6h0.35
		v4.5h-0.55v-3.5C64.21,40.11,64.04,40.24,63.82,40.36z M39.13,37.67v-0.78h25.81v0.78H39.13z M55.7,40.87v-0.63h0.63v0.63H55.7z
		 M56.33,42.86v0.63H55.7v-0.63H56.33z M52.75,41.22c0,0.34-0.04,0.64-0.12,0.9c-0.08,0.26-0.18,0.48-0.31,0.65
		c-0.12,0.17-0.26,0.31-0.41,0.41c-0.15,0.1-0.33,0.17-0.53,0.22c-0.21,0.05-0.45,0.08-0.72,0.08h-1.62v-4.48h1.54
		c0.35,0,0.61,0.02,0.8,0.06c0.26,0.06,0.48,0.17,0.66,0.32c0.24,0.2,0.41,0.45,0.53,0.77C52.69,40.47,52.75,40.83,52.75,41.22z
		 M41,32.41c-0.14-0.13-0.31-0.2-0.53-0.2c-0.23,0-0.42,0.07-0.56,0.21S39.7,32.75,39.7,33l-0.49-0.05
		c0.03-0.37,0.16-0.65,0.38-0.84c0.22-0.19,0.52-0.29,0.89-0.29c0.38,0,0.67,0.1,0.89,0.31c0.22,0.21,0.33,0.47,0.33,0.78
		c0,0.16-0.03,0.31-0.1,0.46s-0.17,0.31-0.32,0.48c-0.15,0.17-0.4,0.4-0.74,0.69c-0.29,0.24-0.47,0.41-0.56,0.49
		c-0.08,0.09-0.15,0.17-0.2,0.26h1.92v0.46h-2.59c0-0.12,0.02-0.23,0.06-0.33c0.07-0.18,0.17-0.35,0.32-0.52
		c0.15-0.17,0.36-0.37,0.63-0.59c0.43-0.35,0.71-0.63,0.86-0.83c0.15-0.2,0.22-0.4,0.22-0.58C41.2,32.7,41.14,32.54,41,32.41z
		 M47.36,29.4v0.63h-0.63V29.4H47.36z M46.74,27.41v-0.63h0.63v0.63H46.74z M46.75,31.94c0.18,0.07,0.33,0.19,0.44,0.37
		c0.11,0.18,0.16,0.38,0.16,0.59c0,0.28-0.09,0.51-0.27,0.7c-0.18,0.19-0.46,0.31-0.83,0.36c0.14,0.07,0.24,0.13,0.31,0.2
		c0.15,0.14,0.29,0.31,0.43,0.52l0.68,1.07h-0.65l-0.52-0.82c-0.15-0.24-0.28-0.42-0.37-0.54c-0.1-0.12-0.19-0.21-0.26-0.26
		c-0.08-0.05-0.16-0.08-0.24-0.1c-0.06-0.01-0.16-0.02-0.29-0.02h-0.6v1.74h-0.52v-3.92h1.74C46.31,31.83,46.57,31.87,46.75,31.94z
		 M46.58,26.08H45.1v3.95h-0.59v-3.95h-1.48v-0.53h3.55V26.08z M48.84,35.17c0.16,0.17,0.36,0.25,0.59,0.25
		c0.18,0,0.33-0.05,0.45-0.14c0.12-0.09,0.22-0.24,0.3-0.44l0.5,0.06c-0.08,0.29-0.22,0.52-0.44,0.68
		c-0.21,0.16-0.48,0.24-0.81,0.24c-0.42,0-0.74-0.13-0.99-0.38c-0.24-0.26-0.36-0.61-0.36-1.08c0-0.48,0.12-0.85,0.37-1.11
		c0.25-0.26,0.56-0.4,0.96-0.4c0.38,0,0.69,0.13,0.93,0.39s0.36,0.62,0.36,1.09c0,0.03,0,0.07,0,0.13h-2.12
		C48.6,34.77,48.68,35.01,48.84,35.17z M52.21,32.98c0.15-0.08,0.32-0.13,0.51-0.13c0.21,0,0.38,0.04,0.52,0.13
		c0.13,0.09,0.23,0.21,0.28,0.37c0.22-0.33,0.52-0.5,0.88-0.5c0.28,0,0.5,0.08,0.65,0.23c0.15,0.16,0.23,0.4,0.23,0.72v1.95h-0.48
		v-1.79c0-0.19-0.02-0.33-0.05-0.42c-0.03-0.08-0.09-0.15-0.17-0.2s-0.18-0.08-0.29-0.08c-0.2,0-0.37,0.07-0.5,0.2
		c-0.13,0.13-0.2,0.35-0.2,0.64v1.65h-0.48v-1.84c0-0.21-0.04-0.37-0.12-0.48c-0.08-0.11-0.21-0.16-0.38-0.16
		c-0.14,0-0.26,0.04-0.38,0.11c-0.11,0.07-0.2,0.18-0.25,0.31c-0.05,0.14-0.08,0.33-0.08,0.59v1.47h-0.48v-2.84h0.43v0.4
		C51.94,33.17,52.06,33.06,52.21,32.98z M55.94,34.33c0-0.53,0.15-0.92,0.44-1.17c0.24-0.21,0.54-0.32,0.89-0.32
		c0.39,0,0.71,0.13,0.96,0.38c0.25,0.26,0.37,0.61,0.37,1.06c0,0.37-0.05,0.65-0.16,0.86c-0.11,0.21-0.27,0.37-0.48,0.49
		c-0.21,0.12-0.44,0.17-0.69,0.17c-0.4,0-0.72-0.13-0.96-0.38C56.06,35.18,55.94,34.81,55.94,34.33z M59.01,32.91h0.51l0.61,1.7
		c0.07,0.18,0.13,0.37,0.18,0.57c0.04-0.15,0.1-0.33,0.18-0.54l0.63-1.73h0.49l-1.07,2.84h-0.45L59.01,32.91z M62.78,35.17
		c0.16,0.17,0.36,0.25,0.59,0.25c0.18,0,0.33-0.05,0.45-0.14c0.12-0.09,0.22-0.24,0.3-0.44l0.5,0.06c-0.08,0.29-0.22,0.52-0.44,0.68
		c-0.21,0.16-0.48,0.24-0.81,0.24c-0.42,0-0.74-0.13-0.99-0.38c-0.24-0.26-0.36-0.61-0.36-1.08c0-0.48,0.12-0.85,0.37-1.11
		c0.25-0.26,0.56-0.4,0.96-0.4c0.38,0,0.69,0.13,0.93,0.39s0.36,0.62,0.36,1.09c0,0.03,0,0.07,0,0.13h-2.12
		C62.53,34.77,62.62,35.01,62.78,35.17z M38.79,26.54c0.18-0.35,0.43-0.61,0.76-0.79c0.33-0.18,0.69-0.27,1.09-0.27
		c0.45,0,0.82,0.11,1.13,0.34s0.52,0.55,0.64,0.96l-0.58,0.14c-0.1-0.33-0.25-0.56-0.45-0.71c-0.2-0.15-0.45-0.22-0.75-0.22
		c-0.34,0-0.63,0.08-0.86,0.25c-0.23,0.16-0.39,0.39-0.49,0.66c-0.09,0.28-0.14,0.56-0.14,0.86c0,0.38,0.06,0.71,0.17,1
		c0.11,0.28,0.28,0.5,0.52,0.64c0.23,0.14,0.49,0.21,0.76,0.21c0.33,0,0.61-0.1,0.84-0.29s0.39-0.48,0.47-0.85l0.59,0.15
		c-0.12,0.49-0.35,0.86-0.67,1.11c-0.32,0.26-0.72,0.38-1.18,0.38c-0.48,0-0.88-0.1-1.18-0.29c-0.3-0.2-0.53-0.48-0.69-0.85
		c-0.16-0.37-0.24-0.77-0.24-1.2C38.52,27.29,38.61,26.88,38.79,26.54z M34.38,25.55h3.24v0.53h-2.65v1.37h2.48v0.53h-2.48v1.52
		h2.75v0.53h-3.34V25.55z M34.25,32.85c0.17,0,0.32,0.04,0.46,0.11c0.13,0.07,0.24,0.17,0.33,0.28v-1.41h0.48v3.92h-0.45v-0.36
		c-0.18,0.28-0.44,0.42-0.79,0.42c-0.23,0-0.43-0.06-0.62-0.19c-0.19-0.12-0.34-0.3-0.44-0.52c-0.1-0.22-0.16-0.48-0.16-0.77
		c0-0.28,0.05-0.54,0.14-0.77c0.09-0.23,0.24-0.41,0.43-0.53C33.81,32.91,34.02,32.85,34.25,32.85z M34.01,40.24L33,43.49h-0.57
		l-0.52-1.94l-0.13-0.55l-0.66,2.5h-0.57l-0.99-3.24h0.57l0.52,1.87l0.19,0.7c0.01-0.03,0.06-0.26,0.17-0.67l0.52-1.9h0.57
		l0.49,1.88l0.16,0.62l0.19-0.63l0.56-1.88H34.01z M30.7,25.55h0.59v3.95h2.21v0.53h-2.8V25.55z M30.01,33.56
		c0.09-0.23,0.24-0.41,0.43-0.53s0.4-0.18,0.63-0.18c0.17,0,0.32,0.04,0.46,0.11c0.13,0.07,0.24,0.17,0.33,0.28v-1.41h0.48v3.92
		h-0.45v-0.36c-0.18,0.28-0.44,0.42-0.79,0.42c-0.23,0-0.43-0.06-0.62-0.19c-0.19-0.12-0.34-0.3-0.44-0.52
		c-0.1-0.22-0.16-0.48-0.16-0.77C29.87,34.05,29.92,33.79,30.01,33.56z M26.41,25.55h3.24v0.53H27v1.37h2.48v0.53H27v1.52h2.75v0.53
		h-3.34V25.55z M27.39,31.83h0.56l1.6,3.92h-0.59l-0.46-1.19h-1.64l-0.43,1.19h-0.55L27.39,31.83z M23.4,35.75h-0.48v-3.07
		c-0.12,0.11-0.27,0.22-0.46,0.33c-0.19,0.11-0.36,0.19-0.51,0.25V32.8c0.27-0.13,0.5-0.28,0.71-0.46c0.2-0.18,0.34-0.35,0.43-0.52
		h0.31V35.75z M22.76,29.93c-0.27-0.12-0.49-0.3-0.64-0.53s-0.24-0.51-0.25-0.81l0.56-0.05c0.03,0.22,0.09,0.41,0.18,0.55
		c0.1,0.14,0.25,0.26,0.45,0.35c0.2,0.09,0.43,0.13,0.69,0.13c0.23,0,0.43-0.03,0.6-0.1c0.17-0.07,0.3-0.16,0.39-0.28
		c0.08-0.12,0.13-0.24,0.13-0.38c0-0.14-0.04-0.26-0.12-0.37c-0.08-0.11-0.22-0.19-0.4-0.26c-0.12-0.05-0.39-0.12-0.8-0.22
		s-0.7-0.19-0.86-0.28c-0.21-0.11-0.37-0.25-0.48-0.42c-0.11-0.17-0.16-0.35-0.16-0.56c0-0.23,0.06-0.44,0.19-0.63
		c0.13-0.2,0.32-0.35,0.56-0.45s0.52-0.15,0.82-0.15c0.33,0,0.62,0.05,0.88,0.16c0.25,0.11,0.45,0.26,0.59,0.47
		c0.14,0.21,0.21,0.44,0.22,0.71l-0.57,0.04c-0.03-0.28-0.13-0.5-0.31-0.64S23.98,26,23.64,26c-0.36,0-0.62,0.07-0.78,0.2
		c-0.16,0.13-0.25,0.29-0.25,0.48c0,0.16,0.06,0.29,0.17,0.4c0.11,0.1,0.41,0.21,0.89,0.32s0.81,0.2,0.99,0.29
		c0.26,0.12,0.45,0.27,0.58,0.46c0.12,0.18,0.19,0.4,0.19,0.64c0,0.24-0.07,0.46-0.2,0.67c-0.14,0.21-0.33,0.37-0.59,0.49
		c-0.26,0.12-0.54,0.18-0.86,0.18C23.37,30.11,23.03,30.05,22.76,29.93z M23.79,42.94l2.29-2.87c0.16-0.2,0.32-0.38,0.46-0.53h-2.5
		v-0.53h3.21v0.53l-2.51,3.11l-0.27,0.31h2.86v0.53h-3.54V42.94z M27.64,49.94c-0.14,0.21-0.33,0.37-0.59,0.49
		c-0.26,0.12-0.54,0.18-0.86,0.18c-0.41,0-0.75-0.06-1.02-0.18c-0.27-0.12-0.49-0.3-0.64-0.53c-0.16-0.24-0.24-0.51-0.25-0.81
		l0.56-0.05c0.03,0.22,0.09,0.41,0.18,0.55c0.1,0.14,0.25,0.26,0.45,0.35c0.2,0.09,0.43,0.13,0.69,0.13c0.23,0,0.43-0.03,0.6-0.1
		c0.17-0.07,0.3-0.16,0.39-0.28s0.13-0.24,0.13-0.38c0-0.14-0.04-0.26-0.12-0.37c-0.08-0.11-0.22-0.19-0.4-0.26
		c-0.12-0.05-0.39-0.12-0.8-0.22c-0.41-0.1-0.7-0.19-0.86-0.28c-0.21-0.11-0.37-0.25-0.48-0.42c-0.11-0.17-0.16-0.35-0.16-0.56
		c0-0.23,0.06-0.44,0.19-0.63c0.13-0.2,0.32-0.35,0.56-0.45c0.25-0.1,0.52-0.15,0.82-0.15c0.33,0,0.62,0.05,0.88,0.16
		c0.25,0.11,0.45,0.26,0.59,0.47c0.14,0.21,0.21,0.44,0.22,0.71l-0.57,0.04c-0.03-0.28-0.13-0.5-0.31-0.64
		c-0.18-0.14-0.44-0.22-0.78-0.22c-0.36,0-0.62,0.07-0.78,0.2c-0.16,0.13-0.25,0.29-0.25,0.48c0,0.16,0.06,0.29,0.17,0.4
		c0.11,0.1,0.41,0.21,0.89,0.32c0.48,0.11,0.81,0.2,0.99,0.29c0.26,0.12,0.45,0.27,0.58,0.46s0.19,0.4,0.19,0.64
		C27.84,49.5,27.77,49.73,27.64,49.94z M29.6,50.57c-0.2,0-0.35-0.03-0.46-0.09c-0.11-0.06-0.19-0.15-0.23-0.25
		c-0.04-0.1-0.07-0.32-0.07-0.65v-1.87h-0.4v-0.43h0.4v-0.8l0.55-0.33v1.13h0.55v0.43h-0.55v1.9c0,0.16,0.01,0.26,0.03,0.3
		s0.05,0.08,0.09,0.11s0.11,0.04,0.19,0.04c0.06,0,0.14-0.01,0.24-0.02l0.08,0.49C29.86,50.55,29.72,50.57,29.6,50.57z M32.86,50.53
		c-0.06-0.11-0.09-0.25-0.11-0.4c-0.2,0.17-0.4,0.3-0.59,0.37s-0.39,0.11-0.61,0.11c-0.36,0-0.63-0.09-0.82-0.26
		s-0.29-0.4-0.29-0.67c0-0.16,0.04-0.3,0.11-0.44c0.07-0.13,0.17-0.24,0.28-0.32c0.12-0.08,0.25-0.14,0.4-0.18
		c0.11-0.03,0.27-0.06,0.49-0.08c0.44-0.05,0.77-0.12,0.98-0.19c0-0.08,0-0.12,0-0.14c0-0.22-0.05-0.38-0.16-0.47
		c-0.14-0.12-0.35-0.19-0.63-0.19c-0.26,0-0.45,0.05-0.57,0.14c-0.12,0.09-0.21,0.25-0.27,0.48l-0.54-0.07
		c0.05-0.23,0.13-0.42,0.24-0.56c0.11-0.14,0.27-0.25,0.49-0.33c0.21-0.08,0.46-0.11,0.74-0.11c0.28,0,0.5,0.03,0.68,0.1
		c0.17,0.07,0.3,0.15,0.38,0.25c0.08,0.1,0.14,0.22,0.17,0.37c0.02,0.09,0.03,0.26,0.03,0.51v0.73c0,0.51,0.01,0.83,0.04,0.97
		s0.07,0.27,0.14,0.39H32.86z M35.13,50.57c-0.2,0-0.35-0.03-0.46-0.09c-0.11-0.06-0.19-0.15-0.23-0.25
		c-0.04-0.1-0.07-0.32-0.07-0.65v-1.87h-0.4v-0.43h0.4v-0.8l0.55-0.33v1.13h0.55v0.43h-0.55v1.9c0,0.16,0.01,0.26,0.03,0.3
		s0.05,0.08,0.09,0.11c0.04,0.03,0.11,0.04,0.19,0.04c0.06,0,0.14-0.01,0.24-0.02l0.08,0.49C35.39,50.55,35.26,50.57,35.13,50.57z
		 M34.73,43.3c-0.19-0.17-0.29-0.4-0.29-0.67c0-0.16,0.04-0.3,0.11-0.44c0.07-0.13,0.17-0.24,0.28-0.32
		c0.12-0.08,0.25-0.14,0.4-0.18c0.11-0.03,0.27-0.06,0.49-0.08c0.44-0.05,0.77-0.12,0.98-0.19c0-0.08,0-0.12,0-0.14
		c0-0.22-0.05-0.38-0.16-0.47c-0.14-0.12-0.35-0.19-0.63-0.19c-0.26,0-0.45,0.05-0.57,0.14s-0.21,0.25-0.27,0.48l-0.54-0.07
		c0.05-0.23,0.13-0.42,0.24-0.56c0.11-0.14,0.27-0.25,0.49-0.33c0.21-0.08,0.46-0.11,0.74-0.11c0.28,0,0.5,0.03,0.68,0.1
		c0.17,0.07,0.3,0.15,0.38,0.25c0.08,0.1,0.14,0.22,0.17,0.37c0.02,0.09,0.03,0.26,0.03,0.51v0.73c0,0.51,0.01,0.83,0.04,0.97
		c0.02,0.14,0.07,0.27,0.14,0.39h-0.57c-0.06-0.11-0.09-0.25-0.11-0.4c-0.2,0.17-0.4,0.3-0.59,0.37s-0.39,0.11-0.61,0.11
		C35.2,43.56,34.92,43.47,34.73,43.3z M38.78,50.53h-0.49v-0.48c-0.25,0.37-0.6,0.55-1.03,0.55c-0.19,0-0.37-0.04-0.54-0.11
		s-0.29-0.17-0.37-0.28c-0.08-0.11-0.14-0.25-0.17-0.41c-0.02-0.11-0.03-0.28-0.03-0.51v-2.01h0.55v1.8c0,0.29,0.01,0.48,0.03,0.58
		c0.03,0.14,0.11,0.26,0.22,0.34c0.11,0.08,0.25,0.12,0.42,0.12s0.32-0.04,0.46-0.13s0.25-0.2,0.31-0.35
		c0.06-0.15,0.09-0.36,0.09-0.63v-1.74h0.55V50.53z M37.93,40.24h0.58l0.7,1.94c0.08,0.21,0.14,0.43,0.21,0.65
		c0.05-0.17,0.12-0.38,0.2-0.62l0.72-1.98h0.57l-1.23,3.24h-0.51L37.93,40.24z M42.11,50.09c-0.11,0.16-0.26,0.29-0.46,0.38
		c-0.2,0.09-0.43,0.13-0.68,0.13c-0.42,0-0.74-0.09-0.96-0.26s-0.36-0.44-0.42-0.78l0.54-0.09c0.03,0.22,0.12,0.38,0.26,0.5
		c0.14,0.12,0.33,0.17,0.59,0.17c0.25,0,0.44-0.05,0.56-0.15c0.12-0.1,0.18-0.22,0.18-0.36c0-0.12-0.05-0.22-0.16-0.29
		c-0.08-0.05-0.26-0.11-0.56-0.19c-0.4-0.1-0.68-0.19-0.84-0.26c-0.16-0.07-0.27-0.18-0.35-0.31c-0.08-0.13-0.12-0.28-0.12-0.44
		c0-0.14,0.03-0.28,0.1-0.4c0.07-0.12,0.16-0.23,0.27-0.31c0.09-0.06,0.2-0.12,0.35-0.16c0.15-0.04,0.31-0.07,0.48-0.07
		c0.25,0,0.48,0.04,0.67,0.11c0.19,0.07,0.33,0.17,0.43,0.3s0.15,0.29,0.19,0.5l-0.54,0.07c-0.02-0.17-0.1-0.3-0.21-0.39
		s-0.28-0.14-0.5-0.14c-0.25,0-0.43,0.04-0.54,0.13c-0.11,0.08-0.16,0.18-0.16,0.29c0,0.07,0.02,0.14,0.07,0.19
		c0.04,0.06,0.11,0.11,0.21,0.15c0.05,0.02,0.22,0.07,0.49,0.14c0.39,0.1,0.66,0.19,0.81,0.26c0.15,0.07,0.27,0.16,0.36,0.29
		s0.13,0.28,0.13,0.47C42.27,49.76,42.22,49.93,42.11,50.09z M44.36,42.01h-2.42c0.02,0.36,0.12,0.63,0.3,0.82
		c0.18,0.19,0.41,0.28,0.68,0.28c0.2,0,0.37-0.05,0.52-0.16c0.14-0.11,0.26-0.27,0.34-0.51l0.57,0.07c-0.09,0.33-0.26,0.59-0.5,0.77
		c-0.24,0.18-0.55,0.27-0.93,0.27c-0.47,0-0.85-0.15-1.13-0.44s-0.42-0.7-0.42-1.23c0-0.55,0.14-0.97,0.42-1.27
		c0.28-0.3,0.65-0.45,1.09-0.45c0.43,0,0.79,0.15,1.06,0.44c0.27,0.3,0.41,0.71,0.41,1.25C44.36,41.89,44.36,41.94,44.36,42.01z
		 M45.76,50.53h-0.63V49.9h0.63V50.53z M45.76,47.91h-0.63v-0.63h0.63V47.91z M47.85,43.49h-0.59v-4.48h0.59V43.49z M49.53,50.53
		h-0.59v-4.48h0.59V50.53z M53.3,50.53h-0.55v-1.97c0-0.22-0.02-0.39-0.06-0.5c-0.04-0.11-0.12-0.2-0.23-0.27
		c-0.11-0.07-0.24-0.1-0.38-0.1c-0.23,0-0.44,0.07-0.61,0.22c-0.17,0.15-0.26,0.43-0.26,0.85v1.77h-0.55v-3.24h0.49v0.46
		c0.24-0.36,0.58-0.53,1.03-0.53c0.2,0,0.38,0.04,0.54,0.11c0.16,0.07,0.29,0.16,0.37,0.28s0.14,0.25,0.17,0.41
		c0.02,0.1,0.03,0.28,0.03,0.53V50.53z M56.51,50.29c-0.24,0.21-0.54,0.32-0.9,0.32c-0.44,0-0.8-0.15-1.07-0.44
		c-0.27-0.29-0.4-0.71-0.4-1.25c0-0.35,0.06-0.66,0.17-0.92c0.12-0.26,0.29-0.46,0.53-0.59c0.24-0.13,0.5-0.2,0.77-0.2
		c0.35,0,0.64,0.09,0.86,0.27s0.37,0.43,0.43,0.76l-0.53,0.08c-0.05-0.22-0.14-0.38-0.27-0.49s-0.29-0.16-0.47-0.16
		c-0.28,0-0.5,0.1-0.68,0.3c-0.17,0.2-0.26,0.51-0.26,0.94c0,0.44,0.08,0.75,0.25,0.95c0.17,0.2,0.38,0.3,0.65,0.3
		c0.22,0,0.4-0.07,0.54-0.2s0.24-0.34,0.27-0.61l0.54,0.07C56.9,49.78,56.75,50.07,56.51,50.29z M58.12,50.53h-0.55v-4.48h0.55
		V50.53z M61.75,50.53h-0.49v-0.48c-0.25,0.37-0.6,0.55-1.03,0.55c-0.19,0-0.37-0.04-0.54-0.11c-0.17-0.07-0.29-0.17-0.37-0.28
		c-0.08-0.11-0.14-0.25-0.17-0.41c-0.02-0.11-0.03-0.28-0.03-0.51v-2.01h0.55v1.8c0,0.29,0.01,0.48,0.03,0.58
		c0.03,0.14,0.11,0.26,0.22,0.34c0.11,0.08,0.25,0.12,0.42,0.12s0.32-0.04,0.46-0.13c0.14-0.08,0.25-0.2,0.31-0.35
		c0.06-0.15,0.09-0.36,0.09-0.63v-1.74h0.55V50.53z M61.94,42.55c-0.11,0.32-0.27,0.57-0.48,0.75c-0.22,0.18-0.49,0.26-0.81,0.26
		c-0.43,0-0.77-0.15-1.02-0.46c-0.3-0.37-0.44-0.98-0.44-1.82c0-0.53,0.05-0.96,0.16-1.28c0.11-0.32,0.27-0.57,0.49-0.75
		c0.22-0.18,0.49-0.26,0.81-0.26c0.24,0,0.45,0.05,0.63,0.15c0.18,0.1,0.33,0.24,0.45,0.42c0.12,0.18,0.21,0.4,0.28,0.67
		c0.07,0.26,0.1,0.61,0.1,1.06C62.11,41.81,62.05,42.23,61.94,42.55z M65.08,50.09c-0.11,0.16-0.26,0.29-0.46,0.38
		c-0.2,0.09-0.43,0.13-0.68,0.13c-0.42,0-0.74-0.09-0.96-0.26c-0.22-0.18-0.36-0.44-0.42-0.78l0.54-0.09
		c0.03,0.22,0.12,0.38,0.26,0.5c0.14,0.12,0.33,0.17,0.59,0.17c0.25,0,0.44-0.05,0.56-0.15c0.12-0.1,0.18-0.22,0.18-0.36
		c0-0.12-0.05-0.22-0.16-0.29c-0.08-0.05-0.26-0.11-0.56-0.19c-0.4-0.1-0.68-0.19-0.84-0.26s-0.27-0.18-0.35-0.31
		c-0.08-0.13-0.12-0.28-0.12-0.44c0-0.14,0.03-0.28,0.1-0.4c0.07-0.12,0.16-0.23,0.27-0.31c0.09-0.06,0.2-0.12,0.35-0.16
		c0.15-0.04,0.31-0.07,0.48-0.07c0.25,0,0.48,0.04,0.67,0.11c0.19,0.07,0.33,0.17,0.43,0.3s0.15,0.29,0.19,0.5l-0.54,0.07
		c-0.02-0.17-0.1-0.3-0.21-0.39s-0.28-0.14-0.5-0.14c-0.25,0-0.43,0.04-0.54,0.13c-0.11,0.08-0.16,0.18-0.16,0.29
		c0,0.07,0.02,0.14,0.07,0.19c0.04,0.06,0.11,0.11,0.21,0.15c0.05,0.02,0.22,0.07,0.49,0.14c0.39,0.1,0.66,0.19,0.81,0.26
		c0.15,0.07,0.27,0.16,0.36,0.29c0.09,0.13,0.13,0.28,0.13,0.47C65.24,49.76,65.19,49.93,65.08,50.09z M66.61,50.53h-0.55v-3.24
		h0.55V50.53z M66.61,46.68h-0.55v-0.63h0.55V46.68z M66.46,42.32l0.58-0.05c0.04,0.28,0.14,0.49,0.3,0.63s0.34,0.21,0.56,0.21
		c0.26,0,0.49-0.1,0.67-0.3c0.18-0.2,0.27-0.46,0.27-0.79c0-0.31-0.09-0.56-0.26-0.74C68.4,41.1,68.17,41,67.89,41
		c-0.18,0-0.34,0.04-0.48,0.12c-0.14,0.08-0.25,0.18-0.34,0.31l-0.52-0.07l0.43-2.3h2.23v0.53h-1.79l-0.24,1.2
		c0.27-0.19,0.55-0.28,0.85-0.28c0.39,0,0.72,0.14,0.99,0.41c0.27,0.27,0.4,0.62,0.4,1.04c0,0.41-0.12,0.76-0.35,1.05
		c-0.29,0.36-0.68,0.54-1.18,0.54c-0.41,0-0.74-0.11-1-0.34C66.64,42.99,66.49,42.69,66.46,42.32z M70.25,49.85
		c-0.13,0.24-0.31,0.43-0.55,0.56c-0.24,0.13-0.5,0.2-0.78,0.2c-0.45,0-0.82-0.15-1.1-0.44s-0.42-0.71-0.42-1.26
		c0-0.6,0.17-1.05,0.5-1.34c0.28-0.24,0.62-0.36,1.02-0.36c0.45,0,0.81,0.15,1.09,0.44c0.28,0.29,0.42,0.7,0.42,1.21
		C70.44,49.28,70.37,49.61,70.25,49.85z M70.74,35.46c-0.25,0.24-0.56,0.36-0.95,0.36c-0.34,0-0.63-0.1-0.86-0.31
		c-0.23-0.21-0.36-0.47-0.39-0.8l0.48-0.06c0.06,0.27,0.15,0.47,0.28,0.59c0.13,0.12,0.29,0.18,0.49,0.18
		c0.23,0,0.42-0.08,0.57-0.24c0.16-0.16,0.23-0.35,0.23-0.58c0-0.22-0.07-0.4-0.22-0.55c-0.14-0.14-0.33-0.22-0.55-0.22
		c-0.09,0-0.2,0.02-0.34,0.05l0.05-0.42c0.03,0,0.06,0.01,0.08,0.01c0.21,0,0.39-0.05,0.55-0.16s0.25-0.27,0.25-0.49
		c0-0.18-0.06-0.32-0.18-0.44c-0.12-0.12-0.27-0.17-0.46-0.17c-0.19,0-0.34,0.06-0.47,0.18c-0.12,0.12-0.21,0.29-0.24,0.53
		l-0.48-0.09c0.06-0.32,0.19-0.57,0.4-0.75c0.21-0.18,0.47-0.27,0.78-0.27c0.21,0,0.41,0.05,0.59,0.14
		c0.18,0.09,0.32,0.22,0.41,0.38c0.1,0.16,0.14,0.33,0.14,0.51c0,0.17-0.05,0.32-0.14,0.46s-0.23,0.25-0.4,0.33
		c0.23,0.05,0.41,0.16,0.54,0.33c0.13,0.17,0.19,0.38,0.19,0.63C71.11,34.94,70.99,35.23,70.74,35.46z M73.87,50.53h-0.55v-1.97
		c0-0.22-0.02-0.39-0.06-0.5c-0.04-0.11-0.12-0.2-0.23-0.27c-0.11-0.07-0.24-0.1-0.38-0.1c-0.23,0-0.44,0.07-0.61,0.22
		s-0.26,0.43-0.26,0.85v1.77h-0.55v-3.24h0.49v0.46c0.24-0.36,0.58-0.53,1.03-0.53c0.2,0,0.38,0.04,0.54,0.11
		c0.16,0.07,0.29,0.16,0.37,0.28c0.08,0.11,0.14,0.25,0.17,0.41c0.02,0.1,0.03,0.28,0.03,0.53V50.53z M76.39,35.75l-0.52-0.82
		c-0.15-0.24-0.28-0.42-0.37-0.54c-0.1-0.12-0.19-0.21-0.26-0.26c-0.08-0.05-0.16-0.08-0.24-0.1c-0.06-0.01-0.16-0.02-0.29-0.02
		h-0.6v1.74h-0.52v-3.92h1.74c0.35,0,0.61,0.04,0.8,0.11c0.18,0.07,0.33,0.19,0.44,0.37s0.16,0.38,0.16,0.59
		c0,0.28-0.09,0.51-0.27,0.7c-0.18,0.19-0.46,0.31-0.83,0.36c0.14,0.07,0.24,0.13,0.31,0.2c0.15,0.14,0.29,0.31,0.43,0.52l0.68,1.07
		H76.39z M80.06,34.46h-2.12c0.02,0.31,0.11,0.55,0.26,0.72c0.16,0.17,0.36,0.25,0.59,0.25c0.18,0,0.33-0.05,0.45-0.14
		s0.22-0.24,0.3-0.44l0.5,0.06c-0.08,0.29-0.22,0.52-0.44,0.68c-0.21,0.16-0.48,0.24-0.81,0.24c-0.42,0-0.74-0.13-0.99-0.38
		c-0.24-0.26-0.36-0.61-0.36-1.08c0-0.48,0.12-0.85,0.37-1.11c0.25-0.26,0.56-0.4,0.96-0.4c0.38,0,0.69,0.13,0.93,0.39
		c0.24,0.26,0.36,0.62,0.36,1.09C80.06,34.36,80.06,34.4,80.06,34.46z M82.81,35.37c-0.09,0.14-0.23,0.25-0.41,0.33
		c-0.18,0.08-0.38,0.12-0.6,0.12c-0.37,0-0.65-0.08-0.84-0.23c-0.19-0.15-0.32-0.38-0.37-0.68l0.48-0.07
		c0.03,0.19,0.1,0.34,0.22,0.44c0.12,0.1,0.29,0.15,0.51,0.15c0.22,0,0.38-0.05,0.49-0.14c0.11-0.09,0.16-0.2,0.16-0.32
		c0-0.11-0.05-0.19-0.14-0.26c-0.07-0.04-0.23-0.1-0.49-0.16c-0.35-0.09-0.6-0.17-0.73-0.23c-0.14-0.06-0.24-0.16-0.31-0.27
		c-0.07-0.12-0.11-0.24-0.11-0.38c0-0.13,0.03-0.24,0.09-0.35c0.06-0.11,0.14-0.2,0.24-0.27c0.07-0.06,0.18-0.1,0.31-0.14
		c0.13-0.04,0.27-0.06,0.42-0.06c0.22,0,0.42,0.03,0.59,0.1c0.17,0.06,0.29,0.15,0.37,0.26c0.08,0.11,0.14,0.26,0.17,0.44
		l-0.47,0.06c-0.02-0.15-0.08-0.26-0.19-0.34c-0.1-0.08-0.25-0.12-0.43-0.12c-0.22,0-0.38,0.04-0.47,0.11
		c-0.09,0.07-0.14,0.16-0.14,0.26c0,0.06,0.02,0.12,0.06,0.17c0.04,0.05,0.1,0.09,0.18,0.13c0.05,0.02,0.19,0.06,0.43,0.12
		c0.34,0.09,0.58,0.17,0.71,0.22c0.13,0.06,0.24,0.14,0.32,0.25c0.08,0.11,0.11,0.25,0.11,0.41C82.95,35.08,82.91,35.23,82.81,35.37
		z M86.12,34.46H84c0.02,0.31,0.11,0.55,0.26,0.72c0.16,0.17,0.36,0.25,0.59,0.25c0.18,0,0.33-0.05,0.45-0.14
		c0.12-0.09,0.22-0.24,0.3-0.44l0.5,0.06c-0.08,0.29-0.22,0.52-0.44,0.68c-0.21,0.16-0.48,0.24-0.81,0.24
		c-0.42,0-0.74-0.13-0.99-0.38c-0.24-0.26-0.36-0.61-0.36-1.08c0-0.48,0.12-0.85,0.37-1.11c0.25-0.26,0.56-0.4,0.96-0.4
		c0.38,0,0.69,0.13,0.93,0.39s0.36,0.62,0.36,1.09C86.12,34.36,86.12,34.4,86.12,34.46z M87.6,35.79c-0.17,0-0.31-0.03-0.41-0.08
		c-0.1-0.06-0.16-0.13-0.2-0.22c-0.04-0.09-0.06-0.28-0.06-0.57v-1.63h-0.35v-0.37h0.35v-0.7l0.48-0.29v0.99h0.48v0.37h-0.48v1.66
		c0,0.14,0.01,0.23,0.03,0.26c0.02,0.04,0.04,0.07,0.08,0.09c0.04,0.02,0.09,0.03,0.16,0.03c0.05,0,0.12-0.01,0.21-0.02l0.07,0.43
		C87.83,35.78,87.71,35.79,87.6,35.79z"/>
	<path d="M44.74,33.56h1.11c0.24,0,0.42-0.02,0.56-0.07c0.13-0.05,0.24-0.13,0.3-0.24c0.07-0.11,0.1-0.22,0.1-0.35
		c0-0.19-0.07-0.34-0.2-0.46c-0.13-0.12-0.35-0.18-0.64-0.18h-1.24V33.56z"/>
	<path d="M78.78,33.24c-0.22,0-0.41,0.07-0.56,0.22c-0.15,0.15-0.23,0.35-0.25,0.59h1.59c-0.02-0.24-0.08-0.42-0.18-0.54
		C79.22,33.34,79.02,33.24,78.78,33.24z"/>
	<path d="M76.08,33.25c0.07-0.11,0.1-0.22,0.1-0.35c0-0.19-0.07-0.34-0.2-0.46c-0.13-0.12-0.35-0.18-0.64-0.18H74.1v1.3h1.11
		c0.24,0,0.42-0.02,0.56-0.07C75.91,33.44,76.01,33.36,76.08,33.25z"/>
	<path d="M84.83,33.24c-0.22,0-0.41,0.07-0.56,0.22c-0.15,0.15-0.23,0.35-0.25,0.59h1.59c-0.02-0.24-0.08-0.42-0.18-0.54
		C85.28,33.34,85.08,33.24,84.83,33.24z"/>
	<path d="M34.32,35.42c0.21,0,0.39-0.09,0.54-0.26c0.15-0.17,0.22-0.43,0.22-0.79c0-0.39-0.07-0.67-0.22-0.86s-0.33-0.27-0.55-0.27
		c-0.21,0-0.39,0.09-0.54,0.26c-0.14,0.17-0.22,0.45-0.22,0.83c0,0.36,0.08,0.64,0.23,0.82C33.93,35.33,34.11,35.42,34.32,35.42z"/>
	<path d="M31.14,35.42c0.21,0,0.39-0.09,0.54-0.26c0.15-0.17,0.22-0.43,0.22-0.79c0-0.39-0.07-0.67-0.22-0.86
		c-0.15-0.18-0.33-0.27-0.55-0.27c-0.21,0-0.39,0.09-0.54,0.26c-0.14,0.17-0.22,0.45-0.22,0.83c0,0.36,0.08,0.64,0.23,0.82
		C30.75,35.33,30.93,35.42,31.14,35.42z"/>
	<polygon points="51.11,18.37 50.51,20.03 51.73,20.03 	"/>
	<path d="M42.89,40.62c-0.25,0-0.46,0.08-0.64,0.25c-0.17,0.17-0.27,0.4-0.29,0.68h1.81c-0.02-0.27-0.09-0.48-0.21-0.61
		C43.4,40.73,43.17,40.62,42.89,40.62z"/>
	<path d="M68.92,47.67c-0.27,0-0.5,0.1-0.68,0.31s-0.27,0.52-0.27,0.93c0,0.42,0.09,0.73,0.27,0.93c0.18,0.21,0.41,0.31,0.68,0.31
		c0.27,0,0.5-0.1,0.68-0.31s0.27-0.52,0.27-0.95c0-0.4-0.09-0.71-0.27-0.91C69.42,47.77,69.19,47.67,68.92,47.67z"/>
</g>
<path class="st0" d="M1.87,0.5h111.26c0.76,0,1.37,0.62,1.37,1.37v111.26c0,0.76-0.62,1.37-1.37,1.37H1.87
	c-0.75,0-1.37-0.62-1.37-1.37V1.87C0.5,1.12,1.12,0.5,1.87,0.5z"/>
<polygon class="st1" points="91.24,71.6 93.36,74.77 95.48,77.95 91.24,77.95 86.99,77.95 89.12,74.77 "/>
<polygon class="st1" points="91.24,102.54 93.36,99.36 95.48,96.19 91.24,96.19 86.99,96.19 89.12,99.36 "/>
<text transform="matrix(1 0 0 1 54.2499 90.8637)" class="st2 st3 st4">F</text>
<path d="M22.94,70.91c2.59-0.61,5.41,1.11,6.09,3.68c0.75,2.48-0.66,5.34-3.07,6.25c-2.36,0.98-5.32-0.07-6.5-2.34
	c-0.84-1.5-0.86-3.43-0.04-4.94C20.12,72.21,21.44,71.19,22.94,70.91 M22.92,71.94c-1.84,0.46-3.19,2.28-3.11,4.18
	c0.02,1.77,1.32,3.41,3.02,3.87c1.39,0.43,2.98,0.02,4.02-0.96c1.16-1.07,1.62-2.82,1.12-4.3C27.38,72.65,25.01,71.33,22.92,71.94z"
	/>
<path d="M23.45,74.35c0.14-0.7,0.36-1.37,0.54-2.07c0.34,1.12,0.7,2.27,0.55,3.44c0.82,0,1.59,0.34,2.39,0.5
	c-0.61,0.16-1.2,0.36-1.8,0.48c-0.57,0.07-1.12,0.02-1.7,0.04C23.45,75.96,23.42,75.15,23.45,74.35z"/>
<g>
	<path d="M23.35,91.49c2.59-0.61,5.41,1.11,6.09,3.68c0.75,2.48-0.66,5.34-3.07,6.25c-2.36,0.98-5.32-0.07-6.5-2.34
		c-0.84-1.5-0.86-3.43-0.04-4.94C20.53,92.79,21.85,91.77,23.35,91.49 M23.33,92.52c-1.84,0.46-3.19,2.28-3.11,4.18
		c0.02,1.77,1.32,3.41,3.02,3.87c1.39,0.43,2.98,0.02,4.02-0.96c1.16-1.07,1.62-2.82,1.12-4.3C27.79,93.24,25.42,91.92,23.33,92.52z
		"/>
	<text transform="matrix(1 0 0 1 21.5141 99.0776)" class="st2 st3 st5">M</text>
</g>
</svg>
