<?xml version="1.0" encoding="utf-8"?>
<!-- Generator: Adobe Illustrator 25.2.1, SVG Export Plug-In . SVG Version: 6.00 Build 0)  -->
<svg version="1.1" id="Laag_1" xmlns="http://www.w3.org/2000/svg" xmlns:xlink="http://www.w3.org/1999/xlink" x="0px" y="0px"
	 viewBox="0 0 2188.6 691.6" style="enable-background:new 0 0 2188.6 691.6;" xml:space="preserve">
<style type="text/css">
	.st0{stroke:#000000;stroke-miterlimit:22.9256;}
	.st1{font-family:'ArialMT';}
	.st2{font-size:22.9302px;}
	.st3{fill:none;stroke:#000000;stroke-miterlimit:22.9256;}
	.st4{fill:none;stroke:#0A0C06;stroke-width:10;stroke-linejoin:bevel;stroke-miterlimit:22.9256;}
	.st5{fill:none;stroke:#0A0C06;stroke-width:5;stroke-linejoin:bevel;stroke-miterlimit:22.9256;}
	.st6{fill:none;}
	.st7{fill:none;stroke:#868686;stroke-width:10;stroke-miterlimit:22.9256;}
	.st8{fill:none;stroke:#1D1D1B;stroke-width:5;stroke-miterlimit:22.9256;}
	.st9{fill:none;stroke:#1D1D1B;stroke-width:10;stroke-miterlimit:22.9256;}
	.st10{fill:#1D1D1B;}
	.st11{font-size:27.1725px;}
	.st12{stroke:#000000;stroke-width:10;stroke-miterlimit:22.9256;}
	.st13{font-size:52.844px;}
	.st14{fill:#F28A19;}
	.st15{fill:#553289;}
</style>
<g>
	<rect x="1712" y="139" class="st0" width="2.4" height="26.8"/>
	<polygon class="st0" points="1681.2,129.3 1681.2,128.5 1746.1,128.5 1746.1,175.5 1680.4,175.5 1680.4,128.5 1681.2,128.5 
		1681.2,129.3 1682,129.3 1682,173.9 1744.5,173.9 1744.5,130.1 1681.2,130.1 1681.2,129.3 1682,129.3 	"/>
	<rect x="1712" y="74.1" class="st0" width="2.4" height="26.8"/>
	<polygon class="st0" points="1681.2,64.4 1681.2,63.6 1746.1,63.6 1746.1,110.6 1680.4,110.6 1680.4,63.6 1681.2,63.6 1681.2,64.4 
		1682,64.4 1682,109 1744.5,109 1744.5,65.2 1681.2,65.2 1681.2,64.4 1682,64.4 	"/>
	<rect x="1699.9" y="216.1" class="st0" width="26.8" height="2.4"/>
	<rect x="1712" y="203.9" class="st0" width="2.4" height="26.8"/>
	<polygon class="st0" points="1681.2,194.2 1681.2,193.4 1746.1,193.4 1746.1,240.4 1680.4,240.4 1680.4,193.4 1681.2,193.4 
		1681.2,194.2 1682,194.2 1682,238.8 1744.5,238.8 1744.5,195 1681.2,195 1681.2,194.2 1682,194.2 	"/>
	<polygon class="st0" points="1682.8,388.8 1682.8,388 1747.7,388 1747.7,435.1 1682,435.1 1682,388 1682.8,388 1682.8,388.8 
		1683.6,388.8 1683.6,433.5 1746.1,433.5 1746.1,389.7 1682.8,389.7 1682.8,388.8 1683.6,388.8 	"/>
	<text transform="matrix(1 0 0 1 1704.4893 419.8335)" class="st1 st2">1-</text>
	<text transform="matrix(1 0 0 1 1704.4893 419.8335)" class="st3 st1 st2">1-</text>
	<rect x="1699.9" y="281" class="st0" width="26.8" height="2.4"/>
	<polygon class="st0" points="1681.2,259.1 1681.2,258.3 1746.1,258.3 1746.1,305.3 1680.4,305.3 1680.4,258.3 1681.2,258.3 
		1681.2,259.1 1682,259.1 1682,303.7 1744.5,303.7 1744.5,259.9 1681.2,259.9 1681.2,259.1 1682,259.1 	"/>
	<rect x="1712" y="268.8" class="st0" width="2.4" height="26.8"/>
	<polygon class="st0" points="1682.8,453.7 1682.8,452.9 1747.7,452.9 1747.7,500 1682,500 1682,452.9 1682.8,452.9 1682.8,453.7 
		1683.6,453.7 1683.6,498.3 1746.1,498.3 1746.1,454.5 1682.8,454.5 1682.8,453.7 1683.6,453.7 	"/>
	<polygon class="st0" points="1682.8,519.4 1682.8,518.6 1747.7,518.6 1747.7,564.9 1682,564.9 1682,518.6 1682.8,518.6 
		1682.8,519.4 1683.6,519.4 1683.6,563.2 1746.1,563.2 1746.1,520.2 1682.8,520.2 1682.8,519.4 1683.6,519.4 	"/>
	<polygon class="st0" points="1682.8,583.5 1682.8,582.7 1747.7,582.7 1747.7,629.7 1682,629.7 1682,582.7 1682.8,582.7 
		1682.8,583.5 1683.6,583.5 1683.6,628.1 1746.1,628.1 1746.1,584.3 1682.8,584.3 1682.8,583.5 1683.6,583.5 	"/>
	<rect x="1699.9" y="345.9" class="st0" width="26.8" height="2.4"/>
	<polygon class="st0" points="1681.2,324 1681.2,323.1 1746.1,323.1 1746.1,370.2 1680.4,370.2 1680.4,323.1 1681.2,323.1 
		1681.2,324 1682,324 1682,368.6 1744.5,368.6 1744.5,324.8 1681.2,324.8 1681.2,324 1682,324 	"/>
	<rect x="1712" y="333.7" class="st0" width="2.4" height="26.8"/>
	<text transform="matrix(1 0 0 1 1704.4893 484.7173)" class="st1 st2">2-</text>
	<text transform="matrix(1 0 0 1 1704.4893 484.7173)" class="st3 st1 st2">2-</text>
	<text transform="matrix(1 0 0 1 1704.4854 549.8296)" class="st1 st2">3-</text>
	<text transform="matrix(1 0 0 1 1704.4854 549.8296)" class="st3 st1 st2">3-</text>
	<text transform="matrix(1 0 0 1 1704.4941 614.479)" class="st1 st2">4-</text>
	<text transform="matrix(1 0 0 1 1704.4941 614.479)" class="st3 st1 st2">4-</text>
</g>
<g>
	<path d="M1166.8,571.7c3.7-0.7,7.4,0,11.2,0.7c3.7,1.5,6.7,3.7,8.9,6.7c2.2,3,3,6.7,3,10.4c-8.9,3-17.9,5.2-26.1,8.2
		c1.5,1.5,3,3,5.2,3c4.5,0.7,8.9-0.7,11.9-4.5c2.2,2.2,4.5,4.5,6,6.7c-3,3-6,4.5-9.7,6c-4.5,1.5-9.7,1.5-14.1-0.7
		c-4.5-1.5-7.4-4.5-9.7-8.2s-3-8.2-2.2-12.7c0.7-3.7,2.2-8.2,5.2-10.4C1159.4,573.9,1163.1,571.7,1166.8,571.7 M1163.8,583.6
		c-2.2,2.2-3,4.5-3,7.4c6-2.2,12.7-3.7,18.6-6c-1.5-1.5-3-3-5.2-3.7C1170.5,579.1,1166.1,580.6,1163.8,583.6z"/>
	<g id="_x23_ec0444ff_1_">
		<path d="M952.7,553.8h3.7c8.9,0.7,18.6,4.5,24.6,11.9c5.2,6,8.9,14.9,8.9,23.1c0,6.7-2.2,13.4-5.2,18.6c-5.2,0.7-9.7,1.5-14.9,1.5
			c-8.2,0.7-17.1,0.7-25.3,0c11.9-11.9,23.1-23.8,35-35.7c0-2.2-0.7-4.5-3-6.7c-2.2-2.2-4.5-3-7.4-3.7c-4.5-0.7-8.9-0.7-13.4-0.7
			c-8.2,0-17.1,0.7-25.3,1.5C935.6,558.3,944.5,553.8,952.7,553.8z"/>
		<path d="M926.6,568c12.7-1.5,26.1-3,39.5-1.5c-11.9,11.9-23.1,23.8-35,35.7c0,2.2,0.7,4.5,3,6.7c2.2,2.2,6,3,8.9,3.7
			c12.7,1.5,26.1,0,38.7-1.5c-3.7,4.5-8.2,7.4-13.4,9.7c-7.4,3-15.6,3.7-23.1,1.5c-6.7-2.2-12.7-6-17.1-11.2
			c-4.5-6-7.4-12.7-8.2-20.1v-3.7C920.7,579.9,922.9,573.9,926.6,568z"/>
	</g>
	<path d="M1053.2,556.8c3-0.7,6,0.7,6.7,3.7c1.5,2.2,0.7,5.2-1.5,7.4s-6,2.2-8.2,0.7s-3-5.2-2.2-7.4
		C1049.4,558.3,1050.9,556.8,1053.2,556.8z"/>
	<path d="M1109.7,559c3.7,0,6.7,0,10.4,0c0,6,0,11.2,0,17.1c2.2-2.2,4.5-3.7,7.4-4.5c3.7-0.7,8.2,0,11.2,1.5c3.7,2.2,6.7,6,8.2,9.7
		c0.7,3,1.5,6.7,0.7,9.7c0,3.7-1.5,7.4-3.7,10.4s-5.2,5.2-8.2,6c-3,1.5-6.7,1.5-10.4,0c-2.2-0.7-4.5-2.2-6-4.5c0,1.5,0,3,0,5.2
		c-3.7,0-6.7,0-10.4,0C1109.7,592.5,1109.7,576.1,1109.7,559 M1127.6,579.9c-2.2,0-4.5,1.5-6,3c-2.2,2.2-2.2,6-2.2,8.9
		c0.7,3,1.5,5.2,3.7,6.7c3,2.2,7.4,2.2,10.4,0s3.7-6,3.7-8.9s-0.7-6-3-7.4C1133.6,580.6,1130.6,579.9,1127.6,579.9z"/>
	<path d="M1073.3,573.2c3-1.5,6.7-2.2,9.7-1.5c3.7,0.7,7.4,3,10.4,6.7c0-2.2,0-3.7,0-6c3.7,0,7.4,0,10.4,0c0,10.4,0,20.8,0,31.3
		c0,4.5-0.7,8.9-2.2,13.4c-1.5,3.7-3.7,6.7-6.7,8.9s-7.4,3.7-11.9,3.7h-2.2c-6.7,0-13.4-3-17.9-8.2c2.2-2.2,4.5-4.5,6.7-6.7
		c3,3,6.7,5.2,10.4,6c3.7,0.7,8.2-0.7,10.4-4.5c2.2-3,2.2-6.7,2.2-10.4c-1.5,1.5-3.7,3.7-6,4.5c-3,1.5-6.7,1.5-9.7,0.7
		c-3.7-0.7-7.4-3-9.7-6c-3-3.7-4.5-8.2-4.5-12.7s0.7-8.2,3-11.9C1068.1,576.1,1071,573.9,1073.3,573.2 M1082.2,579.9
		c-2.2,0.7-3.7,1.5-5.2,3.7s-2.2,6-2.2,8.9c0,3,1.5,5.2,3.7,7.4c2.2,1.5,6,2.2,8.2,0.7c2.2-0.7,3.7-2.2,4.5-3.7
		c1.5-3,2.2-6.7,0.7-9.7c-0.7-2.2-2.2-4.5-3.7-6C1086.7,579.9,1084.4,579.9,1082.2,579.9z"/>
	<path d="M1210.2,571.7c3.7-0.7,7.4,0,11.2,0.7c3.7,1.5,6.7,3.7,8.9,6.7c2.2,3,3,6.7,3,10.4c-8.9,3-17.9,5.2-26.1,8.2
		c1.5,1.5,3,3,5.2,3c4.5,0.7,8.9-0.7,11.9-4.5c2.2,2.2,4.5,4.5,6,6.7c-3,3-6,4.5-9.7,6c-4.5,1.5-9.7,1.5-14.1-0.7
		c-4.5-1.5-7.4-4.5-9.7-8.2c-2.2-3.7-3-8.2-2.2-12.7c0.7-3.7,2.2-8.2,5.2-10.4C1202.8,573.9,1206.5,571.7,1210.2,571.7
		 M1207.2,583.6c-2.2,2.2-3,4.5-3,7.4c6-2.2,12.7-3.7,18.6-6c-1.5-1.5-3-3-5.2-3.7C1213.9,579.1,1209.5,580.6,1207.2,583.6z"/>
	<path d="M1013,571.7c10.4,0,20.1,0,30.5,0c0,3,0,5.2,0,8.2c-6,6.7-11.9,13.4-17.9,20.8c6.7,0,12.7,0,19.4,0c0,3,0,6,0,8.9
		c-11.2,0-21.6,0-32.8,0c0-3,0-6,0-8.9c6-6.7,11.9-13.4,17.9-20.1c-5.2,0-11.2,0-16.4,0C1013,577.6,1013,574.7,1013,571.7z"/>
	<path d="M1048.7,609.6c0-12.7,0-25.3,0-38c3.7,0,7.4,0,10.4,0c0,12.7,0,25.3,0,38C1056.1,609.6,1052.4,609.6,1048.7,609.6z"/>
</g>
<path class="st4" d="M2185.1,23c-6.5-6.5-16.2-16.2-19.5-19.5"/>
<path class="st5" d="M2185.1,669.7c0-215.8,0-538.7,0-646.7l-19.5-19.5c-714.8,0-1785.8,0-2143.6,0C15.5,10,5.7,19.8,2.5,23
	c0,215.8,0,538.7,0,646.7c6.5,6.5,16.2,16.2,19.5,19.5c714.8,0,1786.6,0,2143.6,0C2172.1,682.6,2181.8,672.9,2185.1,669.7z"/>
<line class="st6" x1="1764.8" y1="110.6" x2="1764.8" y2="43.3"/>
<line class="st6" x1="1764.8" y1="179.6" x2="1764.8" y2="112.3"/>
<path class="st7" d="M1764.8,112.3"/>
<polygon class="st8" points="1666.6,660.7 521.8,660.7 521.8,649.4 425.2,649.4 425.2,43.3 521.8,43.3 521.8,31.9 1666.6,31.9 
	1666.6,43.3 1763.2,43.3 1763.2,649.4 1666.6,649.4 "/>
<line class="st6" x1="1764.8" y1="246.1" x2="1764.8" y2="179.6"/>
<path class="st7" d="M1764.8,179.6"/>
<line class="st6" x1="1764.8" y1="313.5" x2="1764.8" y2="246.1"/>
<path class="st7" d="M1764.8,246.1"/>
<line class="st6" x1="1764.8" y1="380.8" x2="1764.8" y2="313.5"/>
<path class="st7" d="M1764.8,313.5"/>
<line class="st6" x1="1764.8" y1="448.2" x2="1764.8" y2="380.8"/>
<path class="st7" d="M1764.8,380.8"/>
<line class="st6" x1="1764.8" y1="514.7" x2="1764.8" y2="448.2"/>
<path class="st7" d="M1764.8,448.2"/>
<line class="st6" x1="1764.8" y1="582" x2="1764.8" y2="514.7"/>
<path class="st7" d="M1764.8,514.7"/>
<line class="st6" x1="1764.8" y1="649.4" x2="1764.8" y2="582"/>
<path class="st7" d="M1764.8,582"/>
<path class="st9" d="M899.1,536.6"/>
<text transform="matrix(1 0 0 1 864.6899 520.4418)" class="st10 st1 st11">P</text>
<text transform="matrix(1 0 0 1 884.3227 520.4418)" class="st10 st1 st11">r</text>
<text transform="matrix(1 0 0 1 894.8813 520.4418)" class="st10 st1 st11">o</text>
<text transform="matrix(1 0 0 1 911.5063 520.4418)" class="st10 st1 st11">g</text>
<text transform="matrix(1 0 0 1 928.1235 520.4418)" class="st10 st1 st11">.</text>
<circle class="st10" cx="899.1" cy="466" r="19.5"/>
<circle class="st12" cx="899.1" cy="466" r="19.5"/>
<text transform="matrix(1 0 0 1 772.2925 293.473)" class="st1 st13">Zigbee LED Dimmer - CCT</text>
<text transform="matrix(1 0 0 1 904.5074 356.8402)" class="st1 st13">ROB_200-00X-0</text>
<g>
	<path class="st14" d="M1132.5,92.4h-4.2v-3.4c0-12.8-10.5-23.2-23.4-23.2h-0.9c-12.7,0-23,10.2-23,22.8v3.8v47h47.3h3
		c13.1,0,23.7-10.6,23.7-23.6v-0.9C1155.1,102.5,1145,92.4,1132.5,92.4"/>
	<path class="st14" d="M961,65.1c-20.9,0-37.8,16.8-37.8,37.6s16.9,37.6,37.8,37.6s37.8-16.8,37.8-37.6S981.8,65.1,961,65.1"/>
	<path class="st14" d="M890.7,66.2h-34.2l-0.1,72.8h63.5l0,0c0-8.6-4.4-16.1-11.1-20.5c6.9-5.3,11.3-13.7,11.3-23
		C920.1,79.3,906.9,66.2,890.7,66.2"/>
	<path class="st14" d="M1115.4,144.3h-34.2l-0.1,72.9h63.5l0,0c0-8.6-4.4-16.1-11.1-20.6c6.9-5.4,11.3-13.7,11.3-23.1
		C1144.8,157.4,1131.7,144.3,1115.4,144.3"/>
	<path class="st14" d="M1183.8,144.3h-34.2l-0.1,72.9h63.5l0,0c0-8.6-4.4-16.1-11.1-20.6c6.9-5.4,11.3-13.7,11.3-23.1
		C1213.2,157.4,1200.1,144.3,1183.8,144.3"/>
	<path class="st14" d="M1054.4,92.4h-4.2v-3.4c0-12.8-10.5-23.2-23.4-23.2h-0.9c-12.7,0-23,10.2-23,22.8v3.8v47h47.3h3
		c13.1,0,23.7-10.6,23.7-23.6v-0.9C1077,102.5,1066.9,92.4,1054.4,92.4"/>
	<g>
		<path class="st15" d="M868.2,240.7h-1.6l-2.7-7.4h0l-2.4,7.4h-1.7l-3.1-9.6h1.8l2.2,7.4h0l2.5-7.4h1.7l2.5,7.4h0l2.2-7.4h1.7
			L868.2,240.7z"/>
		<path class="st15" d="M881.8,238.9c-0.6,0.7-1.2,1.2-1.9,1.6c-0.7,0.3-1.5,0.4-2.4,0.4c-0.8,0-1.4-0.1-2-0.4
			c-0.6-0.3-1.1-0.6-1.5-1.1c-0.4-0.4-0.7-1-1-1.6c-0.2-0.6-0.3-1.3-0.3-2c0-0.7,0.1-1.4,0.4-2c0.2-0.6,0.6-1.1,1-1.6s1-0.8,1.6-1
			c0.6-0.2,1.3-0.4,2-0.4c0.7,0,1.3,0.1,1.8,0.3c0.6,0.2,1,0.6,1.5,1c0.4,0.4,0.7,1,0.9,1.6c0.2,0.6,0.3,1.3,0.3,2.1v0.5h-7.8
			c0,0.4,0.1,0.8,0.3,1.2c0.2,0.4,0.4,0.7,0.7,1c0.3,0.3,0.6,0.5,1,0.7c0.4,0.2,0.8,0.2,1.2,0.2c0.7,0,1.3-0.1,1.8-0.4
			c0.5-0.2,0.9-0.6,1.3-1.1L881.8,238.9z M880.4,235c0-0.8-0.3-1.5-0.8-2c-0.5-0.5-1.2-0.7-2.1-0.7c-0.9,0-1.6,0.2-2.2,0.7
			s-0.9,1.1-1,2H880.4z"/>
		<path class="st15" d="M890.5,225.2h1.6v15.5h-1.6V225.2z"/>
		<path class="st15" d="M894.7,235.9c0-0.8,0.1-1.4,0.4-2.1c0.3-0.6,0.6-1.1,1.1-1.6s1-0.8,1.6-1c0.6-0.2,1.3-0.4,2.1-0.4
			s1.4,0.1,2.1,0.4s1.2,0.6,1.6,1s0.8,1,1.1,1.6s0.4,1.3,0.4,2.1c0,0.8-0.1,1.4-0.4,2.1c-0.3,0.6-0.6,1.1-1.1,1.6
			c-0.5,0.4-1,0.8-1.6,1c-0.6,0.2-1.3,0.4-2.1,0.4s-1.4-0.1-2.1-0.4s-1.2-0.6-1.6-1s-0.8-1-1.1-1.6
			C894.8,237.3,894.7,236.6,894.7,235.9z M896.5,235.9c0,0.5,0.1,1,0.2,1.4s0.4,0.8,0.7,1.1c0.3,0.3,0.7,0.6,1.1,0.8
			c0.4,0.2,0.9,0.3,1.4,0.3s1-0.1,1.4-0.3s0.8-0.4,1.1-0.8c0.3-0.3,0.5-0.7,0.7-1.1c0.2-0.4,0.2-0.9,0.2-1.4s-0.1-1-0.2-1.4
			s-0.4-0.8-0.7-1.1c-0.3-0.3-0.7-0.6-1.1-0.8c-0.4-0.2-0.9-0.3-1.4-0.3s-1,0.1-1.4,0.3c-0.4,0.2-0.8,0.4-1.1,0.8s-0.5,0.7-0.7,1.1
			C896.5,234.9,896.5,235.4,896.5,235.9z"/>
		<path class="st15" d="M911.9,240.7h-1.8l-3.9-9.6h1.9l3,7.5h0l2.9-7.5h1.7L911.9,240.7z"/>
		<path class="st15" d="M926.1,238.9c-0.6,0.7-1.2,1.2-1.9,1.6c-0.7,0.3-1.5,0.4-2.4,0.4c-0.8,0-1.4-0.1-2-0.4
			c-0.6-0.3-1.1-0.6-1.5-1.1s-0.7-1-1-1.6c-0.2-0.6-0.3-1.3-0.3-2c0-0.7,0.1-1.4,0.4-2c0.2-0.6,0.6-1.1,1-1.6s1-0.8,1.6-1
			c0.6-0.2,1.3-0.4,2-0.4c0.7,0,1.3,0.1,1.8,0.3c0.6,0.2,1,0.6,1.5,1s0.7,1,0.9,1.6c0.2,0.6,0.3,1.3,0.3,2.1v0.5h-7.8
			c0,0.4,0.1,0.8,0.3,1.2c0.2,0.4,0.4,0.7,0.7,1c0.3,0.3,0.6,0.5,1,0.7c0.4,0.2,0.8,0.2,1.2,0.2c0.7,0,1.3-0.1,1.8-0.4
			c0.5-0.2,0.9-0.6,1.3-1.1L926.1,238.9z M924.7,235c0-0.8-0.3-1.5-0.8-2c-0.5-0.5-1.2-0.7-2.1-0.7s-1.6,0.2-2.2,0.7s-0.9,1.1-1,2
			H924.7z"/>
		<path class="st15" d="M934.8,238.2c0.3,0.4,0.7,0.7,1,0.9s0.8,0.3,1.4,0.3c0.2,0,0.5,0,0.8-0.1c0.3-0.1,0.5-0.1,0.7-0.3
			s0.4-0.3,0.5-0.5c0.1-0.2,0.2-0.4,0.2-0.7s-0.1-0.5-0.2-0.6s-0.3-0.3-0.5-0.4c-0.2-0.1-0.4-0.2-0.7-0.3c-0.2-0.1-0.5-0.1-0.8-0.2
			c-0.5-0.1-0.9-0.2-1.3-0.3s-0.8-0.3-1.1-0.5c-0.3-0.2-0.6-0.5-0.7-0.8c-0.2-0.3-0.3-0.7-0.3-1.2c0-0.5,0.1-0.9,0.3-1.2
			s0.5-0.6,0.8-0.9c0.3-0.2,0.7-0.4,1.2-0.5c0.4-0.1,0.9-0.2,1.3-0.2c0.7,0,1.3,0.1,1.9,0.4s1,0.7,1.4,1.3l-1.3,0.9
			c-0.2-0.3-0.5-0.6-0.8-0.8s-0.7-0.3-1.2-0.3c-0.2,0-0.4,0-0.7,0.1s-0.4,0.1-0.6,0.2s-0.3,0.2-0.4,0.4c-0.1,0.2-0.2,0.4-0.2,0.6
			c0,0.2,0.1,0.4,0.2,0.5s0.3,0.3,0.5,0.4c0.2,0.1,0.5,0.2,0.8,0.3c0.3,0.1,0.6,0.1,0.9,0.2c0.4,0.1,0.8,0.2,1.2,0.3
			c0.4,0.1,0.7,0.3,1,0.5c0.3,0.2,0.5,0.5,0.7,0.8s0.2,0.7,0.2,1.2c0,0.6-0.1,1-0.3,1.4c-0.2,0.4-0.5,0.7-0.9,0.9s-0.8,0.4-1.2,0.5
			c-0.5,0.1-0.9,0.2-1.4,0.2c-0.8,0-1.5-0.1-2.1-0.4c-0.6-0.3-1.1-0.7-1.6-1.4L934.8,238.2z"/>
		<path class="st15" d="M943.4,233.4c0-0.4,0-0.9,0-1.2c0-0.4,0-0.7,0-1.1h1.5c0,0.3,0,0.5,0,0.8c0,0.3,0,0.5,0,0.8h0
			c0.1-0.2,0.3-0.5,0.5-0.7c0.2-0.2,0.4-0.4,0.7-0.6s0.6-0.3,0.9-0.4c0.3-0.1,0.7-0.1,1.1-0.1c0.5,0,1,0.1,1.3,0.2s0.6,0.3,0.9,0.5
			c0.2,0.2,0.4,0.4,0.5,0.6c0.1,0.2,0.2,0.4,0.3,0.6c0.3-0.6,0.8-1,1.2-1.3c0.5-0.3,1.1-0.5,1.8-0.5c0.7,0,1.3,0.1,1.7,0.3
			c0.5,0.2,0.8,0.4,1.1,0.8c0.3,0.3,0.5,0.8,0.6,1.3s0.2,1.1,0.2,1.7v5.8h-1.6v-5.7c0-0.3,0-0.6-0.1-1c-0.1-0.3-0.2-0.6-0.4-0.8
			s-0.4-0.4-0.7-0.6s-0.7-0.2-1.2-0.2c-0.3,0-0.7,0.1-1,0.2c-0.3,0.1-0.6,0.3-0.8,0.6c-0.2,0.2-0.4,0.6-0.5,0.9
			c-0.1,0.4-0.2,0.7-0.2,1.1v5.5h-1.6v-5.4c0-1.1-0.1-1.8-0.4-2.3c-0.3-0.4-0.8-0.7-1.4-0.7c-0.5,0-1,0.1-1.3,0.3
			c-0.4,0.2-0.7,0.4-0.9,0.8s-0.4,0.7-0.5,1.2c-0.1,0.4-0.2,0.9-0.2,1.5v4.7h-1.6L943.4,233.4L943.4,233.4L943.4,233.4z"/>
		<path class="st15" d="M960.8,232.3c0.5-0.5,1.1-0.9,1.8-1.1s1.4-0.4,2.1-0.4c1.4,0,2.5,0.3,3.1,1c0.6,0.7,1,1.7,1,3.1v4.1
			c0,0.3,0,0.6,0,0.9c0,0.3,0.1,0.6,0.1,0.8h-1.5c0-0.2-0.1-0.5-0.1-0.7c0-0.3,0-0.5,0-0.7h0c-0.3,0.5-0.7,0.9-1.3,1.2
			c-0.5,0.3-1.2,0.5-1.9,0.5c-0.5,0-1-0.1-1.4-0.2s-0.8-0.3-1.1-0.6c-0.3-0.2-0.6-0.5-0.8-0.9s-0.3-0.8-0.3-1.2
			c0-0.8,0.2-1.4,0.6-1.9c0.4-0.4,0.9-0.8,1.5-1c0.6-0.2,1.3-0.4,2-0.4c0.7-0.1,1.4-0.1,2-0.1h0.6v-0.3c0-0.7-0.2-1.2-0.6-1.6
			c-0.4-0.4-1-0.5-1.8-0.5c-0.5,0-1,0.1-1.5,0.3c-0.5,0.2-1,0.4-1.3,0.8L960.8,232.3z M965.5,236.1c-1,0-1.8,0.1-2.5,0.4
			c-0.6,0.3-0.9,0.8-0.9,1.4c0,0.6,0.2,1,0.6,1.3c0.4,0.3,0.9,0.4,1.5,0.4c0.5,0,0.9-0.1,1.2-0.2c0.3-0.2,0.6-0.4,0.9-0.6
			c0.2-0.3,0.4-0.6,0.5-0.9c0.1-0.4,0.2-0.7,0.2-1.1v-0.6L965.5,236.1L965.5,236.1z"/>
		<path class="st15" d="M971.6,233.4c0-0.4,0-0.9,0-1.2s0-0.7,0-1.1h1.5c0,0.3,0,0.5,0,0.8c0,0.3,0,0.5,0,0.8h0
			c0.1-0.2,0.3-0.5,0.5-0.7c0.2-0.2,0.4-0.4,0.7-0.6s0.6-0.3,0.9-0.4c0.3-0.1,0.7-0.1,1.1-0.1c0.1,0,0.2,0,0.3,0
			c0.1,0,0.2,0,0.3,0.1l-0.1,1.6c-0.3-0.1-0.6-0.1-0.9-0.1c-1,0-1.7,0.3-2.2,0.9c-0.4,0.6-0.7,1.5-0.7,2.6v4.7h-1.6L971.6,233.4
			L971.6,233.4L971.6,233.4z"/>
		<path class="st15" d="M984.2,232.4h-2.8v4.8c0,0.3,0,0.6,0,0.9c0,0.3,0.1,0.5,0.2,0.7s0.2,0.4,0.4,0.5c0.2,0.1,0.5,0.2,0.8,0.2
			c0.2,0,0.5,0,0.7-0.1s0.5-0.1,0.7-0.2l0.1,1.4c-0.3,0.1-0.6,0.2-0.9,0.3s-0.7,0.1-1,0.1c-0.6,0-1-0.1-1.4-0.2
			c-0.3-0.1-0.6-0.4-0.8-0.6c-0.2-0.3-0.3-0.6-0.4-1c-0.1-0.4-0.1-0.9-0.1-1.3v-5.3h-2.1v-1.4h2.1v-2.7h1.6v2.7h2.8L984.2,232.4
			L984.2,232.4z"/>
	</g>
	<polygon class="st14" points="923.2,144.3 936,144.3 960.3,164.6 986.4,144.3 998.8,144.3 998.8,217.3 923.2,217.3 	"/>
	<polygon class="st14" points="1076.8,217.3 1003,217.3 1039.9,144.3 	"/>
	<g>
		<path class="st14" d="M1227.7,216.7v-54.1h-12.4v-18.3h58.5v18.3h-12.4v54.1H1227.7z"/>
	</g>
	<path class="st14" d="M917.4,144.3h-6.8h-28.4c-3.5,0-6.8,0.7-9.9,2c-3,1.3-5.7,3-8,5.2c-2.3,2.2-4.1,4.8-5.4,7.7
		c-1.4,3-2,6.2-2,9.6c0,3.4,0.7,6.6,2,9.6c1.3,2.9,3.2,5.6,5.4,7.8s5,4,8,5.2c0.7,0.3,1.3,0.5,2,0.7H867h-6.8v6.6v12v6.6h6.8h27.5
		c3.5,0,6.8-0.7,10-2c3-1.3,5.7-3,8-5.2c2.3-2.2,4.1-4.8,5.4-7.8c1.3-3,2-6.2,2-9.6s-0.7-6.6-2-9.6c-1.3-2.9-3.1-5.6-5.4-7.8
		c-2.3-2.2-5-4-8.1-5.2c-0.7-0.3-1.4-0.5-2-0.7h8.2h6.8v-6.6v-12L917.4,144.3L917.4,144.3z"/>
</g>
</svg>
