<?xml version="1.0" encoding="utf-8"?>
<!-- Generator: Adobe Illustrator 27.0.0, SVG Export Plug-In . SVG Version: 6.00 Build 0)  -->
<svg version="1.1" id="Laag_1" xmlns="http://www.w3.org/2000/svg" xmlns:xlink="http://www.w3.org/1999/xlink" x="0px" y="0px"
	 viewBox="0 0 960 960" style="enable-background:new 0 0 960 960;" xml:space="preserve">
<style type="text/css">
	.st0{stroke:#000000;stroke-miterlimit:10;}
</style>
<path d="M760,278.5C757.5,126.6,634.5,4,482.2,1.5h-0.7l0,0h-2h-2l0,0h-0.7C323.5,4,200,129.1,200,283.1
	c0,87.3,40,168.1,107.3,221.2l0.5,0.4l11.5,8.3l1,0.8c21.2,16.4,35.1,35.8,41.8,58.5c1.9,6.5,2.8,13.8,2.9,22.7
	c0,3.5,0,6.6-0.2,11.1l-0.2,3.6l-0.3,5.4c-0.9,17.9-0.7,25.2,1.7,33.3l0.2,0.6l0.1,0.4c2.1,6.5,5.7,11.7,10.7,15.4l-0.3,0.4
	l-0.3,0.3c-1.8,2-4,4.9-4.8,6.8l0,0l-0.2,0.1l-0.3,0.1c-2.8,1.6-4.8,4.7-5.6,9c-0.1,0.4-0.1,0.8-0.1,1.3c0.7,28.7,1.2,47.5,1.8,55.8
	v0.4v0.4v0.4c1.6,14.8,15.2,38.6,27.6,46.5l1.1,0.7l0.6,0.7v0.1l0.1,0.2c0.3,0.4,0.5,0.8,0.8,1.1l0,0l0.7,1.1c1.2,2,1.9,3.1,2.4,4.3
	l0.2,0.4l0.1,0.3v0.1l0.2,0.4l0.2,0.4c0.7,1.6,1.1,2.9,1.3,4.1v0.2v0.2v0.2v0.2c0.1,0.4,0.3,0.8,0.5,1.1l0,0l0.2,0.9
	c0.7,2.8,1.4,6.3,2.1,11l0.3,1.9l0.1,1c0.4,3.1,0.8,6.3,1.2,10.4l0.2,2.1l0.4,4.1l0.4,4.6l0.5,9.7l0.2,4.8l0.1,2.5
	c0.1,2.3,0.2,4.5,0.2,6.5l0.1,2.2l0.1,3.2v1.8c0.2,8.9,0.1,17.4-0.1,25.4v3.1v0.2v0.2c0.1,0.7,0.5,1.2,1.1,1.5h0.1l19.2,24.9v0.1
	l0.1,0.2c0.1,0.2,0.2,0.5,0.4,0.7l7,7.2l17.8,18.6l0.1,0.1l0.1,0.1l0.1,0.1l0.3,0.2l0.4,0.4c4.8,4.7,9.6,6.6,20.1,7.4l1.1,0.1
	l1.1,0.1l1.6,0.1h0.4l1.3-0.1c7.3-0.4,12.5-1.4,16.3-2.9l0.3-0.1l0.3-0.1c2.4-1.1,3.9-2.2,6.2-4.5l0.2-0.2l0.3-0.2l0.1-0.1l0.1-0.1
	l0.1-0.1l17.8-18.6l7-7.2l0.1-0.1l0.1-0.1c0.1-0.2,0.2-0.4,0.3-0.6v-0.1l20.2-25.5l0.1-0.1l0.1-0.1c0.3-0.6,0.3-1.3,0.1-1.9
	l-0.1-0.1v-2V893c-0.2-8.6-0.2-17.7,0-27.3c0.1-4,0.3-8.2,0.5-13.1l0.2-5.1l0.4-9l0.3-3.9c0.7-7.5,1.2-12.4,1.8-16.9l0.2-1.2
	l0.5-2.8c0.9-5.2,1.5-8.2,2.1-10.6l0.2-0.8l0.1-0.1c0.2-0.3,0.3-0.6,0.4-0.9c0.1-0.8,0.3-1.6,0.6-2.6l0.1-0.4l0.1-0.4l0.6-1.8
	l0.6-1.2l0.7-1.3c0.5-0.9,0.9-1.7,1.4-2.6l0.6-1.1l0.1-0.1l0.1-0.1c0.1-0.2,0.3-0.3,0.4-0.5l0.5-0.6l0.3-0.3l0.8-1l0.1-0.1l0.1-0.1
	l0.1-0.2l0.2-0.3l0.2-0.1c12.5-8.7,26-33,26.8-47.2c0.3-5.4,0.7-15.2,1.1-29.3l0.3-12.7l0.3-13.8v-0.3c0-0.3,0-0.6-0.1-1l-0.1-0.4
	l-0.1-0.4c-0.9-3.8-2.7-6.5-5.2-8.1l-0.2-0.1l-0.1-0.3c-0.5-1.6-1.5-3.1-2.9-4.5l-0.4-0.5h-7.2c7.4-3.7,12.3-9.8,14.9-18.2l0.2-0.6
	l0.2-0.6c2.2-7.9,2.4-15.2,1.5-32.7l-0.2-4.9l-0.1-1.9c-0.2-4.6-0.3-7.9-0.3-11.1v-1.7v-1.6c0.1-8.5,1-15.6,2.9-21.8
	c6.8-22.6,20.7-42.1,42-58.5l0.8-0.6l12.2-8.9l2-1.6C720.6,449.6,760,369.5,760,283.1V278.5z M497.8,942.9l-0.5,0.6l-0.3,0.3
	l-0.2,0.2c-2.8,2.9-6.1,3.9-14.8,4.4h-1h-0.9l-1.4-0.1c-8.9-0.4-12.3-1.4-15.1-4.3l-0.3-0.3l-0.3-0.4l-0.4-0.4l-0.1-0.1l-7.9-8.4
	h0.5l0.9,0.1c1.8,0.1,3.5,0.2,6,0.2h1.4h4.5h1h1.1l6.4,0.2c0.3,0,0.6,0,0.9,0h1.2h0.8h1.3h0.6h1.1h0.9h0.9l5.3-0.2h0.7
	c0.5,0,1,0,1.5,0h0.7h2.3c3.5,0,5.7,0,7.5-0.1h0.9l1.2-0.1l1-0.1h0.3L497.8,942.9z M548.2,791.3l-0.4,1l-0.2,0.6
	c-0.9,2.1-1.6,4.3-2,6.1c-1.3,4.7-2.4,10.3-3.3,16c-0.1,0.5-0.1,1-0.2,1.4l-0.7,6.3l-0.3,2.5c-0.3,2.7-0.5,5-0.7,7.2l-0.1,1.6
	l-0.1,1.8l-0.1,1.5l-0.1,1.5c-0.3,4.4-0.6,9-0.8,14.9l-0.1,3l-0.1,3.1l-0.1,4.5l-0.1,2.6c0,2-0.1,3.9-0.1,5.9v2.1v4.6v8.5l-1.2,0.1
	c-0.3,0-0.7,0.1-1.1,0.1h-0.6l-2.2,0.1l-0.8,0.1h-0.5h-0.4h-0.3c-0.8,0-1.6,0-2.6,0.1l-1,0.1l-3.7,0.3h-0.5c-0.1,0-0.2,0-0.4,0h-0.8
	h-1l-3.4,0.2h-0.8c-0.2,0-0.5,0-0.7,0h-0.5h-0.1l-0.6,0.1c-0.4,0-0.8,0.1-1.2,0.1l-1.1,0.1l-3.6,0.2l-1.1,0.1l-1.1,0.1h-2
	c-2.8,0-4.4,0.1-6,0.2l-0.7,0.1h-0.4H489h-0.6c-0.4,0-0.8,0-1.3,0H486l-4,0.2h-0.6h-0.5h-1H479h-0.9c-0.4,0-0.8,0-1.4-0.1l-2-0.1
	L473,890h-0.9h-0.8h-10h-0.4c-0.9-0.1-1.9-0.1-3-0.2h-1.1h-0.5h-1h-2.9h-0.2c-0.9-0.1-1.8-0.2-3.1-0.2l-3.6-0.2h-0.7l-1.1-0.1h-0.1
	H443c-0.6,0-1.2,0-2.1-0.1l-2.2-0.1c-0.4,0-0.8,0-1.1-0.1h-0.5h-0.7h-0.8l-0.6-0.1c-2.5-0.3-4.7-0.4-6.8-0.5h-0.4h-0.1
	c-0.6-0.1-1.2-0.2-2.1-0.2l-2.2-0.2h-0.6h-0.3l-0.6-0.1l-0.7-0.1v-13.2l1,0.1c6,0.6,12.7,1,20.1,1.3c13.9,0.8,27.3,1.2,39.1,1.3h2.5
	h2.5h0.2c1.1-0.1,2-1,2-2.1V870v-0.2c-0.1-1.1-1-2-2.1-2c-15.4,0-30.4-0.4-43.7-1.1l-0.8-0.1c-6.1-0.4-11.1-0.8-15.6-1.2l-2.4-0.2
	l-1.7-0.2l-1.2-0.1v-1.6c0-1.1,0-2.2-0.1-3.5v-1.1l-0.1-2.4l-0.1-2.9l8.5,0.7l2.4,0.2c2,0.2,3.7,0.3,5.3,0.4l2.1,0.1l1.7,0.1
	l1.7,0.1l1.6,0.1c13.1,0.7,27.7,1.1,42.5,1.1c1.2,0,2.1-0.9,2.1-2.1v-5v-0.2c-0.1-1.1-1-2-2.1-2c-10.4,0-22.4-0.3-34.9-0.9l-2.9-0.1
	l-2.9-0.2l-3-0.2H442c-3.5-0.1-6.8-0.3-11.8-0.7l-8-0.6l-1.9-0.1v-0.3c0-0.3,0-0.7,0-1l-0.1-3.4l-0.1-1.1l-0.1-1.2l-0.1-1.3
	c0-0.5-0.1-1-0.1-1.4l-0.1-0.9v-0.8l1.3,0.1c3.1,0.3,6.6,0.6,11.3,0.9l10,0.7l2,0.1l1.7,0.1c12.6,0.6,26.4,1,40.5,1
	c1.2,0,2.1-0.9,2.1-2.1v-5.2v-0.2c-0.1-1.1-1-2-2.1-2c-15.4,0-30.4-0.4-43.7-1.1l-0.9-0.1c-7.6-0.4-13.8-0.9-19.3-1.4l-2-0.2l-2-0.2
	l-0.1-1c-0.1-1-0.2-2.1-0.4-3.2l-0.2-1.4l-0.2-1.3l-0.2-1.3v-0.3c0-0.2,0-0.4-0.1-0.6l-0.1-0.6l-0.1-0.7l-0.2-1.1l0.6,0.1
	c7.2,0.9,15.6,1.6,24.6,2.1l1.9,0.1l1.6,0.1c12.6,0.6,26.5,1,40.6,1c1.2,0,2.1-0.9,2.1-2.1v-5.2v-0.2c-0.1-1.1-1-2-2.1-2
	c-15.4,0-30.4-0.4-43.7-1.1l-1.2-0.1c-9.4-0.5-18.1-1.2-25.7-2.1l-0.8-0.1l-0.1-0.5c-0.1-0.3-0.2-0.6-0.3-0.9l-0.2-0.7l-0.3-0.9
	l-0.1-0.6c-0.5-2.4-1.2-4.7-2.1-6.6l-0.4-0.8l0.9,0.1l5.4,0.6l1.1,0.1l1.6,0.1l1.4,0.1l5.9,0.4l1.5,0.1c5.5,0.3,9.7,0.6,13.6,0.7
	l1.6,0.1l2.6,0.1h1.7l1.9,0.1c10.1,0.5,19.8,0.7,28.9,0.7c9.7,0,20.3-0.3,31-0.8c6.6-0.2,13.1-0.5,21.9-1.1l4.6-0.3l1.3-0.1
	c2.4-0.2,4.9-0.5,7.8-0.8l1.6-0.2l0.4-0.1L548.2,791.3z M579.9,685.3l0.6-0.2l0.5-0.2h0.1l1.3-0.2l-0.1,3.8
	c-0.5,20.8-0.9,35.8-1.4,44.7l-0.1,3l-0.1,1.9v0.3c-0.9,10.7-12.7,31.5-21.9,37.4l-4.4,2.8l-0.4,0.1c-1,0.1-1.9,0.2-2.8,0.2h-0.1
	l-2.6,0.4l-0.6,0.1c-3.6,0.5-6.3,0.8-9.1,0.9l-15,1l-6.7,0.4l-5.2,0.3l-4.1,0.1c-9.6,0.3-17.5,0.4-24.6,0.4h-2.5h-1.1
	c-3.8,0-7.4,0-12.4-0.1l-17.7-0.4l-3.4-0.2c-2.1-0.1-4.4-0.3-6.9-0.4l-17.2-1.1h-0.3c-1.1-0.1-2.3-0.2-3.8-0.3l-5.6-0.6l-1.7-0.2
	l-2.5-0.4l-1.6-0.2l-4.2-2.7l-0.3-0.2c-9.2-6.2-20.9-27-21.6-37.5c-0.4-6.3-0.8-18.9-1.3-37.5l-0.4-15.9l2.1,0.3l0.4,0.1
	c4.6,1.4,11.7,2.6,22.5,3.7l2,0.2l2.1,0.2l1.9,0.2l1,0.1c14.5,1.3,32.2,2.1,51.4,2.5h2.6h3.1c4.2,0.1,8.4,0.1,12.7,0.1h0.5h3.2h3.2
	c4.2,0,8.4-0.1,12.5-0.2l2.6-0.1c17.8-0.4,34.2-1.2,47.8-2.3l2-0.2l1.9-0.2l2.1-0.2C567.5,687.9,575,686.8,579.9,685.3z
	 M471.5,680.6h2.9h2.8h2.8h2.7c21.5-0.1,42.9-0.8,59.7-2l1.5-0.1l2.2-0.2c12.8-1,21-2.1,26.9-3.7h0.1l2.7,2.4l-0.5,0.1
	c-0.4,0.1-0.9,0.2-1.3,0.3c-4,0.9-9.6,1.7-16.5,2.5l-1.5,0.2l-1.5,0.2l-2.3,0.2l-1,0.1c-16.6,1.5-37.7,2.5-60.6,2.8h-4h-2.7h-4h-2.7
	c-26.3-0.1-50.8-1.2-69.5-2.9l-1.6-0.2c-7.5-0.7-13.8-1.6-18.4-2.5l-0.9-0.2l-0.9-0.2l-0.9-0.2c-0.3-0.1-0.6-0.1-0.8-0.2h-0.1
	l2.6-2.4l0.5,0.1c5.4,1.4,12.9,2.4,24.1,3.3l1.4,0.1l2.9,0.2l2.7,0.2l1.1,0.1C434.7,679.8,452.9,680.5,471.5,680.6z M444.5,660.3
	V493v-0.6v-0.5c0.6-18,15.4-32.4,33.5-32.4c18.3,0,33.2,14.7,33.5,32.9v0.6v167.4c-9.7,0.5-19.5,0.8-29.4,1h-2.6h-2.6
	C465.9,661.3,455.1,660.9,444.5,660.3z M645,490.9l-2,1.6l-12.1,8.7l-0.8,0.6c-23.7,18.2-39.5,40.3-47.3,66.1
	c-2.3,7.7-3.4,16.1-3.5,25.9v1v1.3c0,4.3,0.1,8.3,0.4,14.8l0.3,6.6l0.1,1.9c0.6,13.3,0.3,19.3-1.3,24.7l-0.2,0.5
	c-2.1,6.9-6.4,10.4-15.6,11.5l-2.5,0.3c-13.7,1.6-27.8,2.8-42.2,3.7V493v-0.6v-0.7c-0.7-21.8-18.6-39.2-40.5-39.2
	c-22.1,0-40.1,17.7-40.5,39.8v0.6v166.9c-14.1-0.9-27.9-2.2-41.3-3.8c-9.2-1.1-13.4-4.6-15.5-11.5c-1.8-5.9-2-12.1-1.3-27.7l0.3-6.7
	c0.3-6.7,0.4-10.8,0.4-15.4v-1c-0.2-9.8-1.2-18.1-3.5-25.9c-7.8-26-23.8-48.3-47.9-66.7l-12.1-8.8l-1.9-1.5
	c-62.5-50.3-99.6-126-99.6-207.9c0-145.8,116.9-264.2,262.1-266.5h2.4h2.4C627.6,18.9,745,137.3,745,283.1
	C745,364.9,707.7,440.7,645,490.9z"/>
<g>
	<path class="st0" d="M462.1,459.5h-0.8c-1.1,0-2-0.9-2-2V139.3c0-1.1,0.9-2,2-2h0.8c1.1,0,2,0.9,2,2v318.2
		C464.1,458.6,463.2,459.5,462.1,459.5z"/>
	<path class="st0" d="M494.7,459.5h-0.8c-1.1,0-2-0.9-2-2V139.3c0-1.1,0.9-2,2-2h0.8c1.1,0,2,0.9,2,2v318.2
		C496.7,458.6,495.8,459.5,494.7,459.5z"/>
</g>
<path d="M428.4,128.3l6.3,1.1c3.3,0.5,5.6,3.8,5,7.1l-53.1,301c-0.5,3.3-3.8,5.6-7.1,5l-6.3-1.1c-3.3-0.5-5.6-3.8-5-7.1l53.1-301
	C421.8,129.9,424.9,127.7,428.4,128.3z"/>
<path d="M455.2,128.2l6.4,0.5c3.4,0.2,5.9,3.3,5.7,6.7l-26.7,304.5c-0.2,3.4-3.3,5.9-6.7,5.7l-6.4-0.5c-3.4-0.2-5.9-3.3-5.7-6.7
	l26.7-304.5C448.8,130.4,451.6,127.9,455.2,128.2z"/>
<path d="M527.8,128.3l-6.3,1.1c-3.3,0.5-5.6,3.8-5,7.1l53.1,301c0.5,3.3,3.8,5.6,7.1,5l6.3-1.1c3.3-0.5,5.6-3.8,5-7.1l-53.1-301
	C534.3,129.9,531.3,127.7,527.8,128.3z"/>
<path d="M501,128.2l-6.4,0.5c-3.4,0.2-5.9,3.3-5.7,6.7l26.7,304.5c0.2,3.4,3.3,5.9,6.7,5.7l6.4-0.5c3.4-0.2,5.9-3.3,5.7-6.7
	l-26.7-304.5C507.4,130.4,504.5,127.9,501,128.2z"/>
</svg>
