<?xml version="1.0" encoding="utf-8"?>
<!-- Generator: Adobe Illustrator 24.2.1, SVG Export Plug-In . SVG Version: 6.00 Build 0)  -->
<svg version="1.1" id="Laag_1" xmlns="http://www.w3.org/2000/svg" xmlns:xlink="http://www.w3.org/1999/xlink" x="0px" y="0px"
	 viewBox="0 0 269.9 85.5" style="enable-background:new 0 0 269.9 85.5;" xml:space="preserve">
<style type="text/css">
	.st0{fill:#1D1D1B;}
	.st1{font-family:'ArialMT';}
	.st2{font-size:2.827px;}
	.st3{fill:none;stroke:#0A0C06;stroke-width:0.216;stroke-linejoin:bevel;stroke-miterlimit:22.9256;}
	.st4{fill:none;stroke:#0A0C06;stroke-linejoin:bevel;stroke-miterlimit:22.9256;}
	.st5{fill:none;}
	.st6{fill:none;stroke:#868686;stroke-width:0.5669;stroke-miterlimit:22.9256;}
	.st7{fill:none;stroke:#1D1D1B;stroke-width:0.5;stroke-miterlimit:22.9256;}
	.st8{fill:none;stroke:#1D1D1B;stroke-width:0.5669;stroke-miterlimit:22.9256;}
	.st9{font-size:3.349px;}
	.st10{fill:#0066FF;stroke:#585858;stroke-miterlimit:10;}
	.st11{fill:#0066FF;stroke:#0066FF;stroke-miterlimit:22.9256;}
	.st12{font-size:6.513px;}
	.st13{fill:#F28A19;}
	.st14{fill:#553289;}
</style>
<rect x="211.1" y="17.2" class="st0" width="0.3" height="3.3"/>
<polygon class="st0" points="207.3,16 207.3,15.9 215.3,15.9 215.3,21.7 207.2,21.7 207.2,15.9 207.3,15.9 207.3,16 207.4,16 
	207.4,21.5 215.1,21.5 215.1,16.1 207.3,16.1 207.3,16 207.4,16 "/>
<rect x="211.1" y="9.2" class="st0" width="0.3" height="3.3"/>
<polygon class="st0" points="207.3,8 207.3,7.9 215.3,7.9 215.3,13.7 207.2,13.7 207.2,7.9 207.3,7.9 207.3,8 207.4,8 207.4,13.5 
	215.1,13.5 215.1,8.1 207.3,8.1 207.3,8 207.4,8 "/>
<rect x="209.6" y="26.7" class="st0" width="3.3" height="0.3"/>
<rect x="211.1" y="25.2" class="st0" width="0.3" height="3.3"/>
<polygon class="st0" points="207.3,24 207.3,23.9 215.3,23.9 215.3,29.7 207.2,29.7 207.2,23.9 207.3,23.9 207.3,24 207.4,24 
	207.4,29.5 215.1,29.5 215.1,24.1 207.3,24.1 207.3,24 207.4,24 "/>
<polygon class="st0" points="207.5,48 207.5,47.9 215.5,47.9 215.5,53.7 207.4,53.7 207.4,47.9 207.5,47.9 207.5,48 207.6,48 
	207.6,53.5 215.3,53.5 215.3,48.1 207.5,48.1 207.5,48 207.6,48 "/>
<text transform="matrix(1 0 0 1 210.1702 51.82)" class="st0 st1 st2">1-</text>
<rect x="209.6" y="34.7" class="st0" width="3.3" height="0.3"/>
<polygon class="st0" points="207.3,32 207.3,31.9 215.3,31.9 215.3,37.7 207.2,37.7 207.2,31.9 207.3,31.9 207.3,32 207.4,32 
	207.4,37.5 215.1,37.5 215.1,32.1 207.3,32.1 207.3,32 207.4,32 "/>
<rect x="211.1" y="33.2" class="st0" width="0.3" height="3.3"/>
<polygon class="st0" points="207.5,56 207.5,55.9 215.5,55.9 215.5,61.7 207.4,61.7 207.4,55.9 207.5,55.9 207.5,56 207.6,56 
	207.6,61.5 215.3,61.5 215.3,56.1 207.5,56.1 207.5,56 207.6,56 "/>
<polygon class="st0" points="207.5,64.1 207.5,64 215.5,64 215.5,69.7 207.4,69.7 207.4,64 207.5,64 207.5,64.1 207.6,64.1 
	207.6,69.5 215.3,69.5 215.3,64.2 207.5,64.2 207.5,64.1 207.6,64.1 "/>
<polygon class="st0" points="207.5,72 207.5,71.9 215.5,71.9 215.5,77.7 207.4,77.7 207.4,71.9 207.5,71.9 207.5,72 207.6,72 
	207.6,77.5 215.3,77.5 215.3,72.1 207.5,72.1 207.5,72 207.6,72 "/>
<rect x="209.6" y="42.7" class="st0" width="3.3" height="0.3"/>
<polygon class="st0" points="207.3,40 207.3,39.9 215.3,39.9 215.3,45.7 207.2,45.7 207.2,39.9 207.3,39.9 207.3,40 207.4,40 
	207.4,45.5 215.1,45.5 215.1,40.1 207.3,40.1 207.3,40 207.4,40 "/>
<rect x="211.1" y="41.2" class="st0" width="0.3" height="3.3"/>
<text transform="matrix(1 0 0 1 210.1702 59.8195)" class="st0 st1 st2">2-</text>
<text transform="matrix(1 0 0 1 210.1697 67.8469)" class="st0 st1 st2">3-</text>
<text transform="matrix(1 0 0 1 210.1706 75.8176)" class="st0 st1 st2">4-</text>
<path class="st3" d="M269.4,2.9c-0.8-0.8-2-2-2.4-2.4"/>
<path class="st4" d="M269.4,82.6c0-26.6,0-66.4,0-79.7L267,0.5c-88.1,0-220.1,0-264.2,0c-0.8,0.8-2,2-2.4,2.4c0,26.6,0,66.4,0,79.7
	c0.8,0.8,2,2,2.4,2.4C90.9,85,223,85,267,85C267.8,84.2,269,83,269.4,82.6z"/>
<line class="st5" x1="217.6" y1="13.7" x2="217.6" y2="5.4"/>
<line class="st5" x1="217.6" y1="22.2" x2="217.6" y2="13.9"/>
<path class="st6" d="M217.6,13.9"/>
<polygon class="st7" points="205.5,81.5 64.4,81.5 64.4,80.1 52.5,80.1 52.5,5.4 64.4,5.4 64.4,4 205.5,4 205.5,5.4 217.4,5.4 
	217.4,80.1 205.5,80.1 "/>
<line class="st5" x1="217.6" y1="30.4" x2="217.6" y2="22.2"/>
<path class="st6" d="M217.6,22.2"/>
<line class="st5" x1="217.6" y1="38.7" x2="217.6" y2="30.4"/>
<path class="st6" d="M217.6,30.4"/>
<line class="st5" x1="217.6" y1="47" x2="217.6" y2="38.7"/>
<path class="st6" d="M217.6,38.7"/>
<line class="st5" x1="217.6" y1="55.3" x2="217.6" y2="47"/>
<path class="st6" d="M217.6,47"/>
<line class="st5" x1="217.6" y1="63.5" x2="217.6" y2="55.3"/>
<path class="st6" d="M217.6,55.3"/>
<line class="st5" x1="217.6" y1="71.8" x2="217.6" y2="63.5"/>
<path class="st6" d="M217.6,63.5"/>
<line class="st5" x1="217.6" y1="80.1" x2="217.6" y2="71.8"/>
<path class="st6" d="M217.6,71.8"/>
<path class="st8" d="M110.9,66.2"/>
<text transform="matrix(1 0 0 1 106.6644 64.2087)" class="st0 st1 st9">P</text>
<text transform="matrix(1 0 0 1 109.0843 64.2087)" class="st0 st1 st9">r</text>
<text transform="matrix(1 0 0 1 110.3856 64.2087)" class="st0 st1 st9">o</text>
<text transform="matrix(1 0 0 1 112.4344 64.2087)" class="st0 st1 st9">g</text>
<text transform="matrix(1 0 0 1 114.4827 64.2087)" class="st0 st1 st9">.</text>
<circle class="st10" cx="110.9" cy="57.5" r="2.4"/>
<circle class="st11" cx="110.9" cy="57.5" r="2.4"/>
<text transform="matrix(1 0 0 1 95.7943 36.2349)" class="st1 st12">Z-wave LED Dimmer - White</text>
<text transform="matrix(1 0 0 1 111.3519 44.0445)" class="st1 st12">ROB_100-012-0</text>
<g id="_x23_093266ff">
	<path d="M128.5,65.7c4.2,0,8.4,0,12.6,0c0.3,0,0.6,0,0.9,0c0.6,0,1.2,0.4,1.4,0.9c0.1,0.2,0.1,0.4,0.1,0.6c0,3.5,0,7,0,10.5
		c0,0.2,0,0.4-0.1,0.6c-0.3,0.6-0.9,0.9-1.5,0.9c-4.5,0-9,0-13.5,0c-0.6,0-1.2-0.3-1.5-0.9c-0.1-0.2-0.1-0.4-0.1-0.6
		c0-3.5,0-6.9,0-10.4c0-0.2,0-0.4,0.1-0.6C127.3,66,127.9,65.7,128.5,65.7 M127.4,66.7c-0.1,0.2-0.1,0.3-0.1,0.5c0,2.2,0,4.3,0,6.5
		c1,0,2.1,0,3.1,0c0.3,0.3,0.7,0.6,1.2,0.8c0.6,0.2,1.3,0.2,1.9,0c0.4-0.2,0.8-0.4,1.2-0.8c2.8,0,5.6,0,8.4,0c0-2.2,0-4.4,0-6.5
		c0-0.2-0.1-0.5-0.3-0.7s-0.6-0.4-0.9-0.4c-4.5,0-9,0-13.5,0C128.1,66.1,127.7,66.3,127.4,66.7 M141.3,75.6
		c-0.2,0.2-0.3,0.5-0.2,0.7c0,0.2,0.1,0.3,0.2,0.4c0.2,0.1,0.4,0.2,0.6,0.2c0.1,0,0.2,0.1,0.2,0.2s-0.1,0.2-0.3,0.2
		s-0.4-0.1-0.6-0.3c-0.1,0.2-0.2,0.3-0.3,0.5c0.3,0.2,0.6,0.3,0.9,0.3c0.3,0,0.5-0.1,0.7-0.3c0.1-0.1,0.2-0.3,0.2-0.5s0-0.4-0.2-0.6
		s-0.4-0.2-0.7-0.3c-0.1,0-0.2-0.1-0.2-0.2s0.1-0.2,0.2-0.2c0.2,0,0.4,0.1,0.5,0.2c0.1-0.2,0.2-0.3,0.3-0.5
		c-0.2-0.1-0.5-0.2-0.7-0.2C141.8,75.4,141.5,75.4,141.3,75.6 M132.8,77.9c0.2,0,0.4,0,0.6,0c0-0.3,0-0.5,0-0.8c0.3,0,0.6,0,0.9-0.1
		c0.2-0.1,0.3-0.3,0.4-0.5c0-0.3,0-0.6-0.2-0.8c-0.2-0.2-0.4-0.2-0.7-0.2s-0.7,0-1,0C132.8,76.3,132.8,77.1,132.8,77.9 M135.6,75.4
		c0,0.8,0,1.6,0,2.5c0.5,0,0.9,0,1.4,0c0-0.2,0-0.4,0-0.5c-0.3,0-0.5,0-0.8,0c0-0.6,0-1.3,0-1.9C136,75.4,135.8,75.4,135.6,75.4
		 M137.8,75.4c0,0.4,0,0.8,0,1.2c0,0.2,0,0.4,0,0.7c0,0.2,0.2,0.4,0.4,0.5c0.3,0.1,0.6,0.2,0.9,0.1c0.3,0,0.5-0.1,0.7-0.4
		c0.1-0.2,0.2-0.5,0.2-0.7c0-0.5,0-0.9,0-1.4c-0.2,0-0.4,0-0.6,0c0,0.4,0,0.9,0,1.3c0,0.2,0,0.3-0.1,0.4s-0.2,0.2-0.3,0.2
		s-0.3,0-0.4-0.1c-0.1-0.1-0.1-0.3-0.1-0.5c0-0.5,0-0.9,0-1.4C138.2,75.4,138,75.4,137.8,75.4z"/>
	<path d="M131.2,67.5c0.4-0.2,0.9-0.2,1.4-0.2c0,0.2,0,0.4,0,0.6c-0.9,0-1.7,0.3-2.4,0.9c-0.8,0.7-1.3,1.7-1.4,2.7
		c0,0.1,0,0.1,0,0.2c-0.2,0-0.4,0-0.6,0c0-0.8,0.3-1.7,0.7-2.4C129.5,68.5,130.3,67.8,131.2,67.5z"/>
	<path d="M130.1,69.7c0.6-0.8,1.6-1.3,2.5-1.2c0,0.2,0,0.4,0,0.6c-0.5,0-1,0.1-1.4,0.4c-0.7,0.5-1.2,1.3-1.2,2.2c-0.2,0-0.4,0-0.6,0
		C129.4,71,129.6,70.3,130.1,69.7z"/>
	<path d="M132.2,70c0.4-0.1,0.8,0,1.1,0.2c0.4,0.2,0.8,0.6,0.9,1.1c0.1,0.4,0.1,0.8-0.1,1.2c-0.1,0.3-0.4,0.6-0.6,0.7
		c-0.4,0.3-0.8,0.3-1.3,0.3c-0.4-0.1-0.8-0.3-1.1-0.7c-0.3-0.4-0.4-0.9-0.3-1.4C131,70.7,131.6,70.1,132.2,70 M132,70.7
		c-0.1,0.2-0.2,0.4-0.3,0.5c0.3,0,0.5,0,0.8,0c-0.3,0.4-0.5,0.8-0.8,1.3c0.5,0,1,0,1.5,0c0.1-0.2,0.2-0.4,0.3-0.6
		c-0.3,0-0.5,0-0.8,0c0.3-0.4,0.5-0.8,0.8-1.2C133,70.7,132.5,70.7,132,70.7z"/>
	<path d="M134.5,70.7c0.2,0,0.4,0,0.7,0c0.1,0.4,0.2,0.8,0.2,1.2l0,0c0-0.1,0-0.3,0.1-0.4c0.1-0.3,0.1-0.5,0.2-0.8
		c0.2,0,0.3,0,0.5,0c0.1,0.3,0.1,0.6,0.2,0.9c0,0.1,0,0.2,0.1,0.3c0-0.4,0.1-0.8,0.2-1.2c0.2,0,0.4,0,0.7,0
		c-0.2,0.6-0.4,1.2-0.5,1.8c-0.2,0-0.4,0-0.6,0c0-0.2-0.1-0.5-0.2-0.7c0-0.1,0-0.2-0.1-0.2c0,0.3-0.1,0.6-0.2,0.9
		c-0.2,0-0.4,0-0.6,0C134.9,71.9,134.7,71.3,134.5,70.7z"/>
	<path d="M137.8,70.7c0.2,0,0.5,0,0.7,0c0.2,0.6,0.4,1.2,0.6,1.8c-0.2,0-0.5,0-0.7,0c0-0.1,0-0.2-0.1-0.2c-0.2,0-0.3,0-0.5,0
		c0,0.1,0,0.2,0,0.2c-0.2,0-0.5,0-0.7,0C137.3,71.9,137.5,71.3,137.8,70.7 M138.1,71.3c0,0.2-0.1,0.4-0.1,0.6c0.1,0,0.2,0,0.3,0
		C138.2,71.7,138.1,71.5,138.1,71.3L138.1,71.3z"/>
	<path d="M139,70.7c0.2,0,0.5,0,0.7,0c0.1,0.4,0.2,0.7,0.3,1.1c0.1-0.4,0.2-0.7,0.3-1.1c0.2,0,0.5,0,0.7,0c-0.2,0.6-0.5,1.2-0.7,1.8
		c-0.2,0-0.4,0-0.6,0C139.5,71.9,139.2,71.3,139,70.7z"/>
	<path d="M141.3,70.7c0.4,0,0.8,0,1.2,0c0,0.2,0,0.3,0,0.5c-0.2,0-0.4,0-0.6,0c0,0.1,0,0.1,0,0.2c0.2,0,0.4,0,0.5,0
		c0,0.2,0,0.3,0,0.5c-0.2,0-0.4,0-0.5,0c0,0.1,0,0.1,0,0.2c0.2,0,0.4,0,0.6,0c0,0.2,0,0.3,0,0.5c-0.4,0-0.8,0-1.3,0
		C141.3,71.9,141.3,71.3,141.3,70.7z"/>
	<path d="M133.5,75.9c0.1,0,0.3,0,0.4,0c0.1,0.1,0.1,0.2,0.1,0.3c0,0.1-0.1,0.2-0.2,0.2c-0.1,0-0.3,0-0.4,0
		C133.5,76.3,133.5,76.1,133.5,75.9z"/>
</g>
<g>
	<path class="st13" d="M141.51,11.02h-0.52V10.6c0-1.61-1.31-2.92-2.93-2.92h-0.12c-1.59,0-2.88,1.28-2.88,2.86v0.48v5.9h5.93h0.38
		c1.65,0,2.98-1.33,2.98-2.96v-0.12C144.35,12.28,143.08,11.02,141.51,11.02"/>
	<path class="st13" d="M119.98,7.59c-2.62,0-4.74,2.11-4.74,4.71s2.12,4.71,4.74,4.71c2.62,0,4.74-2.11,4.74-4.71
		S122.6,7.59,119.98,7.59"/>
	<path class="st13" d="M111.16,7.73h-4.29l-0.02,9.14h7.97l0,0c0-1.08-0.55-2.02-1.39-2.58c0.86-0.67,1.42-1.72,1.42-2.89
		C114.85,9.38,113.2,7.73,111.16,7.73"/>
	<path class="st13" d="M139.37,17.54h-4.29l-0.02,9.15h7.97l0,0c0-1.08-0.55-2.03-1.39-2.58c0.86-0.67,1.42-1.72,1.42-2.9
		C143.06,19.18,141.41,17.54,139.37,17.54"/>
	<path class="st13" d="M147.95,17.54h-4.29l-0.02,9.15h7.97l0,0c0-1.08-0.55-2.03-1.39-2.58c0.86-0.67,1.42-1.72,1.42-2.9
		C151.64,19.18,149.99,17.54,147.95,17.54"/>
	<path class="st13" d="M131.71,11.02h-0.52V10.6c0-1.61-1.31-2.92-2.93-2.92h-0.12c-1.59,0-2.88,1.28-2.88,2.86v0.48v5.9h5.93h0.38
		c1.65,0,2.98-1.33,2.98-2.96v-0.12C134.54,12.28,133.27,11.02,131.71,11.02"/>
	<g>
		<path class="st14" d="M108.34,29.63h-0.2l-0.34-0.93h-0.01l-0.3,0.93h-0.21l-0.39-1.2h0.22l0.28,0.93h0.01l0.31-0.93h0.21
			l0.32,0.93h0.01l0.27-0.93h0.22L108.34,29.63z"/>
		<path class="st14" d="M110.04,29.41c-0.07,0.09-0.15,0.16-0.24,0.19c-0.09,0.04-0.19,0.06-0.3,0.06c-0.09,0-0.18-0.02-0.26-0.05
			s-0.14-0.08-0.19-0.13c-0.05-0.06-0.09-0.12-0.12-0.2c-0.03-0.08-0.04-0.16-0.04-0.25c0-0.09,0.02-0.18,0.05-0.26
			c0.03-0.08,0.07-0.14,0.13-0.2c0.06-0.06,0.12-0.1,0.2-0.13c0.08-0.03,0.16-0.05,0.25-0.05c0.08,0,0.16,0.01,0.23,0.04
			c0.07,0.03,0.13,0.07,0.18,0.12c0.05,0.05,0.09,0.12,0.12,0.2c0.03,0.08,0.04,0.17,0.04,0.27v0.06h-0.98
			c0,0.05,0.02,0.1,0.04,0.15c0.02,0.05,0.05,0.09,0.08,0.12c0.03,0.04,0.07,0.06,0.12,0.08c0.05,0.02,0.1,0.03,0.15,0.03
			c0.09,0,0.16-0.02,0.22-0.05s0.11-0.08,0.16-0.14L110.04,29.41z M109.87,28.92c0-0.1-0.04-0.18-0.1-0.25
			c-0.06-0.06-0.15-0.09-0.26-0.09c-0.11,0-0.2,0.03-0.27,0.09c-0.07,0.06-0.11,0.14-0.12,0.25H109.87z"/>
		<path class="st14" d="M111.13,27.69h0.2v1.94h-0.2V27.69z"/>
		<path class="st14" d="M111.67,29.03c0-0.09,0.02-0.18,0.05-0.26c0.03-0.08,0.08-0.14,0.13-0.2c0.06-0.06,0.12-0.1,0.2-0.13
			c0.08-0.03,0.17-0.05,0.26-0.05c0.09,0,0.18,0.02,0.26,0.05c0.08,0.03,0.15,0.07,0.2,0.13c0.06,0.06,0.1,0.12,0.13,0.2
			c0.03,0.08,0.05,0.16,0.05,0.26c0,0.1-0.02,0.18-0.05,0.26s-0.08,0.14-0.13,0.2c-0.06,0.06-0.12,0.1-0.2,0.13
			c-0.08,0.03-0.17,0.05-0.26,0.05c-0.09,0-0.18-0.02-0.26-0.05c-0.08-0.03-0.15-0.07-0.2-0.13c-0.06-0.06-0.1-0.12-0.13-0.2
			C111.68,29.21,111.67,29.12,111.67,29.03z M111.88,29.03c0,0.06,0.01,0.12,0.03,0.18s0.05,0.1,0.09,0.14
			c0.04,0.04,0.08,0.07,0.14,0.1c0.05,0.02,0.11,0.03,0.18,0.03c0.07,0,0.12-0.01,0.18-0.03c0.05-0.02,0.1-0.06,0.14-0.1
			c0.04-0.04,0.07-0.09,0.09-0.14c0.02-0.05,0.03-0.11,0.03-0.18s-0.01-0.12-0.03-0.18c-0.02-0.05-0.05-0.1-0.09-0.14
			c-0.04-0.04-0.08-0.07-0.14-0.1c-0.05-0.02-0.11-0.03-0.18-0.03c-0.07,0-0.12,0.01-0.18,0.03c-0.05,0.02-0.1,0.06-0.14,0.1
			c-0.04,0.04-0.07,0.09-0.09,0.14C111.89,28.9,111.88,28.96,111.88,29.03z"/>
		<path class="st14" d="M113.82,29.63h-0.22l-0.49-1.2h0.24l0.38,0.94h0.01l0.36-0.94h0.22L113.82,29.63z"/>
		<path class="st14" d="M115.6,29.41c-0.07,0.09-0.15,0.16-0.24,0.19c-0.09,0.04-0.19,0.06-0.3,0.06c-0.09,0-0.18-0.02-0.26-0.05
			s-0.14-0.08-0.19-0.13c-0.05-0.06-0.09-0.12-0.12-0.2c-0.03-0.08-0.04-0.16-0.04-0.25c0-0.09,0.02-0.18,0.05-0.26
			c0.03-0.08,0.07-0.14,0.13-0.2c0.06-0.06,0.12-0.1,0.2-0.13c0.08-0.03,0.16-0.05,0.25-0.05c0.08,0,0.16,0.01,0.23,0.04
			c0.07,0.03,0.13,0.07,0.18,0.12c0.05,0.05,0.09,0.12,0.12,0.2c0.03,0.08,0.04,0.17,0.04,0.27v0.06h-0.98
			c0,0.05,0.02,0.1,0.04,0.15c0.02,0.05,0.05,0.09,0.08,0.12c0.03,0.04,0.07,0.06,0.12,0.08c0.05,0.02,0.1,0.03,0.15,0.03
			c0.09,0,0.16-0.02,0.22-0.05c0.06-0.03,0.11-0.08,0.16-0.14L115.6,29.41z M115.43,28.92c0-0.1-0.04-0.18-0.1-0.25
			c-0.06-0.06-0.15-0.09-0.26-0.09c-0.11,0-0.2,0.03-0.27,0.09c-0.07,0.06-0.11,0.14-0.12,0.25H115.43z"/>
		<path class="st14" d="M116.7,29.31c0.04,0.05,0.08,0.09,0.13,0.12c0.05,0.03,0.11,0.04,0.18,0.04c0.03,0,0.06,0,0.09-0.01
			c0.03-0.01,0.06-0.02,0.09-0.03c0.03-0.02,0.05-0.03,0.06-0.06c0.02-0.02,0.02-0.05,0.02-0.08c0-0.03-0.01-0.06-0.02-0.08
			c-0.01-0.02-0.03-0.04-0.06-0.05c-0.02-0.01-0.05-0.03-0.08-0.03c-0.03-0.01-0.06-0.02-0.1-0.02c-0.06-0.01-0.11-0.03-0.16-0.04
			c-0.05-0.02-0.1-0.04-0.14-0.06c-0.04-0.02-0.07-0.06-0.09-0.1c-0.02-0.04-0.03-0.09-0.03-0.15c0-0.06,0.01-0.11,0.04-0.15
			s0.06-0.08,0.1-0.11c0.04-0.03,0.09-0.05,0.14-0.07c0.05-0.02,0.11-0.02,0.17-0.02c0.09,0,0.17,0.02,0.24,0.05
			c0.07,0.03,0.13,0.09,0.17,0.17l-0.17,0.11c-0.03-0.04-0.06-0.08-0.1-0.1c-0.04-0.03-0.09-0.04-0.15-0.04
			c-0.03,0-0.06,0-0.08,0.01s-0.05,0.02-0.08,0.03c-0.02,0.01-0.04,0.03-0.06,0.05c-0.01,0.02-0.02,0.05-0.02,0.07
			c0,0.03,0.01,0.05,0.02,0.07c0.02,0.02,0.04,0.03,0.07,0.05c0.03,0.01,0.06,0.03,0.1,0.04c0.04,0.01,0.08,0.02,0.11,0.03
			c0.05,0.01,0.1,0.02,0.15,0.04c0.05,0.02,0.09,0.04,0.13,0.07c0.04,0.03,0.06,0.06,0.09,0.1c0.02,0.04,0.03,0.09,0.03,0.15
			c0,0.07-0.01,0.13-0.04,0.17c-0.03,0.05-0.06,0.09-0.11,0.12c-0.05,0.03-0.1,0.05-0.16,0.07c-0.06,0.01-0.12,0.02-0.18,0.02
			c-0.1,0-0.19-0.02-0.27-0.05c-0.07-0.03-0.14-0.09-0.2-0.18L116.7,29.31z"/>
		<path class="st14" d="M117.78,28.71c0-0.06,0-0.11-0.01-0.15c0-0.05-0.01-0.09-0.01-0.13h0.19c0,0.03,0,0.07,0,0.1
			c0,0.03,0,0.07,0,0.1h0.01c0.01-0.03,0.03-0.06,0.06-0.09c0.02-0.03,0.05-0.05,0.09-0.07s0.07-0.04,0.12-0.05
			c0.04-0.01,0.09-0.02,0.14-0.02c0.07,0,0.12,0.01,0.16,0.02c0.04,0.02,0.08,0.04,0.11,0.06c0.03,0.02,0.05,0.05,0.07,0.07
			c0.02,0.03,0.03,0.05,0.04,0.07c0.04-0.07,0.1-0.13,0.15-0.17c0.06-0.04,0.13-0.06,0.23-0.06c0.09,0,0.16,0.01,0.22,0.03
			c0.06,0.02,0.11,0.06,0.14,0.1c0.04,0.04,0.06,0.1,0.08,0.16c0.02,0.06,0.02,0.13,0.02,0.21v0.73h-0.2v-0.72
			c0-0.04,0-0.08-0.01-0.12c-0.01-0.04-0.02-0.07-0.05-0.1c-0.02-0.03-0.05-0.06-0.09-0.07c-0.04-0.02-0.09-0.03-0.14-0.03
			c-0.04,0-0.08,0.01-0.12,0.03c-0.04,0.02-0.07,0.04-0.1,0.07c-0.03,0.03-0.05,0.07-0.07,0.11c-0.02,0.04-0.02,0.09-0.02,0.14v0.69
			h-0.2v-0.68c0-0.13-0.02-0.23-0.05-0.28c-0.04-0.06-0.1-0.08-0.18-0.08c-0.07,0-0.12,0.01-0.17,0.03
			c-0.05,0.02-0.09,0.05-0.12,0.1c-0.03,0.04-0.05,0.09-0.07,0.15c-0.01,0.06-0.02,0.12-0.02,0.19v0.59h-0.2L117.78,28.71
			L117.78,28.71z"/>
		<path class="st14" d="M119.96,28.58c0.06-0.06,0.14-0.11,0.22-0.14c0.09-0.03,0.17-0.05,0.26-0.05c0.18,0,0.31,0.04,0.39,0.13
			c0.08,0.08,0.12,0.21,0.12,0.38v0.52c0,0.03,0,0.07,0.01,0.11c0,0.04,0.01,0.07,0.01,0.1h-0.19c-0.01-0.03-0.01-0.06-0.01-0.09
			c0-0.03,0-0.06,0-0.09h-0.01c-0.04,0.06-0.09,0.11-0.16,0.15c-0.07,0.04-0.15,0.06-0.24,0.06c-0.06,0-0.12-0.01-0.17-0.02
			c-0.05-0.02-0.1-0.04-0.14-0.07c-0.04-0.03-0.07-0.07-0.1-0.11c-0.02-0.04-0.04-0.1-0.04-0.15c0-0.1,0.03-0.18,0.08-0.23
			c0.05-0.06,0.12-0.1,0.19-0.13c0.08-0.03,0.16-0.04,0.25-0.05s0.17-0.01,0.24-0.01h0.08v-0.04c0-0.09-0.03-0.15-0.08-0.2
			c-0.05-0.04-0.13-0.07-0.22-0.07c-0.07,0-0.13,0.01-0.19,0.03c-0.06,0.02-0.12,0.05-0.17,0.1L119.96,28.58z M120.55,29.05
			c-0.13,0-0.23,0.02-0.31,0.05c-0.08,0.04-0.11,0.1-0.11,0.18c0,0.08,0.03,0.13,0.08,0.16c0.05,0.03,0.11,0.05,0.19,0.05
			c0.06,0,0.11-0.01,0.15-0.03c0.04-0.02,0.08-0.05,0.11-0.08c0.03-0.03,0.05-0.07,0.07-0.11c0.02-0.04,0.02-0.09,0.03-0.14v-0.08
			L120.55,29.05L120.55,29.05z"/>
		<path class="st14" d="M121.32,28.71c0-0.06,0-0.11-0.01-0.15s-0.01-0.09-0.01-0.13h0.19c0,0.03,0,0.07,0,0.1c0,0.03,0,0.07,0,0.1
			h0.01c0.01-0.03,0.03-0.06,0.06-0.09c0.02-0.03,0.05-0.05,0.09-0.07c0.03-0.02,0.07-0.04,0.12-0.05c0.04-0.01,0.09-0.02,0.14-0.02
			c0.01,0,0.03,0,0.04,0c0.01,0,0.03,0.01,0.04,0.01l-0.01,0.2c-0.03-0.01-0.07-0.02-0.11-0.02c-0.12,0-0.21,0.04-0.27,0.12
			s-0.08,0.19-0.08,0.33v0.59h-0.2L121.32,28.71L121.32,28.71z"/>
		<path class="st14" d="M122.89,28.59h-0.36v0.6c0,0.04,0,0.08,0,0.11c0,0.03,0.01,0.06,0.02,0.09c0.01,0.03,0.03,0.04,0.05,0.06
			c0.02,0.01,0.06,0.02,0.1,0.02c0.03,0,0.06,0,0.09-0.01c0.03-0.01,0.06-0.02,0.09-0.03l0.01,0.18c-0.03,0.02-0.07,0.03-0.11,0.03
			c-0.04,0.01-0.08,0.01-0.12,0.01c-0.07,0-0.13-0.01-0.17-0.03c-0.04-0.02-0.08-0.05-0.1-0.08c-0.02-0.03-0.04-0.08-0.05-0.13
			s-0.01-0.11-0.01-0.17v-0.66h-0.26v-0.17h0.26v-0.34h0.2v0.34h0.36V28.59z"/>
	</g>
	<polygon class="st13" points="115.24,17.53 116.84,17.53 119.9,20.07 123.17,17.53 124.72,17.53 124.72,26.7 115.24,26.7 	"/>
	<polygon class="st13" points="134.52,26.7 125.25,26.7 129.88,17.54 	"/>
	<g>
		<path class="st13" d="M153.46,26.62v-6.79h-1.55v-2.3h7.34v2.3h-1.55v6.79H153.46z"/>
	</g>
	<path class="st13" d="M114.51,17.53h-0.86h-3.57c-0.44,0-0.86,0.08-1.25,0.25c-0.38,0.16-0.72,0.38-1,0.66
		c-0.29,0.28-0.52,0.6-0.68,0.97c-0.17,0.38-0.26,0.78-0.26,1.2s0.09,0.83,0.25,1.21c0.16,0.37,0.39,0.7,0.68,0.97
		c0.29,0.28,0.62,0.5,1,0.66c0.08,0.03,0.17,0.07,0.25,0.09h-0.9h-0.86v0.83v1.5v0.83h0.86h3.45c0.44,0,0.86-0.08,1.25-0.25
		c0.38-0.16,0.72-0.38,1.01-0.66c0.29-0.28,0.52-0.6,0.68-0.97c0.17-0.37,0.25-0.78,0.25-1.2c0-0.42-0.08-0.83-0.25-1.2
		c-0.16-0.37-0.39-0.7-0.68-0.98c-0.29-0.28-0.63-0.5-1.01-0.66c-0.08-0.03-0.17-0.07-0.26-0.09h1.03h0.86v-0.83v-1.5L114.51,17.53
		L114.51,17.53z"/>
</g>
</svg>
