<?xml version="1.0" encoding="utf-8"?>
<!-- Generator: Adobe Illustrator 25.2.1, SVG Export Plug-In . SVG Version: 6.00 Build 0)  -->
<svg version="1.1" xmlns="http://www.w3.org/2000/svg" xmlns:xlink="http://www.w3.org/1999/xlink" x="0px" y="0px"
	 viewBox="0 0 808.8 146.5" style="enable-background:new 0 0 808.8 146.5;" xml:space="preserve">
<style type="text/css">
	.st0{display:none;}
	.st1{display:inline;}
	.st2{fill:#E0E0E1;}
	.st3{fill:#BBBCB7;}
	.st4{fill:#DCDCDC;}
	.st5{fill:#2C2921;}
	.st6{fill:#494238;}
	.st7{fill:#57533B;}
	.st8{fill:#6E6C5F;}
	.st9{fill:#C9C8C3;}
	.st10{fill:#BEB9A9;}
	.st11{fill:#A7A28C;}
	.st12{fill:#A7A08B;}
	.st13{fill:#B4AE9A;}
	.st14{fill:#D1CFC2;}
	.st15{fill:#878A8C;}
	.st16{fill:#BDB6A2;}
	.st17{fill:#F3F2EF;}
	.st18{fill:#EEEFEA;}
	.st19{fill:#EEEDEB;}
	.st20{fill:#BDB8A7;}
	.st21{fill:#E9E8E6;}
	.st22{fill:#CFCCBC;}
	.st23{fill:#E2E1D7;}
	.st24{fill:#524632;}
	.st25{fill:#D3D0C3;}
	.st26{fill:#67583B;}
	.st27{fill:#ECEDE8;}
	.st28{fill:#746347;}
	.st29{fill:#373123;}
	.st30{fill:#877A5A;}
	.st31{fill:#97866F;}
	.st32{fill:#E3E2D8;}
	.st33{fill:#E0DED3;}
	.st34{fill:#AEA174;}
	.st35{fill:#D0D1D3;}
	.st36{fill:#E0E0E2;}
	.st37{fill:#B3A580;}
	.st38{fill:#261E13;}
	.st39{fill:#CECDBD;}
	.st40{fill:#CDC7B7;}
	.st41{fill:#E5E6E8;}
	.st42{fill:#382F21;}
	.st43{fill:#CAC7BE;}
	.st44{fill:#CECABF;}
	.st45{fill:#5D5838;}
	.st46{fill:#D2CFC0;}
	.st47{fill:#F3F0ED;}
	.st48{fill:#CAC7B9;}
	.st49{fill:#F3F1F2;}
	.st50{fill:#F0EFE8;}
	.st51{fill:#E4E4DB;}
	.st52{fill:#D5D2CA;}
	.st53{fill:#D7D6CD;}
	.st54{fill:#818483;}
	.st55{fill:#36332A;}
	.st56{fill:#68655C;}
	.st57{fill:#726B51;}
	.st58{fill:#D8DBDC;}
	.st59{fill:#DBDBD2;}
	.st60{fill:#F0EBD8;}
	.st61{fill:#C4B699;}
	.st62{fill:#C1B9A4;}
	.st63{fill:#FBF4E1;}
	.st64{fill:#908253;}
	.st65{fill:#908361;}
	.st66{fill:#8B7F61;}
	.st67{fill:#93865A;}
	.st68{fill:#A7996E;}
	.st69{fill:#998E6A;}
	.st70{fill:none;stroke:#000000;stroke-width:2;stroke-miterlimit:10;}
	.st71{fill:none;stroke:#000000;stroke-width:7;stroke-miterlimit:10;}
	.st72{fill:none;stroke:#000000;stroke-width:5;stroke-miterlimit:10;}
	.st73{fill:none;stroke:#0066FF;stroke-width:5;stroke-miterlimit:10;}
	.st74{fill:#F28A19;}
	.st75{fill:#553289;}
</style>
<g id="Laag_1" class="st0">
	<g id="_x23_ffffffff" class="st1">
	</g>
	<g id="_x23_e0e0e1ff" class="st1">
		<path class="st2" d="M261.8,1.5c50.9-0.3,101.8,0,152.7-0.6c18.1,0.5,36.2-0.4,54.3-0.2c28-0.2,56-0.1,84-0.4
			c53.7-0.4,107.3-0.1,161-0.4c4.7,0,9.4,1,13.9,2.4c5.8,1.7,12.2,3.9,15.2,9.6c-0.6,1.5-1.3,3-1.8,4.6c-3.1-3.3-7.3-6-8.6-10.6
			c-2.5-0.7-5-1.3-7.7-1.4c-45,0.1-90,0.1-135,0.1c-7,0.3-14,0.5-21,0.2c-24.3,0.7-48.7,0.3-73,0.5c-27.3,0.1-54.7-0.1-82,0.3
			c-23.3-0.7-46.7,0.1-70-0.1c-30.3,0-60.7,0.1-91,0.1c-11-0.2-22,0.2-33,0.6c-60,0.1-120,0.1-180,0.2c-6.5,0.2-13,0.3-19.4-0.8
			c4.2-0.9,8.4-2.1,12.6-2.9c6.8-1.4,13.9-0.8,20.8-0.9C123.1,1.8,192.5,1.9,261.8,1.5z"/>
	</g>
	<g id="_x23_bbbcb7ff" class="st1">
		<path class="st3" d="M741.1,16.5c0.5-1.5,1.1-3.1,1.8-4.6c1.6,3.2,2.6,6.7,2.6,10.4c0.1,7.1-0.3,14.2,0,21.3
			c4.8,0.5,9.7,0.8,14.5,1c-4.5,0.7-10.5,0.5-12.5,5.5c-2.8,4,0.8,8.2,3.1,11.5c3.4,5.2,10.3,5.1,15.8,5.1c3.9-0.1,3.8-5.2,5-8
			c0.9,1.3,1.7,2.6,2.6,4c11.6-0.7,23.3-2.1,34.9-1.2v2c-9.6-0.6-19.3-0.2-28.8,0.9c-3.2,0.5-6.9,0.3-9.5,2.6
			c-1.8,1.2-3.4,2.9-5.7,3.1c-6.7,0.6-13.4,0.1-20.1,0.6c-0.5-9.2,1.9-18.7-1.1-27.7c-0.6,1.8-1.1,3.6-1.6,5.4
			c0.1-7.8,0.3-15.6-0.4-23.4C741.4,22.3,741.1,19.4,741.1,16.5z"/>
	</g>
	<g id="_x23_dcdcdcff" class="st1">
		<path class="st4" d="M3.8,36.4C3.9,28.5,2,19.6,6.7,12.6C9,17,7.1,21.8,7.1,26.4c1.1,30-0.2,60.1,1.3,90c0.1,4.3-0.3,8.6,0.4,12.9
			c0.8,4.6,4.4,9,9.2,9.7c4.6,0.6,9.2,0.2,13.8,0.3c185.3,0,370.7-0.2,556-0.1c47.3,0.1,94.5-0.2,141.8,0.1
			c-1.2,1.3-2.2,2.8-3.1,4.3c-4.2,0.3-8.5,0.3-12.7,0.3c-124-0.1-248,0.1-372-0.2c-103-0.1-206,0-309,0c-7.4-0.2-16.2,1.6-22.2-4
			c-5.2-4.4-5.9-11.7-5.7-18.1C4.7,93.1,4.1,64.8,3.8,36.4z"/>
	</g>
	<g id="_x23_2c2921ff" class="st1">
		<path class="st5" d="M435.8,18.8c1.4-1.1,3.2,1.3,1.7,2.3C436.1,22.2,434.2,19.8,435.8,18.8z"/>
		<path class="st5" d="M31.5,82.7c8.8,0.2,17.7-0.5,26.4,0.3c-5.1,2.1-10.7,0.8-16.1,1.1c-2.8,0.2-6.9-1-8.1,2.5
			c7.8,1,15.9-0.7,23.5,1c-0.1,0.4-0.4,1.2-0.6,1.5c-6.2,0.2-12.3,0.2-18.5-0.1c0,0.5,0,1.5,0,1.9c6.1,0,12.4-0.4,18.5,0.6
			c0,0.3-0.1,0.9-0.1,1.2c-8,0.2-16,0.1-24,0.2l-1.1,0C31.4,89.5,31.4,86.1,31.5,82.7z"/>
		<path class="st5" d="M310.5,97.8c2.8-3,5.3-6.6,9.1-8.5c-2,3-4.4,5.6-6.7,8.4c-0.4,0.4-1.1,1.3-1.5,1.8c1.4,1.1,2.8,2.1,4.1,3.2
			c0.2,0.2,0.7,0.7,1,0.9c0.3,1.1,0.6,2.3,0.9,3.4c-3.4-1.9-5.6-5.1-8-8C309.7,98.6,310.3,98,310.5,97.8z"/>
		<path class="st5" d="M402.3,97c2.7-2.6,4.7-6.2,8.4-7.6c-0.2,0.3-0.7,1-1,1.4c-1.9,2.2-3.9,4.3-5.6,6.7
			C403.6,97.4,402.7,97.1,402.3,97z"/>
		<path class="st5" d="M497.8,92.8c1-1.2,2-2.3,3.1-3.4c0.5,0.2,1.5,0.6,2.1,0.8c-0.7,0.3-1.5,0.7-2.2,1
			C499.8,91.8,498.8,92.3,497.8,92.8z"/>
		<path class="st5" d="M416.1,95.4c1.3,1.4,2.6,2.8,3.9,4.2c-2.9,3-5.8,6.1-8.6,9.2l-0.2-1.1l-0.2-1c1.5-2,3.3-3.9,5-5.8
			c-1.8-1.5-3.7-2.9-5.4-4.5c1.8,0.8,3.6,1.6,5.4,2.4C416.1,98,416.1,96.3,416.1,95.4z"/>
		<path class="st5" d="M505.9,102.4c1.6-1.6,3.3-3.2,5.1-4.7c0.4,1.1,0.5,2.6-0.7,3.3c-2.1,2-4.1,4.1-6,6.4c-0.5-0.5-1-1-1.5-1.4
			C503.9,104.7,504.9,103.5,505.9,102.4z"/>
		<path class="st5" d="M324.1,102.3c1.5-1.2,3.2-2.2,4.9-3.1c-3,3.7-6,7.9-10.4,9.9c0.3-0.7,1-2,1.3-2.7
			C321.2,104.9,322.6,103.6,324.1,102.3z"/>
	</g>
	<g id="_x23_494238ff" class="st1">
		<path class="st6" d="M528.9,19.2c1.2-0.3,2.3-0.5,3.5-0.8c-0.1,0.6-0.3,1.8-0.4,2.4c-0.5,0.1-1.4,0.3-1.8,0.4
			C529.8,20.6,529.2,19.7,528.9,19.2z"/>
		<path class="st6" d="M227.2,90.1c0.5,0,1.4-0.1,1.9-0.1c-2.2,2.7-4.5,5.2-6.8,7.9c0.9,1.9,1.7,3.9,2.8,5.7
			c0.9,1.1,1.8,2.2,2.8,3.3c0.4-0.4,1.2-1.1,1.6-1.5c1-1,2.1-1.9,3.2-2.8c1.7-1.3,3.5-2.5,5.4-3.5c-2.4,3.8-5.7,7.1-9.3,9.8
			c-0.4,0-1.2-0.1-1.7-0.1c-3.5-3.1-7.8-5.9-9.3-10.5C221.6,96.2,224.1,92.8,227.2,90.1z"/>
	</g>
	<g id="_x23_57533bff" class="st1">
		<path class="st7" d="M248.9,19.7c1.6-0.5,2.2,0,1.7,1.7C249,21.9,248.4,21.3,248.9,19.7z"/>
	</g>
	<g id="_x23_6e6c5fff" class="st1">
		<path class="st8" d="M342.1,19.5c1-1.5,3.6,0.1,2.4,1.6C343.4,22.6,340.9,21,342.1,19.5z"/>
	</g>
	<g id="_x23_c9c8c3ff" class="st1">
		<path class="st9" d="M741,55.4c0.2-10.1-0.2-20.2,0.5-30.3c0.8,7.8,0.6,15.6,0.4,23.4c0.5-1.8,1-3.6,1.6-5.4
			c3,8.9,0.6,18.4,1.1,27.7c0.5,16.2-0.2,32.4,0.1,48.6c0,5.9,0.4,12.5-3.5,17.5c-3.3,4.7-9.2,6.5-14.7,6.7c1-1.5,2-3,3.1-4.3
			c3-1,6.3-2,8.4-4.6c2.2-2.5,2.5-6,2.5-9.2C740.4,102.1,740.7,78.8,741,55.4z"/>
	</g>
	<g id="_x23_beb9a9ff" class="st1">
		<path class="st10" d="M338.3,33.2c10-1.8,20.6,1.3,28.9,7c-0.3,0.2-0.9,0.7-1.2,0.9c-0.4,0.2-1.1,0.5-1.5,0.7
			c-3.3-0.8-7.3-0.5-10-3c-2.2-1.8-4.2-4.5-7.4-4.2c-7.2-0.6-12.9,4.3-18.6,7.8C331.6,39,334.7,35.8,338.3,33.2z"/>
	</g>
	<g id="_x23_a7a28cff" class="st1">
		<path class="st11" d="M429.6,33.1c8.3-1.1,17.3-0.7,24.6,3.7c-6-0.3-12-1.3-18-0.1c-6.4,1.2-11.4,5.8-17.4,8
			c-4.3,1.5-8.1,4.1-11.2,7.4c-1.7-0.8-3.5-1.6-5.2-2.5C409,41,418.8,34.6,429.6,33.1 M412.8,41.5c0.8,1,1.6,2.1,2.4,3.1
			c3.4-2.3,6.2-5.2,8.6-8.4C419.8,37.4,416.2,39.3,412.8,41.5z"/>
	</g>
	<g id="_x23_a7a08bff" class="st1">
		<path class="st12" d="M490.8,60.4c7.1-24,39.3-36.5,60.3-22.4c-1.8-0.2-3.6-0.4-5.3-0.7c-5.5-1.3-11.2-1.8-16.8-0.5
			c-6.5,1.1-11.5,5.8-17.6,8c-4.4,1.6-8.4,4.1-11.2,7.8c-1.1-0.7-2.2-1.4-3.3-2.1C494.8,53.9,492.9,57.2,490.8,60.4 M505.8,41.8
			c1.2,0.7,2.2,2.4,3.7,2.2c3.1-1.9,5.3-4.9,7.5-7.7C512.9,37.5,509.2,39.4,505.8,41.8z"/>
	</g>
	<g id="_x23_b4ae9aff" class="st1">
		<path class="st13" d="M309.5,49.3c7.1-8.7,17.4-15.5,28.9-16.1c-3.6,2.6-6.7,5.8-9.7,9.2c-1.6,1.1-3.3,2.1-5,3
			c0.1-0.4,0.2-1.3,0.2-1.7c2.4-2.3,4.8-4.8,6.9-7.5c-4,1.2-7.7,3.1-11.2,5.5c1,1,1.9,2,2.9,3c-5.3,2.6-5.5,9.2-9.3,13.1
			c-3.7,4.1-6.2,9.1-9.3,13.7c-0.6-3-0.8-6.2,0.7-9c3.4-2.7,6.5-5.7,9.3-8.9c-0.9-0.8-1.7-1.7-2.6-2.5
			C310.8,50.5,310.1,49.9,309.5,49.3z"/>
	</g>
	<g id="_x23_d1cfc2ff" class="st1">
		<path class="st14" d="M328.7,42.4c5.8-3.5,11.4-8.4,18.6-7.8c3.2-0.3,5.2,2.4,7.4,4.2c2.7,2.5,6.6,2.2,10,3
			c-1.5,0.7-3,1.7-4.6,2.1c-4.1-0.8-7-5-11.3-4.8c-6,0-11.7,2.2-16.7,5.4c-4,2.4-8.6,3.8-12,7.1c-2.8,3.8-3.6,8.7-6.5,12.5
			c-4,5.3-6.2,11.6-8.3,17.8c-1.2,0.3-2.4,0.6-3.6,0.9c-2-11.6,0.1-24.4,7.8-33.5c0.6,0.6,1.3,1.2,1.9,1.9
			c-3.5,2.9-5.2,7.2-6.8,11.4c-1.5,2.8-1.3,6-0.7,9c3-4.6,5.5-9.6,9.3-13.7c3.8-3.9,3.9-10.5,9.3-13.1c0.4-0.3,1.1-0.8,1.5-1
			c-0.1,0.4-0.2,1.3-0.2,1.7C325.3,44.4,327,43.4,328.7,42.4z"/>
	</g>
	<g id="_x23_878a8cff" class="st1">
		<path class="st15" d="M648.1,34.8c9.6-1.8,19.7,5.3,21,15.1c-1.4-0.1-2.7-0.1-4.1-0.2c-1.1-2.6-2.4-5.1-4.6-6.9
			c-5.1-4.6-13.6-4.8-18.8-0.3c-2.5,2-3.9,5-5.1,7.9c-1.4-0.1-2.8-0.1-4.2-0.2C634.1,42.5,640.2,35.9,648.1,34.8z"/>
	</g>
	<g id="_x23_bdb6a2ff" class="st1">
		<path class="st16" d="M529,36.8c5.5-1.3,11.3-0.8,16.8,0.5c-0.3,0.9-0.5,1.9-0.8,2.8c-7.8-0.8-16.2-1.8-23.5,2
			c-4.8,2.6-9.6,5-14.4,7.5c-3.9,1.9-5.5,6.1-7.6,9.5c-2.7,4.7-6.6,8.5-10.6,12.2c-0.1-1.4-0.3-2.7-0.4-4.1c0-2.1,0.6-4.4,2.5-5.6
			c3.5-2.5,6.6-5.6,9.2-9c2.9-3.7,6.9-6.2,11.2-7.8C517.5,42.6,522.5,37.9,529,36.8z"/>
	</g>
	<g id="_x23_f3f2efff" class="st1">
		<path class="st17" d="M227,41.4c3.7-2.1,7.6-3.9,11.7-5.1c-2.5,3.1-5.2,6.1-8.2,8.7c-0.5,0-1.4,0-1.8,0
			C228.2,43.7,227.6,42.6,227,41.4z"/>
	</g>
	<g id="_x23_eeefeaff" class="st1">
		<path class="st18" d="M319.6,41.7c3.5-2.3,7.2-4.2,11.2-5.5c-2.1,2.6-4.4,5.1-6.9,7.5c-0.4,0.3-1.1,0.8-1.5,1
			C321.5,43.7,320.5,42.7,319.6,41.7z"/>
	</g>
	<g id="_x23_eeedebff" class="st1">
		<path class="st19" d="M412.8,41.5c3.4-2.2,7.1-4.1,11-5.3c-2.5,3.2-5.3,6.1-8.6,8.4C414.3,43.6,413.5,42.6,412.8,41.5z"/>
	</g>
	<g id="_x23_bdb8a7ff" class="st1">
		<path class="st20" d="M436.2,36.6c5.9-1.1,12-0.1,18,0.1c2,0.1,3.6,1.4,5.3,2.4c-0.4,0.3-1.1,1-1.4,1.3
			c-8.3,0.7-16.6-1.8-24.9,0.3c-4.9,1.2-8.8,4.4-13.4,6.4c-3.6,1.9-8.2,3-9.8,7.2c-3.3,7.8-9.4,13.7-15.1,19.8
			c-0.1-1.7-0.2-3.3-0.2-5c0.6-7.2,3.5-14,7.8-19.8c1.7,0.8,3.4,1.7,5.2,2.5c3.1-3.4,6.9-5.9,11.2-7.4
			C424.8,42.4,429.8,37.9,436.2,36.6 M402.7,52.4c-2.5,2.8-3.7,6.5-5,9.9c3.3-2.6,6.3-5.7,8.8-9.1C405.3,52.8,403.7,50.6,402.7,52.4
			z"/>
	</g>
	<g id="_x23_e9e8e6ff" class="st1">
		<path class="st21" d="M505.8,41.8c3.4-2.3,7.2-4.3,11.2-5.5c-2.2,2.8-4.4,5.8-7.5,7.7C507.9,44.2,507,42.5,505.8,41.8z"/>
	</g>
	<g id="_x23_cfccbcff" class="st1">
		<path class="st22" d="M545.8,37.3c1.8,0.3,3.5,0.5,5.3,0.7c0.4,0.1,1.2,0.1,1.6,0.2c-1.6,1.5-3.3,3-4.8,4.6
			c-5.7,0.3-11.4-0.5-17-0.2c-5.8,0.3-10.6,3.7-15.6,6.1c-3.2,1.6-6.9,2.9-9.1,6c-2.5,3.6-4.5,7.4-7.2,10.8
			c-3.9,4.8-6.5,10.5-9.4,15.9c-0.6-1.4-1.2-2.8-1.7-4.2c-0.6-3.3,0-6.7,0.6-9.9c0.1,1.4,0.2,2.7,0.4,4.1c4-3.6,7.9-7.5,10.6-12.2
			c2.1-3.5,3.7-7.6,7.6-9.5c4.8-2.5,9.6-5,14.4-7.5c7.2-3.8,15.7-2.9,23.5-2C545.2,39.2,545.5,38.3,545.8,37.3z"/>
	</g>
	<g id="_x23_e2e1d7ff" class="st1">
		<path class="st23" d="M348.7,39.1c4.3-0.1,7.2,4,11.3,4.8c1.6-0.4,3.1-1.4,4.6-2.1c0.4-0.2,1.1-0.5,1.5-0.7
			c-1.5,1.8-3.6,3.5-4.1,5.9c2.1-1.2,4-2.7,6.2-3.6c-0.8,1.1-1.5,2.2-2.2,3.4c0.4,0.2,1.2,0.5,1.6,0.7c-0.2,0.5-0.7,1.4-0.9,1.8
			c1.4,2.2,2.7,4.6,3.9,7l0.4,1.1c3.5,0.5,7,0,10.3-0.9c0.8,2.4,0.3,4.9-0.6,7.2c-4.8,0.4-8.7-2.6-13-4c-3.2-3.9-4.7-9-7.4-13.3
			c-3.1,0.1-5.8-1.5-8.6-2.6c-5.3-1-10.8,0.6-15.3,3.3c-3.5,2-7.5,3-10.9,5.1c-2.3,2-3,5.1-4.3,7.8c-1.7,4.4-5.2,7.9-6.3,12.6
			c-1.2,5.2-3.5,10.1-5.5,15c-1.6,3.4,0.2,7.1,1.2,10.4c-0.3,0.3-0.8,0.9-1.1,1.1c-0.3,0.1-0.8,0.2-1.1,0.3
			c-3.4-4.9-6-10.5-6.7-16.4c1.2-0.3,2.4-0.6,3.6-0.9c2.1-6.2,4.3-12.5,8.3-17.8c2.9-3.8,3.8-8.7,6.5-12.5c3.4-3.3,8-4.7,12-7.1
			C337,41.4,342.7,39.1,348.7,39.1z"/>
	</g>
	<g id="_x23_524632ff" class="st1">
		<path class="st24" d="M547.9,42.8c1.5-1.6,3.2-3.1,4.8-4.6c4.1,3.1,8.3,6.1,11.5,10.2c-3.1,2.5-6.1,5.2-8.8,8.2
			c-0.4-0.4-1.3-1.1-1.7-1.4c1.1-1.2,2.1-2.5,3.2-3.7c-1.1-0.8-2.2-1.5-3.3-2.3c0.7-0.5,1.4-0.9,2.2-1.4c1.8,0.4,3.7,0.9,5.6,1.3
			c-2.8-2.1-5.4-4.4-7.6-7.1c-0.7,0.6-1.4,1.3-2.1,2c-0.3-0.2-0.8-0.7-1.1-1c-1.9,1.5-3.9,2.9-6.1,4
			C545.5,45.5,546.6,44.1,547.9,42.8z"/>
	</g>
	<g id="_x23_d3d0c3ff" class="st1">
		<path class="st25" d="M433.2,40.9c8.2-2.1,16.6,0.3,24.9-0.3c-0.7,0.7-1.4,1.5-2.1,2.2c-6.3,1.1-12.8,0.5-19.1,0.8
			c-4.4,0.2-8.2,2.8-12,4.8c-2.8,1.6-5.8,2.8-8.5,4.6c-2.7,1.8-4,4.8-5.6,7.4c-2.6,4.6-6.3,8.4-8.9,13c-2.4,4.2-4.3,8.7-5.7,13.3
			c-1.7-5.6-2.7-11.6-1.4-17.4c0,1.7,0.1,3.3,0.2,5c5.7-6.1,11.8-12,15.1-19.8c1.6-4.1,6.3-5.3,9.8-7.2
			C424.3,45.3,428.3,42.1,433.2,40.9z"/>
	</g>
	<g id="_x23_67583bff" class="st1">
		<path class="st26" d="M459.4,39.2c3.9,2.6,7.6,5.6,10.2,9.5c-3.1,1.7-5.4,4.4-7.4,7.2c-0.5-0.4-0.9-0.9-1.3-1.3
			c-0.2-2.6-1-5.1-2-7.5c2.7,0.9,5.5,1.7,8.2,2.5c-3.1-2.1-6.3-4.1-9.4-6.3c-1.7,1.1-3.4,2.2-5.2,3.2c1-1.3,2.1-2.6,3.3-3.8
			c0.7-0.8,1.4-1.5,2.1-2.2C458.4,40.2,459.1,39.5,459.4,39.2z"/>
	</g>
	<g id="_x23_ecede8ff" class="st1">
		<path class="st27" d="M641.7,42.4c5.2-4.4,13.7-4.3,18.8,0.3c2.1,1.8,3.5,4.4,4.6,6.9c0.2,2.6,0.2,5.3,0,7.9
			c-2,4.9-6,9.1-11.5,9.9c-7.5,1.6-15-3.8-17-11.1c-0.1-2-0.1-4-0.1-6C637.8,47.4,639.2,44.4,641.7,42.4z"/>
	</g>
	<g id="_x23_746347ff" class="st1">
		<path class="st28" d="M367.3,40.2c3,2.3,6.3,4.6,8,8.1c-2.6,0.5-5.4,0.5-7.8-0.9c-0.4-0.2-1.2-0.5-1.6-0.7
			c0.7-1.1,1.5-2.2,2.2-3.4c-2.2,0.9-4.1,2.4-6.2,3.6c0.5-2.4,2.6-4.1,4.1-5.9C366.4,40.9,367,40.4,367.3,40.2z"/>
	</g>
	<g id="_x23_373123ff" class="st1">
		<path class="st29" d="M275.1,41.4c0.4,0.3,1.3,0.8,1.8,1c-2.1,1.7-4.2,3.4-6.5,5c0.4-1.1,1-2.1,1.8-2.9
			C273.2,43.4,274.2,42.4,275.1,41.4z"/>
	</g>
	<g id="_x23_877a5aff" class="st1">
		<path class="st30" d="M551.7,44c0.7-0.7,1.4-1.3,2.1-2c2.2,2.7,4.8,5,7.6,7.1c-1.9-0.4-3.7-0.9-5.6-1.3c-0.7,0.4-1.4,0.9-2.2,1.4
			c-0.7-0.5-1.3-0.9-2-1.4c-0.8,0.5-1.5,1.1-2.2,1.6c-0.6-0.2-1.7-0.8-2.2-1C548.6,46.9,550.1,45.4,551.7,44z"/>
	</g>
	<g id="_x23_97866fff" class="st1">
		<path class="st31" d="M276.9,42.4c2.7,2.2,5.2,4.8,7.1,7.9c-1.4,0-2.8,0.1-4.2,0.2c-0.3,1.8-0.7,3.6-1,5.5
			c-1.3-1.1-2.6-2.1-3.9-3.1c-1.7-1.6-3-3.6-4.5-5.3C272.7,45.9,274.8,44.1,276.9,42.4z"/>
	</g>
	<g id="_x23_e3e2d8ff" class="st1">
		<path class="st32" d="M436.8,43.5c6.4-0.3,12.8,0.4,19.1-0.8c-1.1,1.2-2.2,2.5-3.3,3.8c2.7,2.8,5.4,5.5,8.3,8.1
			c0.4,0.4,0.9,0.8,1.3,1.3c0.5,0,1.6,0,2.1,0c1.7,0,3.4,0,5.1,0.1c1-1.5,1.9-3.1,2.9-4.6c2.8,3.3,4.3,7.5,4.8,11.8
			c-0.8-0.7-1.6-1.3-2.4-2c-3.2,2.1-7.3,3.1-10.8,1c-3.1-1.8-7.9-2.3-9-6.3c-0.8-1.7-1.3-3.6-2.9-4.8c-7.1-1.9-15-2.5-21.8,0.9
			c-1.6,0.8-2.6,2.3-3.6,3.6c-1.5-1-2.9-2.4-4.8-2.3c-2,0.1-3.3,1.7-4.7,2.9c-0.4,1.7-0.6,3.4-1,5c0,3.5-4,4.4-5.2,7.2
			c-2.4,4.4-5.3,8.6-6.6,13.5c-1.2,4.8-3.9,9-4.6,13.9c-1.6-2.9-3.7-5.8-3.7-9.2c1.4-4.6,3.3-9.1,5.7-13.3c2.6-4.6,6.3-8.4,8.9-13
			c1.6-2.6,3-5.6,5.6-7.4c2.7-1.8,5.7-3.1,8.5-4.6C428.6,46.3,432.3,43.8,436.8,43.5z"/>
	</g>
	<g id="_x23_e0ded3ff" class="st1">
		<path class="st33" d="M515.2,48.7c5-2.4,9.9-5.8,15.6-6.1c5.7-0.4,11.4,0.5,17,0.2c-1.3,1.3-2.4,2.8-3.4,4.3
			c2.2-1.1,4.1-2.5,6.1-4c0.3,0.2,0.8,0.7,1.1,1c-1.5,1.4-3,2.9-4.5,4.4c0.6,0.2,1.7,0.8,2.2,1c1.4,2,2.8,4,4.3,5.8
			c0.4,0.4,1.3,1.1,1.7,1.4c4.7,1,8.3-2.6,11.8-5c2.1,3.6,4.4,7.4,4.6,11.6c-0.6,0.9-1.1,1.8-1.7,2.7c-1.2-2.1-2.3-4.1-3.5-6.2
			c-2.8,0.8-5.7,2-8.8,1.7c-2.3-0.5-4.4-1.7-6.3-3c-3-2.1-4.2-5.8-6-8.9c-4.2-1-8.5-2.7-12.8-1.1c-5,1.7-11.4,2-14.1,7.2
			c-1.5-1.5-3.5-3-5.8-2.4c-2.8,0.2-3.5,3.4-4.7,5.4c3.4-2.2,7.5-2.3,11.4-2.2l0.9,0c-0.5,2.9-1.7,5.6-3.7,7.7
			c-2.8-0.8-5.6-1.5-8.4-2.2c-2.6,4-6.9,6.7-8.6,11.3c-2.7,6.6-5,13.4-7.3,20.1c-3.1-4.9-4.8-10.6-4.7-16.3c0.5,1.4,1.1,2.8,1.7,4.2
			c2.9-5.4,5.5-11.1,9.4-15.9c2.7-3.4,4.7-7.3,7.2-10.8C508.3,51.6,512,50.3,515.2,48.7z"/>
	</g>
	<g id="_x23_aea174ff" class="st1">
		<path class="st34" d="M452.6,46.5c1.8-1,3.5-2.1,5.2-3.2c3.1,2.2,6.3,4.2,9.4,6.3c-2.8-0.7-5.5-1.6-8.2-2.5c1,2.4,1.8,4.9,2,7.5
			C458,52.1,455.3,49.3,452.6,46.5z"/>
	</g>
	<g id="_x23_d0d1d3ff" class="st1">
		<path class="st35" d="M745.4,43.6c7.4-0.3,14.8-0.3,22.2-0.2c1.2,1.7,2.3,3.4,3.5,5.1c12.6-0.6,25.1-2.2,37.7-1.2v1.9
			c-12.2-0.7-24.6,0.1-36.8,1.4c0.2,2.9,0.5,5.8,0.9,8.7c12,0.8,23.8-2.5,35.9-2.3v4.4c-11.7-0.9-23.3,0.5-34.9,1.2
			c-0.9-1.3-1.7-2.6-2.6-4c-1.2,2.7-1,7.9-5,8c-5.5,0-12.4,0.1-15.8-5.1c-2.3-3.2-5.9-7.5-3.1-11.5c2-5,8-4.9,12.5-5.5
			C755.1,44.4,750.3,44.1,745.4,43.6 M751.7,51.4c-1,0.9-0.9,2.4-0.6,3.5c5.1,4.1,11.4,6.4,17.9,7.1c2-4.9,2.4-12-2.7-15.2
			C761.2,45.6,755.3,47.5,751.7,51.4z"/>
	</g>
	<g id="_x23_e0e0e2ff" class="st1">
		<path class="st36" d="M751.7,51.4c3.6-3.9,9.5-5.7,14.7-4.5C771.4,50,771,57.1,769,62c-6.5-0.7-12.8-3.1-17.9-7.1
			C750.8,53.7,750.7,52.2,751.7,51.4z"/>
	</g>
	<g id="_x23_b3a580ff" class="st1">
		<path class="st37" d="M549.4,49.4c0.7-0.5,1.5-1.1,2.2-1.6c0.6,0.5,1.3,0.9,2,1.4c1.1,0.8,2.2,1.5,3.3,2.3
			c-1.1,1.2-2.2,2.5-3.2,3.7C552.1,53.3,550.8,51.3,549.4,49.4z"/>
	</g>
	<g id="_x23_261e13ff" class="st1">
		<path class="st38" d="M469.7,48.7l0.8-0.5c-1.7,2.8-4,5.2-6,7.7c-0.5,0-1.6,0-2.1,0C464.3,53.2,466.6,50.4,469.7,48.7z"/>
	</g>
	<g id="_x23_cecdbdff" class="st1">
		<path class="st39" d="M470.4,48.3c0.6,1.1,1.2,2.1,1.9,3.1c-1,1.5-1.9,3.1-2.9,4.6c-1.7,0-3.4-0.1-5.1-0.1
			C466.5,53.4,468.8,51.1,470.4,48.3z"/>
	</g>
	<g id="_x23_cdc7b7ff" class="st1">
		<path class="st40" d="M564.2,48.4c1,1.1,2,2.1,3.1,3.2c-3.5,2.4-7.1,6-11.8,5C558.1,53.6,561,50.9,564.2,48.4z"/>
	</g>
	<g id="_x23_e5e6e8ff" class="st1">
		<path class="st41" d="M772.1,50.7c12.2-1.3,24.5-2.2,36.8-1.4v7.8c-12-0.2-23.8,3.1-35.9,2.3C772.6,56.5,772.3,53.6,772.1,50.7z"
			/>
	</g>
	<g id="_x23_382f21ff" class="st1">
		<path class="st42" d="M370.5,56.2c1.9-2.5,4.1-4.7,6.2-6.9c0.3,0.4,1,1,1.3,1.4c-2.3,2.3-4.6,4.5-7.1,6.6L370.5,56.2z"/>
	</g>
	<g id="_x23_cac7beff" class="st1">
		<path class="st43" d="M632.4,50.1c1.4,0,2.8,0.1,4.2,0.2c-0.1,2-0.1,4,0.1,6c-1.3,0-2.7,0-4,0.1C632.6,54.2,632.5,52.2,632.4,50.1
			z"/>
	</g>
	<g id="_x23_cecabfff" class="st1">
		<path class="st44" d="M665.1,49.6c1.4,0.1,2.7,0.2,4.1,0.2l0.7,0c-0.5,2,0.4,5-1.3,6.3c-1.2,0.5-2.4,0.9-3.6,1.4
			C665.3,54.9,665.3,52.2,665.1,49.6z"/>
	</g>
	<g id="_x23_5d5838ff" class="st1">
		<path class="st45" d="M279.8,50.5c1.4-0.1,2.8-0.1,4.2-0.2c0.4,0.3,1.2,1,1.6,1.3c-1.4,2.1-3.3,3.9-5.3,5.5
			c-0.4-0.3-1.1-0.9-1.4-1.2C279.1,54.1,279.4,52.3,279.8,50.5z"/>
	</g>
	<g id="_x23_d2cfc0ff" class="st1">
		<path class="st46" d="M378.1,50.7c1.1,1.9,2.1,3.8,3.2,5.7c-3.4,0.9-6.9,1.4-10.3,0.9C373.5,55.2,375.8,53,378.1,50.7z"/>
	</g>
	<g id="_x23_f3f0edff" class="st1">
		<path class="st47" d="M211.8,62c1.6-4,3.7-7.8,6.6-11c1,0.9,1.9,1.7,2.9,2.6c-0.4,0.5-1.1,1.5-1.4,2c-2,2.1-4.1,4.2-6.1,6.3
			C213.3,61.9,212.3,61.9,211.8,62z"/>
	</g>
	<g id="_x23_cac7b9ff" class="st1">
		<path class="st48" d="M285.5,51.6c0.7,1.1,1.3,2.2,2,3.2c-2,2-4.5,3.9-7.3,2.3C282.2,55.5,284.1,53.7,285.5,51.6z"/>
	</g>
	<g id="_x23_f3f1f2ff" class="st1">
		<path class="st49" d="M304.6,62.5c1.5-4.2,3.3-8.5,6.8-11.4c0.9,0.8,1.7,1.6,2.6,2.5C311.1,56.9,308,59.9,304.6,62.5z"/>
	</g>
	<g id="_x23_f0efe8ff" class="st1">
		<path class="st50" d="M402.7,52.4c1-1.7,2.5,0.4,3.8,0.8c-2.5,3.4-5.5,6.5-8.8,9.1C399,58.8,400.3,55.2,402.7,52.4z"/>
	</g>
	<g id="_x23_e4e4dbff" class="st1">
		<path class="st51" d="M274.9,52.8c1.3,1.1,2.6,2.1,3.9,3.1c0.4,0.3,1.1,0.9,1.4,1.2c2.8,1.7,5.4-0.2,7.3-2.3
			c0.8,2.1,1.6,4.3,2.3,6.5c-3.5,0-6.9,0.3-10.3-0.2c-3-0.4-5.1-2.8-7.4-4.5C273.1,55.4,274,54.1,274.9,52.8z"/>
	</g>
	<g id="_x23_d5d2caff" class="st1">
		<path class="st52" d="M417.2,56.2c3.5-0.4,6.9-0.3,10.4,0l0.8,0.1c-0.6,2.1,0.2,5.4-2.2,6.5c-3.3,1.4-7.4,1.2-9.9-1.6
			C416.5,59.6,416.8,57.9,417.2,56.2z"/>
	</g>
	<g id="_x23_d7d6cdff" class="st1">
		<path class="st53" d="M329,56.2c2.3-1,4.5,0.8,6.6,1.6c0.1-0.2,0.3-0.7,0.4-0.9c0.8,1.3,0.5,3.1,0.9,4.6
			c-3.5,2.3-7.7,1.1-11.6,0.6c0.1-0.4,0.4-1.2,0.5-1.6C326.7,58.9,327.5,57.2,329,56.2z"/>
	</g>
	<g id="_x23_818483ff" class="st1">
		<path class="st54" d="M632.6,56.3c1.3,0,2.7,0,4-0.1c2,7.2,9.4,12.7,17,11.1c5.4-0.7,9.5-5,11.5-9.9c1.2-0.5,2.4-0.9,3.6-1.4
			c-0.6,9.8-11.2,16.4-20.5,14.9C640.5,70.2,634.2,63.8,632.6,56.3z"/>
	</g>
	<g id="_x23_36332aff" class="st1">
		<path class="st55" d="M31.2,57.3c8.7,0,17.5-0.2,26.3,0.1c-0.3,0.4-0.8,1.1-1.1,1.5c-6.9,0.2-13.8-0.3-20.7,0
			c-0.5,0.4-1.5,1.3-2.1,1.7c3,0.6,6.1,0.6,9.2,0.6c4.7-0.1,9.5,0.7,14.2,0.4c0,0.7,0.1,1.9,0.2,2.6c-6.4-0.3-12.8,0.3-19.1-0.4
			c0,0.5,0.1,1.6,0.1,2.2c6-0.8,12,0.3,18-0.1c0.4,0.3,1.2,1,1.6,1.4c-8.8,0.2-17.6,0.3-26.3,0.3C31.3,64.1,31.2,60.7,31.2,57.3z"/>
	</g>
	<g id="_x23_68655cff" class="st1">
		<path class="st56" d="M19.9,74.5c1.7-0.5,2.2,0,1.7,1.7C20,76.6,19.4,76.1,19.9,74.5z"/>
	</g>
	<g id="_x23_726b51ff" class="st1">
		<path class="st57" d="M537.3,84.8c1.4-1.7,2.9-3.9,5.4-3.6c2.3,0,3.6,2,4.7,3.8C544.1,84,540.6,83.4,537.3,84.8z"/>
		<path class="st57" d="M317.6,97.6c0.7-0.7,1.4-1.5,2.1-2.2c1.3,1,2.7,2.1,4,3.1c-0.2-1.1-0.4-2.2-0.6-3.3c2.2,0.9,4,2.5,5.9,4
			c-1.7,0.9-3.3,1.9-4.9,3.1C321.9,100.8,319.7,99.2,317.6,97.6z"/>
	</g>
	<g id="_x23_d8dbdcff" class="st1">
		<path class="st58" d="M57.9,83c-0.1,3.5,0,6.9-0.1,10.4c-8.4-0.2-16.9,0.8-25.2-0.4c8,0,16,0.1,24-0.2c0-0.3,0.1-0.9,0.1-1.2
			c-6-1-12.3-0.6-18.5-0.6c0-0.5,0-1.5,0-1.9c6.2,0.3,12.3,0.3,18.5,0.1c0.1-0.4,0.4-1.2,0.6-1.5c-7.7-1.7-15.7,0-23.5-1
			c1.2-3.5,5.3-2.3,8.1-2.5C47.1,83.8,52.8,85.1,57.9,83z"/>
	</g>
	<g id="_x23_dbdbd2ff" class="st1">
		<path class="st59" d="M353.3,85.6c3.5-1.3,7.3-1.7,11-1l0.7,0.1c-0.3,1.7-0.5,3.5-0.9,5.2c-2.8-0.3-5.2-2.3-8-2.8
			c0,1.6,0,3.1-0.1,4.7c-1.7-1.7-2.8-3.8-3.4-6L353.3,85.6z"/>
	</g>
	<g id="_x23_f0ebd8ff" class="st1">
		<path class="st60" d="M319.7,89.2c1.4,1.8,3,3.6,3.4,6c0.2,1.1,0.4,2.2,0.6,3.3c-1.4-1-2.7-2.1-4-3.1c-0.7,0.7-1.4,1.5-2.1,2.2
			c2.1,1.6,4.4,3.1,6.5,4.7c-1.5,1.3-2.9,2.6-4.2,4.1c0.1-1.7,0.2-3.4,0.2-5.1c-1.2,0.7-2.4,1.4-3.5,2.2c-0.2-0.2-0.7-0.7-1-0.9
			c-0.1-1.4-0.1-2.7-0.1-4.1c-0.8-0.3-1.7-0.6-2.5-0.9C315.2,94.8,317.7,92.2,319.7,89.2z"/>
	</g>
	<g id="_x23_c4b699ff" class="st1">
		<path class="st61" d="M409.7,90.8c0.2-0.3,0.7-1,1-1.4c1.7,2,3.6,4,5.5,6c0,0.9-0.1,2.6-0.1,3.4c-1.8-0.8-3.6-1.6-5.4-2.4
			c1.7,1.6,3.5,3,5.4,4.5c-1.7,1.9-3.5,3.8-5,5.8c-0.4-1.5-0.7-2.9-1.2-4.3c0.5-0.7,1.1-1.4,1.6-2.1
			C409.8,97.4,408.4,94.1,409.7,90.8z"/>
	</g>
	<g id="_x23_c1b9a4ff" class="st1">
		<path class="st62" d="M500.8,91.3c0.7-0.4,1.4-0.7,2.2-1c2.3,2.3,4.5,4.6,6.7,7c-1.9-0.7-3.8-1.3-5.7-1.9c0.7,2.3,1.3,4.7,1.9,7
			c-1,1.2-2,2.3-3,3.5c-0.3-2.8-0.5-5.7-1.4-8.4c-0.4-1-1-2-1.5-3C500.3,93.4,500.5,92.3,500.8,91.3z"/>
	</g>
	<g id="_x23_fbf4e1ff" class="st1">
		<path class="st63" d="M404.1,97.5c1.7-2.3,3.8-4.5,5.6-6.7c-1.3,3.3,0.1,6.6,1.7,9.5c-0.5,0.7-1.1,1.4-1.6,2.1
			C408.9,99.8,406.9,97.8,404.1,97.5z"/>
	</g>
	<g id="_x23_908253ff" class="st1">
		<path class="st64" d="M494.1,96.2c1.1-1.2,2.3-2.3,3.5-3.5c-0.2,1.2-0.3,2.5-0.5,3.8c1.5,0.3,2.9,0.6,4.4,0.9
			c0.9,2.7,1.1,5.6,1.4,8.4C499.1,103.6,496.5,99.9,494.1,96.2z"/>
		<path class="st64" d="M311.5,99.4c0.4-0.5,1.1-1.3,1.5-1.8c0.8,0.3,1.7,0.6,2.5,0.9c0,1.4,0.1,2.7,0.1,4.1
			C314.2,101.5,312.8,100.4,311.5,99.4z"/>
	</g>
	<g id="_x23_908361ff" class="st1">
		<path class="st65" d="M225.9,97.7c0.9-0.8,1.8-1.7,2.8-2.5c0.9,1.3,1.7,2.6,2.6,3.9c-0.6,0.5-1.7,1.3-2.2,1.8
			C228,99.9,227,98.8,225.9,97.7z"/>
	</g>
	<g id="_x23_8b7f61ff" class="st1">
		<path class="st66" d="M504,95.3c1.9,0.6,3.8,1.2,5.7,1.9c0.3,0.1,1,0.3,1.3,0.4c-1.8,1.4-3.5,3-5.1,4.7
			C505.3,100,504.7,97.6,504,95.3z"/>
	</g>
	<g id="_x23_93865aff" class="st1">
		<path class="st67" d="M400.8,96.7c0.4,0.1,1.1,0.3,1.5,0.4c0.4,0.1,1.3,0.4,1.8,0.5c2.9,0.3,4.8,2.3,5.8,4.9
			c0.4,1.4,0.8,2.9,1.2,4.3l0.2,1C406.7,105.1,403.6,100.9,400.8,96.7z"/>
	</g>
	<g id="_x23_a7996eff" class="st1">
		<path class="st68" d="M225.1,103.5c1.2-0.7,2.3-1.4,3.5-2.1c0.3,1.3,0.6,2.6,0.8,4c-0.4,0.4-1.2,1.1-1.6,1.5
			C227,105.7,226,104.7,225.1,103.5z"/>
	</g>
	<g id="_x23_998e6aff" class="st1">
		<path class="st69" d="M316.5,103.5c1.2-0.7,2.3-1.5,3.5-2.2c-0.1,1.7-0.1,3.4-0.2,5.1c-0.3,0.7-1,2-1.3,2.7
			c-0.4-0.7-0.8-1.4-1.1-2.2C317.1,105.8,316.8,104.6,316.5,103.5z"/>
	</g>
</g>
<g id="Laag_2">
	<path class="st70" d="M31,82.6V93h26.4V82.6H31z M53.3,87.8H35.1v-2h18.2V87.8z"/>
	<g>
		<rect x="31" y="57.2" class="st70" width="26.4" height="10.5"/>
		<rect x="35.1" y="60.4" class="st70" width="18.2" height="2"/>
	</g>
	<path class="st71" d="M734.1,143H14.5c-6.1,0-11-4.9-11-11V15.1c0-6.1,4.9-11,11-11h719.6c6.1,0,11,4.9,11,11V132
		C745.1,138.1,740.2,143,734.1,143z"/>
	<g>
		<path d="M279.9,43.6c16.4,16.4,16.2,43.2-0.4,59.8c-16.6,16.6-43.4,16.8-59.8,0.4c-16.4-16.4-16.2-43.2,0.4-59.8
			C236.7,27.4,263.4,27.2,279.9,43.6z M222.7,53.8c-3.3,3.3-6.2,6.6-9.5,9.4c-3.2,2.7-4.4,5.9-4.4,10c0,9.9,2.8,18.7,9.1,26.8
			c2.2-2.2,4.3-4.3,6.4-6.4c2,2,3.7,3.7,5.6,5.6c-2.2,2.2-4.2,4.2-6.2,6.2c0.2,0.4,0.2,0.6,0.3,0.6c9,7,19.3,9.7,30.7,8.2
			c1-0.1,2.2-0.8,2.9-1.5c3.4-3.3,6.7-6.7,10.1-10c0.6-0.6,1.2-1.1,1.9-1.7c1.4,1.4,2.5,2.7,3.9,3.8c0.5,0.4,1.8,0.4,2.2,0.1
			c1.7-1.4,3.2-3.1,4.8-4.6c0.9-0.8,0.7-1.5-0.1-2.3c-1.3-1.2-2.5-2.5-4-3.9c0.8-0.8,1.4-1.4,2-2c3.2-3.2,6.3-6.4,9.6-9.6
			c1.4-1.3,2-2.8,2.2-4.6c0.7-6.9-0.2-13.6-2.8-20.1c-1.5-3.6-3.3-7-6.2-10.1c-2.2,2.2-4.3,4.3-6.3,6.3c-1.9-1.9-3.6-3.6-5.6-5.6
			c2.2-2.2,4.2-4.2,6.3-6.3c-0.4-0.4-0.6-0.6-0.8-0.8c-9-6.8-19.2-9.5-30.6-7.9c-1,0.1-2,0.8-2.7,1.5c-2.7,2.5-5.2,5.2-7.8,7.8
			c-1.4,1.4-2.8,2.8-4.3,4.3c-1.4-1.4-2.6-2.6-3.7-3.8c-0.9-1-1.6-1.2-2.6-0.1c-1.4,1.5-2.9,3-4.4,4.4c-1,0.9-1,1.7,0,2.7
			C220.1,51.2,221.3,52.4,222.7,53.8z M239.5,34.8c-5,1-9.5,3-13.5,6.2c1.3,1.3,2.5,2.5,3.7,3.7C233,41.3,236.3,38,239.5,34.8z
			 M289.5,84.5c-0.2-0.1-0.5-0.3-0.7-0.4c-0.1,0.1-0.3,0.1-0.4,0.2c-2.2,2.1-4.3,4.3-6.5,6.5c-3.4,3.4-3.4,3.4,0.3,6.5
			c0.1,0.1,0.3,0.1,1.1,0.2C285.2,93.2,287.4,88.8,289.5,84.5z M216.8,50.2c-3,4.1-5.1,8.4-5.9,13.2c3.2-3.2,6.3-6.3,9.6-9.6
			C219.2,52.7,218.1,51.5,216.8,50.2z M273.7,107.1c-1.7-1.7-2.8-2.8-4-4c-3.3,3.3-6.5,6.5-9.6,9.6c0.1,0.2,0.3,0.4,0.4,0.7
			C264.7,111.4,269,109.4,273.7,107.1z M274.9,51.9c1.7-1.7,3.1-3.1,4.6-4.6c-1.2-1.2-2.2-2.2-3.2-3.2c-1.6,1.6-3.1,3.1-4.6,4.6
			C272.8,49.8,273.8,50.8,274.9,51.9z M224.6,95.7c-1.6,1.6-3.1,3.1-4.6,4.6c1.2,1.2,2.2,2.2,3.3,3.3c1.6-1.6,3.1-3.1,4.6-4.6
			C226.7,97.8,225.7,96.8,224.6,95.7z"/>
		<path d="M242.6,59.7c2.1,2.1,2,5.4-0.1,7.6c-2.1,2.1-5.5,2.2-7.6,0.1c-2.1-2.1-2.1-5.6,0.1-7.7C237.2,57.6,240.5,57.6,242.6,59.7z
			"/>
		<path d="M263.9,81c2.1,2.1,2,5.4-0.1,7.6c-2.1,2.1-5.5,2.2-7.6,0.1c-2.1-2.1-2.1-5.6,0.1-7.7C258.5,78.9,261.8,78.9,263.9,81z"/>
	</g>
	<g>
		<path d="M373.3,44.6c16.4,16.4,16.2,43.2-0.4,59.8c-16.6,16.6-43.4,16.8-59.8,0.4c-16.4-16.4-16.2-43.2,0.4-59.8
			C330.2,28.4,356.9,28.2,373.3,44.6z M316.2,54.8c-3.3,3.3-6.2,6.6-9.5,9.4c-3.2,2.7-4.4,5.9-4.4,10c0,9.9,2.8,18.7,9.1,26.8
			c2.2-2.2,4.3-4.3,6.4-6.4c2,2,3.7,3.7,5.6,5.6c-2.2,2.2-4.2,4.2-6.2,6.2c0.2,0.4,0.2,0.6,0.3,0.6c9,7,19.3,9.7,30.7,8.2
			c1-0.1,2.2-0.8,2.9-1.5c3.4-3.3,6.7-6.7,10.1-10c0.6-0.6,1.2-1.1,1.9-1.7c1.4,1.4,2.5,2.7,3.9,3.8c0.5,0.4,1.8,0.4,2.2,0.1
			c1.7-1.4,3.2-3.1,4.8-4.6c0.9-0.8,0.7-1.5-0.1-2.3c-1.3-1.2-2.5-2.5-4-3.9c0.8-0.8,1.4-1.4,2-2c3.2-3.2,6.3-6.4,9.6-9.6
			c1.4-1.3,2-2.8,2.2-4.6c0.7-6.9-0.2-13.6-2.8-20.1c-1.5-3.6-3.3-7-6.2-10.1c-2.2,2.2-4.3,4.3-6.3,6.3c-1.9-1.9-3.6-3.6-5.6-5.6
			c2.2-2.2,4.2-4.2,6.3-6.3c-0.4-0.4-0.6-0.6-0.8-0.8c-9-6.8-19.2-9.5-30.6-7.9c-1,0.1-2,0.8-2.7,1.5c-2.7,2.5-5.2,5.2-7.8,7.8
			c-1.4,1.4-2.8,2.8-4.3,4.3c-1.4-1.4-2.6-2.6-3.7-3.8c-0.9-1-1.6-1.2-2.6-0.1c-1.4,1.5-2.9,3-4.4,4.4c-1,0.9-1,1.7,0,2.7
			C313.6,52.1,314.7,53.4,316.2,54.8z M333,35.8c-5,1-9.5,3-13.5,6.2c1.3,1.3,2.5,2.5,3.7,3.7C326.5,42.3,329.7,39,333,35.8z
			 M382.9,85.4c-0.2-0.1-0.5-0.3-0.7-0.4c-0.1,0.1-0.3,0.1-0.4,0.2c-2.2,2.1-4.3,4.3-6.5,6.5c-3.4,3.4-3.4,3.4,0.3,6.5
			c0.1,0.1,0.3,0.1,1.1,0.2C378.7,94.2,380.8,89.8,382.9,85.4z M310.3,51.2c-3,4.1-5.1,8.4-5.9,13.2c3.2-3.2,6.3-6.3,9.6-9.6
			C312.7,53.6,311.6,52.5,310.3,51.2z M367.2,108.1c-1.7-1.7-2.8-2.8-4-4c-3.3,3.3-6.5,6.5-9.6,9.6c0.1,0.2,0.3,0.4,0.4,0.7
			C358.2,112.4,362.5,110.4,367.2,108.1z M368.4,52.8c1.7-1.7,3.1-3.1,4.6-4.6c-1.2-1.2-2.2-2.2-3.2-3.2c-1.6,1.6-3.1,3.1-4.6,4.6
			C366.3,50.7,367.3,51.7,368.4,52.8z M318,96.7c-1.6,1.6-3.1,3.1-4.6,4.6c1.2,1.2,2.2,2.2,3.3,3.3c1.6-1.6,3.1-3.1,4.6-4.6
			C320.2,98.8,319.2,97.8,318,96.7z"/>
		<path d="M336,60.7c2.1,2.1,2,5.4-0.1,7.6c-2.1,2.1-5.5,2.2-7.6,0.1c-2.1-2.1-2.1-5.6,0.1-7.7C330.7,58.5,334,58.6,336,60.7z"/>
		<path d="M357.4,82c2.1,2.1,2,5.4-0.1,7.6c-2.1,2.1-5.5,2.2-7.6,0.1c-2.1-2.1-2.1-5.6,0.1-7.7C352,79.9,355.3,79.9,357.4,82z"/>
	</g>
	<g>
		<path d="M466.7,43.6c16.4,16.4,16.2,43.2-0.4,59.8c-16.6,16.6-43.4,16.8-59.8,0.4c-16.4-16.4-16.2-43.2,0.4-59.8
			C423.5,27.4,450.3,27.2,466.7,43.6z M409.6,53.8c-3.3,3.3-6.2,6.6-9.5,9.4c-3.2,2.7-4.4,5.9-4.4,10c0,9.9,2.8,18.7,9.1,26.8
			c2.2-2.2,4.3-4.3,6.4-6.4c2,2,3.7,3.7,5.6,5.6c-2.2,2.2-4.2,4.2-6.2,6.2c0.2,0.4,0.2,0.6,0.3,0.6c9,7,19.3,9.7,30.7,8.2
			c1-0.1,2.2-0.8,2.9-1.5c3.4-3.3,6.7-6.7,10.1-10c0.6-0.6,1.2-1.1,1.9-1.7c1.4,1.4,2.5,2.7,3.9,3.8c0.5,0.4,1.8,0.4,2.2,0.1
			c1.7-1.4,3.2-3.1,4.8-4.6c0.9-0.8,0.7-1.5-0.1-2.3c-1.3-1.2-2.5-2.5-4-3.9c0.8-0.8,1.4-1.4,2-2c3.2-3.2,6.3-6.4,9.6-9.6
			c1.4-1.3,2-2.8,2.2-4.6c0.7-6.9-0.2-13.6-2.8-20.1c-1.5-3.6-3.3-7-6.2-10.1c-2.2,2.2-4.3,4.3-6.3,6.3c-1.9-1.9-3.6-3.6-5.6-5.6
			c2.2-2.2,4.2-4.2,6.3-6.3c-0.4-0.4-0.6-0.6-0.8-0.8c-9-6.8-19.2-9.5-30.6-7.9c-1,0.1-2,0.8-2.7,1.5c-2.7,2.5-5.2,5.2-7.8,7.8
			c-1.4,1.4-2.8,2.8-4.3,4.3c-1.4-1.4-2.6-2.6-3.7-3.8c-0.9-1-1.6-1.2-2.6-0.1c-1.4,1.5-2.9,3-4.4,4.4c-1,0.9-1,1.7,0,2.7
			C407,51.2,408.1,52.4,409.6,53.8z M426.4,34.8c-5,1-9.5,3-13.5,6.2c1.3,1.3,2.5,2.5,3.7,3.7C419.9,41.3,423.1,38,426.4,34.8z
			 M476.3,84.5c-0.2-0.1-0.5-0.3-0.7-0.4c-0.1,0.1-0.3,0.1-0.4,0.2c-2.2,2.1-4.3,4.3-6.5,6.5c-3.4,3.4-3.4,3.4,0.3,6.5
			c0.1,0.1,0.3,0.1,1.1,0.2C472.1,93.2,474.2,88.8,476.3,84.5z M403.7,50.2c-3,4.1-5.1,8.4-5.9,13.2c3.2-3.2,6.3-6.3,9.6-9.6
			C406.1,52.7,405,51.5,403.7,50.2z M460.6,107.1c-1.7-1.7-2.8-2.8-4-4c-3.3,3.3-6.5,6.5-9.6,9.6c0.1,0.2,0.3,0.4,0.4,0.7
			C451.6,111.4,455.9,109.4,460.6,107.1z M461.8,51.9c1.7-1.7,3.1-3.1,4.6-4.6c-1.2-1.2-2.2-2.2-3.2-3.2c-1.6,1.6-3.1,3.1-4.6,4.6
			C459.7,49.8,460.7,50.8,461.8,51.9z M411.4,95.7c-1.6,1.6-3.1,3.1-4.6,4.6c1.2,1.2,2.2,2.2,3.3,3.3c1.6-1.6,3.1-3.1,4.6-4.6
			C413.6,97.8,412.6,96.8,411.4,95.7z"/>
		<path d="M429.4,59.7c2.1,2.1,2,5.4-0.1,7.6c-2.1,2.1-5.5,2.2-7.6,0.1c-2.1-2.1-2.1-5.6,0.1-7.7C424,57.6,427.4,57.6,429.4,59.7z"
			/>
		<path d="M450.8,81c2.1,2.1,2,5.4-0.1,7.6c-2.1,2.1-5.5,2.2-7.6,0.1c-2.1-2.1-2.1-5.6,0.1-7.7C445.4,78.9,448.7,78.9,450.8,81z"/>
	</g>
	<g>
		<path d="M560.7,43.4c16.4,16.4,16.2,43.2-0.4,59.8c-16.6,16.6-43.4,16.8-59.8,0.4c-16.4-16.4-16.2-43.2,0.4-59.8
			C517.5,27.2,544.3,27,560.7,43.4z M503.6,53.6c-3.3,3.3-6.2,6.6-9.5,9.4c-3.2,2.7-4.4,5.9-4.4,10c0,9.9,2.8,18.7,9.1,26.8
			c2.2-2.2,4.3-4.3,6.4-6.4c2,2,3.7,3.7,5.6,5.6c-2.2,2.2-4.2,4.2-6.2,6.2c0.2,0.4,0.2,0.6,0.3,0.6c9,7,19.3,9.7,30.7,8.2
			c1-0.1,2.2-0.8,2.9-1.5c3.4-3.3,6.7-6.7,10.1-10c0.6-0.6,1.2-1.1,1.9-1.7c1.4,1.4,2.5,2.7,3.9,3.8c0.5,0.4,1.8,0.4,2.2,0.1
			c1.7-1.4,3.2-3.1,4.8-4.6c0.9-0.8,0.7-1.5-0.1-2.3c-1.3-1.2-2.5-2.5-4-3.9c0.8-0.8,1.4-1.4,2-2c3.2-3.2,6.3-6.4,9.6-9.6
			c1.4-1.3,2-2.8,2.2-4.6c0.7-6.9-0.2-13.6-2.8-20.1c-1.5-3.6-3.3-7-6.2-10.1c-2.2,2.2-4.3,4.3-6.3,6.3c-1.9-1.9-3.6-3.6-5.6-5.6
			c2.2-2.2,4.2-4.2,6.3-6.3c-0.4-0.4-0.6-0.6-0.8-0.8c-9-6.8-19.2-9.5-30.6-7.9c-1,0.1-2,0.8-2.7,1.5c-2.7,2.5-5.2,5.2-7.8,7.8
			c-1.4,1.4-2.8,2.8-4.3,4.3c-1.4-1.4-2.6-2.6-3.7-3.8c-0.9-1-1.6-1.2-2.6-0.1c-1.4,1.5-2.9,3-4.4,4.4c-1,0.9-1,1.7,0,2.7
			C501,50.9,502.1,52.1,503.6,53.6z M520.4,34.6c-5,1-9.5,3-13.5,6.2c1.3,1.3,2.5,2.5,3.7,3.7C513.9,41,517.1,37.8,520.4,34.6z
			 M570.3,84.2c-0.2-0.1-0.5-0.3-0.7-0.4c-0.1,0.1-0.3,0.1-0.4,0.2c-2.2,2.1-4.3,4.3-6.5,6.5c-3.4,3.4-3.4,3.4,0.3,6.5
			c0.1,0.1,0.3,0.1,1.1,0.2C566.1,93,568.2,88.6,570.3,84.2z M497.7,50c-3,4.1-5.1,8.4-5.9,13.2c3.2-3.2,6.3-6.3,9.6-9.6
			C500.1,52.4,499,51.3,497.7,50z M554.6,106.9c-1.7-1.7-2.8-2.8-4-4c-3.3,3.3-6.5,6.5-9.6,9.6c0.1,0.2,0.3,0.4,0.4,0.7
			C545.6,111.2,549.9,109.1,554.6,106.9z M555.8,51.6c1.7-1.7,3.1-3.1,4.6-4.6c-1.2-1.2-2.2-2.2-3.2-3.2c-1.6,1.6-3.1,3.1-4.6,4.6
			C553.7,49.5,554.7,50.5,555.8,51.6z M505.4,95.5c-1.6,1.6-3.1,3.1-4.6,4.6c1.2,1.2,2.2,2.2,3.3,3.3c1.6-1.6,3.1-3.1,4.6-4.6
			C507.6,97.6,506.6,96.6,505.4,95.5z"/>
		<path d="M523.4,59.5c2.1,2.1,2,5.4-0.1,7.6c-2.1,2.1-5.5,2.2-7.6,0.1c-2.1-2.1-2.1-5.6,0.1-7.7C518,57.3,521.4,57.4,523.4,59.5z"
			/>
		<path d="M544.8,80.8c2.1,2.1,2,5.4-0.1,7.6c-2.1,2.1-5.5,2.2-7.6,0.1c-2.1-2.1-2.1-5.6,0.1-7.7C539.4,78.7,542.7,78.7,544.8,80.8z
			"/>
	</g>
	<path d="M250.8,19.4c0.6,0.6,0.6,1.5,0,2.1c-0.6,0.6-1.5,0.6-2.1,0c-0.6-0.6-0.6-1.6,0-2.2C249.3,18.8,250.2,18.8,250.8,19.4z"/>
	<path d="M344.3,19.4c0.6,0.6,0.6,1.5,0,2.1c-0.6,0.6-1.5,0.6-2.1,0c-0.6-0.6-0.6-1.6,0-2.2C342.8,18.8,343.7,18.8,344.3,19.4z"/>
	<path d="M437.7,18.9c0.6,0.6,0.6,1.5,0,2.1c-0.6,0.6-1.5,0.6-2.1,0c-0.6-0.6-0.6-1.6,0-2.2C436.2,18.3,437.1,18.3,437.7,18.9z"/>
	<path d="M531.7,18.7c0.6,0.6,0.6,1.5,0,2.1c-0.6,0.6-1.5,0.6-2.1,0c-0.6-0.6-0.6-1.6,0-2.2C530.2,18.1,531.1,18.1,531.7,18.7z"/>
	<path class="st72" d="M766.4,70.8h-17.5V42.8h17.5c1.1,0,2,0.9,2,2v24.1C768.4,69.9,767.5,70.8,766.4,70.8z"/>
	<path class="st72" d="M769.2,48.5c0-0.6,18.8-1.2,39.6-1.2"/>
	<path class="st72" d="M769.2,66.2c0-1.9,18.4-3.6,39.6-3.6"/>
	<circle class="st73" cx="651" cy="53" r="16.1"/>
	<path d="M21.6,74c0.6,0.6,0.6,1.5,0,2.1c-0.6,0.6-1.5,0.6-2.1,0c-0.6-0.6-0.6-1.6,0-2.2C20.1,73.4,21,73.4,21.6,74z"/>
	<g>
		<path class="st74" d="M150.9,62.2h-1.1v-0.9c0-3.4-2.8-6.1-6.3-6.1h-0.3c-3.4,0-6.2,2.7-6.2,6v1v12.4h12.8h0.8
			c3.6,0,6.4-2.8,6.4-6.2v-0.2C157,64.9,154.3,62.2,150.9,62.2"/>
		<path class="st74" d="M104.5,55c-5.7,0-10.2,4.4-10.2,9.9c0,5.5,4.6,9.9,10.2,9.9c5.6,0,10.2-4.4,10.2-9.9
			C114.7,59.4,110.1,55,104.5,55"/>
		<path class="st74" d="M85.5,55.3h-9.3l0,19.2h17.2l0,0c0-2.3-1.2-4.3-3-5.4c1.9-1.4,3.1-3.6,3.1-6.1
			C93.4,58.7,89.9,55.3,85.5,55.3"/>
		<path class="st74" d="M146.3,75.9H137l0,19.3h17.2l0,0c0-2.3-1.2-4.3-3-5.4c1.9-1.4,3.1-3.6,3.1-6.1
			C154.2,79.4,150.7,75.9,146.3,75.9"/>
		<path class="st74" d="M164.8,75.9h-9.3l0,19.3h17.2l0,0c0-2.3-1.2-4.3-3-5.4c1.9-1.4,3.1-3.6,3.1-6.1
			C172.8,79.4,169.2,75.9,164.8,75.9"/>
		<path class="st74" d="M129.8,62.2h-1.1v-0.9c0-3.4-2.8-6.1-6.3-6.1h-0.3c-3.4,0-6.2,2.7-6.2,6v1v12.4h12.8h0.8
			c3.6,0,6.4-2.8,6.4-6.2v-0.2C135.9,64.9,133.1,62.2,129.8,62.2"/>
		<g>
			<path class="st75" d="M79.4,101.4h-0.4l-0.7-1.9h0l-0.7,1.9h-0.4l-0.8-2.5h0.5l0.6,1.9h0l0.7-1.9h0.5l0.7,1.9h0l0.6-1.9h0.5
				L79.4,101.4z"/>
			<path class="st75" d="M83,100.9c-0.2,0.2-0.3,0.3-0.5,0.4c-0.2,0.1-0.4,0.1-0.6,0.1c-0.2,0-0.4,0-0.6-0.1
				c-0.2-0.1-0.3-0.2-0.4-0.3c-0.1-0.1-0.2-0.3-0.3-0.4c-0.1-0.2-0.1-0.3-0.1-0.5c0-0.2,0-0.4,0.1-0.5c0.1-0.2,0.2-0.3,0.3-0.4
				c0.1-0.1,0.3-0.2,0.4-0.3c0.2-0.1,0.3-0.1,0.5-0.1c0.2,0,0.3,0,0.5,0.1c0.2,0.1,0.3,0.1,0.4,0.3c0.1,0.1,0.2,0.3,0.3,0.4
				c0.1,0.2,0.1,0.3,0.1,0.6v0.1H81c0,0.1,0,0.2,0.1,0.3c0,0.1,0.1,0.2,0.2,0.3c0.1,0.1,0.2,0.1,0.3,0.2c0.1,0,0.2,0.1,0.3,0.1
				c0.2,0,0.3,0,0.5-0.1c0.1-0.1,0.2-0.2,0.3-0.3L83,100.9z M82.7,99.9c0-0.2-0.1-0.4-0.2-0.5c-0.1-0.1-0.3-0.2-0.6-0.2
				s-0.4,0.1-0.6,0.2c-0.2,0.1-0.2,0.3-0.3,0.5H82.7z"/>
			<path class="st75" d="M85.4,97.3h0.4v4.1h-0.4V97.3z"/>
			<path class="st75" d="M86.5,100.1c0-0.2,0-0.4,0.1-0.5s0.2-0.3,0.3-0.4c0.1-0.1,0.3-0.2,0.4-0.3c0.2-0.1,0.4-0.1,0.6-0.1
				s0.4,0,0.6,0.1c0.2,0.1,0.3,0.2,0.4,0.3c0.1,0.1,0.2,0.3,0.3,0.4c0.1,0.2,0.1,0.3,0.1,0.5c0,0.2,0,0.4-0.1,0.5
				c-0.1,0.2-0.2,0.3-0.3,0.4c-0.1,0.1-0.3,0.2-0.4,0.3c-0.2,0.1-0.4,0.1-0.6,0.1c-0.2,0-0.4,0-0.6-0.1c-0.2-0.1-0.3-0.2-0.4-0.3
				c-0.1-0.1-0.2-0.3-0.3-0.4C86.6,100.5,86.5,100.3,86.5,100.1z M87,100.1c0,0.1,0,0.3,0.1,0.4c0,0.1,0.1,0.2,0.2,0.3
				c0.1,0.1,0.2,0.1,0.3,0.2c0.1,0,0.2,0.1,0.4,0.1s0.3,0,0.4-0.1c0.1,0,0.2-0.1,0.3-0.2c0.1-0.1,0.1-0.2,0.2-0.3
				c0-0.1,0.1-0.2,0.1-0.4c0-0.1,0-0.3-0.1-0.4c0-0.1-0.1-0.2-0.2-0.3c-0.1-0.1-0.2-0.1-0.3-0.2c-0.1,0-0.2-0.1-0.4-0.1
				s-0.3,0-0.4,0.1c-0.1,0-0.2,0.1-0.3,0.2c-0.1,0.1-0.1,0.2-0.2,0.3S87,100,87,100.1z"/>
			<path class="st75" d="M91.2,101.4h-0.5l-1.1-2.5h0.5l0.8,2h0l0.8-2h0.5L91.2,101.4z"/>
			<path class="st75" d="M95,100.9c-0.2,0.2-0.3,0.3-0.5,0.4c-0.2,0.1-0.4,0.1-0.6,0.1c-0.2,0-0.4,0-0.6-0.1
				c-0.2-0.1-0.3-0.2-0.4-0.3c-0.1-0.1-0.2-0.3-0.3-0.4c-0.1-0.2-0.1-0.3-0.1-0.5c0-0.2,0-0.4,0.1-0.5c0.1-0.2,0.2-0.3,0.3-0.4
				c0.1-0.1,0.3-0.2,0.4-0.3c0.2-0.1,0.3-0.1,0.5-0.1c0.2,0,0.3,0,0.5,0.1c0.2,0.1,0.3,0.1,0.4,0.3c0.1,0.1,0.2,0.3,0.3,0.4
				c0.1,0.2,0.1,0.3,0.1,0.6v0.1H93c0,0.1,0,0.2,0.1,0.3c0,0.1,0.1,0.2,0.2,0.3s0.2,0.1,0.3,0.2s0.2,0.1,0.3,0.1
				c0.2,0,0.3,0,0.5-0.1c0.1-0.1,0.2-0.2,0.3-0.3L95,100.9z M94.7,99.9c0-0.2-0.1-0.4-0.2-0.5c-0.1-0.1-0.3-0.2-0.6-0.2
				s-0.4,0.1-0.6,0.2c-0.2,0.1-0.2,0.3-0.3,0.5H94.7z"/>
			<path class="st75" d="M97.4,100.7c0.1,0.1,0.2,0.2,0.3,0.2c0.1,0.1,0.2,0.1,0.4,0.1c0.1,0,0.1,0,0.2,0c0.1,0,0.1,0,0.2-0.1
				c0.1,0,0.1-0.1,0.1-0.1c0,0,0.1-0.1,0.1-0.2c0-0.1,0-0.1-0.1-0.2c0,0-0.1-0.1-0.1-0.1c-0.1,0-0.1-0.1-0.2-0.1c-0.1,0-0.1,0-0.2,0
				c-0.1,0-0.2,0-0.3-0.1c-0.1,0-0.2-0.1-0.3-0.1s-0.2-0.1-0.2-0.2c-0.1-0.1-0.1-0.2-0.1-0.3c0-0.1,0-0.2,0.1-0.3
				c0.1-0.1,0.1-0.2,0.2-0.2s0.2-0.1,0.3-0.1c0.1,0,0.2,0,0.4,0c0.2,0,0.4,0,0.5,0.1c0.2,0.1,0.3,0.2,0.4,0.3l-0.4,0.2
				c-0.1-0.1-0.1-0.2-0.2-0.2c-0.1-0.1-0.2-0.1-0.3-0.1c-0.1,0-0.1,0-0.2,0s-0.1,0-0.2,0.1c-0.1,0-0.1,0.1-0.1,0.1
				c0,0-0.1,0.1-0.1,0.2c0,0,0,0.1,0.1,0.1c0,0,0.1,0.1,0.1,0.1c0.1,0,0.1,0,0.2,0.1s0.2,0,0.2,0c0.1,0,0.2,0,0.3,0.1
				c0.1,0,0.2,0.1,0.3,0.1s0.1,0.1,0.2,0.2c0,0.1,0.1,0.2,0.1,0.3c0,0.1,0,0.3-0.1,0.4c-0.1,0.1-0.1,0.2-0.2,0.2
				c-0.1,0.1-0.2,0.1-0.3,0.1c-0.1,0-0.3,0-0.4,0c-0.2,0-0.4,0-0.6-0.1c-0.2-0.1-0.3-0.2-0.4-0.4L97.4,100.7z"/>
			<path class="st75" d="M99.7,99.5c0-0.1,0-0.2,0-0.3c0-0.1,0-0.2,0-0.3h0.4c0,0.1,0,0.1,0,0.2c0,0.1,0,0.1,0,0.2h0
				c0-0.1,0.1-0.1,0.1-0.2c0.1-0.1,0.1-0.1,0.2-0.2c0.1,0,0.2-0.1,0.3-0.1c0.1,0,0.2,0,0.3,0c0.1,0,0.3,0,0.4,0
				c0.1,0,0.2,0.1,0.2,0.1c0.1,0,0.1,0.1,0.2,0.2c0,0.1,0.1,0.1,0.1,0.1c0.1-0.1,0.2-0.3,0.3-0.4c0.1-0.1,0.3-0.1,0.5-0.1
				c0.2,0,0.3,0,0.5,0.1c0.1,0,0.2,0.1,0.3,0.2c0.1,0.1,0.1,0.2,0.2,0.3c0,0.1,0.1,0.3,0.1,0.4v1.5h-0.4v-1.5c0-0.1,0-0.2,0-0.3
				c0-0.1-0.1-0.2-0.1-0.2c-0.1-0.1-0.1-0.1-0.2-0.2c-0.1,0-0.2-0.1-0.3-0.1c-0.1,0-0.2,0-0.3,0c-0.1,0-0.2,0.1-0.2,0.1
				c-0.1,0.1-0.1,0.1-0.1,0.2c0,0.1-0.1,0.2-0.1,0.3v1.5h-0.4V100c0-0.3,0-0.5-0.1-0.6c-0.1-0.1-0.2-0.2-0.4-0.2
				c-0.1,0-0.3,0-0.4,0.1c-0.1,0-0.2,0.1-0.3,0.2c-0.1,0.1-0.1,0.2-0.1,0.3c0,0.1-0.1,0.2-0.1,0.4v1.2h-0.5L99.7,99.5L99.7,99.5z"/>
			<path class="st75" d="M104.4,99.2c0.1-0.1,0.3-0.2,0.5-0.3c0.2-0.1,0.4-0.1,0.6-0.1c0.4,0,0.7,0.1,0.8,0.3
				c0.2,0.2,0.3,0.4,0.3,0.8v1.1c0,0.1,0,0.1,0,0.2c0,0.1,0,0.1,0,0.2h-0.4c0-0.1,0-0.1,0-0.2c0-0.1,0-0.1,0-0.2h0
				c-0.1,0.1-0.2,0.2-0.3,0.3c-0.1,0.1-0.3,0.1-0.5,0.1c-0.1,0-0.3,0-0.4,0c-0.1,0-0.2-0.1-0.3-0.1c-0.1-0.1-0.2-0.1-0.2-0.2
				c-0.1-0.1-0.1-0.2-0.1-0.3c0-0.2,0.1-0.4,0.2-0.5c0.1-0.1,0.2-0.2,0.4-0.3s0.3-0.1,0.5-0.1c0.2,0,0.4,0,0.5,0h0.2v-0.1
				c0-0.2-0.1-0.3-0.2-0.4c-0.1-0.1-0.3-0.1-0.5-0.1c-0.1,0-0.3,0-0.4,0.1c-0.1,0-0.3,0.1-0.4,0.2L104.4,99.2z M105.7,100.2
				c-0.3,0-0.5,0-0.7,0.1c-0.2,0.1-0.2,0.2-0.2,0.4c0,0.2,0.1,0.3,0.2,0.3c0.1,0.1,0.2,0.1,0.4,0.1c0.1,0,0.2,0,0.3-0.1
				s0.2-0.1,0.2-0.2c0.1-0.1,0.1-0.1,0.1-0.2c0-0.1,0.1-0.2,0.1-0.3v-0.2L105.7,100.2L105.7,100.2z"/>
			<path class="st75" d="M107.4,99.5c0-0.1,0-0.2,0-0.3c0-0.1,0-0.2,0-0.3h0.4c0,0.1,0,0.1,0,0.2c0,0.1,0,0.1,0,0.2h0
				c0-0.1,0.1-0.1,0.1-0.2c0.1-0.1,0.1-0.1,0.2-0.2c0.1,0,0.2-0.1,0.3-0.1c0.1,0,0.2,0,0.3,0c0,0,0.1,0,0.1,0c0,0,0.1,0,0.1,0l0,0.4
				c-0.1,0-0.2,0-0.2,0c-0.3,0-0.5,0.1-0.6,0.2c-0.1,0.2-0.2,0.4-0.2,0.7v1.2h-0.4L107.4,99.5L107.4,99.5z"/>
			<path class="st75" d="M110.8,99.2H110v1.3c0,0.1,0,0.2,0,0.2c0,0.1,0,0.1,0,0.2c0,0,0.1,0.1,0.1,0.1c0.1,0,0.1,0,0.2,0
				c0.1,0,0.1,0,0.2,0c0.1,0,0.1,0,0.2-0.1l0,0.4c-0.1,0-0.2,0.1-0.2,0.1c-0.1,0-0.2,0-0.3,0c-0.2,0-0.3,0-0.4-0.1
				c-0.1,0-0.2-0.1-0.2-0.2c-0.1-0.1-0.1-0.2-0.1-0.3c0-0.1,0-0.2,0-0.4v-1.4H109v-0.4h0.6v-0.7h0.4v0.7h0.8L110.8,99.2L110.8,99.2z
				"/>
		</g>
		<polygon class="st74" points="94.2,75.9 97.7,75.9 104.3,81.3 111.3,75.9 114.7,75.9 114.7,95.2 94.2,95.2 		"/>
		<polygon class="st74" points="135.8,95.2 115.8,95.2 125.8,75.9 		"/>
		<g>
			<path class="st74" d="M176.7,95V80.8h-3.3v-4.8h15.8v4.8h-3.3V95H176.7z"/>
		</g>
		<path class="st74" d="M92.7,75.9h-1.8h-7.7c-0.9,0-1.8,0.2-2.7,0.5c-0.8,0.3-1.6,0.8-2.2,1.4c-0.6,0.6-1.1,1.3-1.5,2
			c-0.4,0.8-0.6,1.6-0.6,2.5c0,0.9,0.2,1.7,0.6,2.5c0.4,0.8,0.8,1.5,1.5,2.1c0.6,0.6,1.3,1.1,2.2,1.4c0.2,0.1,0.4,0.1,0.5,0.2h-1.9
			h-1.8v1.7v3.2v1.7h1.8h7.4c0.9,0,1.8-0.2,2.7-0.5c0.8-0.3,1.6-0.8,2.2-1.4c0.6-0.6,1.1-1.3,1.5-2.1c0.4-0.8,0.5-1.6,0.5-2.5
			c0-0.9-0.2-1.7-0.5-2.5c-0.4-0.8-0.8-1.5-1.5-2.1s-1.4-1.1-2.2-1.4c-0.2-0.1-0.4-0.1-0.6-0.2h2.2h1.8v-1.7v-3.2V75.9L92.7,75.9z"
			/>
	</g>
</g>
</svg>
