<?xml version="1.0" encoding="utf-8"?>
<!-- Generator: Adobe Illustrator 24.2.1, SVG Export Plug-In . SVG Version: 6.00 Build 0)  -->
<svg version="1.1" id="Laag_1" xmlns="http://www.w3.org/2000/svg" xmlns:xlink="http://www.w3.org/1999/xlink" x="0px" y="0px"
	 viewBox="0 0 156.7 158.3" style="enable-background:new 0 0 156.7 158.3;" xml:space="preserve">
<style type="text/css">
	.st0{fill:none;}
	.st1{fill:none;stroke:#0A0C06;stroke-width:0.216;stroke-linejoin:bevel;stroke-miterlimit:22.9256;}
	.st2{fill:#0066FF;stroke:#0066FF;stroke-miterlimit:10;}
	.st3{fill:none;stroke:#0A0C06;stroke-linejoin:bevel;stroke-miterlimit:22.9256;}
	.st4{fill:#1D1D1B;}
	.st5{fill:none;stroke:#1D1D1B;stroke-width:0.2835;stroke-miterlimit:22.9256;}
	.st6{fill:#575756;}
	.st7{font-family:'ArialMT';}
	.st8{font-size:6.043px;}
	.st9{font-size:6px;}
	.st10{fill:#232020;}
	.st11{fill:#F28A19;}
	.st12{fill:#553289;}
</style>
<rect x="27.3" y="129.7" class="st0" width="86.5" height="27.2"/>
<line class="st1" x1="10.6" y1="100" x2="11.4" y2="101"/>
<line class="st1" x1="151.5" y1="43.5" x2="151.5" y2="60.9"/>
<line class="st1" x1="11.4" y1="101" x2="11.4" y2="110.6"/>
<path class="st1" d="M151.5,43.5c0-3-1.2-5.9-3.3-8.1"/>
<line class="st1" x1="11.4" y1="69.9" x2="11.4" y2="99"/>
<line class="st1" x1="11.4" y1="58.5" x2="11.4" y2="67.8"/>
<line class="st1" x1="5.2" y1="58.5" x2="11.4" y2="58.5"/>
<line class="st1" x1="5.2" y1="67.8" x2="5.2" y2="58.5"/>
<line class="st1" x1="6.1" y1="68.9" x2="5.2" y2="67.8"/>
<line class="st1" x1="5.2" y1="69.9" x2="6.1" y2="68.9"/>
<line class="st1" x1="5.2" y1="99" x2="5.2" y2="69.9"/>
<line class="st1" x1="6.1" y1="100" x2="5.2" y2="99"/>
<line class="st1" x1="5.2" y1="101" x2="6.1" y2="100"/>
<path class="st2" d="M62.6,68.6c0,2.9-2.3,5.2-5.2,5.2s-5.2-2.3-5.2-5.2c0-1.9,1-3.6,2.6-4.5s3.6-0.9,5.2,0
	C61.6,65.1,62.6,66.8,62.6,68.6"/>
<line class="st1" x1="33.4" y1="8.1" x2="51.6" y2="26.9"/>
<line class="st1" x1="115.6" y1="127.2" x2="115.6" y2="158"/>
<line class="st1" x1="24.6" y1="155.8" x2="24.6" y2="127.2"/>
<line class="st1" x1="23.6" y1="54" x2="5.9" y2="35.6"/>
<line class="st1" x1="24.6" y1="127.2" x2="115.6" y2="127.2"/>
<line class="st1" x1="51.6" y1="26.9" x2="23.6" y2="54"/>
<line class="st1" x1="11.4" y1="67.8" x2="10.6" y2="68.9"/>
<line class="st1" x1="5.9" y1="35.6" x2="4.7" y2="34.3"/>
<line class="st1" x1="31.1" y1="6.3" x2="32.2" y2="6.8"/>
<line class="st1" x1="4.7" y1="34.3" x2="4.2" y2="33.2"/>
<line class="st3" x1="36.3" y1="1" x2="31.1" y2="6.3"/>
<path class="st3" d="M37.6,0.5c-0.5,0-0.9,0.2-1.2,0.5"/>
<line class="st3" x1="119.2" y1="0.5" x2="37.6" y2="0.5"/>
<path class="st1" d="M145.3,44.2c0-1.8-0.7-3.6-2-4.9"/>
<line class="st1" x1="5.2" y1="112.4" x2="5.2" y2="101"/>
<line class="st1" x1="137.4" y1="24.6" x2="148.2" y2="35.4"/>
<line class="st1" x1="135.9" y1="23.1" x2="136" y2="24.5"/>
<line class="st1" x1="102.6" y1="10.6" x2="103.8" y2="9.7"/>
<path class="st1" d="M81.5,9.7c-1.1,0-2.1,0.6-2.7,1.6s-0.6,2.2,0,3.1c0.6,1,1.6,1.6,2.7,1.6"/>
<line class="st1" x1="102.6" y1="15.1" x2="101.4" y2="15.9"/>
<line class="st1" x1="131.5" y1="27.5" x2="121.9" y2="18"/>
<line class="st1" x1="11.4" y1="99" x2="10.6" y2="100"/>
<line class="st1" x1="133" y1="29" x2="132.8" y2="27.7"/>
<path class="st1" d="M5.2,112.4c0,3,1.2,5.9,3.3,8.1c2.1,2.1,5,3.3,8.1,3.3"/>
<line class="st1" x1="136" y1="24.5" x2="137.4" y2="24.6"/>
<line class="st1" x1="125.8" y1="13" x2="135.9" y2="23.1"/>
<line class="st1" x1="101.4" y1="9.7" x2="102.6" y2="10.6"/>
<line class="st1" x1="103.8" y1="15.9" x2="102.6" y2="15.1"/>
<line class="st1" x1="132.8" y1="27.7" x2="131.5" y2="27.5"/>
<path class="st1" d="M121.9,18c-1.3-1.3-3.1-2-4.9-2"/>
<line class="st1" x1="143.3" y1="39.3" x2="133" y2="29"/>
<path class="st1" d="M125.8,13c-2.1-2.1-5-3.3-8.1-3.3"/>
<line class="st1" x1="103.8" y1="9.7" x2="117.7" y2="9.7"/>
<line class="st1" x1="81.5" y1="9.7" x2="101.4" y2="9.7"/>
<line class="st1" x1="101.4" y1="15.9" x2="81.5" y2="15.9"/>
<line class="st1" x1="117" y1="15.9" x2="103.8" y2="15.9"/>
<line class="st1" x1="151.5" y1="95.5" x2="150.7" y2="96.5"/>
<line class="st1" x1="151.5" y1="60.9" x2="150.7" y2="61.9"/>
<line class="st1" x1="150.7" y1="96.5" x2="151.5" y2="97.6"/>
<line class="st1" x1="150.7" y1="61.9" x2="151.5" y2="63"/>
<path class="st4" d="M94.6,68.6c0,1.9-1,3.6-2.6,4.5s-3.6,0.9-5.2,0s-2.6-2.6-2.6-4.5c0-2.9,2.3-5.2,5.2-5.2
	C92.3,63.5,94.6,65.8,94.6,68.6"/>
<line class="st1" x1="151.5" y1="97.6" x2="151.5" y2="112.4"/>
<line class="st1" x1="151.5" y1="63" x2="151.5" y2="95.5"/>
<line class="st1" x1="10.6" y1="68.9" x2="11.4" y2="69.9"/>
<path class="st3" d="M26,157.3c0.3,0.3,0.8,0.5,1.2,0.5"/>
<line class="st3" x1="129.6" y1="157.8" x2="27.2" y2="157.8"/>
<line class="st3" x1="31.1" y1="6.3" x2="4.2" y2="33.2"/>
<path class="st3" d="M129.6,157.8c0.5,0,0.9-0.2,1.2-0.5"/>
<line class="st1" x1="27.5" y1="123.8" x2="25.4" y2="123.8"/>
<line class="st1" x1="40.3" y1="122.9" x2="39.3" y2="123.8"/>
<line class="st1" x1="41.3" y1="123.8" x2="40.3" y2="122.9"/>
<line class="st1" x1="116.4" y1="122.9" x2="115.4" y2="123.8"/>
<line class="st1" x1="117.5" y1="123.8" x2="116.4" y2="122.9"/>
<line class="st1" x1="131.3" y1="123.8" x2="129.2" y2="123.8"/>
<line class="st1" x1="145.3" y1="86.8" x2="145.3" y2="77.7"/>
<line class="st1" x1="145.3" y1="110.6" x2="145.3" y2="108.7"/>
<line class="st1" x1="129.2" y1="117.5" x2="131.3" y2="117.5"/>
<line class="st1" x1="116.4" y1="118.4" x2="117.5" y2="117.5"/>
<line class="st3" x1="156.2" y1="131.3" x2="156.2" y2="37.6"/>
<path class="st3" d="M155.7,132.5c0.3-0.3,0.5-0.8,0.5-1.2"/>
<line class="st3" x1="130.8" y1="157.3" x2="155.7" y2="132.5"/>
<line class="st3" x1="0.5" y1="37.6" x2="0.5" y2="131.3"/>
<path class="st3" d="M1,36.3c-0.3,0.3-0.5,0.8-0.5,1.2"/>
<line class="st3" x1="4.2" y1="33.2" x2="1" y2="36.3"/>
<path class="st3" d="M0.5,131.3c0,0.5,0.2,0.9,0.5,1.2"/>
<line class="st3" x1="1" y1="132.5" x2="26.2" y2="157.4"/>
<path class="st1" d="M81.5,15.9c1.7,0,3.1-1.4,3.1-3.1"/>
<path class="st1" d="M84.6,12.8c0-1.7-1.4-3.1-3.1-3.1"/>
<line class="st1" x1="87.9" y1="0.7" x2="68.9" y2="0.7"/>
<line class="st1" x1="3.2" y1="134.4" x2="16.6" y2="147.9"/>
<line class="st1" x1="140.1" y1="147.9" x2="153.6" y2="134.4"/>
<line class="st1" x1="129.2" y1="123.8" x2="79.4" y2="123.8"/>
<path class="st1" d="M140.1,123.8c3,0,5.9-1.2,8.1-3.3c2.1-2.1,3.3-5,3.3-8.1"/>
<line class="st1" x1="145.3" y1="95.5" x2="145.3" y2="63"/>
<path class="st1" d="M138.4,117.5c3.8,0,6.9-3.1,6.9-6.9"/>
<line class="st1" x1="130.3" y1="118.4" x2="131.3" y2="117.5"/>
<line class="st1" x1="27.5" y1="117.5" x2="77.3" y2="117.5"/>
<line class="st1" x1="25.4" y1="123.8" x2="16.6" y2="123.8"/>
<line class="st1" x1="27.5" y1="123.8" x2="26.5" y2="122.9"/>
<line class="st1" x1="79.4" y1="123.8" x2="78.4" y2="122.9"/>
<line class="st1" x1="140.1" y1="123.8" x2="131.3" y2="123.8"/>
<line class="st1" x1="145.3" y1="63" x2="146.2" y2="61.9"/>
<line class="st1" x1="145.3" y1="110.6" x2="145.3" y2="97.6"/>
<line class="st1" x1="131.3" y1="117.5" x2="138.4" y2="117.5"/>
<line class="st1" x1="77.3" y1="117.5" x2="78.4" y2="118.4"/>
<path class="st1" d="M11.4,110.6c0,1.8,0.7,3.6,2,4.9s3.1,2,4.9,2"/>
<line class="st1" x1="78.4" y1="118.4" x2="79.4" y2="117.5"/>
<line class="st1" x1="18.3" y1="117.5" x2="25.4" y2="117.5"/>
<line class="st1" x1="26.5" y1="122.9" x2="25.4" y2="123.8"/>
<line class="st1" x1="77.3" y1="123.8" x2="27.5" y2="123.8"/>
<line class="st1" x1="130.3" y1="122.9" x2="129.2" y2="123.8"/>
<line class="st1" x1="145.3" y1="60.9" x2="145.3" y2="44.2"/>
<line class="st1" x1="146.2" y1="96.5" x2="145.3" y2="95.5"/>
<line class="st1" x1="129.2" y1="117.5" x2="130.3" y2="118.4"/>
<line class="st1" x1="26.5" y1="118.4" x2="27.5" y2="117.5"/>
<line class="st1" x1="78.4" y1="122.9" x2="77.3" y2="123.8"/>
<line class="st1" x1="131.3" y1="123.8" x2="130.3" y2="122.9"/>
<line class="st1" x1="146.2" y1="61.9" x2="145.3" y2="60.9"/>
<line class="st1" x1="145.3" y1="97.6" x2="146.2" y2="96.5"/>
<line class="st1" x1="79.4" y1="117.5" x2="129.2" y2="117.5"/>
<line class="st1" x1="25.4" y1="117.5" x2="26.5" y2="118.4"/>
<line class="st1" x1="32.2" y1="6.8" x2="33.4" y2="8.1"/>
<path class="st3" d="M120.4,1c-0.3-0.3-0.8-0.5-1.2-0.5"/>
<line class="st3" x1="155.7" y1="36.3" x2="120.4" y2="1"/>
<path class="st3" d="M156.2,37.6c0-0.5-0.2-0.9-0.5-1.2"/>
<line class="st1" x1="115.4" y1="117.5" x2="116.4" y2="118.4"/>
<line class="st1" x1="40.3" y1="118.4" x2="41.3" y2="117.5"/>
<line class="st1" x1="39.3" y1="117.5" x2="40.3" y2="118.4"/>
<line class="st1" x1="25.4" y1="117.5" x2="27.5" y2="117.5"/>
<path class="st1" d="M42.5,140c0-3.6-2.9-6.6-6.6-6.6c-3.6,0-6.6,2.9-6.6,6.6"/>
<path class="st1" d="M29.4,140c0,3.6,2.9,6.6,6.6,6.6c3.6,0,6.6-2.9,6.6-6.6"/>
<path class="st1" d="M59.9,140c0-3.6-2.9-6.6-6.6-6.6c-3.6,0-6.6,2.9-6.6,6.6"/>
<path class="st1" d="M46.7,140c0,2.3,1.3,4.5,3.3,5.7s4.5,1.2,6.6,0c2-1.2,3.3-3.3,3.3-5.7"/>
<path class="st1" d="M111.8,140c0-3.6-2.9-6.6-6.6-6.6c-3.6,0-6.6,2.9-6.6,6.6"/>
<path class="st1" d="M98.6,140c0,2.3,1.3,4.5,3.3,5.7s4.5,1.2,6.6,0c2-1.2,3.3-3.3,3.3-5.7"/>
<path class="st1" d="M94.5,140c0-2.3-1.3-4.5-3.3-5.7s-4.5-1.2-6.6,0c-2,1.2-3.3,3.3-3.3,5.7"/>
<path class="st1" d="M81.3,140c0,3.6,2.9,6.6,6.6,6.6c3.6,0,6.6-2.9,6.6-6.6"/>
<path class="st1" d="M77.2,140c0-3.6-2.9-6.6-6.6-6.6c-3.6,0-6.6,2.9-6.6,6.6"/>
<path class="st1" d="M64,140c0,2.3,1.3,4.5,3.3,5.7s4.5,1.2,6.6,0c2-1.2,3.3-3.3,3.3-5.7"/>
<line class="st1" x1="27.3" y1="150.4" x2="113.8" y2="150.4"/>
<line class="st1" x1="113.8" y1="129.7" x2="27.3" y2="129.7"/>
<line class="st1" x1="113.8" y1="150.4" x2="113.8" y2="154.3"/>
<line class="st1" x1="113.8" y1="129.7" x2="113.8" y2="150.4"/>
<line class="st1" x1="4.5" y1="33.6" x2="4.5" y2="33.5"/>
<line class="st1" x1="27.3" y1="157.7" x2="27.3" y2="129.7"/>
<line class="st1" x1="113.8" y1="154.3" x2="113.8" y2="157.7"/>
<path class="st5" d="M17,45.1c-3.2-3.3-3-8.7,0.3-11.9C20.7,30,26,30,29.2,33.4c3.2,3.3,3.1,8.8-0.2,12C25.7,48.6,20.2,48.5,17,45.1
	z M36.8,39.5L23.4,25.6L9.4,39l13.4,13.9L36.8,39.5z M21.2,47.6l2,0.1c1.5-13.9,0.3-2.6,1.8-16.5L22.9,31
	C21.4,45,22.6,33.3,21.2,47.6z"/>
<path class="st5" d="M31,31.7c-3.2-3.3-3-8.7,0.3-11.9s8.7-3.2,11.9,0.1c3.2,3.3,3.1,8.8-0.2,12C39.6,35.2,34.2,35.1,31,31.7z
	 M50.7,26.1L37.3,12.2L23.4,25.6l13.4,13.9L50.7,26.1z M35.1,34.1l2,0.1c1.5-13.9,0.3-2.6,1.8-16.5l-2.1-0.2
	C35.3,31.6,36.5,19.9,35.1,34.1z"/>
<path class="st5" d="M36,133.5c3.6,0,6.5,3,6.5,6.6s-2.9,6.6-6.5,6.6s-6.6-3-6.6-6.6C29.3,136.5,32.3,133.5,36,133.5z M41.5,136.5
	l-1-1.2c-8.4,7-1.6,1.3-9.9,8.3l1,1.2C39.9,137.8,33.1,143.4,41.5,136.5z"/>
<path class="st5" d="M53.3,133.5c3.6,0,6.5,3,6.5,6.6s-2.9,6.6-6.5,6.6s-6.6-3-6.6-6.6S49.7,133.5,53.3,133.5z M49.7,134.5l-1.1,1
	c7,8.4,1.3,1.6,8.3,9.9l1.2-1C51.4,136.4,55.9,141.8,49.7,134.5z"/>
<path class="st5" d="M70.6,133.5c3.6,0,6.5,3,6.5,6.6s-2.9,6.6-6.5,6.6s-6.6-3-6.6-6.6S67,133.5,70.6,133.5z M67,134.5l-1.1,1
	c7,8.4,1.3,1.6,8.3,9.9l1.2-1C68.3,136,74.2,143,67,134.5z"/>
<path class="st5" d="M87.9,133.5c3.6,0,6.5,3,6.5,6.6s-2.9,6.6-6.5,6.6s-6.6-3-6.6-6.6S84.3,133.5,87.9,133.5z M93.4,136.5l-1-1.2
	c-8.4,7-1.6,1.3-9.9,8.3l1,1.2C91.8,137.8,85,143.4,93.4,136.5z"/>
<path class="st5" d="M105.2,133.5c3.6,0,6.5,3,6.5,6.6s-2.9,6.6-6.5,6.6s-6.6-3-6.6-6.6S101.6,133.5,105.2,133.5z M110.7,136.5
	l-1-1.2c-8.4,7-1.6,1.3-9.9,8.3l1,1.2C109.1,137.8,102.3,143.4,110.7,136.5z"/>
<path class="st6" d="M81.5,10.5c0.4,0,0.7,0.1,1,0.2h35.4c1.3,0,2.6,0.2,3.7,0.7c1.2,0.5,2.2,1.2,3.1,2.1l23.1,22.7
	c1,0.9,1.7,2,2.2,3.2s0.7,2.4,0.7,3.8v67.6c0,3.2-1.3,6.1-3.4,8.3l0,0c-2.1,2.1-5,3.4-8.3,3.4l0,0H17.8l0,0c-3.2,0-6.1-1.3-8.3-3.4
	l0,0c-2.1-2.1-3.4-5-3.4-8.3V75.9c0-0.8,0.7-1.5,1.5-1.5h1.1c0.8,0,1.5,0.7,1.5,1.5v34.9c0,2.1,0.8,3.9,2.2,5.3l0,0
	c1.3,1.3,3.2,2.2,5.3,2.2l0,0h121.2l0,0c2.1,0,3.9-0.8,5.3-2.2l0,0c1.3-1.3,2.2-3.2,2.2-5.3V43.2c0-0.8-0.1-1.5-0.4-2.2
	c-0.3-0.7-0.7-1.3-1.2-1.8l-23.1-22.7c-0.6-0.5-1.1-0.9-1.8-1.2c-0.6-0.3-1.3-0.4-2.1-0.4H82.5c-0.3,0.1-0.6,0.2-1,0.2
	c-1.3,0-2.3-1-2.3-2.3S80.2,10.5,81.5,10.5"/>
<text transform="matrix(1 0 0 1 70.8889 80.6477)" class="st4 st7 st8">M</text>
<text transform="matrix(1 0 0 1 76.2586 80.6477)" class="st4 st7 st8">i</text>
<text transform="matrix(1 0 0 1 77.9373 80.6477)" class="st4 st7 st8">n</text>
<text transform="matrix(1 0 0 1 81.6341 80.6477)" class="st4 st7 st8">.</text>
<text transform="matrix(1 0 0 1 83.6487 80.6477)" class="st4 st7 st8">S</text>
<text transform="matrix(1 0 0 1 88.0154 80.6477)" class="st4 st7 st8">e</text>
<text transform="matrix(1 0 0 1 91.7122 80.6477)" class="st4 st7 st8">t</text>
<text transform="matrix(1 0 0 1 49.2776 80.3908)" class="st4 st7 st8">R</text>
<text transform="matrix(1 0 0 1 53.9773 80.3908)" class="st4 st7 st8">e</text>
<text transform="matrix(1 0 0 1 57.6741 80.3908)" class="st4 st7 st8">s</text>
<text transform="matrix(1 0 0 1 61.0315 80.3908)" class="st4 st7 st8">e</text>
<text transform="matrix(1 0 0 1 64.7283 80.3908)" class="st4 st7 st8">t</text>
<text transform="matrix(1 0 0 1 99.7579 60.9308)" class="st7 st9">ROB_200-011-0</text>
<g>
	<path d="M106.5,69.4c0,0-0.5,0.5-0.9,0.9c-0.4,0.5-0.7,1-0.7,1h0.1C105.5,70.6,106,70,106.5,69.4L106.5,69.4z"/>
	<path d="M134.2,92.6c-0.1,0.2-0.3,0.4-0.4,0.5C133.9,93,134.1,92.7,134.2,92.6z"/>
	<path d="M133.5,93.5L133.5,93.5L133.5,93.5z"/>
	<path d="M133.8,93.2c-0.1,0.2-0.3,0.3-0.3,0.3C133.6,93.4,133.7,93.3,133.8,93.2z"/>
	<path d="M127.3,68.6c2.2,0.3,4.6,1.9,4.8,5.2c0,0-4.1,4.2-8.9,9c-4.9,4.8-9,9.4-9,9.4c0,0.1,0,0.1-0.3,0.3
		c6.9,0.4,13.9,0.1,20.9-0.9c0,0-0.5,0.9-0.6,1l0,0c2.3-3,3.6-6.8,3.6-10.8c0-10-8.1-18.1-18.1-18.1c-5.2,0-9.9,2.2-13.2,5.7
		c1.1-0.2,2.2-0.4,3.3-0.5C115.6,67.9,125.9,68.3,127.3,68.6z"/>
	<path d="M111.5,94.2c-1.6-0.3-4.5-1.6-4.5-5.1c0.4-0.6,4.7-4.9,9.5-9.6c4.9-4.7,8.8-9,8.7-9.1c-3.4-0.1-6.9-0.2-10.3,0
		c-3.3,0.1-6.6,0.4-9.9,0.9c-2.1,3-3.4,6.6-3.4,10.5c0,10,8.1,18.1,18.1,18.1c5.5,0,10.5-2.5,13.8-6.4
		C126.2,94.7,118.8,94.9,111.5,94.2z"/>
</g>
<g id="_x23_232020ff">
	<path class="st10" d="M102.2,100.7c0.2-0.1,0.3,0,0.5,0c1.2,0,2.5,0,3.7,0c0.3,0,0.5,0.3,0.4,0.5c-0.8,2.2-1.6,4.3-2.3,6.5
		c-0.1,0.2,0.1,0.5,0.3,0.5c0.5,0,1.1,0,1.6,0c0.3,0,0.6,0.2,0.6,0.5c0,0.2,0.1,0.5-0.1,0.7c-0.1,0.1-0.3,0.2-0.5,0.2
		c-1.4,0-2.9,0-4.3,0c-0.3,0-0.5-0.3-0.4-0.5c0.8-2.2,1.6-4.3,2.4-6.5c0.1-0.2,0-0.5-0.3-0.5c-0.5,0-1.1,0-1.6,0
		c-0.3-0.1-0.5-0.4-0.5-0.7C101.8,101.1,101.9,100.8,102.2,100.7z"/>
	<path class="st10" d="M108.4,100.7c0.6-0.2,1.3,0.1,1.4,0.8c0,0.6-0.7,1.1-1.3,0.9c-0.4-0.1-0.8-0.5-0.8-0.9
		C107.8,101.1,108.1,100.8,108.4,100.7z"/>
	<path class="st10" d="M118.2,100.8c1.1-0.2,2.3-0.3,3.3,0c0.6,0.2,1.2,0.5,1.5,1.1c0.4,0.7,0.4,1.7-0.2,2.4
		c-0.3,0.3-0.7,0.6-1.1,0.7c0.6,0.3,1.2,0.7,1.6,1.3c0.4,0.6,0.3,1.3,0.1,1.9c-0.2,0.5-0.6,1-1.1,1.2c-0.9,0.4-1.9,0.5-2.8,0.4
		c-0.8,0-1.6-0.2-2.4-0.5c0-2.4,0-4.7,0-7.1c0-0.3,0-0.7,0.2-0.9C117.6,100.9,118,100.9,118.2,100.8 M119.2,101.9c0,0.7,0,1.3,0,2
		c0,0.2,0,0.5,0.2,0.6c0.6-0.1,1.2-0.2,1.6-0.6c0.6-0.5,0.5-1.5-0.1-1.9C120.4,101.7,119.8,101.8,119.2,101.9 M119.4,105.6
		c-0.2,0.2-0.2,0.4-0.2,0.7c0,0.5,0,1.1,0,1.6c0,0.3,0.2,0.7,0.6,0.6c0.5,0,1.1,0,1.5-0.4c0.4-0.5,0.3-1.2,0.2-1.7
		c-0.2-0.5-0.8-0.7-1.3-0.8C119.9,105.5,119.6,105.5,119.4,105.6z"/>
	<path class="st10" d="M136.5,100.7c0.5-0.2,1.2,0.1,1.3,0.6c0.2,0.5-0.1,1.1-0.6,1.3c-0.5,0.2-1.1-0.1-1.3-0.6
		C135.6,101.5,135.9,100.8,136.5,100.7 M136.6,100.8c-0.4,0.1-0.7,0.6-0.6,1c0.1,0.4,0.6,0.7,1,0.6s0.6-0.5,0.6-0.8
		C137.6,101.1,137.1,100.7,136.6,100.8z"/>
	<path class="st10" d="M136.5,101c0.2-0.1,0.6-0.1,0.7,0.2c0.1,0.2,0,0.4-0.2,0.5c0.1,0.2,0.2,0.3,0.3,0.5c-0.1,0-0.2,0-0.3,0
		c-0.1-0.2-0.2-0.3-0.3-0.5c0,0.2,0,0.3,0,0.5c0,0-0.1,0-0.2,0C136.5,101.8,136.5,101.4,136.5,101 M136.7,101.2c0,0.1,0,0.3,0,0.4
		c0.1,0,0.4,0,0.3-0.2C137,101.2,136.8,101.2,136.7,101.2z"/>
	<path class="st10" d="M111.6,103.7c0.6-0.5,1.5-0.7,2.3-0.7s1.5,0.1,2.2,0.5c0,2.1,0,4.3,0,6.4c0,0.7-0.3,1.4-0.8,1.9
		c-0.6,0.5-1.3,0.6-2,0.6c-0.8,0-1.7-0.1-2.4-0.5c0.1-0.3,0.2-0.6,0.3-0.8c0.1-0.2,0.4-0.3,0.7-0.2c0.6,0.2,1.3,0.3,1.9,0
		c0.4-0.2,0.6-0.7,0.6-1.1c0-0.1-0.2-0.2-0.3-0.2c-0.4,0.1-0.8,0.1-1.2,0c-0.7-0.1-1.4-0.5-1.8-1.1c-0.5-0.8-0.6-1.7-0.5-2.6
		C110.6,105.1,110.9,104.2,111.6,103.7 M113,104.3c-0.4,0.2-0.5,0.7-0.6,1.1c-0.1,0.7-0.1,1.4,0,2c0.1,0.4,0.2,0.8,0.6,1
		c0.3,0.2,0.6,0.2,0.9,0.2c0.2-0.2,0.3-0.4,0.3-0.6c0-1.3,0-2.5,0-3.8C113.9,104.1,113.4,104,113,104.3z"/>
	<path class="st10" d="M125.2,103.6c0.6-0.5,1.4-0.7,2.2-0.6c0.6,0,1.1,0.3,1.5,0.8c0.5,0.7,0.7,1.5,0.8,2.4c0,0.2-0.2,0.4-0.4,0.4
		c-1.1,0.2-2.2,0.3-3.4,0.5c0.1,0.6,0.4,1.2,1,1.3c0.8,0.2,1.6,0.1,2.3-0.3c0.1,0.4,0.4,0.7,0.2,1.1c-0.1,0.3-0.5,0.3-0.7,0.4
		c-0.9,0.2-1.8,0.3-2.6-0.1c-0.7-0.2-1.3-0.8-1.6-1.5c-0.3-0.8-0.4-1.7-0.2-2.5C124.3,104.8,124.6,104.1,125.2,103.6 M126.1,104.6
		c-0.3,0.4-0.3,1-0.3,1.5c0.8-0.1,1.5-0.2,2.3-0.3c0-0.5-0.1-1-0.4-1.4C127.2,104,126.4,104.1,126.1,104.6z"/>
	<path class="st10" d="M132.2,103.2c0.8-0.3,1.7-0.3,2.4,0.2c0.9,0.6,1.1,1.7,1.2,2.7c0,0.2-0.2,0.5-0.4,0.5
		c-1.1,0.2-2.2,0.3-3.4,0.5c0.1,0.5,0.3,1.1,0.9,1.3c0.8,0.2,1.6,0.1,2.4-0.2c0.1,0.3,0.3,0.6,0.3,1c-0.1,0.4-0.5,0.4-0.8,0.5
		c-0.9,0.2-2,0.2-2.8-0.2c-0.8-0.4-1.3-1.1-1.5-2s-0.2-1.8,0.2-2.7C130.8,104,131.4,103.4,132.2,103.2 M132.3,104.5
		c-0.4,0.4-0.4,1.1-0.4,1.6c0.8-0.1,1.5-0.2,2.3-0.3c0-0.5,0-0.9-0.3-1.3C133.5,104,132.7,104,132.3,104.5z"/>
	<path class="st10" d="M108.3,103.1c0.3,0,0.7,0,1,0s0.5,0.3,0.5,0.5c0,1.8,0,3.6,0,5.4c0,0.3-0.2,0.6-0.5,0.6s-0.6,0-0.9,0
		s-0.5-0.3-0.5-0.6c0-1.8,0-3.5,0-5.3C107.8,103.5,108,103.2,108.3,103.1z"/>
</g>
<g>
	<path class="st11" d="M98.46,28.49h-0.63v-0.51c0-1.93-1.57-3.49-3.51-3.49h-0.14c-1.9,0-3.45,1.53-3.45,3.43v0.57v7.06h7.1h0.45
		c1.97,0,3.57-1.59,3.57-3.54v-0.14C101.86,30,100.34,28.49,98.46,28.49"/>
	<path class="st11" d="M72.69,24.37c-3.14,0-5.68,2.53-5.68,5.64s2.54,5.64,5.68,5.64c3.14,0,5.68-2.53,5.68-5.64
		S75.82,24.37,72.69,24.37"/>
	<path class="st11" d="M62.13,24.55h-5.14l-0.02,10.94h9.55l0,0c0-1.29-0.66-2.42-1.67-3.08c1.03-0.8,1.7-2.05,1.7-3.46
		C66.55,26.51,64.57,24.55,62.13,24.55"/>
	<path class="st11" d="M95.89,36.28h-5.14l-0.02,10.96h9.55l0,0c0-1.29-0.66-2.43-1.67-3.09c1.03-0.81,1.7-2.06,1.7-3.47
		C100.31,38.26,98.34,36.28,95.89,36.28"/>
	<path class="st11" d="M106.17,36.28h-5.14l-0.02,10.96h9.55l0,0c0-1.29-0.66-2.43-1.67-3.09c1.03-0.81,1.7-2.06,1.7-3.47
		C110.59,38.26,108.61,36.28,106.17,36.28"/>
	<path class="st11" d="M86.73,28.49H86.1v-0.51c0-1.93-1.57-3.49-3.51-3.49h-0.14c-1.9,0-3.45,1.53-3.45,3.43v0.57v7.06h7.1h0.45
		c1.97,0,3.57-1.59,3.57-3.54v-0.14C90.12,30,88.6,28.49,86.73,28.49"/>
	<g>
		<path class="st12" d="M58.75,50.76h-0.24l-0.41-1.11H58.1l-0.36,1.11h-0.25l-0.47-1.44h0.27l0.33,1.11h0.01l0.37-1.11h0.25
			l0.38,1.11h0.01l0.33-1.11h0.26L58.75,50.76z"/>
		<path class="st12" d="M60.79,50.5c-0.09,0.11-0.18,0.19-0.28,0.23c-0.1,0.04-0.22,0.07-0.36,0.07c-0.11,0-0.22-0.02-0.31-0.06
			s-0.17-0.09-0.23-0.16c-0.06-0.07-0.11-0.15-0.15-0.24c-0.03-0.09-0.05-0.19-0.05-0.3c0-0.11,0.02-0.21,0.06-0.31
			c0.04-0.09,0.09-0.17,0.15-0.24c0.07-0.07,0.14-0.12,0.24-0.15c0.09-0.04,0.19-0.06,0.3-0.06c0.1,0,0.19,0.02,0.28,0.05
			c0.09,0.03,0.16,0.08,0.22,0.15c0.06,0.06,0.11,0.14,0.14,0.24c0.03,0.09,0.05,0.2,0.05,0.32v0.08h-1.17
			c0,0.06,0.02,0.12,0.05,0.18c0.03,0.06,0.06,0.11,0.1,0.15c0.04,0.04,0.09,0.08,0.15,0.1c0.06,0.03,0.12,0.04,0.18,0.04
			c0.11,0,0.19-0.02,0.27-0.06s0.14-0.09,0.19-0.16L60.79,50.5z M60.58,49.91c0-0.12-0.04-0.22-0.12-0.3
			c-0.08-0.07-0.18-0.11-0.32-0.11s-0.24,0.04-0.32,0.11c-0.08,0.07-0.13,0.17-0.15,0.3H60.58z"/>
		<path class="st12" d="M62.1,48.44h0.24v2.33H62.1V48.44z"/>
		<path class="st12" d="M62.73,50.04c0-0.11,0.02-0.22,0.06-0.31c0.04-0.09,0.09-0.17,0.16-0.24s0.15-0.12,0.24-0.15
			c0.09-0.04,0.2-0.06,0.31-0.06s0.21,0.02,0.31,0.06s0.18,0.09,0.24,0.15s0.12,0.15,0.16,0.24c0.04,0.09,0.06,0.19,0.06,0.31
			c0,0.11-0.02,0.22-0.06,0.31c-0.04,0.09-0.09,0.17-0.16,0.24c-0.07,0.07-0.15,0.12-0.24,0.15c-0.09,0.04-0.2,0.06-0.31,0.06
			c-0.11,0-0.21-0.02-0.31-0.06c-0.09-0.04-0.18-0.09-0.24-0.15c-0.07-0.07-0.12-0.15-0.16-0.24
			C62.75,50.26,62.73,50.15,62.73,50.04z M62.99,50.04c0,0.08,0.01,0.15,0.04,0.21s0.06,0.12,0.1,0.17c0.05,0.05,0.1,0.09,0.16,0.11
			c0.06,0.03,0.13,0.04,0.21,0.04s0.15-0.01,0.21-0.04s0.12-0.07,0.16-0.11s0.08-0.1,0.1-0.17s0.04-0.13,0.04-0.21
			c0-0.08-0.01-0.15-0.04-0.21c-0.02-0.06-0.06-0.12-0.1-0.17c-0.05-0.05-0.1-0.09-0.16-0.11c-0.06-0.03-0.13-0.04-0.21-0.04
			s-0.15,0.01-0.21,0.04c-0.06,0.03-0.12,0.07-0.16,0.11s-0.08,0.1-0.1,0.17C63.01,49.89,62.99,49.97,62.99,50.04z"/>
		<path class="st12" d="M65.31,50.76h-0.27l-0.59-1.44h0.28l0.45,1.13h0.01l0.43-1.13h0.26L65.31,50.76z"/>
		<path class="st12" d="M67.44,50.5c-0.09,0.11-0.18,0.19-0.28,0.23c-0.1,0.04-0.22,0.07-0.36,0.07c-0.11,0-0.22-0.02-0.31-0.06
			c-0.09-0.04-0.17-0.09-0.23-0.16c-0.06-0.07-0.11-0.15-0.15-0.24c-0.03-0.09-0.05-0.19-0.05-0.3c0-0.11,0.02-0.21,0.06-0.31
			c0.04-0.09,0.09-0.17,0.15-0.24c0.07-0.07,0.14-0.12,0.24-0.15c0.09-0.04,0.19-0.06,0.3-0.06c0.1,0,0.19,0.02,0.28,0.05
			c0.09,0.03,0.16,0.08,0.22,0.15c0.06,0.06,0.11,0.14,0.14,0.24c0.03,0.09,0.05,0.2,0.05,0.32v0.08h-1.17
			c0,0.06,0.02,0.12,0.05,0.18c0.03,0.06,0.06,0.11,0.1,0.15c0.04,0.04,0.09,0.08,0.15,0.1c0.06,0.03,0.12,0.04,0.18,0.04
			c0.11,0,0.19-0.02,0.27-0.06c0.07-0.04,0.14-0.09,0.19-0.16L67.44,50.5z M67.23,49.91c0-0.12-0.04-0.22-0.12-0.3
			c-0.08-0.07-0.18-0.11-0.32-0.11c-0.13,0-0.24,0.04-0.32,0.11c-0.08,0.07-0.13,0.17-0.15,0.3H67.23z"/>
		<path class="st12" d="M68.76,50.38c0.05,0.06,0.1,0.11,0.16,0.14c0.06,0.03,0.13,0.05,0.22,0.05c0.04,0,0.07,0,0.11-0.01
			s0.07-0.02,0.1-0.04s0.06-0.04,0.07-0.07c0.02-0.03,0.03-0.06,0.03-0.1c0-0.04-0.01-0.07-0.03-0.1c-0.02-0.03-0.04-0.04-0.07-0.06
			c-0.03-0.02-0.06-0.03-0.1-0.04c-0.04-0.01-0.08-0.02-0.11-0.03c-0.07-0.01-0.13-0.03-0.19-0.05s-0.12-0.04-0.16-0.07
			c-0.05-0.03-0.08-0.07-0.11-0.12c-0.03-0.05-0.04-0.11-0.04-0.18c0-0.07,0.02-0.13,0.05-0.18c0.03-0.05,0.07-0.1,0.12-0.13
			c0.05-0.03,0.11-0.06,0.17-0.08s0.13-0.03,0.2-0.03c0.1,0,0.2,0.02,0.29,0.06c0.09,0.04,0.16,0.11,0.21,0.2l-0.2,0.13
			c-0.03-0.05-0.07-0.09-0.12-0.12s-0.11-0.05-0.18-0.05c-0.03,0-0.07,0-0.1,0.01c-0.03,0.01-0.06,0.02-0.09,0.04
			c-0.03,0.02-0.05,0.04-0.07,0.06c-0.02,0.03-0.03,0.06-0.03,0.09c0,0.03,0.01,0.06,0.03,0.08c0.02,0.02,0.05,0.04,0.08,0.06
			c0.03,0.02,0.07,0.03,0.12,0.04c0.04,0.01,0.09,0.02,0.14,0.03c0.06,0.01,0.13,0.03,0.18,0.05c0.06,0.02,0.11,0.04,0.15,0.08
			c0.04,0.03,0.08,0.07,0.1,0.12c0.03,0.05,0.04,0.11,0.04,0.18c0,0.08-0.02,0.15-0.05,0.21s-0.08,0.1-0.13,0.14
			c-0.05,0.04-0.12,0.06-0.19,0.08c-0.07,0.02-0.14,0.03-0.21,0.03c-0.12,0-0.23-0.02-0.32-0.06c-0.09-0.04-0.17-0.11-0.24-0.21
			L68.76,50.38z"/>
		<path class="st12" d="M70.05,49.66c0-0.07,0-0.13-0.01-0.18c0-0.06-0.01-0.11-0.01-0.16h0.23c0,0.04,0,0.08,0,0.12
			c0,0.04,0,0.08,0,0.12h0.01c0.02-0.03,0.04-0.07,0.07-0.1c0.03-0.03,0.07-0.06,0.11-0.09c0.04-0.03,0.09-0.05,0.14-0.06
			c0.05-0.02,0.11-0.02,0.17-0.02c0.08,0,0.14,0.01,0.2,0.03c0.05,0.02,0.1,0.04,0.13,0.07c0.03,0.03,0.06,0.06,0.08,0.09
			c0.02,0.03,0.04,0.06,0.05,0.08c0.05-0.09,0.12-0.15,0.19-0.2c0.07-0.05,0.16-0.07,0.27-0.07c0.1,0,0.19,0.01,0.26,0.04
			c0.07,0.03,0.13,0.07,0.17,0.12c0.04,0.05,0.07,0.12,0.09,0.19c0.02,0.08,0.03,0.16,0.03,0.25v0.87h-0.24V49.9
			c0-0.05-0.01-0.1-0.02-0.14c-0.01-0.05-0.03-0.09-0.06-0.13c-0.03-0.04-0.06-0.07-0.11-0.09c-0.05-0.02-0.1-0.03-0.17-0.03
			c-0.05,0-0.1,0.01-0.15,0.03c-0.05,0.02-0.09,0.05-0.12,0.09c-0.03,0.04-0.06,0.08-0.08,0.13c-0.02,0.05-0.03,0.11-0.03,0.17v0.83
			h-0.24v-0.82c0-0.16-0.02-0.27-0.07-0.34c-0.04-0.07-0.11-0.1-0.21-0.1c-0.08,0-0.15,0.01-0.2,0.04c-0.06,0.03-0.1,0.06-0.14,0.11
			c-0.04,0.05-0.06,0.11-0.08,0.18c-0.02,0.07-0.03,0.14-0.03,0.22v0.7h-0.24L70.05,49.66L70.05,49.66z"/>
		<path class="st12" d="M72.67,49.51c0.07-0.08,0.16-0.13,0.26-0.17c0.1-0.04,0.21-0.05,0.31-0.05c0.21,0,0.37,0.05,0.46,0.15
			c0.09,0.1,0.14,0.25,0.14,0.46v0.62c0,0.04,0,0.08,0.01,0.13c0,0.04,0.01,0.08,0.02,0.12h-0.23c-0.01-0.03-0.01-0.07-0.01-0.11
			c0-0.04,0-0.08,0-0.11h-0.01c-0.05,0.07-0.11,0.13-0.19,0.18c-0.08,0.05-0.17,0.07-0.29,0.07c-0.07,0-0.14-0.01-0.21-0.03
			s-0.12-0.04-0.17-0.08c-0.05-0.04-0.09-0.08-0.12-0.13c-0.03-0.05-0.04-0.12-0.04-0.19c0-0.12,0.03-0.21,0.09-0.28
			c0.06-0.07,0.14-0.12,0.23-0.15c0.09-0.03,0.19-0.05,0.3-0.06c0.11-0.01,0.2-0.01,0.29-0.01h0.09v-0.04c0-0.1-0.03-0.18-0.09-0.24
			s-0.15-0.08-0.26-0.08c-0.08,0-0.16,0.01-0.23,0.04c-0.08,0.03-0.14,0.06-0.2,0.12L72.67,49.51z M73.37,50.07
			c-0.15,0-0.28,0.02-0.37,0.06c-0.09,0.04-0.14,0.11-0.14,0.21c0,0.09,0.03,0.15,0.09,0.19c0.06,0.04,0.14,0.06,0.23,0.06
			c0.07,0,0.13-0.01,0.18-0.04c0.05-0.02,0.1-0.06,0.13-0.09c0.03-0.04,0.06-0.08,0.08-0.14c0.02-0.05,0.03-0.11,0.03-0.17v-0.09
			L73.37,50.07L73.37,50.07z"/>
		<path class="st12" d="M74.29,49.66c0-0.07,0-0.13-0.01-0.18c0-0.06-0.01-0.11-0.01-0.16h0.23c0,0.04,0,0.08,0,0.12
			c0,0.04,0,0.08,0,0.12h0.01c0.02-0.03,0.04-0.07,0.07-0.1c0.03-0.03,0.07-0.06,0.11-0.09c0.04-0.03,0.09-0.05,0.14-0.06
			c0.05-0.02,0.11-0.02,0.17-0.02c0.02,0,0.03,0,0.05,0c0.02,0,0.03,0.01,0.05,0.01l-0.02,0.24c-0.04-0.01-0.09-0.02-0.13-0.02
			c-0.15,0-0.26,0.05-0.32,0.14c-0.07,0.1-0.1,0.23-0.1,0.39v0.7h-0.24L74.29,49.66L74.29,49.66z"/>
		<path class="st12" d="M76.17,49.52h-0.43v0.72c0,0.05,0,0.09,0,0.13c0,0.04,0.01,0.08,0.03,0.1c0.01,0.03,0.04,0.05,0.07,0.07
			c0.03,0.02,0.07,0.03,0.12,0.03c0.03,0,0.07,0,0.11-0.01s0.07-0.02,0.11-0.04l0.01,0.22c-0.04,0.02-0.09,0.03-0.14,0.04
			c-0.05,0.01-0.1,0.01-0.14,0.01c-0.09,0-0.16-0.01-0.21-0.03c-0.05-0.02-0.09-0.05-0.12-0.1c-0.03-0.04-0.05-0.09-0.06-0.15
			c-0.01-0.06-0.01-0.13-0.01-0.2v-0.79h-0.32v-0.2h0.32v-0.41h0.24v0.41h0.43V49.52z"/>
	</g>
	<polygon class="st11" points="67.01,36.28 68.93,36.28 72.59,39.32 76.5,36.28 78.36,36.28 78.36,47.25 67.01,47.25 	"/>
	<polygon class="st11" points="90.09,47.25 78.99,47.25 84.54,36.28 	"/>
	<g>
		<path class="st11" d="M112.77,47.16v-8.12h-1.86v-2.75h8.79v2.75h-1.86v8.12H112.77z"/>
	</g>
	<path class="st11" d="M66.14,36.28h-1.02h-4.27c-0.52,0-1.03,0.1-1.49,0.3c-0.45,0.19-0.86,0.46-1.2,0.79
		c-0.34,0.33-0.62,0.72-0.81,1.16c-0.2,0.45-0.31,0.94-0.31,1.44s0.1,0.99,0.3,1.44c0.2,0.44,0.47,0.83,0.82,1.17
		c0.34,0.33,0.75,0.6,1.2,0.79c0.1,0.04,0.2,0.08,0.3,0.11h-1.08h-1.02v0.99v1.8v0.99h1.02h4.14c0.52,0,1.03-0.1,1.49-0.3
		c0.46-0.19,0.86-0.46,1.21-0.79c0.34-0.33,0.62-0.72,0.81-1.17c0.2-0.45,0.3-0.93,0.3-1.44c0-0.5-0.1-0.99-0.3-1.44
		c-0.2-0.44-0.47-0.84-0.81-1.17c-0.34-0.33-0.75-0.6-1.21-0.79c-0.1-0.04-0.2-0.08-0.31-0.11h1.23h1.02v-0.99v-1.8L66.14,36.28
		L66.14,36.28z"/>
</g>
</svg>
