<?xml version="1.0" encoding="utf-8"?>
<!-- Generator: Adobe Illustrator 24.2.1, SVG Export Plug-In . SVG Version: 6.00 Build 0)  -->
<svg version="1.1" id="Laag_1" xmlns="http://www.w3.org/2000/svg" xmlns:xlink="http://www.w3.org/1999/xlink" x="0px" y="0px"
	 viewBox="0 0 118.5 118.5" style="enable-background:new 0 0 118.5 118.5;" xml:space="preserve">
<style type="text/css">
	.st0{fill:none;stroke:#000000;stroke-miterlimit:22.9256;}
	.st1{fill:none;stroke:#000000;stroke-linejoin:bevel;stroke-miterlimit:22.9256;}
	.st2{fill:#0200FF;}
	.st3{stroke:#000000;stroke-width:0.25;stroke-miterlimit:22.9256;}
	.st4{fill-rule:evenodd;clip-rule:evenodd;stroke:#000000;stroke-width:0.25;stroke-miterlimit:22.9256;}
	.st5{fill:#F28A19;}
	.st6{fill:#553289;}
</style>
<path class="st0" d="M91.5,18.9"/>
<path class="st0" d="M27.2,18.9"/>
<path class="st1" d="M105,14.5"/>
<path class="st1" d="M7.1,0.5c-1.8,0-3.4,0.7-4.7,1.9C1.2,3.7,0.5,5.3,0.5,7.1"/>
<path class="st1" d="M0.5,111.4c0,1.8,0.7,3.4,1.9,4.7c1.2,1.2,2.9,1.9,4.7,1.9"/>
<path class="st1" d="M118,7.1c0-1.8-0.7-3.4-1.9-4.7c-1.2-1.2-2.9-1.9-4.7-1.9"/>
<line class="st1" x1="111.4" y1="0.5" x2="7.1" y2="0.5"/>
<path class="st1" d="M111.4,118c1.8,0,3.4-0.7,4.7-1.9c1.2-1.2,1.9-2.9,1.9-4.7"/>
<line class="st1" x1="0.5" y1="7.1" x2="0.5" y2="111.4"/>
<line class="st1" x1="7.1" y1="118" x2="111.4" y2="118"/>
<line class="st1" x1="118" y1="111.4" x2="118" y2="7.1"/>
<path class="st1" d="M78.1,105c-0.2,0-0.4,0-0.5,0"/>
<path class="st1" d="M105.1,103.4c0-7.1,0-17.7,0-21.2"/>
<path class="st1" d="M105.1,58.9c0-7.4,0-18.6,0-22.3"/>
<path class="st1" d="M78.1,105c8.5,0,21.2,0,25.4,0"/>
<path class="st1" d="M13.5,59.4c9.2,0,22.9,0,27.5,0"/>
<path class="st1" d="M103.4,105c0.5,0,1-0.3,1.2-0.5c0.3-0.3,0.5-0.9,0.5-1.2"/>
<path class="st1" d="M13.5,58.9c0,0.2,0,0.4,0,0.5"/>
<path class="st1" d="M77.6,13.4c-12.2,0-30.5,0-36.6,0"/>
<path class="st1" d="M13.4,82.2c0-7.4,0-19.1,0-22.8"/>
<path class="st1" d="M77.6,82.2c0,7.1,0,17.8,0,21.4"/>
<path class="st1" d="M77.6,104.4c0,0.2,0,0.5,0,0.6"/>
<path class="st1" d="M77.6,103.6c0,0.3,0,0.7,0,0.8"/>
<path class="st1" d="M105.1,15c0-0.5-0.3-1-0.5-1.2c-0.3-0.3-0.9-0.5-1.2-0.5"/>
<path class="st1" d="M78.1,13.3c-0.2,0-0.4,0-0.5,0"/>
<path class="st1" d="M105.1,36.7c0-7.1,0-18.1,0-21.7"/>
<path class="st1" d="M103.4,13.3c-8.5,0-21.2,0-25.4,0"/>
<path class="st1" d="M40.9,82.2c0,7.1,0,17.8,0,21.4"/>
<path class="st1" d="M40.9,103.6c0,0.5,0,1.2,0,1.4"/>
<path class="st1" d="M41.1,15.5c12.1,0,30.3,0,36.3,0"/>
<path class="st1" d="M77.6,14.8c0,14.7,0,36.8,0,44.1"/>
<path class="st1" d="M77.4,102.9c-12.1,0-30.3,0-36.3,0"/>
<path class="st1" d="M77.4,15.5c0,29.2,0,72.9,0,87.5"/>
<path class="st1" d="M77.6,13.4c0,0.2,0,0.5,0,0.6"/>
<path class="st1" d="M77.6,14c0,0.3,0,0.7,0,0.8"/>
<path class="st1" d="M105,59.4c0-0.2,0-0.4,0-0.5"/>
<path class="st1" d="M105.1,82.2c0-7.4,0-19.1,0-22.8"/>
<path class="st1" d="M13.4,58.9c0-7.4,0-19.1,0-22.8"/>
<path class="st1" d="M40.9,36.7c0,7.4,0,18.6,0,22.3"/>
<path class="st1" d="M40.4,105c-8.5,0-21.2,0-25.4,0"/>
<path class="st1" d="M40.4,105c0.2,0,0.4,0,0.5,0"/>
<path class="st1" d="M41.1,102.9c0-29.2,0-72.9,0-87.5"/>
<path class="st1" d="M13.4,103.4c0-7.1,0-17.7,0-21.2"/>
<path class="st1" d="M15,105c-0.5,0-1-0.3-1.2-0.5c-0.3-0.3-0.5-0.9-0.5-1.2"/>
<path class="st1" d="M40.9,13.4c0,0.2,0,0.5,0,0.6"/>
<path class="st1" d="M40.9,14.8c0,7.3,0,18.2,0,21.9"/>
<path class="st1" d="M40.9,14c0,0.3,0,0.7,0,0.8"/>
<path class="st1" d="M13.4,36.2c0-7.1,0-17.7,0-21.2"/>
<path class="st1" d="M13.4,15c0-0.5,0.3-1,0.5-1.2c0.3-0.3,0.9-0.5,1.2-0.5"/>
<path class="st1" d="M40.4,13.3c0.2,0,0.4,0,0.5,0"/>
<path class="st1" d="M77.6,59.4c0,7.6,0,19,0,22.8"/>
<path class="st1" d="M105,59.4c-9.2,0-22.9,0-27.5,0"/>
<path class="st1" d="M40.9,59.4c0,7.6,0,19,0,22.8"/>
<path class="st1" d="M15,13.3c8.5,0,21.2,0,25.4,0"/>
<path class="st1" d="M40.9,105c12.2,0,30.5,0,36.6,0"/>
<rect x="58.5" y="22.6" class="st2" width="1.5" height="3.1"/>
<path class="st3" d="M91.4,78.4c0-0.3-0.2-0.4-0.5-0.4h-0.4v0.8H91C91.3,78.9,91.4,78.7,91.4,78.4z M91.8,80.1h-0.3
	c0-0.1,0-0.2-0.1-0.3c0-0.1,0-0.2,0-0.3c0-0.2,0-0.3-0.1-0.4S91.1,79,91,79h-0.4v1h-0.3v-2.3H91c0.3,0,0.5,0.1,0.6,0.2
	s0.2,0.3,0.2,0.5c0,0.3-0.2,0.5-0.5,0.6c0.2,0,0.3,0.1,0.3,0.1c0.1,0.1,0.1,0.2,0.1,0.3c0,0.1,0,0.3,0,0.5
	C91.7,80,91.8,80.1,91.8,80.1L91.8,80.1z"/>
<path class="st3" d="M94.3,83.9v-0.2h0.8v1.2h-0.2v-0.4c-0.1,0.3-0.3,0.4-0.5,0.4s-0.4-0.1-0.5-0.3c-0.1-0.2-0.2-0.5-0.2-0.9
	s0.1-0.8,0.2-1s0.3-0.3,0.6-0.3c0.2,0,0.4,0.1,0.5,0.2s0.2,0.3,0.2,0.5h-0.3c0-0.3-0.2-0.5-0.4-0.5c-0.2,0-0.3,0.1-0.4,0.2
	S94,83.2,94,83.6s0,0.6,0.1,0.7s0.2,0.2,0.4,0.2c0.2,0,0.3-0.1,0.4-0.2S95,84,95,83.7h-0.7V83.9z"/>
<path class="st3" d="M87.3,83.7h0.3c0.2,0,0.3,0,0.3-0.1c0.1-0.1,0.1-0.2,0.1-0.3c0-0.1,0-0.2-0.1-0.3c-0.1,0-0.2-0.1-0.3-0.1l0,0
	h-0.2v0.8H87.3z M87.3,84.8h0.4c0.1,0,0.2,0,0.3-0.1c0.1-0.1,0.1-0.2,0.1-0.3c0-0.2,0-0.3-0.1-0.3C87.9,84,87.8,84,87.6,84h-0.3
	C87.3,84,87.3,84.8,87.3,84.8z M87,85.1v-2.3h0.6c0.2,0,0.4,0.1,0.5,0.2s0.2,0.2,0.2,0.4c0,0.1,0,0.2-0.1,0.3
	c-0.1,0.1-0.1,0.1-0.3,0.2c0.3,0,0.4,0.2,0.4,0.6c0,0.5-0.2,0.7-0.7,0.7H87V85.1z"/>
<path class="st4" d="M87.5,81.9L87.5,81.9c-0.1,0-0.1-0.1-0.1-0.1c0-1.1,0.7-2.1,1.7-2.5c0.1,0,0.1,0,0.2,0.1c0,0.1,0,0.1-0.1,0.2
	c-0.9,0.4-1.5,1.3-1.5,2.3C87.7,81.9,87.6,81.9,87.5,81.9"/>
<path class="st4" d="M90.9,86.2c-0.6,0-1.2-0.2-1.7-0.6c-0.1-0.1-0.2-0.2-0.3-0.3c0,0,0-0.1,0-0.2c0,0,0.1,0,0.2,0
	c0.1,0.1,0.2,0.2,0.3,0.3c0.4,0.3,1,0.5,1.5,0.5c0.7,0,1.4-0.3,1.8-0.8c0,0,0.1-0.1,0.2,0c0,0,0.1,0.1,0,0.2
	C92.4,85.9,91.7,86.2,90.9,86.2L90.9,86.2z"/>
<path class="st4" d="M94.2,81.8c-0.1,0-0.1-0.1-0.1-0.1c0-1-0.6-1.9-1.6-2.3c-0.1,0-0.1-0.1-0.1-0.2s0.1-0.1,0.2-0.1
	c1,0.4,1.7,1.4,1.7,2.5C94.3,81.8,94.2,81.8,94.2,81.8L94.2,81.8"/>
<g>
	<path class="st3" d="M27,37.1v-4.6h0.4v4.6H27z M28.8,34.3c0.5,0.3,0.9,0.7,1.2,1.2c0.3,0.5,0.4,1,0.4,1.6c0,0.9-0.4,1.7-0.9,2.3
		c-0.6,0.6-1.4,0.9-2.3,0.9s-1.7-0.4-2.3-0.9C24.3,38.8,24,38,24,37.1c0-0.6,0.2-1.1,0.4-1.6c0.3-0.5,0.7-0.9,1.2-1.2l0.2,0.3
		c-0.4,0.3-0.8,0.6-1.1,1.1c-0.2,0.4-0.4,0.9-0.4,1.4c0,0.8,0.3,1.5,0.8,2s1.2,0.8,2,0.8s1.5-0.3,2-0.8s0.8-1.2,0.8-2
		c0-0.5-0.1-1-0.4-1.4c-0.2-0.4-0.6-0.8-1.1-1.1L28.8,34.3z"/>
</g>
<g>
	<path class="st3" d="M92.7,35c-0.4-0.4-0.9-0.6-1.5-0.6s-1.1,0.2-1.5,0.6l0,0c-0.4,0.4-0.6,0.9-0.6,1.5s0.2,1.1,0.6,1.5l0,0
		c0.4,0.4,0.9,0.6,1.5,0.6s1.1-0.2,1.5-0.6l0,0c0.4-0.4,0.6-0.9,0.6-1.5C93.3,35.9,93,35.4,92.7,35L92.7,35z M89.6,38.3l-1,1
		L88.4,39l1-1c-0.3-0.4-0.5-0.9-0.6-1.4h-1.4v-0.4h1.4c0-0.5,0.3-1,0.6-1.4l-1-1l0.3-0.3l1,1c0.4-0.3,0.9-0.5,1.4-0.6v-1.4h0.4V34
		c0.5,0,1,0.3,1.4,0.6l1-1l0.3,0.3l-1,1c0.3,0.4,0.5,0.9,0.6,1.4H95v0.4h-1.4c0,0.5-0.3,1-0.6,1.4l1,1l-0.3,0.3l-1-1
		c-0.4,0.3-0.9,0.5-1.4,0.6v1.4H91V39C90.5,38.8,90,38.6,89.6,38.3z"/>
</g>
<polygon class="st3" points="24.9,84.4 25.4,84.4 26.5,80.1 27.7,84.4 28.2,84.4 29.5,79.4 29,79.4 27.9,83.7 26.8,79.4 26.3,79.4 
	25.2,83.7 24.1,79.4 23.6,79.4 "/>
<g>
	<path class="st5" d="M62.4,91.77h-0.24v-0.19c0-0.73-0.59-1.32-1.33-1.32h-0.05c-0.72,0-1.3,0.58-1.3,1.29v0.21v2.66h2.68h0.17
		c0.74,0,1.35-0.6,1.35-1.34v-0.05C63.68,92.34,63.1,91.77,62.4,91.77"/>
	<path class="st5" d="M52.66,90.21c-1.18,0-2.14,0.95-2.14,2.13c0,1.18,0.96,2.13,2.14,2.13c1.18,0,2.14-0.95,2.14-2.13
		C54.81,91.17,53.85,90.21,52.66,90.21"/>
	<path class="st5" d="M48.68,90.28h-1.94l-0.01,4.13h3.6l0,0c0-0.49-0.25-0.91-0.63-1.16c0.39-0.3,0.64-0.78,0.64-1.31
		C50.35,91.02,49.6,90.28,48.68,90.28"/>
	<path class="st5" d="M61.43,94.71h-1.94l-0.01,4.14h3.6l0,0c0-0.49-0.25-0.92-0.63-1.17c0.39-0.3,0.64-0.78,0.64-1.31
		C63.09,95.46,62.35,94.71,61.43,94.71"/>
	<path class="st5" d="M65.3,94.71h-1.94l-0.01,4.14h3.6l0,0c0-0.49-0.25-0.92-0.63-1.17c0.39-0.3,0.64-0.78,0.64-1.31
		C66.97,95.46,66.23,94.71,65.3,94.71"/>
	<path class="st5" d="M57.96,91.77h-0.24v-0.19c0-0.73-0.59-1.32-1.33-1.32h-0.05c-0.72,0-1.3,0.58-1.3,1.29v0.21v2.66h2.68h0.17
		c0.74,0,1.35-0.6,1.35-1.34v-0.05C59.24,92.34,58.67,91.77,57.96,91.77"/>
	<g>
		<path class="st6" d="M47.4,100.18h-0.09l-0.16-0.42h0l-0.14,0.42h-0.09l-0.18-0.54h0.1l0.13,0.42h0l0.14-0.42h0.1l0.14,0.42h0
			l0.12-0.42h0.1L47.4,100.18z"/>
		<path class="st6" d="M48.17,100.08c-0.03,0.04-0.07,0.07-0.11,0.09c-0.04,0.02-0.08,0.02-0.14,0.02c-0.04,0-0.08-0.01-0.12-0.02
			c-0.03-0.01-0.06-0.04-0.09-0.06c-0.02-0.03-0.04-0.06-0.05-0.09c-0.01-0.03-0.02-0.07-0.02-0.11c0-0.04,0.01-0.08,0.02-0.12
			c0.01-0.04,0.03-0.07,0.06-0.09c0.03-0.02,0.05-0.04,0.09-0.06c0.03-0.01,0.07-0.02,0.11-0.02c0.04,0,0.07,0.01,0.11,0.02
			c0.03,0.01,0.06,0.03,0.08,0.06c0.02,0.02,0.04,0.05,0.05,0.09c0.01,0.04,0.02,0.08,0.02,0.12v0.03h-0.44
			c0,0.02,0.01,0.05,0.02,0.07c0.01,0.02,0.02,0.04,0.04,0.06c0.02,0.02,0.03,0.03,0.05,0.04c0.02,0.01,0.04,0.01,0.07,0.01
			c0.04,0,0.07-0.01,0.1-0.02c0.03-0.01,0.05-0.03,0.07-0.06L48.17,100.08z M48.09,99.86c0-0.05-0.02-0.08-0.05-0.11
			c-0.03-0.03-0.07-0.04-0.12-0.04s-0.09,0.01-0.12,0.04s-0.05,0.06-0.06,0.11H48.09z"/>
		<path class="st6" d="M48.66,99.3h0.09v0.88h-0.09V99.3z"/>
		<path class="st6" d="M48.9,99.91c0-0.04,0.01-0.08,0.02-0.12c0.01-0.03,0.04-0.06,0.06-0.09c0.03-0.02,0.06-0.04,0.09-0.06
			c0.04-0.01,0.07-0.02,0.12-0.02s0.08,0.01,0.12,0.02c0.04,0.01,0.07,0.03,0.09,0.06c0.03,0.02,0.05,0.05,0.06,0.09
			c0.01,0.03,0.02,0.07,0.02,0.12s-0.01,0.08-0.02,0.12s-0.04,0.06-0.06,0.09c-0.03,0.02-0.06,0.04-0.09,0.06
			c-0.04,0.01-0.07,0.02-0.12,0.02c-0.04,0-0.08-0.01-0.12-0.02c-0.04-0.01-0.07-0.03-0.09-0.06c-0.03-0.02-0.05-0.05-0.06-0.09
			C48.91,99.99,48.9,99.95,48.9,99.91z M49,99.91c0,0.03,0,0.05,0.01,0.08c0.01,0.02,0.02,0.05,0.04,0.06
			c0.02,0.02,0.04,0.03,0.06,0.04c0.02,0.01,0.05,0.02,0.08,0.02s0.06,0,0.08-0.02c0.02-0.01,0.04-0.02,0.06-0.04
			s0.03-0.04,0.04-0.06c0.01-0.02,0.01-0.05,0.01-0.08s0-0.05-0.01-0.08c-0.01-0.02-0.02-0.05-0.04-0.06
			c-0.02-0.02-0.04-0.03-0.06-0.04c-0.02-0.01-0.05-0.02-0.08-0.02s-0.06,0-0.08,0.02c-0.02,0.01-0.04,0.02-0.06,0.04
			c-0.02,0.02-0.03,0.04-0.04,0.06C49.01,99.85,49,99.88,49,99.91z"/>
		<path class="st6" d="M49.88,100.18h-0.1l-0.22-0.54h0.11l0.17,0.43h0L50,99.63h0.1L49.88,100.18z"/>
		<path class="st6" d="M50.68,100.08c-0.03,0.04-0.07,0.07-0.11,0.09c-0.04,0.02-0.08,0.02-0.14,0.02c-0.04,0-0.08-0.01-0.12-0.02
			c-0.03-0.01-0.06-0.04-0.09-0.06c-0.02-0.03-0.04-0.06-0.05-0.09c-0.01-0.03-0.02-0.07-0.02-0.11c0-0.04,0.01-0.08,0.02-0.12
			c0.01-0.04,0.03-0.07,0.06-0.09c0.03-0.02,0.05-0.04,0.09-0.06c0.03-0.01,0.07-0.02,0.11-0.02c0.04,0,0.07,0.01,0.11,0.02
			c0.03,0.01,0.06,0.03,0.08,0.06c0.02,0.02,0.04,0.05,0.05,0.09c0.01,0.04,0.02,0.08,0.02,0.12v0.03h-0.44
			c0,0.02,0.01,0.05,0.02,0.07c0.01,0.02,0.02,0.04,0.04,0.06c0.02,0.02,0.03,0.03,0.05,0.04c0.02,0.01,0.04,0.01,0.07,0.01
			c0.04,0,0.07-0.01,0.1-0.02c0.03-0.01,0.05-0.03,0.07-0.06L50.68,100.08z M50.6,99.86c0-0.05-0.02-0.08-0.05-0.11
			c-0.03-0.03-0.07-0.04-0.12-0.04s-0.09,0.01-0.12,0.04c-0.03,0.03-0.05,0.06-0.06,0.11H50.6z"/>
		<path class="st6" d="M51.18,100.04c0.02,0.02,0.04,0.04,0.06,0.05c0.02,0.01,0.05,0.02,0.08,0.02c0.01,0,0.03,0,0.04,0
			s0.03-0.01,0.04-0.01c0.01-0.01,0.02-0.02,0.03-0.03c0.01-0.01,0.01-0.02,0.01-0.04c0-0.01,0-0.03-0.01-0.04
			c-0.01-0.01-0.02-0.02-0.03-0.02c-0.01-0.01-0.02-0.01-0.04-0.02c-0.01,0-0.03-0.01-0.04-0.01c-0.03-0.01-0.05-0.01-0.07-0.02
			c-0.02-0.01-0.04-0.02-0.06-0.03c-0.02-0.01-0.03-0.03-0.04-0.04c-0.01-0.02-0.02-0.04-0.02-0.07c0-0.03,0.01-0.05,0.02-0.07
			c0.01-0.02,0.03-0.04,0.05-0.05c0.02-0.01,0.04-0.02,0.07-0.03s0.05-0.01,0.07-0.01c0.04,0,0.07,0.01,0.11,0.02
			c0.03,0.02,0.06,0.04,0.08,0.08l-0.08,0.05c-0.01-0.02-0.03-0.03-0.05-0.05c-0.02-0.01-0.04-0.02-0.07-0.02c-0.01,0-0.03,0-0.04,0
			c-0.01,0-0.02,0.01-0.03,0.01c-0.01,0.01-0.02,0.01-0.03,0.02c-0.01,0.01-0.01,0.02-0.01,0.03c0,0.01,0,0.02,0.01,0.03
			c0.01,0.01,0.02,0.02,0.03,0.02c0.01,0.01,0.03,0.01,0.04,0.02c0.02,0,0.03,0.01,0.05,0.01c0.02,0,0.05,0.01,0.07,0.02
			c0.02,0.01,0.04,0.02,0.06,0.03c0.02,0.01,0.03,0.03,0.04,0.05c0.01,0.02,0.01,0.04,0.01,0.07c0,0.03-0.01,0.06-0.02,0.08
			c-0.01,0.02-0.03,0.04-0.05,0.05s-0.04,0.02-0.07,0.03s-0.05,0.01-0.08,0.01c-0.05,0-0.09-0.01-0.12-0.02
			c-0.03-0.01-0.06-0.04-0.09-0.08L51.18,100.04z"/>
		<path class="st6" d="M51.67,99.76c0-0.02,0-0.05,0-0.07c0-0.02,0-0.04,0-0.06h0.09c0,0.01,0,0.03,0,0.04c0,0.01,0,0.03,0,0.05h0
			c0.01-0.01,0.02-0.03,0.03-0.04c0.01-0.01,0.02-0.02,0.04-0.03c0.02-0.01,0.03-0.02,0.05-0.02c0.02-0.01,0.04-0.01,0.06-0.01
			c0.03,0,0.05,0,0.07,0.01c0.02,0.01,0.04,0.02,0.05,0.03c0.01,0.01,0.02,0.02,0.03,0.03c0.01,0.01,0.01,0.02,0.02,0.03
			c0.02-0.03,0.04-0.06,0.07-0.08c0.03-0.02,0.06-0.03,0.1-0.03c0.04,0,0.07,0,0.1,0.02c0.03,0.01,0.05,0.03,0.06,0.05
			c0.02,0.02,0.03,0.04,0.04,0.07c0.01,0.03,0.01,0.06,0.01,0.09v0.33H52.4v-0.33c0-0.02,0-0.04-0.01-0.05
			c0-0.02-0.01-0.03-0.02-0.05c-0.01-0.01-0.02-0.02-0.04-0.03c-0.02-0.01-0.04-0.01-0.07-0.01c-0.02,0-0.04,0-0.05,0.01
			c-0.02,0.01-0.03,0.02-0.04,0.03c-0.01,0.01-0.02,0.03-0.03,0.05c-0.01,0.02-0.01,0.04-0.01,0.07v0.31h-0.09v-0.31
			c0-0.06-0.01-0.1-0.02-0.13c-0.02-0.02-0.04-0.04-0.08-0.04c-0.03,0-0.06,0-0.08,0.01c-0.02,0.01-0.04,0.02-0.05,0.04
			c-0.01,0.02-0.02,0.04-0.03,0.07c-0.01,0.03-0.01,0.05-0.01,0.08v0.26h-0.09L51.67,99.76L51.67,99.76z"/>
		<path class="st6" d="M52.65,99.7c0.03-0.03,0.06-0.05,0.1-0.06s0.08-0.02,0.12-0.02c0.08,0,0.14,0.02,0.18,0.06
			c0.04,0.04,0.05,0.1,0.05,0.17v0.23c0,0.02,0,0.03,0,0.05c0,0.02,0,0.03,0.01,0.05h-0.09c0-0.01-0.01-0.03-0.01-0.04
			c0-0.01,0-0.03,0-0.04h0c-0.02,0.03-0.04,0.05-0.07,0.07c-0.03,0.02-0.07,0.03-0.11,0.03c-0.03,0-0.05,0-0.08-0.01
			c-0.02-0.01-0.05-0.02-0.06-0.03c-0.02-0.01-0.03-0.03-0.04-0.05c-0.01-0.02-0.02-0.04-0.02-0.07c0-0.04,0.01-0.08,0.04-0.11
			c0.02-0.03,0.05-0.04,0.09-0.06c0.03-0.01,0.07-0.02,0.11-0.02s0.08,0,0.11,0h0.04v-0.02c0-0.04-0.01-0.07-0.04-0.09
			c-0.02-0.02-0.06-0.03-0.1-0.03c-0.03,0-0.06,0-0.09,0.01c-0.03,0.01-0.05,0.02-0.08,0.04L52.65,99.7z M52.92,99.92
			c-0.06,0-0.1,0.01-0.14,0.02c-0.03,0.02-0.05,0.04-0.05,0.08c0,0.03,0.01,0.06,0.03,0.07c0.02,0.01,0.05,0.02,0.09,0.02
			c0.03,0,0.05,0,0.07-0.01c0.02-0.01,0.04-0.02,0.05-0.04c0.01-0.01,0.02-0.03,0.03-0.05c0.01-0.02,0.01-0.04,0.01-0.06v-0.03
			L52.92,99.92L52.92,99.92z"/>
		<path class="st6" d="M53.27,99.76c0-0.02,0-0.05,0-0.07c0-0.02,0-0.04,0-0.06h0.09c0,0.01,0,0.03,0,0.04c0,0.01,0,0.03,0,0.05h0
			c0.01-0.01,0.02-0.03,0.03-0.04c0.01-0.01,0.02-0.02,0.04-0.03c0.02-0.01,0.03-0.02,0.05-0.02c0.02-0.01,0.04-0.01,0.06-0.01
			c0.01,0,0.01,0,0.02,0c0.01,0,0.01,0,0.02,0l-0.01,0.09c-0.02,0-0.03-0.01-0.05-0.01c-0.06,0-0.1,0.02-0.12,0.05
			c-0.03,0.04-0.04,0.09-0.04,0.15v0.26h-0.09L53.27,99.76L53.27,99.76z"/>
		<path class="st6" d="M53.98,99.71h-0.16v0.27c0,0.02,0,0.03,0,0.05c0,0.01,0,0.03,0.01,0.04c0.01,0.01,0.01,0.02,0.02,0.03
			c0.01,0.01,0.03,0.01,0.05,0.01c0.01,0,0.03,0,0.04,0c0.01,0,0.03-0.01,0.04-0.01l0,0.08c-0.02,0.01-0.03,0.01-0.05,0.01
			s-0.04,0-0.05,0c-0.03,0-0.06,0-0.08-0.01c-0.02-0.01-0.03-0.02-0.05-0.04c-0.01-0.02-0.02-0.03-0.02-0.06s-0.01-0.05-0.01-0.08
			v-0.3h-0.12v-0.08h0.12v-0.15h0.09v0.15h0.16V99.71z"/>
	</g>
	<polygon class="st5" points="50.52,94.71 51.25,94.71 52.63,95.86 54.1,94.71 54.81,94.71 54.81,98.85 50.52,98.85 	"/>
	<polygon class="st5" points="59.24,98.85 55.04,98.85 57.14,94.71 	"/>
	<g>
		<path class="st5" d="M67.8,98.82v-3.07h-0.7v-1.04h3.32v1.04h-0.7v3.07H67.8z"/>
	</g>
	<path class="st5" d="M50.19,94.71H49.8h-1.61c-0.2,0-0.39,0.04-0.56,0.11c-0.17,0.07-0.32,0.17-0.45,0.3
		c-0.13,0.13-0.23,0.27-0.31,0.44c-0.08,0.17-0.12,0.35-0.12,0.54c0,0.19,0.04,0.37,0.12,0.55c0.07,0.17,0.18,0.31,0.31,0.44
		s0.28,0.23,0.45,0.3c0.04,0.02,0.07,0.03,0.11,0.04h-0.41h-0.39v0.37v0.68v0.37h0.39h1.56c0.2,0,0.39-0.04,0.56-0.11
		c0.17-0.07,0.33-0.17,0.46-0.3c0.13-0.13,0.23-0.27,0.31-0.44c0.08-0.17,0.11-0.35,0.11-0.54c0-0.19-0.04-0.37-0.11-0.54
		c-0.07-0.17-0.18-0.32-0.31-0.44c-0.13-0.13-0.28-0.23-0.46-0.3c-0.04-0.02-0.08-0.03-0.12-0.04h0.46h0.39v-0.37v-0.68L50.19,94.71
		L50.19,94.71z"/>
</g>
</svg>
