<?xml version="1.0" encoding="utf-8"?>
<!-- Generator: Adobe Illustrator 24.2.1, SVG Export Plug-In . SVG Version: 6.00 Build 0)  -->
<svg version="1.1" id="Laag_1" xmlns="http://www.w3.org/2000/svg" xmlns:xlink="http://www.w3.org/1999/xlink" x="0px" y="0px"
	 viewBox="0 0 157.1 157.1" style="enable-background:new 0 0 157.1 157.1;" xml:space="preserve">
<style type="text/css">
	.st0{fill:none;stroke:#0A0C06;stroke-linejoin:bevel;stroke-miterlimit:22.9256;}
	.st1{fill:#1D1D1B;stroke:#000000;stroke-width:0.75;stroke-miterlimit:10;}
	.st2{fill:none;stroke:#000000;stroke-width:0.75;stroke-miterlimit:10;}
	.st3{fill:none;stroke:#000000;stroke-miterlimit:10;}
	.st4{fill:#02FF00;}
	.st5{fill:none;stroke:#000000;stroke-miterlimit:22.9256;}
	.st6{fill:#F28A19;}
	.st7{fill:#553289;}
</style>
<path class="st0" d="M9.3,0.5C7,0.5,4.7,1.4,3.1,3.1C1.4,4.7,0.5,6.9,0.5,9.3"/>
<path class="st0" d="M0.5,147.8c0,2.3,0.9,4.6,2.6,6.2c1.6,1.6,3.9,2.6,6.2,2.6"/>
<path class="st0" d="M156.6,9.3c0-2.3-0.9-4.6-2.6-6.2c-1.6-1.6-3.9-2.6-6.2-2.6"/>
<line class="st0" x1="147.8" y1="0.5" x2="9.3" y2="0.5"/>
<path class="st0" d="M147.8,156.6c2.3,0,4.6-0.9,6.2-2.6c1.6-1.6,2.6-3.9,2.6-6.2"/>
<line class="st0" x1="0.5" y1="9.3" x2="0.5" y2="147.8"/>
<line class="st0" x1="9.3" y1="156.6" x2="147.8" y2="156.6"/>
<line class="st0" x1="156.6" y1="147.8" x2="156.6" y2="9.3"/>
<path class="st0" d="M139.4,48.5c-12.2,0-30.4,0-36.5,0"/>
<path class="st0" d="M139.4,137.3c0-39.3,0-98.3,0-117.6"/>
<path class="st0" d="M19.7,139.5c39.1,0,98.2,0,117.7,0"/>
<path class="st0" d="M17.7,78.8c12.2,0,30.4,0,36.5,0"/>
<path class="st0" d="M54.2,108.4c-12.2,0-30.4,0-36.5,0"/>
<path class="st0" d="M137.3,139.4c0.6,0,1.3-0.4,1.5-0.6c0.4-0.4,0.6-1.2,0.6-1.5"/>
<path class="st0" d="M102.9,138.5c0,0.3,0,0.7,0,0.8"/>
<path class="st0" d="M102.9,17.6c0,44.3,0,99.7,0,121.8"/>
<path class="st0" d="M139.4,19.7c0-0.6-0.4-1.3-0.6-1.5c-0.4-0.4-1.2-0.6-1.5-0.6"/>
<path class="st0" d="M137.3,17.6c-11.2,0-28.1,0-33.7,0"/>
<path class="st0" d="M54.2,17.6c0,40.8,0,101.7,0,121.9"/>
<path class="st0" d="M54.2,20.4c16.2,0,40.4,0,48.4,0"/>
<path class="st0" d="M102.6,136.6c-16.1,0-40.2,0-48.2,0"/>
<path class="st0" d="M102.9,17.6c0,0.3,0,0.7,0,0.8"/>
<path class="st0" d="M102.9,18.4c0,0.4,0,0.9,0,1.1"/>
<path class="st0" d="M17.7,48.5c12.2,0,30.4,0,36.5,0"/>
<path class="st0" d="M17.6,137.4c0-39.4,0-98.5,0-117.8"/>
<path class="st0" d="M19.7,139.5c-0.6,0-1.3-0.4-1.5-0.6c-0.4-0.4-0.6-1.2-0.6-1.5"/>
<path class="st0" d="M17.6,19.7c0-0.6,0.4-1.3,0.6-1.5c0.4-0.4,1.2-0.6,1.5-0.6"/>
<path class="st0" d="M53.5,17.6c0.2,0,0.5,0,0.7,0"/>
<path class="st0" d="M139.4,78.8c-12.2,0-30.4,0-36.5,0"/>
<path class="st0" d="M102.9,108.4c12.2,0,30.4,0,36.5,0"/>
<path class="st0" d="M19.7,17.6c39.1,0,98.1,0,117.6,0"/>
<rect x="35.7" y="120.4" class="st1" width="0.5" height="7.7"/>
<rect x="35.7" y="90.1" class="st1" width="0.5" height="7.7"/>
<rect x="35.7" y="59.1" class="st1" width="0.5" height="7.7"/>
<rect x="35.7" y="28.9" class="st1" width="0.5" height="7.7"/>
<path class="st2" d="M118.6,126.8c0.7,0.7,1.6,1.1,2.5,1.1c1,0,1.9-0.4,2.5-1.1l0,0c0.7-0.7,1.1-1.6,1.1-2.5c0-1-0.4-1.9-1.1-2.5
	l0,0c-0.7-0.7-1.6-1.1-2.5-1.1c-1,0-1.9,0.4-2.5,1.1l0,0c-0.7,0.7-1.1,1.6-1.1,2.5C117.5,125.2,117.9,126.1,118.6,126.8L118.6,126.8
	z"/>
<path class="st3" d="M118.6,96.5c0.7,0.7,1.6,1.1,2.5,1.1c1,0,1.9-0.4,2.5-1.1l0,0c0.7-0.7,1.1-1.6,1.1-2.5c0-1-0.4-1.9-1.1-2.5l0,0
	c-0.7-0.7-1.6-1.1-2.5-1.1c-1,0-1.9,0.4-2.5,1.1l0,0c-0.7,0.7-1.1,1.6-1.1,2.5S117.9,95.8,118.6,96.5L118.6,96.5z"/>
<path class="st3" d="M118.6,65.5c0.7,0.7,1.6,1.1,2.5,1.1c1,0,1.9-0.4,2.5-1.1l0,0c0.7-0.7,1.1-1.6,1.1-2.5c0-1-0.4-1.9-1.1-2.5l0,0
	c-0.7-0.7-1.6-1.1-2.5-1.1c-1,0-1.9,0.4-2.5,1.1l0,0c-0.7,0.7-1.1,1.6-1.1,2.5S117.9,64.8,118.6,65.5L118.6,65.5z"/>
<rect x="77.5" y="29.7" class="st4" width="2.1" height="4.2"/>
<circle class="st5" cx="121.1" cy="32.7" r="3.8"/>
<g>
	<path class="st6" d="M83.82,121.08H83.5v-0.26c0-0.97-0.79-1.76-1.77-1.76h-0.07c-0.96,0-1.74,0.77-1.74,1.73v0.29v3.56h3.58h0.23
		c0.99,0,1.8-0.8,1.8-1.79v-0.07C85.53,121.84,84.76,121.08,83.82,121.08"/>
	<path class="st6" d="M70.81,119c-1.58,0-2.86,1.27-2.86,2.85c0,1.57,1.28,2.85,2.86,2.85c1.58,0,2.86-1.27,2.86-2.85
		C73.68,120.28,72.4,119,70.81,119"/>
	<path class="st6" d="M65.49,119.09H62.9l-0.01,5.52h4.82l0,0c0-0.65-0.34-1.22-0.84-1.56c0.52-0.41,0.86-1.04,0.86-1.75
		C67.72,120.08,66.72,119.09,65.49,119.09"/>
	<path class="st6" d="M82.52,125.01h-2.59l-0.01,5.53h4.82l0,0c0-0.65-0.34-1.22-0.84-1.56c0.52-0.41,0.86-1.04,0.86-1.75
		C84.75,126,83.75,125.01,82.52,125.01"/>
	<path class="st6" d="M87.7,125.01h-2.59l-0.01,5.53h4.82l0,0c0-0.65-0.34-1.22-0.84-1.56c0.52-0.41,0.86-1.04,0.86-1.75
		C89.93,126,88.93,125.01,87.7,125.01"/>
	<path class="st6" d="M77.89,121.08h-0.32v-0.26c0-0.97-0.79-1.76-1.77-1.76h-0.07c-0.96,0-1.74,0.77-1.74,1.73v0.29v3.56h3.58h0.23
		c0.99,0,1.8-0.8,1.8-1.79v-0.07C79.61,121.84,78.84,121.08,77.89,121.08"/>
	<g>
		<path class="st7" d="M63.79,132.31h-0.12l-0.21-0.56h0l-0.18,0.56h-0.12l-0.24-0.73h0.13l0.17,0.56h0l0.19-0.56h0.13l0.19,0.56h0
			l0.17-0.56h0.13L63.79,132.31z"/>
		<path class="st7" d="M64.81,132.18c-0.04,0.06-0.09,0.09-0.14,0.12c-0.05,0.02-0.11,0.03-0.18,0.03c-0.06,0-0.11-0.01-0.15-0.03
			c-0.05-0.02-0.08-0.05-0.12-0.08c-0.03-0.03-0.06-0.07-0.07-0.12c-0.02-0.05-0.03-0.1-0.03-0.15c0-0.06,0.01-0.11,0.03-0.15
			c0.02-0.05,0.04-0.09,0.08-0.12c0.03-0.03,0.07-0.06,0.12-0.08c0.05-0.02,0.1-0.03,0.15-0.03c0.05,0,0.1,0.01,0.14,0.03
			c0.04,0.02,0.08,0.04,0.11,0.07c0.03,0.03,0.05,0.07,0.07,0.12c0.02,0.05,0.02,0.1,0.02,0.16v0.04h-0.59
			c0,0.03,0.01,0.06,0.02,0.09c0.01,0.03,0.03,0.05,0.05,0.07s0.04,0.04,0.07,0.05s0.06,0.02,0.09,0.02c0.05,0,0.1-0.01,0.13-0.03
			c0.04-0.02,0.07-0.05,0.1-0.08L64.81,132.18z M64.71,131.88c0-0.06-0.02-0.11-0.06-0.15c-0.04-0.04-0.09-0.06-0.16-0.06
			c-0.07,0-0.12,0.02-0.16,0.06c-0.04,0.04-0.07,0.09-0.08,0.15H64.71z"/>
		<path class="st7" d="M65.47,131.14h0.12v1.17h-0.12V131.14z"/>
		<path class="st7" d="M65.79,131.95c0-0.06,0.01-0.11,0.03-0.16s0.05-0.09,0.08-0.12s0.08-0.06,0.12-0.08
			c0.05-0.02,0.1-0.03,0.16-0.03s0.11,0.01,0.16,0.03c0.05,0.02,0.09,0.04,0.12,0.08s0.06,0.07,0.08,0.12
			c0.02,0.05,0.03,0.1,0.03,0.16c0,0.06-0.01,0.11-0.03,0.16c-0.02,0.05-0.05,0.09-0.08,0.12s-0.08,0.06-0.12,0.08
			c-0.05,0.02-0.1,0.03-0.16,0.03c-0.06,0-0.11-0.01-0.16-0.03c-0.05-0.02-0.09-0.04-0.12-0.08s-0.06-0.07-0.08-0.12
			C65.8,132.06,65.79,132.01,65.79,131.95z M65.92,131.95c0,0.04,0.01,0.07,0.02,0.11c0.01,0.03,0.03,0.06,0.05,0.09
			c0.02,0.02,0.05,0.04,0.08,0.06c0.03,0.01,0.07,0.02,0.11,0.02s0.08-0.01,0.11-0.02c0.03-0.01,0.06-0.03,0.08-0.06
			c0.02-0.02,0.04-0.05,0.05-0.09c0.01-0.03,0.02-0.07,0.02-0.11s-0.01-0.07-0.02-0.11c-0.01-0.03-0.03-0.06-0.05-0.09
			c-0.02-0.02-0.05-0.04-0.08-0.06c-0.03-0.01-0.07-0.02-0.11-0.02s-0.08,0.01-0.11,0.02c-0.03,0.01-0.06,0.03-0.08,0.06
			s-0.04,0.05-0.05,0.09C65.93,131.88,65.92,131.91,65.92,131.95z"/>
		<path class="st7" d="M67.1,132.31h-0.13l-0.3-0.73h0.14l0.23,0.57h0l0.22-0.57h0.13L67.1,132.31z"/>
		<path class="st7" d="M68.17,132.18c-0.04,0.06-0.09,0.09-0.14,0.12c-0.05,0.02-0.11,0.03-0.18,0.03c-0.06,0-0.11-0.01-0.15-0.03
			c-0.05-0.02-0.08-0.05-0.12-0.08c-0.03-0.03-0.06-0.07-0.07-0.12c-0.02-0.05-0.03-0.1-0.03-0.15c0-0.06,0.01-0.11,0.03-0.15
			c0.02-0.05,0.04-0.09,0.08-0.12c0.03-0.03,0.07-0.06,0.12-0.08c0.05-0.02,0.1-0.03,0.15-0.03c0.05,0,0.1,0.01,0.14,0.03
			c0.04,0.02,0.08,0.04,0.11,0.07s0.05,0.07,0.07,0.12c0.02,0.05,0.02,0.1,0.02,0.16v0.04H67.6c0,0.03,0.01,0.06,0.02,0.09
			c0.01,0.03,0.03,0.05,0.05,0.07s0.04,0.04,0.07,0.05c0.03,0.01,0.06,0.02,0.09,0.02c0.05,0,0.1-0.01,0.13-0.03
			c0.04-0.02,0.07-0.05,0.1-0.08L68.17,132.18z M68.06,131.88c0-0.06-0.02-0.11-0.06-0.15c-0.04-0.04-0.09-0.06-0.16-0.06
			c-0.07,0-0.12,0.02-0.16,0.06s-0.07,0.09-0.08,0.15H68.06z"/>
		<path class="st7" d="M68.83,132.12c0.02,0.03,0.05,0.05,0.08,0.07c0.03,0.02,0.06,0.03,0.11,0.03c0.02,0,0.04,0,0.06-0.01
			c0.02,0,0.04-0.01,0.05-0.02c0.02-0.01,0.03-0.02,0.04-0.03c0.01-0.01,0.01-0.03,0.01-0.05c0-0.02,0-0.04-0.01-0.05
			s-0.02-0.02-0.03-0.03c-0.01-0.01-0.03-0.02-0.05-0.02c-0.02-0.01-0.04-0.01-0.06-0.01c-0.03-0.01-0.07-0.02-0.1-0.02
			s-0.06-0.02-0.08-0.04c-0.02-0.01-0.04-0.03-0.06-0.06c-0.01-0.02-0.02-0.05-0.02-0.09c0-0.04,0.01-0.07,0.02-0.09
			s0.04-0.05,0.06-0.07s0.06-0.03,0.09-0.04c0.03-0.01,0.07-0.01,0.1-0.01c0.05,0,0.1,0.01,0.14,0.03c0.04,0.02,0.08,0.05,0.1,0.1
			l-0.1,0.07c-0.02-0.03-0.04-0.05-0.06-0.06c-0.03-0.02-0.06-0.02-0.09-0.02c-0.02,0-0.03,0-0.05,0.01c-0.02,0-0.03,0.01-0.05,0.02
			c-0.01,0.01-0.02,0.02-0.03,0.03c-0.01,0.01-0.01,0.03-0.01,0.04c0,0.02,0,0.03,0.01,0.04s0.02,0.02,0.04,0.03
			c0.02,0.01,0.04,0.02,0.06,0.02c0.02,0.01,0.05,0.01,0.07,0.02c0.03,0.01,0.06,0.01,0.09,0.02c0.03,0.01,0.05,0.02,0.08,0.04
			c0.02,0.02,0.04,0.04,0.05,0.06c0.01,0.02,0.02,0.06,0.02,0.09c0,0.04-0.01,0.08-0.02,0.11c-0.02,0.03-0.04,0.05-0.07,0.07
			s-0.06,0.03-0.09,0.04c-0.03,0.01-0.07,0.01-0.11,0.01c-0.06,0-0.12-0.01-0.16-0.03c-0.04-0.02-0.09-0.05-0.12-0.11L68.83,132.12z
			"/>
		<path class="st7" d="M69.48,131.76c0-0.03,0-0.06,0-0.09s0-0.06,0-0.08h0.12c0,0.02,0,0.04,0,0.06c0,0.02,0,0.04,0,0.06h0
			c0.01-0.02,0.02-0.03,0.03-0.05c0.01-0.02,0.03-0.03,0.05-0.04s0.04-0.02,0.07-0.03c0.03-0.01,0.05-0.01,0.08-0.01
			c0.04,0,0.07,0,0.1,0.01c0.03,0.01,0.05,0.02,0.07,0.04c0.02,0.01,0.03,0.03,0.04,0.04c0.01,0.02,0.02,0.03,0.02,0.04
			c0.03-0.04,0.06-0.08,0.09-0.1c0.04-0.02,0.08-0.04,0.14-0.04c0.05,0,0.1,0.01,0.13,0.02c0.04,0.01,0.06,0.03,0.09,0.06
			c0.02,0.03,0.04,0.06,0.05,0.1c0.01,0.04,0.01,0.08,0.01,0.13v0.44h-0.12v-0.43c0-0.02,0-0.05-0.01-0.07
			c-0.01-0.02-0.01-0.04-0.03-0.06c-0.01-0.02-0.03-0.03-0.05-0.04c-0.02-0.01-0.05-0.02-0.09-0.02c-0.03,0-0.05,0.01-0.07,0.02
			c-0.02,0.01-0.04,0.02-0.06,0.04c-0.02,0.02-0.03,0.04-0.04,0.07c-0.01,0.03-0.01,0.06-0.01,0.09v0.42h-0.12v-0.41
			c0-0.08-0.01-0.14-0.03-0.17s-0.06-0.05-0.11-0.05c-0.04,0-0.07,0.01-0.1,0.02c-0.03,0.01-0.05,0.03-0.07,0.06
			c-0.02,0.02-0.03,0.05-0.04,0.09c-0.01,0.03-0.01,0.07-0.01,0.11v0.35h-0.12L69.48,131.76L69.48,131.76z"/>
		<path class="st7" d="M70.8,131.68c0.04-0.04,0.08-0.07,0.13-0.08c0.05-0.02,0.1-0.03,0.16-0.03c0.11,0,0.19,0.03,0.23,0.08
			c0.05,0.05,0.07,0.13,0.07,0.23v0.31c0,0.02,0,0.04,0,0.06c0,0.02,0,0.04,0.01,0.06h-0.12c0-0.02-0.01-0.03-0.01-0.06
			c0-0.02,0-0.04,0-0.05h0c-0.02,0.04-0.06,0.07-0.1,0.09c-0.04,0.02-0.09,0.04-0.14,0.04c-0.04,0-0.07,0-0.11-0.01
			c-0.03-0.01-0.06-0.02-0.09-0.04c-0.02-0.02-0.04-0.04-0.06-0.07c-0.01-0.03-0.02-0.06-0.02-0.09c0-0.06,0.02-0.11,0.05-0.14
			c0.03-0.03,0.07-0.06,0.12-0.08c0.05-0.02,0.1-0.03,0.15-0.03c0.05,0,0.1-0.01,0.15-0.01h0.05v-0.02c0-0.05-0.02-0.09-0.05-0.12
			c-0.03-0.03-0.08-0.04-0.13-0.04c-0.04,0-0.08,0.01-0.12,0.02c-0.04,0.01-0.07,0.03-0.1,0.06L70.8,131.68z M71.16,131.96
			c-0.08,0-0.14,0.01-0.19,0.03c-0.05,0.02-0.07,0.06-0.07,0.11c0,0.05,0.02,0.08,0.05,0.1c0.03,0.02,0.07,0.03,0.11,0.03
			c0.04,0,0.07-0.01,0.09-0.02c0.03-0.01,0.05-0.03,0.07-0.05c0.02-0.02,0.03-0.04,0.04-0.07c0.01-0.03,0.01-0.05,0.02-0.08v-0.05
			L71.16,131.96L71.16,131.96z"/>
		<path class="st7" d="M71.62,131.76c0-0.03,0-0.06,0-0.09s0-0.06,0-0.08h0.12c0,0.02,0,0.04,0,0.06c0,0.02,0,0.04,0,0.06h0
			c0.01-0.02,0.02-0.03,0.03-0.05c0.01-0.02,0.03-0.03,0.05-0.04c0.02-0.01,0.04-0.02,0.07-0.03c0.03-0.01,0.05-0.01,0.08-0.01
			c0.01,0,0.02,0,0.02,0c0.01,0,0.02,0,0.02,0.01l-0.01,0.12c-0.02-0.01-0.04-0.01-0.07-0.01c-0.08,0-0.13,0.02-0.16,0.07
			s-0.05,0.11-0.05,0.2v0.35h-0.12L71.62,131.76L71.62,131.76z"/>
		<path class="st7" d="M72.57,131.69h-0.22v0.36c0,0.02,0,0.05,0,0.07c0,0.02,0.01,0.04,0.01,0.05c0.01,0.02,0.02,0.03,0.03,0.04
			c0.01,0.01,0.04,0.01,0.06,0.01c0.02,0,0.04,0,0.05-0.01c0.02,0,0.04-0.01,0.05-0.02l0,0.11c-0.02,0.01-0.04,0.02-0.07,0.02
			c-0.03,0-0.05,0.01-0.07,0.01c-0.04,0-0.08-0.01-0.1-0.02c-0.03-0.01-0.05-0.03-0.06-0.05s-0.02-0.05-0.03-0.08
			s-0.01-0.06-0.01-0.1v-0.4h-0.16v-0.1h0.16v-0.21h0.12v0.21h0.22V131.69z"/>
	</g>
	<polygon class="st6" points="67.95,125.01 68.92,125.01 70.77,126.54 72.74,125.01 73.68,125.01 73.68,130.54 67.95,130.54 	"/>
	<polygon class="st6" points="79.59,130.54 74,130.54 76.79,125.01 	"/>
	<g>
		<path class="st6" d="M91.03,130.49v-4.1h-0.94v-1.39h4.43v1.39h-0.94v4.1H91.03z"/>
	</g>
	<path class="st6" d="M67.51,125.01h-0.52h-2.15c-0.26,0-0.52,0.05-0.75,0.15c-0.23,0.1-0.43,0.23-0.61,0.4
		c-0.17,0.17-0.31,0.36-0.41,0.59c-0.1,0.23-0.15,0.47-0.15,0.73c0,0.26,0.05,0.5,0.15,0.73c0.1,0.22,0.24,0.42,0.41,0.59
		c0.17,0.17,0.38,0.3,0.61,0.4c0.05,0.02,0.1,0.04,0.15,0.06h-0.54h-0.52v0.5v0.91v0.5h0.52h2.09c0.26,0,0.52-0.05,0.75-0.15
		c0.23-0.1,0.44-0.23,0.61-0.4c0.17-0.17,0.31-0.37,0.41-0.59c0.1-0.23,0.15-0.47,0.15-0.73c0-0.25-0.05-0.5-0.15-0.73
		c-0.1-0.22-0.24-0.42-0.41-0.59c-0.17-0.17-0.38-0.3-0.61-0.4c-0.05-0.02-0.1-0.04-0.16-0.06H67h0.52v-0.5v-0.91L67.51,125.01
		L67.51,125.01z"/>
</g>
</svg>
