<?xml version="1.0" encoding="utf-8"?>
<!-- Generator: Adobe Illustrator 27.0.0, SVG Export Plug-In . SVG Version: 6.00 Build 0)  -->
<svg version="1.1" id="Laag_1" xmlns="http://www.w3.org/2000/svg" xmlns:xlink="http://www.w3.org/1999/xlink" x="0px" y="0px"
	 viewBox="0 0 103.9 103.9" style="enable-background:new 0 0 103.9 103.9;" xml:space="preserve">
<style type="text/css">
	.st0{fill:none;stroke:#231916;stroke-linejoin:bevel;stroke-miterlimit:22.9256;}
	.st1{fill:none;stroke:#231916;stroke-width:2;stroke-linejoin:bevel;stroke-miterlimit:22.9256;}
	.st2{stroke:#231916;stroke-linejoin:bevel;stroke-miterlimit:22.9256;}
	.st3{fill:#F28A19;}
	.st4{fill:#553289;}
</style>
<path class="st0" d="M54.8,12.1c0-1.6-1.3-2.8-2.8-2.8c-1.6,0-2.8,1.3-2.8,2.8"/>
<path class="st0" d="M49.1,12.1c0,1.6,1.3,2.8,2.8,2.8c1.6,0,2.8-1.3,2.8-2.8"/>
<path class="st0" d="M51.9,68.3c9,0,16.3-7.3,16.3-16.3S61,35.6,51.9,35.6"/>
<path class="st0" d="M51.9,35.6c-5.8,0-11.2,3.1-14.1,8.2c-2.9,5.1-2.9,11.3,0,16.3c2.9,5.1,8.3,8.2,14.1,8.2"/>
<path class="st0" d="M68.6,51.9c0-5.9-3.2-11.4-8.3-14.4c-5.1-3-11.5-3-16.6,0c-5.1,3-8.3,8.5-8.3,14.4"/>
<path class="st0" d="M76.2,51.9c0-8.7-4.6-16.6-12.1-21c-7.5-4.3-16.7-4.3-24.2,0c-7.5,4.3-12.1,12.3-12.1,21"/>
<path class="st0" d="M35.3,51.9c0,9.2,7.4,16.6,16.6,16.6c9.2,0,16.6-7.4,16.6-16.6"/>
<path class="st0" d="M27.7,51.9c0,13.4,10.8,24.2,24.2,24.2c13.4,0,24.2-10.8,24.2-24.2"/>
<line class="st1" x1="3.8" y1="102.9" x2="100" y2="102.9"/>
<path class="st1" d="M1,100c0,0.8,0.3,1.5,0.8,2c0.5,0.5,1.3,0.8,2,0.8"/>
<line class="st1" x1="1" y1="3.8" x2="1" y2="100"/>
<path class="st1" d="M3.8,1c-0.8,0-1.5,0.3-2,0.8C1.3,2.4,1,3.1,1,3.8"/>
<line class="st1" x1="100" y1="1" x2="3.8" y2="1"/>
<path class="st1" d="M102.9,3.8c0-0.8-0.3-1.5-0.8-2c-0.5-0.5-1.3-0.8-2-0.8"/>
<line class="st1" x1="102.9" y1="100" x2="102.9" y2="3.8"/>
<path class="st1" d="M100,102.9c0.8,0,1.5-0.3,2-0.8c0.5-0.5,0.8-1.3,0.8-2"/>
<path class="st2" d="M53.4,9.5c-0.9-0.5-2-0.5-2.9,0S49,11,49,12.1c0,1.6,1.3,2.9,2.9,2.9c1.6,0,2.9-1.3,2.9-2.9
	C54.9,11,54.3,10,53.4,9.5z"/>
<g>
	<path class="st3" d="M57.3,88.4h-0.3v-0.3c0-1-0.8-1.8-1.8-1.8h-0.1c-1,0-1.7,0.8-1.7,1.7v0.3V92h3.6h0.2c1,0,1.8-0.8,1.8-1.8v-0.1
		C59,89.2,58.2,88.4,57.3,88.4"/>
	<path class="st3" d="M44.3,86.3c-1.6,0-2.9,1.3-2.9,2.8c0,1.6,1.3,2.8,2.9,2.8s2.9-1.3,2.9-2.8C47.1,87.6,45.8,86.3,44.3,86.3"/>
	<path class="st3" d="M38.9,86.4h-2.6l0,5.5h4.8l0,0c0-0.7-0.3-1.2-0.8-1.6c0.5-0.4,0.9-1,0.9-1.8C41.2,87.4,40.2,86.4,38.9,86.4"/>
	<path class="st3" d="M56,92.4h-2.6l0,5.5h4.8l0,0c0-0.6-0.3-1.2-0.8-1.6c0.5-0.4,0.9-1,0.9-1.8C58.2,93.3,57.2,92.4,56,92.4"/>
	<path class="st3" d="M61.1,92.4h-2.6l0,5.5h4.8l0,0c0-0.6-0.3-1.2-0.8-1.6c0.5-0.4,0.9-1,0.9-1.8C63.4,93.3,62.4,92.4,61.1,92.4"/>
	<path class="st3" d="M51.3,88.4H51v-0.3c0-1-0.8-1.8-1.8-1.8h-0.1c-1,0-1.7,0.8-1.7,1.7v0.3V92H51h0.2c1,0,1.8-0.8,1.8-1.8v-0.1
		C53.1,89.2,52.3,88.4,51.3,88.4"/>
	<g>
		<path class="st4" d="M37.2,99.7h-0.1l-0.2-0.6l0,0l-0.2,0.6h-0.1l-0.2-0.7h0.1l0.2,0.6l0,0l0.2-0.6H37l0.2,0.6l0,0l0.2-0.6h0.1
			L37.2,99.7z"/>
		<path class="st4" d="M38.3,99.5c0,0.1-0.1,0.1-0.1,0.1c-0.1,0-0.1,0-0.2,0c-0.1,0-0.1,0-0.2,0c-0.1,0-0.1-0.1-0.1-0.1
			c0,0-0.1-0.1-0.1-0.1c0-0.1,0-0.1,0-0.1c0-0.1,0-0.1,0-0.1c0-0.1,0-0.1,0.1-0.1c0,0,0.1-0.1,0.1-0.1s0.1,0,0.2,0s0.1,0,0.1,0
			s0.1,0,0.1,0.1c0,0,0.1,0.1,0.1,0.1c0,0.1,0,0.1,0,0.2v0h-0.6c0,0,0,0.1,0,0.1c0,0,0,0.1,0.1,0.1s0,0,0.1,0.1s0.1,0,0.1,0
			c0.1,0,0.1,0,0.1,0c0,0,0.1-0.1,0.1-0.1L38.3,99.5z M38.2,99.2c0-0.1,0-0.1-0.1-0.1S38,99,37.9,99c-0.1,0-0.1,0-0.2,0.1
			s-0.1,0.1-0.1,0.1H38.2z"/>
		<path class="st4" d="M38.9,98.5H39v1.2h-0.1V98.5z"/>
		<path class="st4" d="M39.2,99.3c0-0.1,0-0.1,0-0.2s0.1-0.1,0.1-0.1s0.1-0.1,0.1-0.1c0.1,0,0.1,0,0.2,0s0.1,0,0.2,0s0.1,0,0.1,0.1
			s0.1,0.1,0.1,0.1c0,0.1,0,0.1,0,0.2s0,0.1,0,0.2s-0.1,0.1-0.1,0.1s-0.1,0.1-0.1,0.1c-0.1,0-0.1,0-0.2,0c-0.1,0-0.1,0-0.2,0
			s-0.1,0-0.1-0.1s-0.1-0.1-0.1-0.1C39.2,99.4,39.2,99.4,39.2,99.3z M39.4,99.3c0,0,0,0.1,0,0.1c0,0,0,0.1,0.1,0.1
			c0,0,0.1,0,0.1,0.1c0,0,0.1,0,0.1,0s0.1,0,0.1,0c0,0,0.1,0,0.1-0.1c0,0,0-0.1,0.1-0.1c0,0,0-0.1,0-0.1s0-0.1,0-0.1
			c0,0,0-0.1-0.1-0.1c0,0-0.1,0-0.1-0.1c0,0-0.1,0-0.1,0s-0.1,0-0.1,0c0,0-0.1,0-0.1,0.1s0,0.1-0.1,0.1
			C39.4,99.2,39.4,99.3,39.4,99.3z"/>
		<path class="st4" d="M40.5,99.7h-0.1l-0.3-0.7h0.1l0.2,0.6l0,0l0.2-0.6h0.1L40.5,99.7z"/>
		<path class="st4" d="M41.6,99.5c0,0.1-0.1,0.1-0.1,0.1c-0.1,0-0.1,0-0.2,0c-0.1,0-0.1,0-0.2,0c-0.1,0-0.1-0.1-0.1-0.1
			c0,0-0.1-0.1-0.1-0.1c0-0.1,0-0.1,0-0.1c0-0.1,0-0.1,0-0.1c0-0.1,0-0.1,0.1-0.1c0,0,0.1-0.1,0.1-0.1s0.1,0,0.2,0s0.1,0,0.1,0
			s0.1,0,0.1,0.1s0.1,0.1,0.1,0.1c0,0.1,0,0.1,0,0.2v0H41c0,0,0,0.1,0,0.1c0,0,0,0.1,0.1,0.1s0,0,0.1,0.1c0,0,0.1,0,0.1,0
			c0.1,0,0.1,0,0.1,0c0,0,0.1-0.1,0.1-0.1L41.6,99.5z M41.5,99.2c0-0.1,0-0.1-0.1-0.1S41.4,99,41.3,99c-0.1,0-0.1,0-0.2,0.1
			s-0.1,0.1-0.1,0.1H41.5z"/>
		<path class="st4" d="M42.3,99.5C42.3,99.5,42.3,99.5,42.3,99.5c0.1,0.1,0.1,0.1,0.2,0.1c0,0,0,0,0.1,0c0,0,0,0,0.1,0c0,0,0,0,0,0
			s0,0,0-0.1s0,0,0-0.1s0,0,0,0s0,0-0.1,0c0,0,0,0-0.1,0c0,0-0.1,0-0.1,0s-0.1,0-0.1,0c0,0,0,0-0.1-0.1c0,0,0-0.1,0-0.1s0-0.1,0-0.1
			s0-0.1,0.1-0.1s0.1,0,0.1,0s0.1,0,0.1,0c0.1,0,0.1,0,0.1,0s0.1,0.1,0.1,0.1l-0.1,0.1c0,0,0-0.1-0.1-0.1c0,0-0.1,0-0.1,0
			c0,0,0,0-0.1,0c0,0,0,0-0.1,0c0,0,0,0,0,0s0,0,0,0c0,0,0,0,0,0s0,0,0,0c0,0,0,0,0.1,0c0,0,0.1,0,0.1,0c0,0,0.1,0,0.1,0
			c0,0,0.1,0,0.1,0c0,0,0,0,0.1,0.1s0,0.1,0,0.1c0,0,0,0.1,0,0.1c0,0,0,0.1-0.1,0.1s-0.1,0-0.1,0s-0.1,0-0.1,0c-0.1,0-0.1,0-0.2,0
			S42.2,99.6,42.3,99.5L42.3,99.5z"/>
		<path class="st4" d="M42.9,99.1C42.9,99.1,42.9,99,42.9,99.1c0-0.1,0-0.1,0-0.2H43c0,0,0,0,0,0.1s0,0,0,0.1l0,0c0,0,0,0,0-0.1
			s0,0,0.1,0s0,0,0.1,0s0.1,0,0.1,0c0,0,0.1,0,0.1,0s0.1,0,0.1,0c0,0,0,0,0,0c0,0,0,0,0,0c0,0,0.1-0.1,0.1-0.1c0,0,0.1,0,0.1,0
			c0.1,0,0.1,0,0.1,0c0,0,0.1,0,0.1,0.1c0,0,0,0.1,0.1,0.1c0,0,0,0.1,0,0.1v0.4h-0.1v-0.4c0,0,0-0.1,0-0.1s0,0,0-0.1c0,0,0,0-0.1,0
			c0,0-0.1,0-0.1,0c0,0-0.1,0-0.1,0c0,0,0,0-0.1,0c0,0,0,0,0,0.1c0,0,0,0.1,0,0.1v0.4h-0.1v-0.4c0-0.1,0-0.1,0-0.2s-0.1-0.1-0.1-0.1
			c0,0-0.1,0-0.1,0c0,0-0.1,0-0.1,0.1c0,0,0,0.1,0,0.1c0,0,0,0.1,0,0.1v0.4h-0.1L42.9,99.1L42.9,99.1z"/>
		<path class="st4" d="M44.2,99c0,0,0.1-0.1,0.1-0.1c0.1,0,0.1,0,0.2,0c0.1,0,0.2,0,0.2,0.1c0.1,0.1,0.1,0.1,0.1,0.2v0.3
			c0,0,0,0,0,0.1s0,0,0,0.1h-0.1c0,0,0,0,0-0.1c0,0,0,0,0-0.1l0,0c0,0-0.1,0.1-0.1,0.1c0,0-0.1,0-0.1,0c0,0-0.1,0-0.1,0
			c0,0-0.1,0-0.1,0c0,0,0,0-0.1-0.1c0,0,0-0.1,0-0.1c0-0.1,0-0.1,0.1-0.1c0,0,0.1-0.1,0.1-0.1s0.1,0,0.2,0s0.1,0,0.2,0h0.1v0
			c0-0.1,0-0.1-0.1-0.1c0,0-0.1,0-0.1,0c0,0-0.1,0-0.1,0C44.4,99.1,44.3,99.1,44.2,99L44.2,99z M44.6,99.3c-0.1,0-0.1,0-0.2,0
			s-0.1,0.1-0.1,0.1s0,0.1,0.1,0.1c0,0,0.1,0,0.1,0s0.1,0,0.1,0c0,0,0.1,0,0.1-0.1s0,0,0-0.1c0,0,0-0.1,0-0.1v-0.1L44.6,99.3
			L44.6,99.3z"/>
		<path class="st4" d="M45.1,99.1C45.1,99.1,45.1,99,45.1,99.1c0-0.1,0-0.1,0-0.2h0.1c0,0,0,0,0,0.1s0,0,0,0.1l0,0c0,0,0,0,0-0.1
			s0,0,0.1,0c0,0,0,0,0.1,0s0.1,0,0.1,0c0,0,0,0,0,0c0,0,0,0,0,0l0,0.1c0,0,0,0-0.1,0c-0.1,0-0.1,0-0.2,0.1s-0.1,0.1-0.1,0.2v0.4H45
			L45.1,99.1L45.1,99.1z"/>
		<path class="st4" d="M46,99h-0.2v0.4c0,0,0,0.1,0,0.1s0,0,0,0.1c0,0,0,0,0,0s0,0,0.1,0s0,0,0.1,0c0,0,0,0,0.1,0v0.1c0,0,0,0-0.1,0
			s-0.1,0-0.1,0c0,0-0.1,0-0.1,0c0,0-0.1,0-0.1-0.1s0-0.1,0-0.1s0-0.1,0-0.1V99h-0.2v-0.1h0.2v-0.2h0.1v0.2H46L46,99L46,99z"/>
	</g>
	<polygon class="st3" points="41.4,92.4 42.4,92.4 44.2,93.9 46.2,92.4 47.1,92.4 47.1,97.9 41.4,97.9 	"/>
	<polygon class="st3" points="53,97.9 47.4,97.9 50.2,92.4 	"/>
	<g>
		<path class="st3" d="M64.5,97.8v-4.1h-0.9v-1.4H68v1.4H67v4.1H64.5z"/>
	</g>
	<path class="st3" d="M41,92.4h-0.5h-2.2c-0.3,0-0.5,0.1-0.8,0.2c-0.2,0.1-0.4,0.2-0.6,0.4c-0.2,0.2-0.3,0.4-0.4,0.6
		c-0.1,0.2-0.2,0.5-0.2,0.7s0,0.5,0.2,0.7c0.1,0.2,0.2,0.4,0.4,0.6s0.4,0.3,0.6,0.4c0.1,0,0.1,0,0.2,0.1h-0.5h-0.5v0.5v0.9v0.5h0.5
		h2.1c0.3,0,0.5-0.1,0.8-0.1c0.2-0.1,0.4-0.2,0.6-0.4s0.3-0.4,0.4-0.6c0.1-0.2,0.2-0.5,0.2-0.7c0-0.2-0.1-0.5-0.2-0.7
		c-0.1-0.2-0.2-0.4-0.4-0.6c-0.2-0.2-0.4-0.3-0.6-0.4c-0.1,0-0.1,0-0.2-0.1h0.6H41v-0.5v-0.9L41,92.4L41,92.4z"/>
</g>
</svg>
