<?xml version="1.0" encoding="utf-8"?>
<!-- Generator: Adobe Illustrator 27.0.0, SVG Export Plug-In . SVG Version: 6.00 Build 0)  -->
<svg version="1.1" id="Laag_1" xmlns="http://www.w3.org/2000/svg" xmlns:xlink="http://www.w3.org/1999/xlink" x="0px" y="0px"
	 viewBox="0 0 102.1 102.1" style="enable-background:new 0 0 102.1 102.1;" xml:space="preserve">
<style type="text/css">
	.st0{fill:none;stroke:#231916;stroke-linejoin:bevel;stroke-miterlimit:22.9256;}
	.st1{fill:none;stroke:#231916;stroke-miterlimit:22.9256;}
	.st2{fill:#0066FF;stroke:#231916;stroke-miterlimit:22.9256;}
</style>
<image style="display:none;overflow:visible;" width="4032" height="3024" xlink:href="3D6B13926DA506F0.jpg"  transform="matrix(-8.129418e-18 4.425449e-02 -4.425449e-02 -8.129418e-18 123.0603 -29.4076)">
</image>
<line class="st0" x1="4.5" y1="56.8" x2="4.5" y2="56.8"/>
<line class="st0" x1="4.5" y1="56.8" x2="3.4" y2="56.8"/>
<line class="st0" x1="100" y1="101.6" x2="2.2" y2="101.6"/>
<path class="st0" d="M2.2,101.6c-0.5,0-1-0.3-1.2-0.5c-0.3-0.3-0.5-0.9-0.5-1.2"/>
<line class="st0" x1="0.5" y1="100" x2="0.5" y2="2.2"/>
<path class="st0" d="M0.5,2.2c0-0.5,0.3-1,0.5-1.2c0.3-0.3,0.9-0.5,1.2-0.5"/>
<line class="st0" x1="2.2" y1="0.5" x2="100" y2="0.5"/>
<line class="st0" x1="93.3" y1="6.9" x2="8.8" y2="6.9"/>
<line class="st0" x1="6.9" y1="8.8" x2="6.9" y2="45.4"/>
<line class="st0" x1="6.9" y1="45.4" x2="3.5" y2="45.4"/>
<line class="st0" x1="2.5" y1="46.3" x2="2.5" y2="55.8"/>
<line class="st0" x1="3.5" y1="56.8" x2="6.9" y2="56.8"/>
<line class="st0" x1="6.9" y1="56.8" x2="6.9" y2="95.6"/>
<line class="st0" x1="7.3" y1="46.3" x2="7.3" y2="55.8"/>
<path class="st0" d="M8.8,6.9c-0.5,0-1,0.2-1.3,0.6C7.1,7.8,6.9,8.3,6.9,8.8"/>
<path class="st0" d="M3.5,45.4c-0.3,0-0.5,0.1-0.7,0.3c-0.2,0.2-0.3,0.4-0.3,0.7"/>
<path class="st0" d="M2.5,55.8c0,0.3,0.1,0.5,0.3,0.7c0.2,0.2,0.4,0.3,0.7,0.3"/>
<path class="st0" d="M6.4,56.8c0.5,0,0.9-0.4,0.9-0.9"/>
<path class="st0" d="M7.3,46.3c0-0.5-0.4-0.9-0.9-0.9"/>
<line class="st0" x1="95.2" y1="45.6" x2="95.2" y2="56.6"/>
<line class="st0" x1="98.8" y1="56.8" x2="97.6" y2="56.8"/>
<line class="st0" x1="97.6" y1="56.8" x2="97.6" y2="56.8"/>
<path class="st0" d="M100,0.5c0.5,0,1,0.3,1.2,0.5c0.3,0.3,0.5,0.9,0.5,1.2"/>
<line class="st0" x1="101.6" y1="2.2" x2="101.6" y2="100"/>
<line class="st0" x1="95.1" y1="95.6" x2="95.2" y2="56.8"/>
<line class="st0" x1="95.2" y1="56.8" x2="98.7" y2="56.8"/>
<line class="st0" x1="99.6" y1="55.8" x2="99.6" y2="46.3"/>
<line class="st0" x1="98.7" y1="45.4" x2="95.2" y2="45.4"/>
<line class="st0" x1="95.2" y1="45.4" x2="95.2" y2="8.8"/>
<line class="st0" x1="94.9" y1="55.8" x2="94.9" y2="46.3"/>
<path class="st0" d="M94.9,55.8c0,0.5,0.4,0.9,0.9,0.9"/>
<path class="st0" d="M98.7,56.8c0.5,0,0.9-0.4,0.9-0.9"/>
<path class="st0" d="M99.6,46.3c0-0.5-0.4-0.9-0.9-0.9"/>
<path class="st0" d="M95.8,45.4c-0.5,0-0.9,0.4-0.9,0.9"/>
<path class="st0" d="M95.2,8.8c0-1-0.9-1.9-1.9-1.9"/>
<path class="st0" d="M100,101.6c0.9,0,1.7-0.7,1.7-1.7"/>
<polygon class="st1" points="95,74.4 95,61.2 93.8,61.2 93.8,58.4 8.3,58.4 8.3,61.2 7.1,61.2 7.1,74.4 8.3,74.4 8.3,82.5 7.1,82.5 
	7.1,95.6 8.3,95.6 8.3,99 93.8,99 93.8,95.6 95,95.6 95,82.5 93.8,82.5 93.8,74.4 "/>
<g>
	<path class="st1" d="M90.7,78.5H11c-0.5,0-1-0.4-1-1V59.9c0-0.5,0.4-1,1-1h79.7c0.5,0,1,0.4,1,1v17.7
		C91.6,78.1,91.2,78.5,90.7,78.5z"/>
	<path class="st1" d="M92.7,72.5h-1.1V65h1.1c0.2,0,0.3,0.1,0.3,0.3v7C93,72.4,92.9,72.5,92.7,72.5z"/>
</g>
<path class="st1" d="M74.9,57.6H27.6v-16c0-0.9,0.8-1.7,1.7-1.7h43.9c0.9,0,1.7,0.8,1.7,1.7V57.6z"/>
<circle class="st2" cx="36.5" cy="48.7" r="2.9"/>
<g>
	<path class="st1" d="M11,98.5h79.7c0.5,0,1-0.4,1-1V79.9c0-0.5-0.4-1-1-1H11c-0.5,0-1,0.4-1,1v17.7C10.1,98.1,10.5,98.5,11,98.5z"
		/>
	<path class="st1" d="M8.9,92.5h1.1v-7.6H9c-0.2,0-0.3,0.1-0.3,0.3v7C8.7,92.4,8.8,92.5,8.9,92.5z"/>
</g>
<line class="st0" x1="6.8" y1="45.6" x2="6.8" y2="56.6"/>
</svg>
