<?xml version="1.0" encoding="utf-8"?>
<!-- Generator: Adobe Illustrator 24.2.1, SVG Export Plug-In . SVG Version: 6.00 Build 0)  -->
<svg version="1.1" id="Laag_1" xmlns="http://www.w3.org/2000/svg" xmlns:xlink="http://www.w3.org/1999/xlink" x="0px" y="0px"
	 viewBox="0 0 243.18 493.31" style="enable-background:new 0 0 243.18 493.31;" xml:space="preserve">
<style type="text/css">
	.st0{stroke:#000000;stroke-width:3;stroke-miterlimit:10;}
	.st1{fill:#0066FF;}
	.st2{fill:#F28A19;}
	.st3{fill:#553289;}
</style>
<path class="st0" d="M240.59,246.63c-0.01,41.82,0.24,83.65-0.07,125.47c-0.42,56.12-38.43,103.15-93.03,115.75
	C79.91,503.44,11.93,455.74,3.59,386.83c-0.58-4.78-0.96-9.62-0.96-14.44c-0.06-83.81-0.28-167.63,0.04-251.44
	C2.88,66.83,38.88,20.75,91.06,6.56c68.7-18.69,140.17,29.24,148.47,99.66c0.74,6.27,1.01,12.62,1.02,18.93
	C240.64,165.64,240.6,206.14,240.59,246.63z M237.5,246.99c0-40.83-0.11-81.67,0.05-122.5c0.08-19.54-4.13-37.88-12.72-55.46
	C204.47,27.42,155.51,0.6,109.57,6.33C48.59,13.93,5.78,62.11,5.7,123.56c-0.11,82,0.04,164-0.06,246
	c-0.04,31.66,10.72,58.91,32.17,82.12c35.2,38.09,96.37,47.36,140.86,20.72c38.56-23.08,58.41-57.38,58.76-102.41
	C237.74,328.99,237.49,287.99,237.5,246.99z"/>
<path d="M121.3,225.14C64.11,225.06,18.68,177.2,20.47,120.75c1.67-52.7,45.24-98,101.39-97.86
	c56.05,0.14,101.06,45.68,100.8,101.91C222.4,180.29,176.81,225.42,121.3,225.14z M121.65,222.01c54.08-0.06,97.92-43.9,97.94-97.93
	c0.02-53.93-43.98-98.11-97.83-98.23c-54.01-0.12-98.26,44.21-98.19,98.37C23.64,178.22,67.62,222.07,121.65,222.01z"/>
<path d="M121.87,387.36c13.66,0.06,24.72,11.17,24.69,24.81c-0.03,13.8-11.41,24.98-25.27,24.82c-13.66-0.15-24.7-11.29-24.69-24.91
	C96.61,398.26,107.81,387.29,121.87,387.36z M121.7,390.44c-12.16-0.05-22.04,9.68-22.02,21.69c0.01,11.96,10.04,21.88,22.03,21.8
	c11.83-0.08,21.6-9.75,21.76-21.56C143.64,400.4,133.81,390.49,121.7,390.44z"/>
<path d="M121.54,31.31c51.24-0.05,92.87,41.5,92.89,92.71c0.01,51.15-41.57,92.72-92.8,92.78c-51.17,0.06-92.84-41.53-92.86-92.69
	C28.74,72.85,70.22,31.36,121.54,31.31z M48.17,134.98c0,10.15,0.61,19.66-0.17,29.05c-0.77,9.16,2.46,15.83,8.78,22.1
	c15.45,15.34,33.66,24.57,56.13,27.15c0-6.82,0-13.2,0-19.63c6.13,0,11.52,0,17.48,0c0,6.64,0,12.89,0,18.94
	c0.89,0.3,1.21,0.52,1.5,0.48c25.04-3.16,45.36-14.7,60.81-34.63c1.39-1.8,2.16-4.52,2.21-6.84c0.23-10.33,0.09-20.66,0.11-30.99
	c0-1.76,0.16-3.51,0.27-5.63c4.39,0,8.24,0.3,12-0.16c1.34-0.16,3.41-2.06,3.53-3.3c0.43-4.79,0.16-9.64,0.22-14.47
	c0.03-2.59-1.2-3.49-3.7-3.42c-3.93,0.12-7.86,0.03-12.32,0.03c0-2.52,0-4.32,0-6.12c0-9.83-0.17-19.67,0.08-29.49
	c0.1-4.12-1.13-7.36-3.71-10.46c-9.78-11.75-21.59-20.75-35.76-26.51c-7.96-3.23-16.17-5.62-25.49-6.04c0,6.9,0,13.16,0,19.42
	c-5.98,0-11.38,0-17.36,0c0-6.62,0-12.87,0-19.33c-1.24,0-1.89-0.07-2.51,0.01c-24.82,3.39-44.91,15.01-60.13,34.87
	c-1.28,1.67-1.82,4.28-1.88,6.47c-0.22,7.99-0.09,16-0.09,23.99c0,4.27,0,8.54,0,13.18c-4.46,0-8.12,0.13-11.76-0.04
	c-2.89-0.14-4.39,0.74-4.31,3.87c0.12,4.49,0.1,8.99,0.03,13.48c-0.04,2.92,1.12,4.22,4.17,4.06
	C39.95,134.84,43.61,134.98,48.17,134.98z M44.62,79.81c-6.26,9.26-10.01,19.24-11.43,30.36c4.2,0,7.76,0,11.43,0
	C44.62,99.79,44.62,89.8,44.62,79.81z M200.36,79.36c-0.59,0.17-1.18,0.33-1.77,0.5c-0.12,0.31-0.34,0.61-0.34,0.92
	c-0.04,6.65-0.08,13.3-0.08,19.95c-0.01,10.6,0,10.61,10.59,9.63c0.28-0.03,0.53-0.35,2.02-1.4
	C207.4,99.34,203.88,89.35,200.36,79.36z M33.27,138.51c1.63,10.96,5.04,20.77,11.44,29.5c0-9.73,0-19.45,0-29.5
	C40.86,138.51,37.31,138.51,33.27,138.51z M211.12,138.54c-5.34,0-8.88,0-12.48,0c0,10.11,0,19.86,0,29.62
	c0.56,0.14,1.12,0.28,1.68,0.42C203.8,158.9,207.28,149.23,211.12,138.54z M126.66,51.58c0-5.09,0-9.64,0-14.09
	c-3.69,0-6.94,0-10.15,0c0,4.92,0,9.45,0,14.09C120.09,51.58,123.22,51.58,126.66,51.58z M116.48,196.55c0,5,0,9.54,0,14.14
	c3.65,0,6.88,0,10.2,0c0-4.89,0-9.42,0-14.14C123.16,196.55,120.05,196.55,116.48,196.55z"/>
<path d="M88.37,113.45c6.57,0.07,11.64,5.22,11.63,11.8c-0.01,6.52-5.2,11.8-11.66,11.86c-6.6,0.06-11.99-5.45-11.87-12.15
	C76.59,118.43,81.81,113.38,88.37,113.45z"/>
<path d="M155.06,113.45c6.55,0.07,11.64,5.23,11.64,11.79c0,6.47-5.23,11.8-11.65,11.88c-6.63,0.08-12.02-5.42-11.88-12.14
	C143.3,118.41,148.48,113.38,155.06,113.45z"/>
<circle class="st1" cx="121.33" cy="412.63" r="9.95"/>
<g>
	<polygon points="133.39,459.4 134.25,459.4 134.25,458.6 133.39,458.6 133.39,458.29 134.32,458.29 134.32,457.42 132.27,457.42 
		132.27,460.58 134.38,460.58 134.38,459.71 133.39,459.71 	"/>
	<path d="M129.92,458.85c-0.06,0.19-0.06,0.31-0.06,0.5c0-0.19,0-0.31-0.06-0.5l-0.43-1.49h-1.18l1.24,3.22h0.99l1.24-3.22h-1.3
		L129.92,458.85z"/>
	<path d="M117.03,453.45c-1.55,0-2.97,0.62-3.97,1.61c-0.99,1.05-1.61,2.42-1.61,3.97h0.93c0-1.3,0.5-2.42,1.36-3.28
		s1.98-1.36,3.28-1.36v-0.94H117.03z"/>
	<path d="M109.47,459.03C109.47,459.03,109.47,458.97,109.47,459.03L109.47,459.03L109.47,459.03z"/>
	<path d="M117.09,452.34v-0.93c-2.11,0-4.03,0.87-5.39,2.23c-1.36,1.43-2.23,3.22-2.23,5.33h0.99c0-1.86,0.74-3.53,1.92-4.71
		C113.62,453.08,115.23,452.34,117.09,452.34z"/>
	<path d="M117.03,455.99c-1.67,0-3.04,1.36-3.04,3.04s1.36,3.04,3.04,3.04s3.04-1.36,3.04-3.04S118.7,455.99,117.03,455.99z
		 M118.51,459.65l-0.62,0.99h-2.6l1.43-2.23h-1.36l0.62-0.99v0.06h2.6l-1.36,2.17H118.51z"/>
	<path d="M135.31,449.3c-0.5-0.43-1.12-0.74-1.86-0.74h-23.67c-0.74,0-1.43,0.31-1.86,0.81s-0.74,1.12-0.74,1.86v18.03
		c0,0.74,0.25,1.36,0.74,1.86c0.5,0.43,1.12,0.74,1.86,0.74h23.67c0.74,0,1.36-0.25,1.86-0.74c0.43-0.5,0.74-1.12,0.74-1.86v-18.09
		C136.05,450.42,135.8,449.8,135.31,449.3z M119.07,468.51h-0.62v1.43h-1.12v-4.34h1.74c0.5,0,0.87,0.12,1.12,0.31
		c0.31,0.25,0.43,0.62,0.43,1.12C120.62,468.02,120.12,468.51,119.07,468.51z M124.71,469.94h-2.48v-4.34h1.12v3.41h1.36V469.94z
		 M129.92,468.02c0,0.19,0,0.31,0,0.43s0,0.31-0.06,0.37c-0.06,0.31-0.19,0.5-0.37,0.68c-0.19,0.19-0.37,0.31-0.68,0.37
		c-0.25,0.06-0.5,0.12-0.74,0.12c-0.31,0-0.56-0.06-0.74-0.12c-0.25-0.06-0.5-0.19-0.68-0.37s-0.31-0.43-0.37-0.68
		c0-0.12-0.06-0.25-0.06-0.37s0-0.25,0-0.43v-2.42h1.12v2.29c0,0.19,0,0.31,0,0.43s0.06,0.31,0.06,0.37
		c0.12,0.25,0.31,0.37,0.68,0.37c0.31,0,0.56-0.12,0.68-0.37c0.06-0.12,0.06-0.25,0.06-0.37s0-0.25,0-0.43v-2.29h1.12L129.92,468.02
		L129.92,468.02z M134.69,469.01c-0.06,0.25-0.19,0.37-0.37,0.56c-0.19,0.12-0.37,0.25-0.56,0.31s-0.43,0.12-0.62,0.12
		c-0.56,0-1.05-0.19-1.55-0.5l0.5-0.93c0.19,0.12,0.31,0.25,0.43,0.31c0.19,0.06,0.37,0.12,0.56,0.12c0.12,0,0.25-0.06,0.37-0.12
		s0.19-0.19,0.19-0.31s-0.06-0.25-0.25-0.31c-0.06-0.06-0.12-0.06-0.25-0.06l-0.19-0.06c-0.19-0.06-0.37-0.12-0.5-0.19
		s-0.25-0.12-0.37-0.19c-0.19-0.19-0.31-0.5-0.31-0.87c0-0.43,0.12-0.81,0.43-1.05c0.31-0.25,0.62-0.37,1.05-0.37
		c0.5,0,0.93,0.12,1.36,0.37l-0.56,0.87c-0.25-0.19-0.5-0.31-0.74-0.31c-0.12,0-0.25,0-0.31,0.06c-0.12,0.06-0.19,0.19-0.19,0.25
		c0,0.12,0.06,0.19,0.19,0.31c0.06,0,0.12,0.06,0.19,0.06c0.06,0,0.12,0.06,0.19,0.06l0.31,0.06c0.31,0.12,0.62,0.25,0.74,0.37
		c0.19,0.19,0.31,0.43,0.31,0.81C134.75,468.64,134.75,468.82,134.69,469.01z M135.31,462.56h-14.56c-0.93,0.99-2.29,1.61-3.72,1.61
		c-1.49,0-2.79-0.62-3.72-1.61h-5.39v-11.34c0-0.5,0.19-0.93,0.56-1.3c0.31-0.37,0.81-0.56,1.3-0.56h23.67c0.5,0,0.93,0.19,1.3,0.56
		c0.37,0.31,0.56,0.81,0.56,1.3V462.56z"/>
	<path d="M119.2,466.53c-0.06,0-0.12-0.06-0.25-0.06c-0.06,0-0.19,0-0.31,0h-0.19v1.05h0.19c0.12,0,0.25,0,0.31,0
		c0.12,0,0.19-0.06,0.25-0.06c0.19-0.06,0.25-0.25,0.25-0.43C119.44,466.78,119.38,466.59,119.2,466.53z"/>
	<path d="M126.01,457.3l-1.12,3.22h1.18l0.12-0.37h0.87l0.12,0.37h1.18l-1.12-3.22H126.01z M126.38,459.4l0.19-0.99h0.06
		c0,0.06,0,0.12,0.06,0.19c0,0.06,0,0.06,0,0.12s0,0.06,0,0.12l0.12,0.56H126.38z"/>
	<path d="M123.9,457.36l-0.31,1.36c-0.06,0.19-0.06,0.37-0.06,0.56l-0.43-1.92h-0.81l-0.31,1.3c-0.06,0.19-0.06,0.37-0.06,0.62
		l-0.37-1.92h-1.3l1.05,3.22h0.93l0.31-1.24c0.06-0.19,0.06-0.31,0.06-0.5h0.06l0.37,1.74h0.93l1.05-3.22L123.9,457.36L123.9,457.36
		z"/>
</g>
<g>
	<path class="st2" d="M141.91,289.09h-1.33v-1.08c0-4.1-3.34-7.42-7.47-7.42h-0.3c-4.05,0-7.33,3.26-7.33,7.29v1.21v15.01h15.1h0.97
		c4.19,0,7.58-3.38,7.58-7.54v-0.3C149.12,292.31,145.89,289.09,141.91,289.09"/>
	<path class="st2" d="M87.1,280.35c-6.67,0-12.07,5.37-12.07,12s5.41,12,12.07,12s12.07-5.37,12.07-12S93.77,280.35,87.1,280.35"/>
	<path class="st2" d="M64.65,280.72H53.73l-0.04,23.25h20.3l0,0c0-2.74-1.41-5.15-3.55-6.56c2.2-1.71,3.61-4.37,3.61-7.36
		C74.05,284.9,69.84,280.72,64.65,280.72"/>
	<path class="st2" d="M136.44,305.67h-10.92l-0.04,23.3h20.3l0,0c0-2.75-1.41-5.16-3.55-6.57c2.2-1.71,3.61-4.38,3.61-7.37
		C145.84,309.86,141.63,305.67,136.44,305.67"/>
	<path class="st2" d="M158.29,305.67h-10.92l-0.04,23.3h20.3l0,0c0-2.75-1.41-5.16-3.55-6.57c2.2-1.71,3.61-4.38,3.61-7.37
		C167.68,309.86,163.48,305.67,158.29,305.67"/>
	<path class="st2" d="M116.95,289.09h-1.33v-1.08c0-4.1-3.34-7.42-7.47-7.42h-0.3c-4.05,0-7.33,3.26-7.33,7.29v1.21v15.01h15.1h0.97
		c4.19,0,7.58-3.38,7.58-7.54v-0.3C124.16,292.31,120.93,289.09,116.95,289.09"/>
	<g>
		<path class="st3" d="M57.48,336.45h-0.51l-0.87-2.35h-0.01l-0.78,2.35h-0.53l-1-3.06h0.57l0.7,2.35h0.01l0.8-2.35h0.54l0.81,2.35
			h0.01l0.7-2.35h0.55L57.48,336.45z"/>
		<path class="st3" d="M61.8,335.9c-0.18,0.24-0.38,0.4-0.61,0.5c-0.22,0.09-0.47,0.14-0.76,0.14c-0.24,0-0.46-0.04-0.65-0.13
			c-0.19-0.08-0.36-0.2-0.49-0.34s-0.24-0.32-0.31-0.51c-0.07-0.2-0.11-0.41-0.11-0.63c0-0.24,0.04-0.45,0.12-0.65
			c0.08-0.2,0.19-0.37,0.33-0.51c0.14-0.14,0.31-0.25,0.5-0.33c0.19-0.08,0.4-0.12,0.63-0.12c0.22,0,0.41,0.04,0.59,0.11
			c0.18,0.07,0.33,0.18,0.46,0.32c0.13,0.14,0.23,0.31,0.3,0.5c0.07,0.2,0.1,0.42,0.1,0.68v0.16h-2.49c0.01,0.13,0.04,0.26,0.1,0.38
			c0.05,0.12,0.13,0.23,0.22,0.32c0.09,0.09,0.19,0.16,0.31,0.21c0.12,0.05,0.25,0.08,0.39,0.08c0.22,0,0.41-0.04,0.57-0.12
			s0.29-0.19,0.41-0.35L61.8,335.9z M61.36,334.65c-0.01-0.26-0.09-0.47-0.26-0.63c-0.16-0.16-0.38-0.24-0.67-0.24
			s-0.52,0.08-0.69,0.24c-0.18,0.16-0.28,0.37-0.32,0.63H61.36z"/>
		<path class="st3" d="M64.58,331.51h0.51v4.95h-0.51V331.51z"/>
		<path class="st3" d="M65.94,334.92c0-0.24,0.04-0.46,0.12-0.66c0.08-0.2,0.2-0.37,0.34-0.51c0.14-0.14,0.32-0.25,0.52-0.33
			c0.2-0.08,0.42-0.12,0.66-0.12c0.24,0,0.46,0.04,0.66,0.12s0.38,0.19,0.52,0.33c0.14,0.14,0.26,0.31,0.34,0.51
			c0.08,0.2,0.12,0.41,0.12,0.66c0,0.24-0.04,0.46-0.12,0.66c-0.08,0.2-0.2,0.37-0.34,0.51s-0.32,0.25-0.52,0.33
			c-0.2,0.08-0.42,0.12-0.66,0.12c-0.24,0-0.46-0.04-0.66-0.12c-0.2-0.08-0.38-0.19-0.52-0.33s-0.26-0.31-0.34-0.51
			C65.98,335.38,65.94,335.16,65.94,334.92z M66.49,334.92c0,0.16,0.03,0.31,0.08,0.45c0.05,0.14,0.12,0.26,0.22,0.36
			c0.1,0.1,0.21,0.18,0.35,0.24c0.13,0.06,0.28,0.09,0.45,0.09s0.32-0.03,0.45-0.09c0.13-0.06,0.25-0.14,0.35-0.24
			c0.1-0.1,0.17-0.22,0.22-0.36s0.08-0.29,0.08-0.45c0-0.16-0.03-0.31-0.08-0.45s-0.12-0.26-0.22-0.36c-0.1-0.1-0.21-0.18-0.35-0.24
			c-0.13-0.06-0.28-0.09-0.45-0.09s-0.32,0.03-0.45,0.09c-0.13,0.06-0.25,0.14-0.35,0.24c-0.1,0.1-0.17,0.22-0.22,0.36
			C66.52,334.61,66.49,334.76,66.49,334.92z"/>
		<path class="st3" d="M71.43,336.45h-0.57l-1.26-3.06h0.6l0.96,2.4h0.01l0.91-2.4h0.55L71.43,336.45z"/>
		<path class="st3" d="M75.95,335.9c-0.18,0.24-0.38,0.4-0.61,0.5c-0.22,0.09-0.47,0.14-0.76,0.14c-0.24,0-0.46-0.04-0.65-0.13
			c-0.19-0.08-0.36-0.2-0.49-0.34c-0.13-0.14-0.24-0.32-0.31-0.51c-0.07-0.2-0.11-0.41-0.11-0.63c0-0.24,0.04-0.45,0.12-0.65
			c0.08-0.2,0.19-0.37,0.33-0.51c0.14-0.14,0.31-0.25,0.5-0.33c0.19-0.08,0.4-0.12,0.63-0.12c0.22,0,0.41,0.04,0.59,0.11
			c0.18,0.07,0.33,0.18,0.46,0.32c0.13,0.14,0.23,0.31,0.3,0.5c0.07,0.2,0.1,0.42,0.1,0.68v0.16h-2.49c0.01,0.13,0.04,0.26,0.1,0.38
			c0.05,0.12,0.13,0.23,0.22,0.32s0.19,0.16,0.31,0.21c0.12,0.05,0.25,0.08,0.39,0.08c0.22,0,0.41-0.04,0.57-0.12
			c0.15-0.08,0.29-0.19,0.41-0.35L75.95,335.9z M75.51,334.65c-0.01-0.26-0.09-0.47-0.26-0.63c-0.16-0.16-0.38-0.24-0.67-0.24
			c-0.29,0-0.52,0.08-0.69,0.24c-0.18,0.16-0.28,0.37-0.32,0.63H75.51z"/>
		<path class="st3" d="M78.75,335.65c0.1,0.13,0.21,0.23,0.33,0.3c0.12,0.07,0.27,0.11,0.46,0.11c0.08,0,0.16-0.01,0.24-0.03
			c0.08-0.02,0.16-0.05,0.22-0.08c0.07-0.04,0.12-0.09,0.16-0.15c0.04-0.06,0.06-0.13,0.06-0.21c0-0.08-0.02-0.15-0.06-0.2
			c-0.04-0.05-0.09-0.1-0.15-0.14c-0.06-0.04-0.13-0.07-0.21-0.09c-0.08-0.02-0.16-0.04-0.24-0.06c-0.14-0.03-0.28-0.06-0.41-0.1
			c-0.13-0.04-0.25-0.09-0.35-0.15c-0.1-0.06-0.18-0.15-0.24-0.24c-0.06-0.1-0.09-0.23-0.09-0.39c0-0.15,0.03-0.28,0.1-0.39
			c0.07-0.11,0.15-0.21,0.26-0.28s0.23-0.13,0.37-0.17c0.14-0.04,0.28-0.06,0.42-0.06c0.22,0,0.42,0.05,0.61,0.13
			c0.19,0.09,0.33,0.23,0.44,0.42l-0.43,0.28c-0.07-0.11-0.15-0.2-0.26-0.26c-0.11-0.07-0.24-0.1-0.39-0.1
			c-0.07,0-0.14,0.01-0.22,0.03s-0.14,0.05-0.2,0.08c-0.06,0.03-0.1,0.08-0.14,0.14c-0.04,0.05-0.06,0.12-0.06,0.19
			c0,0.06,0.02,0.12,0.06,0.17c0.04,0.05,0.1,0.09,0.17,0.12c0.07,0.03,0.16,0.06,0.25,0.09c0.09,0.03,0.19,0.05,0.29,0.06
			c0.14,0.03,0.27,0.06,0.39,0.1c0.12,0.04,0.23,0.1,0.32,0.17c0.09,0.07,0.16,0.16,0.22,0.26c0.05,0.1,0.08,0.23,0.08,0.39
			c0,0.17-0.03,0.32-0.1,0.44c-0.07,0.12-0.16,0.22-0.28,0.3s-0.25,0.13-0.4,0.17s-0.3,0.05-0.45,0.05c-0.26,0-0.49-0.04-0.68-0.12
			c-0.19-0.08-0.36-0.23-0.52-0.45L78.75,335.65z"/>
		<path class="st3" d="M81.49,334.12c0-0.14-0.01-0.27-0.01-0.39c-0.01-0.12-0.01-0.23-0.01-0.33h0.49c0,0.08,0,0.17,0.01,0.25
			c0.01,0.08,0.01,0.17,0.01,0.26h0.01c0.03-0.07,0.08-0.15,0.15-0.22c0.06-0.07,0.14-0.13,0.23-0.19c0.09-0.05,0.19-0.1,0.3-0.13
			c0.11-0.03,0.23-0.05,0.36-0.05c0.17,0,0.31,0.02,0.42,0.06c0.11,0.04,0.2,0.09,0.28,0.15c0.07,0.06,0.13,0.12,0.18,0.19
			c0.04,0.07,0.08,0.13,0.1,0.18c0.11-0.18,0.25-0.33,0.39-0.43c0.15-0.1,0.34-0.15,0.58-0.15c0.22,0,0.4,0.03,0.55,0.09
			c0.15,0.06,0.27,0.14,0.36,0.26c0.09,0.11,0.16,0.25,0.2,0.41c0.04,0.16,0.06,0.34,0.06,0.53v1.86h-0.51v-1.83
			c0-0.1-0.01-0.21-0.03-0.31c-0.02-0.1-0.06-0.19-0.12-0.27s-0.13-0.14-0.23-0.19s-0.22-0.07-0.37-0.07
			c-0.11,0-0.21,0.02-0.31,0.06c-0.1,0.05-0.18,0.1-0.25,0.18c-0.07,0.08-0.13,0.17-0.17,0.28c-0.04,0.11-0.06,0.23-0.06,0.37v1.77
			h-0.51v-1.73c0-0.34-0.05-0.58-0.14-0.72c-0.09-0.14-0.24-0.21-0.45-0.21c-0.17,0-0.31,0.03-0.43,0.08
			c-0.12,0.06-0.22,0.14-0.3,0.24c-0.08,0.1-0.13,0.23-0.17,0.37c-0.04,0.14-0.06,0.3-0.06,0.48v1.49H81.5L81.49,334.12
			L81.49,334.12z"/>
		<path class="st3" d="M87.05,333.78c0.16-0.16,0.35-0.28,0.56-0.36s0.44-0.12,0.66-0.12c0.46,0,0.78,0.11,0.99,0.32
			c0.2,0.21,0.3,0.54,0.3,0.97v1.31c0,0.09,0.01,0.18,0.01,0.27c0.01,0.09,0.02,0.18,0.03,0.26h-0.49
			c-0.02-0.07-0.03-0.15-0.03-0.23c0-0.08,0-0.16,0-0.23h-0.01c-0.1,0.16-0.23,0.29-0.4,0.39c-0.17,0.1-0.37,0.15-0.61,0.15
			c-0.16,0-0.31-0.02-0.44-0.06c-0.14-0.04-0.26-0.1-0.36-0.17c-0.1-0.08-0.18-0.17-0.25-0.28c-0.06-0.11-0.09-0.24-0.09-0.39
			c0-0.25,0.07-0.45,0.2-0.6c0.13-0.14,0.29-0.25,0.49-0.32c0.2-0.07,0.4-0.11,0.63-0.13s0.43-0.03,0.62-0.03h0.2v-0.09
			c0-0.22-0.07-0.39-0.2-0.5c-0.13-0.11-0.32-0.17-0.56-0.17c-0.17,0-0.33,0.03-0.49,0.08c-0.16,0.05-0.3,0.14-0.42,0.25
			L87.05,333.78z M88.54,334.98c-0.33,0-0.59,0.05-0.78,0.14c-0.19,0.09-0.29,0.24-0.29,0.45c0,0.19,0.07,0.33,0.2,0.41
			c0.13,0.08,0.29,0.12,0.48,0.12c0.15,0,0.28-0.03,0.39-0.08c0.11-0.05,0.2-0.12,0.28-0.2c0.07-0.08,0.13-0.18,0.17-0.29
			c0.04-0.11,0.06-0.23,0.07-0.36v-0.2L88.54,334.98L88.54,334.98z"/>
		<path class="st3" d="M90.51,334.12c0-0.14-0.01-0.27-0.01-0.39c-0.01-0.12-0.01-0.23-0.01-0.33h0.49c0,0.08,0,0.17,0.01,0.25
			c0.01,0.08,0.01,0.17,0.01,0.26h0.01c0.03-0.07,0.08-0.15,0.15-0.22c0.06-0.07,0.14-0.13,0.23-0.19c0.09-0.05,0.19-0.1,0.3-0.13
			c0.11-0.03,0.23-0.05,0.36-0.05c0.03,0,0.07,0,0.1,0.01c0.03,0.01,0.07,0.01,0.1,0.03l-0.03,0.52c-0.09-0.03-0.18-0.04-0.28-0.04
			c-0.32,0-0.55,0.1-0.69,0.3s-0.22,0.48-0.22,0.83v1.49H90.5L90.51,334.12L90.51,334.12z"/>
		<path class="st3" d="M94.51,333.82H93.6v1.53c0,0.1,0,0.19,0.01,0.28c0.01,0.08,0.02,0.16,0.05,0.22
			c0.03,0.06,0.08,0.11,0.14,0.15c0.06,0.04,0.15,0.06,0.26,0.06c0.07,0,0.15-0.01,0.23-0.03c0.08-0.02,0.15-0.04,0.22-0.08
			l0.02,0.46c-0.09,0.04-0.18,0.07-0.29,0.08s-0.21,0.03-0.31,0.03c-0.18,0-0.33-0.03-0.44-0.07s-0.2-0.12-0.26-0.2
			c-0.06-0.09-0.1-0.19-0.12-0.32c-0.02-0.13-0.03-0.27-0.03-0.43v-1.68h-0.67v-0.43h0.67v-0.87h0.51v0.87h0.91V333.82z"/>
	</g>
	<polygon class="st2" points="75.03,305.67 79.12,305.67 86.9,312.13 95.21,305.67 99.17,305.67 99.17,328.99 75.03,328.99 	"/>
	<polygon class="st2" points="124.11,328.99 100.51,328.99 112.31,305.67 	"/>
	<g>
		<path class="st2" d="M172.31,328.79v-17.27h-3.95v-5.85h18.69v5.85h-3.95v17.27H172.31z"/>
	</g>
	<path class="st2" d="M73.18,305.67H71h-9.08c-1.12,0-2.18,0.21-3.18,0.63c-0.97,0.41-1.83,0.97-2.55,1.67
		c-0.73,0.71-1.31,1.54-1.73,2.47c-0.43,0.96-0.65,1.99-0.65,3.07c0,1.08,0.22,2.11,0.65,3.07c0.42,0.94,1,1.77,1.73,2.48
		c0.73,0.71,1.59,1.27,2.56,1.67c0.21,0.09,0.42,0.17,0.64,0.24h-2.29h-2.18v2.1v3.83v2.1h2.18h8.79c1.12,0,2.18-0.21,3.18-0.63
		c0.97-0.41,1.83-0.97,2.56-1.68c0.73-0.71,1.31-1.54,1.73-2.48c0.42-0.95,0.64-1.98,0.64-3.06c0-1.07-0.22-2.1-0.64-3.06
		c-0.42-0.94-1-1.78-1.73-2.49c-0.73-0.71-1.6-1.27-2.58-1.67c-0.22-0.09-0.43-0.17-0.65-0.24H71h2.18v-2.1v-3.82L73.18,305.67
		L73.18,305.67z"/>
</g>
</svg>
