<?xml version="1.0" encoding="utf-8"?>
<!-- Generator: Adobe Illustrator 24.2.1, SVG Export Plug-In . SVG Version: 6.00 Build 0)  -->
<svg version="1.1" id="Laag_1" xmlns="http://www.w3.org/2000/svg" xmlns:xlink="http://www.w3.org/1999/xlink" x="0px" y="0px"
	 viewBox="0 0 243.18 493.31" style="enable-background:new 0 0 243.18 493.31;" xml:space="preserve">
<style type="text/css">
	.st0{stroke:#000000;stroke-width:3;stroke-miterlimit:10;}
	.st1{fill:#0066FF;}
	.st2{fill:#232020;}
	.st3{fill:#F28A19;}
	.st4{fill:#553289;}
</style>
<path class="st0" d="M240.59,246.63c-0.01,41.82,0.24,83.65-0.07,125.47c-0.42,56.12-38.43,103.15-93.03,115.75
	C79.91,503.44,11.93,455.74,3.59,386.83c-0.58-4.78-0.96-9.62-0.96-14.44c-0.06-83.81-0.28-167.63,0.04-251.44
	C2.88,66.83,38.88,20.75,91.06,6.56c68.7-18.69,140.17,29.24,148.47,99.66c0.74,6.27,1.01,12.62,1.02,18.93
	C240.64,165.64,240.6,206.14,240.59,246.63z M237.5,246.99c0-40.83-0.11-81.67,0.05-122.5c0.08-19.54-4.13-37.88-12.72-55.46
	C204.47,27.42,155.51,0.6,109.57,6.33C48.59,13.93,5.78,62.11,5.7,123.56c-0.11,82,0.04,164-0.06,246
	c-0.04,31.66,10.72,58.91,32.17,82.12c35.2,38.09,96.37,47.36,140.86,20.72c38.56-23.08,58.41-57.38,58.76-102.41
	C237.74,328.99,237.49,287.99,237.5,246.99z"/>
<path d="M121.3,225.14C64.11,225.06,18.68,177.2,20.47,120.75c1.67-52.7,45.24-98,101.39-97.86
	c56.05,0.14,101.06,45.68,100.8,101.91C222.4,180.29,176.81,225.42,121.3,225.14z M121.65,222.01c54.08-0.06,97.92-43.9,97.94-97.93
	c0.02-53.93-43.98-98.11-97.83-98.23c-54.01-0.12-98.26,44.21-98.19,98.37C23.64,178.22,67.62,222.07,121.65,222.01z"/>
<path d="M121.87,387.36c13.66,0.06,24.72,11.17,24.69,24.81c-0.03,13.8-11.41,24.98-25.27,24.82c-13.66-0.15-24.7-11.29-24.69-24.91
	C96.61,398.26,107.81,387.29,121.87,387.36z M121.7,390.44c-12.16-0.05-22.04,9.68-22.02,21.69c0.01,11.96,10.04,21.88,22.03,21.8
	c11.83-0.08,21.6-9.75,21.76-21.56C143.64,400.4,133.81,390.49,121.7,390.44z"/>
<path d="M121.54,31.31c51.24-0.05,92.87,41.5,92.89,92.71c0.01,51.15-41.57,92.72-92.8,92.78c-51.17,0.06-92.84-41.53-92.86-92.69
	C28.74,72.85,70.22,31.36,121.54,31.31z M48.17,134.98c0,10.15,0.61,19.66-0.17,29.05c-0.77,9.16,2.46,15.83,8.78,22.1
	c15.45,15.34,33.66,24.57,56.13,27.15c0-6.82,0-13.2,0-19.63c6.13,0,11.52,0,17.48,0c0,6.64,0,12.89,0,18.94
	c0.89,0.3,1.21,0.52,1.5,0.48c25.04-3.16,45.36-14.7,60.81-34.63c1.39-1.8,2.16-4.52,2.21-6.84c0.23-10.33,0.09-20.66,0.11-30.99
	c0-1.76,0.16-3.51,0.27-5.63c4.39,0,8.24,0.3,12-0.16c1.34-0.16,3.41-2.06,3.53-3.3c0.43-4.79,0.16-9.64,0.22-14.47
	c0.03-2.59-1.2-3.49-3.7-3.42c-3.93,0.12-7.86,0.03-12.32,0.03c0-2.52,0-4.32,0-6.12c0-9.83-0.17-19.67,0.08-29.49
	c0.1-4.12-1.13-7.36-3.71-10.46c-9.78-11.75-21.59-20.75-35.76-26.51c-7.96-3.23-16.17-5.62-25.49-6.04c0,6.9,0,13.16,0,19.42
	c-5.98,0-11.38,0-17.36,0c0-6.62,0-12.87,0-19.33c-1.24,0-1.89-0.07-2.51,0.01c-24.82,3.39-44.91,15.01-60.13,34.87
	c-1.28,1.67-1.82,4.28-1.88,6.47c-0.22,7.99-0.09,16-0.09,23.99c0,4.27,0,8.54,0,13.18c-4.46,0-8.12,0.13-11.76-0.04
	c-2.89-0.14-4.39,0.74-4.31,3.87c0.12,4.49,0.1,8.99,0.03,13.48c-0.04,2.92,1.12,4.22,4.17,4.06
	C39.95,134.84,43.61,134.98,48.17,134.98z M44.62,79.81c-6.26,9.26-10.01,19.24-11.43,30.36c4.2,0,7.76,0,11.43,0
	C44.62,99.79,44.62,89.8,44.62,79.81z M200.36,79.36c-0.59,0.17-1.18,0.33-1.77,0.5c-0.12,0.31-0.34,0.61-0.34,0.92
	c-0.04,6.65-0.08,13.3-0.08,19.95c-0.01,10.6,0,10.61,10.59,9.63c0.28-0.03,0.53-0.35,2.02-1.4
	C207.4,99.34,203.88,89.35,200.36,79.36z M33.27,138.51c1.63,10.96,5.04,20.77,11.44,29.5c0-9.73,0-19.45,0-29.5
	C40.86,138.51,37.31,138.51,33.27,138.51z M211.12,138.54c-5.34,0-8.88,0-12.48,0c0,10.11,0,19.86,0,29.62
	c0.56,0.14,1.12,0.28,1.68,0.42C203.8,158.9,207.28,149.23,211.12,138.54z M126.66,51.58c0-5.09,0-9.64,0-14.09
	c-3.69,0-6.94,0-10.15,0c0,4.92,0,9.45,0,14.09C120.09,51.58,123.22,51.58,126.66,51.58z M116.48,196.55c0,5,0,9.54,0,14.14
	c3.65,0,6.88,0,10.2,0c0-4.89,0-9.42,0-14.14C123.16,196.55,120.05,196.55,116.48,196.55z"/>
<path d="M88.37,113.45c6.57,0.07,11.64,5.22,11.63,11.8c-0.01,6.52-5.2,11.8-11.66,11.86c-6.6,0.06-11.99-5.45-11.87-12.15
	C76.59,118.43,81.81,113.38,88.37,113.45z"/>
<path d="M155.06,113.45c6.55,0.07,11.64,5.23,11.64,11.79c0,6.47-5.23,11.8-11.65,11.88c-6.63,0.08-12.02-5.42-11.88-12.14
	C143.3,118.41,148.48,113.38,155.06,113.45z"/>
<circle class="st1" cx="121.33" cy="412.63" r="9.95"/>
<g>
	<g>
		<path d="M93.02,448.15c0.89,0.12,1.86,0.77,1.94,2.1c0,0-1.65,1.69-3.59,3.63c-1.98,1.94-3.63,3.79-3.63,3.79
			c0,0.04,0,0.04-0.12,0.12c2.78,0.16,5.61,0.04,8.43-0.36c0,0-0.2,0.36-0.24,0.4l0,0c0.93-1.21,1.45-2.74,1.45-4.36
			c0-4.03-3.27-7.3-7.3-7.3c-2.1,0-3.99,0.89-5.32,2.3c0.44-0.08,0.89-0.16,1.33-0.2C88.3,447.87,92.46,448.03,93.02,448.15z"/>
		<path d="M95.64,458.07c-0.04,0.08-0.12,0.12-0.12,0.12C95.56,458.15,95.6,458.11,95.64,458.07z"/>
		<path d="M86.65,458.48c-0.65-0.12-1.81-0.65-1.81-2.06c0.16-0.24,1.9-1.98,3.83-3.87c1.98-1.9,3.55-3.63,3.51-3.67
			c-1.37-0.04-2.78-0.08-4.15,0c-1.33,0.04-2.66,0.16-3.99,0.36c-0.85,1.21-1.37,2.66-1.37,4.23c0,4.03,3.27,7.3,7.3,7.3
			c2.22,0,4.23-1.01,5.57-2.58C92.58,458.68,89.59,458.76,86.65,458.48z"/>
		<path d="M95.52,458.2L95.52,458.2L95.52,458.2z"/>
		<path d="M84.63,448.48c0,0-0.2,0.2-0.36,0.36c-0.16,0.2-0.28,0.4-0.28,0.4h0.04C84.23,448.96,84.43,448.72,84.63,448.48
			L84.63,448.48z"/>
		<path d="M95.81,457.83c-0.04,0.08-0.12,0.16-0.16,0.2C95.68,457.99,95.77,457.87,95.81,457.83z"/>
	</g>
	<g id="_x23_232020ff">
		<path class="st2" d="M103.19,446.32c0.32-0.16,0.48,0,0.8,0c1.91,0,3.98,0,5.89,0c0.48,0,0.8,0.48,0.64,0.8
			c-1.27,3.5-2.55,6.85-3.66,10.35c-0.16,0.32,0.16,0.8,0.48,0.8c0.8,0,1.75,0,2.55,0c0.48,0,0.96,0.32,0.96,0.8
			c0,0.32,0.16,0.8-0.16,1.12c-0.16,0.16-0.48,0.32-0.8,0.32c-2.23,0-4.62,0-6.85,0c-0.48,0-0.8-0.48-0.64-0.8
			c1.27-3.5,2.55-6.85,3.82-10.35c0.16-0.32,0-0.8-0.48-0.8c-0.8,0-1.75,0-2.55,0c-0.48-0.16-0.8-0.64-0.8-1.12
			C102.55,446.96,102.71,446.48,103.19,446.32z"/>
		<path class="st2" d="M113.07,446.32c0.96-0.32,2.07,0.16,2.23,1.27c0,0.96-1.12,1.75-2.07,1.43c-0.64-0.16-1.27-0.8-1.27-1.43
			C112.11,446.96,112.59,446.48,113.07,446.32z"/>
		<path class="st2" d="M128.68,446.48c1.75-0.32,3.66-0.48,5.26,0c0.96,0.32,1.91,0.8,2.39,1.75c0.64,1.12,0.64,2.71-0.32,3.82
			c-0.48,0.48-1.12,0.96-1.75,1.12c0.96,0.48,1.91,1.12,2.55,2.07s0.48,2.07,0.16,3.03c-0.32,0.8-0.96,1.59-1.75,1.91
			c-1.43,0.64-3.03,0.8-4.46,0.64c-1.27,0-2.55-0.32-3.82-0.8c0-3.82,0-7.49,0-11.31c0-0.48,0-1.12,0.32-1.43
			C127.72,446.64,128.36,446.64,128.68,446.48 M130.27,448.23c0,1.12,0,2.07,0,3.19c0,0.32,0,0.8,0.32,0.96
			c0.96-0.16,1.91-0.32,2.55-0.96c0.96-0.8,0.8-2.39-0.16-3.03C132.18,447.91,131.23,448.07,130.27,448.23 M130.59,454.13
			c-0.32,0.32-0.32,0.64-0.32,1.12c0,0.8,0,1.75,0,2.55c0,0.48,0.32,1.12,0.96,0.96c0.8,0,1.75,0,2.39-0.64
			c0.64-0.8,0.48-1.91,0.32-2.71c-0.32-0.8-1.27-1.12-2.07-1.27C131.39,453.97,130.91,453.97,130.59,454.13z"/>
		<path class="st2" d="M157.83,446.32c0.8-0.32,1.91,0.16,2.07,0.96c0.32,0.8-0.16,1.75-0.96,2.07s-1.75-0.16-2.07-0.96
			C156.4,447.59,156.87,446.48,157.83,446.32 M157.99,446.48c-0.64,0.16-1.12,0.96-0.96,1.59c0.16,0.64,0.96,1.12,1.59,0.96
			c0.64-0.16,0.96-0.8,0.96-1.27C159.58,446.96,158.79,446.32,157.99,446.48z"/>
		<path class="st2" d="M157.83,446.8c0.32-0.16,0.96-0.16,1.12,0.32c0.16,0.32,0,0.64-0.32,0.8c0.16,0.32,0.32,0.48,0.48,0.8
			c-0.16,0-0.32,0-0.48,0c-0.16-0.32-0.32-0.48-0.48-0.8c0,0.32,0,0.48,0,0.8c0,0-0.16,0-0.32,0
			C157.83,448.07,157.83,447.43,157.83,446.8 M158.15,447.12c0,0.16,0,0.48,0,0.64c0.16,0,0.64,0,0.48-0.32
			C158.63,447.12,158.31,447.12,158.15,447.12z"/>
		<path class="st2" d="M118.16,451.1c0.96-0.8,2.39-1.12,3.66-1.12c1.27,0,2.39,0.16,3.5,0.8c0,3.35,0,6.85,0,10.2
			c0,1.12-0.48,2.23-1.27,3.03c-0.96,0.8-2.07,0.96-3.19,0.96c-1.27,0-2.71-0.16-3.82-0.8c0.16-0.48,0.32-0.96,0.48-1.27
			c0.16-0.32,0.64-0.48,1.12-0.32c0.96,0.32,2.07,0.48,3.03,0c0.64-0.32,0.96-1.12,0.96-1.75c0-0.16-0.32-0.32-0.48-0.32
			c-0.64,0.16-1.27,0.16-1.91,0c-1.12-0.16-2.23-0.8-2.87-1.75c-0.8-1.27-0.96-2.71-0.8-4.14
			C116.57,453.33,117.05,451.89,118.16,451.1 M120.39,452.05c-0.64,0.32-0.8,1.12-0.96,1.75c-0.16,1.12-0.16,2.23,0,3.19
			c0.16,0.64,0.32,1.27,0.96,1.59c0.48,0.32,0.96,0.32,1.43,0.32c0.32-0.32,0.48-0.64,0.48-0.96c0-2.07,0-3.98,0-6.05
			C121.83,451.74,121.03,451.58,120.39,452.05z"/>
		<path class="st2" d="M139.83,450.94c0.96-0.8,2.23-1.12,3.5-0.96c0.96,0,1.75,0.48,2.39,1.27c0.8,1.12,1.12,2.39,1.27,3.82
			c0,0.32-0.32,0.64-0.64,0.64c-1.75,0.32-3.5,0.48-5.42,0.8c0.16,0.96,0.64,1.91,1.59,2.07c1.27,0.32,2.55,0.16,3.66-0.48
			c0.16,0.64,0.64,1.12,0.32,1.75c-0.16,0.48-0.8,0.48-1.12,0.64c-1.43,0.32-2.87,0.48-4.14-0.16c-1.12-0.32-2.07-1.27-2.55-2.39
			c-0.48-1.27-0.64-2.71-0.32-3.98C138.39,452.85,138.87,451.74,139.83,450.94 M141.26,452.53c-0.48,0.64-0.48,1.59-0.48,2.39
			c1.27-0.16,2.39-0.32,3.66-0.48c0-0.8-0.16-1.59-0.64-2.23C143.01,451.58,141.74,451.74,141.26,452.53z"/>
		<path class="st2" d="M150.98,450.3c1.27-0.48,2.71-0.48,3.82,0.32c1.43,0.96,1.75,2.71,1.91,4.3c0,0.32-0.32,0.8-0.64,0.8
			c-1.75,0.32-3.5,0.48-5.42,0.8c0.16,0.8,0.48,1.75,1.43,2.07c1.27,0.32,2.55,0.16,3.82-0.32c0.16,0.48,0.48,0.96,0.48,1.59
			c-0.16,0.64-0.8,0.64-1.27,0.8c-1.43,0.32-3.19,0.32-4.46-0.32s-2.07-1.75-2.39-3.19c-0.32-1.43-0.32-2.87,0.32-4.3
			C148.75,451.58,149.71,450.62,150.98,450.3 M151.14,452.37c-0.64,0.64-0.64,1.75-0.64,2.55c1.27-0.16,2.39-0.32,3.66-0.48
			c0-0.8,0-1.43-0.48-2.07C153.05,451.58,151.78,451.58,151.14,452.37z"/>
		<path class="st2" d="M112.91,450.14c0.48,0,1.12,0,1.59,0c0.48,0,0.8,0.48,0.8,0.8c0,2.87,0,5.73,0,8.6c0,0.48-0.32,0.96-0.8,0.96
			s-0.96,0-1.43,0s-0.8-0.48-0.8-0.96c0-2.87,0-5.58,0-8.44C112.11,450.78,112.43,450.3,112.91,450.14z"/>
	</g>
</g>
<g>
	<path class="st3" d="M141.91,289.09h-1.33v-1.08c0-4.1-3.34-7.42-7.47-7.42h-0.3c-4.05,0-7.33,3.26-7.33,7.29v1.21v15.01h15.1h0.97
		c4.19,0,7.58-3.38,7.58-7.54v-0.3C149.12,292.31,145.89,289.09,141.91,289.09"/>
	<path class="st3" d="M87.1,280.35c-6.67,0-12.07,5.37-12.07,12s5.41,12,12.07,12s12.07-5.37,12.07-12S93.77,280.35,87.1,280.35"/>
	<path class="st3" d="M64.65,280.72H53.73l-0.04,23.25h20.3l0,0c0-2.74-1.41-5.15-3.55-6.56c2.2-1.71,3.61-4.37,3.61-7.36
		C74.05,284.9,69.84,280.72,64.65,280.72"/>
	<path class="st3" d="M136.44,305.67h-10.92l-0.04,23.3h20.3l0,0c0-2.75-1.41-5.16-3.55-6.57c2.2-1.71,3.61-4.38,3.61-7.37
		C145.84,309.86,141.63,305.67,136.44,305.67"/>
	<path class="st3" d="M158.29,305.67h-10.92l-0.04,23.3h20.3l0,0c0-2.75-1.41-5.16-3.55-6.57c2.2-1.71,3.61-4.38,3.61-7.37
		C167.68,309.86,163.48,305.67,158.29,305.67"/>
	<path class="st3" d="M116.95,289.09h-1.33v-1.08c0-4.1-3.34-7.42-7.47-7.42h-0.3c-4.05,0-7.33,3.26-7.33,7.29v1.21v15.01h15.1h0.97
		c4.19,0,7.58-3.38,7.58-7.54v-0.3C124.16,292.31,120.93,289.09,116.95,289.09"/>
	<g>
		<path class="st4" d="M57.48,336.45h-0.51l-0.87-2.35h-0.01l-0.78,2.35h-0.53l-1-3.06h0.57l0.7,2.35h0.01l0.8-2.35h0.54l0.81,2.35
			h0.01l0.7-2.35h0.55L57.48,336.45z"/>
		<path class="st4" d="M61.8,335.9c-0.18,0.24-0.38,0.4-0.61,0.5c-0.22,0.09-0.47,0.14-0.76,0.14c-0.24,0-0.46-0.04-0.65-0.13
			c-0.19-0.08-0.36-0.2-0.49-0.34s-0.24-0.32-0.31-0.51c-0.07-0.2-0.11-0.41-0.11-0.63c0-0.24,0.04-0.45,0.12-0.65
			c0.08-0.2,0.19-0.37,0.33-0.51c0.14-0.14,0.31-0.25,0.5-0.33c0.19-0.08,0.4-0.12,0.63-0.12c0.22,0,0.41,0.04,0.59,0.11
			c0.18,0.07,0.33,0.18,0.46,0.32c0.13,0.14,0.23,0.31,0.3,0.5c0.07,0.2,0.1,0.42,0.1,0.68v0.16h-2.49c0.01,0.13,0.04,0.26,0.1,0.38
			c0.05,0.12,0.13,0.23,0.22,0.32c0.09,0.09,0.19,0.16,0.31,0.21c0.12,0.05,0.25,0.08,0.39,0.08c0.22,0,0.41-0.04,0.57-0.12
			s0.29-0.19,0.41-0.35L61.8,335.9z M61.36,334.65c-0.01-0.26-0.09-0.47-0.26-0.63c-0.16-0.16-0.38-0.24-0.67-0.24
			s-0.52,0.08-0.69,0.24c-0.18,0.16-0.28,0.37-0.32,0.63H61.36z"/>
		<path class="st4" d="M64.58,331.51h0.51v4.95h-0.51V331.51z"/>
		<path class="st4" d="M65.94,334.92c0-0.24,0.04-0.46,0.12-0.66c0.08-0.2,0.2-0.37,0.34-0.51c0.14-0.14,0.32-0.25,0.52-0.33
			c0.2-0.08,0.42-0.12,0.66-0.12c0.24,0,0.46,0.04,0.66,0.12s0.38,0.19,0.52,0.33c0.14,0.14,0.26,0.31,0.34,0.51
			c0.08,0.2,0.12,0.41,0.12,0.66c0,0.24-0.04,0.46-0.12,0.66c-0.08,0.2-0.2,0.37-0.34,0.51s-0.32,0.25-0.52,0.33
			c-0.2,0.08-0.42,0.12-0.66,0.12c-0.24,0-0.46-0.04-0.66-0.12c-0.2-0.08-0.38-0.19-0.52-0.33s-0.26-0.31-0.34-0.51
			C65.98,335.38,65.94,335.16,65.94,334.92z M66.49,334.92c0,0.16,0.03,0.31,0.08,0.45c0.05,0.14,0.12,0.26,0.22,0.36
			c0.1,0.1,0.21,0.18,0.35,0.24c0.13,0.06,0.28,0.09,0.45,0.09s0.32-0.03,0.45-0.09c0.13-0.06,0.25-0.14,0.35-0.24
			c0.1-0.1,0.17-0.22,0.22-0.36s0.08-0.29,0.08-0.45c0-0.16-0.03-0.31-0.08-0.45s-0.12-0.26-0.22-0.36c-0.1-0.1-0.21-0.18-0.35-0.24
			c-0.13-0.06-0.28-0.09-0.45-0.09s-0.32,0.03-0.45,0.09c-0.13,0.06-0.25,0.14-0.35,0.24c-0.1,0.1-0.17,0.22-0.22,0.36
			C66.52,334.61,66.49,334.76,66.49,334.92z"/>
		<path class="st4" d="M71.43,336.45h-0.57l-1.26-3.06h0.6l0.96,2.4h0.01l0.91-2.4h0.55L71.43,336.45z"/>
		<path class="st4" d="M75.95,335.9c-0.18,0.24-0.38,0.4-0.61,0.5c-0.22,0.09-0.47,0.14-0.76,0.14c-0.24,0-0.46-0.04-0.65-0.13
			c-0.19-0.08-0.36-0.2-0.49-0.34c-0.13-0.14-0.24-0.32-0.31-0.51c-0.07-0.2-0.11-0.41-0.11-0.63c0-0.24,0.04-0.45,0.12-0.65
			c0.08-0.2,0.19-0.37,0.33-0.51c0.14-0.14,0.31-0.25,0.5-0.33c0.19-0.08,0.4-0.12,0.63-0.12c0.22,0,0.41,0.04,0.59,0.11
			c0.18,0.07,0.33,0.18,0.46,0.32c0.13,0.14,0.23,0.31,0.3,0.5c0.07,0.2,0.1,0.42,0.1,0.68v0.16h-2.49c0.01,0.13,0.04,0.26,0.1,0.38
			c0.05,0.12,0.13,0.23,0.22,0.32s0.19,0.16,0.31,0.21c0.12,0.05,0.25,0.08,0.39,0.08c0.22,0,0.41-0.04,0.57-0.12
			c0.15-0.08,0.29-0.19,0.41-0.35L75.95,335.9z M75.51,334.65c-0.01-0.26-0.09-0.47-0.26-0.63c-0.16-0.16-0.38-0.24-0.67-0.24
			c-0.29,0-0.52,0.08-0.69,0.24c-0.18,0.16-0.28,0.37-0.32,0.63H75.51z"/>
		<path class="st4" d="M78.75,335.65c0.1,0.13,0.21,0.23,0.33,0.3c0.12,0.07,0.27,0.11,0.46,0.11c0.08,0,0.16-0.01,0.24-0.03
			c0.08-0.02,0.16-0.05,0.22-0.08c0.07-0.04,0.12-0.09,0.16-0.15c0.04-0.06,0.06-0.13,0.06-0.21c0-0.08-0.02-0.15-0.06-0.2
			c-0.04-0.05-0.09-0.1-0.15-0.14c-0.06-0.04-0.13-0.07-0.21-0.09c-0.08-0.02-0.16-0.04-0.24-0.06c-0.14-0.03-0.28-0.06-0.41-0.1
			c-0.13-0.04-0.25-0.09-0.35-0.15c-0.1-0.06-0.18-0.15-0.24-0.24c-0.06-0.1-0.09-0.23-0.09-0.39c0-0.15,0.03-0.28,0.1-0.39
			c0.07-0.11,0.15-0.21,0.26-0.28s0.23-0.13,0.37-0.17c0.14-0.04,0.28-0.06,0.42-0.06c0.22,0,0.42,0.05,0.61,0.13
			c0.19,0.09,0.33,0.23,0.44,0.42l-0.43,0.28c-0.07-0.11-0.15-0.2-0.26-0.26c-0.11-0.07-0.24-0.1-0.39-0.1
			c-0.07,0-0.14,0.01-0.22,0.03s-0.14,0.05-0.2,0.08c-0.06,0.03-0.1,0.08-0.14,0.14c-0.04,0.05-0.06,0.12-0.06,0.19
			c0,0.06,0.02,0.12,0.06,0.17c0.04,0.05,0.1,0.09,0.17,0.12c0.07,0.03,0.16,0.06,0.25,0.09c0.09,0.03,0.19,0.05,0.29,0.06
			c0.14,0.03,0.27,0.06,0.39,0.1c0.12,0.04,0.23,0.1,0.32,0.17c0.09,0.07,0.16,0.16,0.22,0.26c0.05,0.1,0.08,0.23,0.08,0.39
			c0,0.17-0.03,0.32-0.1,0.44c-0.07,0.12-0.16,0.22-0.28,0.3s-0.25,0.13-0.4,0.17s-0.3,0.05-0.45,0.05c-0.26,0-0.49-0.04-0.68-0.12
			c-0.19-0.08-0.36-0.23-0.52-0.45L78.75,335.65z"/>
		<path class="st4" d="M81.49,334.12c0-0.14-0.01-0.27-0.01-0.39c-0.01-0.12-0.01-0.23-0.01-0.33h0.49c0,0.08,0,0.17,0.01,0.25
			c0.01,0.08,0.01,0.17,0.01,0.26h0.01c0.03-0.07,0.08-0.15,0.15-0.22c0.06-0.07,0.14-0.13,0.23-0.19c0.09-0.05,0.19-0.1,0.3-0.13
			c0.11-0.03,0.23-0.05,0.36-0.05c0.17,0,0.31,0.02,0.42,0.06c0.11,0.04,0.2,0.09,0.28,0.15c0.07,0.06,0.13,0.12,0.18,0.19
			c0.04,0.07,0.08,0.13,0.1,0.18c0.11-0.18,0.25-0.33,0.39-0.43c0.15-0.1,0.34-0.15,0.58-0.15c0.22,0,0.4,0.03,0.55,0.09
			c0.15,0.06,0.27,0.14,0.36,0.26c0.09,0.11,0.16,0.25,0.2,0.41c0.04,0.16,0.06,0.34,0.06,0.53v1.86h-0.51v-1.83
			c0-0.1-0.01-0.21-0.03-0.31c-0.02-0.1-0.06-0.19-0.12-0.27s-0.13-0.14-0.23-0.19s-0.22-0.07-0.37-0.07
			c-0.11,0-0.21,0.02-0.31,0.06c-0.1,0.05-0.18,0.1-0.25,0.18c-0.07,0.08-0.13,0.17-0.17,0.28c-0.04,0.11-0.06,0.23-0.06,0.37v1.77
			h-0.51v-1.73c0-0.34-0.05-0.58-0.14-0.72c-0.09-0.14-0.24-0.21-0.45-0.21c-0.17,0-0.31,0.03-0.43,0.08
			c-0.12,0.06-0.22,0.14-0.3,0.24c-0.08,0.1-0.13,0.23-0.17,0.37c-0.04,0.14-0.06,0.3-0.06,0.48v1.49H81.5L81.49,334.12
			L81.49,334.12z"/>
		<path class="st4" d="M87.05,333.78c0.16-0.16,0.35-0.28,0.56-0.36s0.44-0.12,0.66-0.12c0.46,0,0.78,0.11,0.99,0.32
			c0.2,0.21,0.3,0.54,0.3,0.97v1.31c0,0.09,0.01,0.18,0.01,0.27c0.01,0.09,0.02,0.18,0.03,0.26h-0.49
			c-0.02-0.07-0.03-0.15-0.03-0.23c0-0.08,0-0.16,0-0.23h-0.01c-0.1,0.16-0.23,0.29-0.4,0.39c-0.17,0.1-0.37,0.15-0.61,0.15
			c-0.16,0-0.31-0.02-0.44-0.06c-0.14-0.04-0.26-0.1-0.36-0.17c-0.1-0.08-0.18-0.17-0.25-0.28c-0.06-0.11-0.09-0.24-0.09-0.39
			c0-0.25,0.07-0.45,0.2-0.6c0.13-0.14,0.29-0.25,0.49-0.32c0.2-0.07,0.4-0.11,0.63-0.13s0.43-0.03,0.62-0.03h0.2v-0.09
			c0-0.22-0.07-0.39-0.2-0.5c-0.13-0.11-0.32-0.17-0.56-0.17c-0.17,0-0.33,0.03-0.49,0.08c-0.16,0.05-0.3,0.14-0.42,0.25
			L87.05,333.78z M88.54,334.98c-0.33,0-0.59,0.05-0.78,0.14c-0.19,0.09-0.29,0.24-0.29,0.45c0,0.19,0.07,0.33,0.2,0.41
			c0.13,0.08,0.29,0.12,0.48,0.12c0.15,0,0.28-0.03,0.39-0.08c0.11-0.05,0.2-0.12,0.28-0.2c0.07-0.08,0.13-0.18,0.17-0.29
			c0.04-0.11,0.06-0.23,0.07-0.36v-0.2L88.54,334.98L88.54,334.98z"/>
		<path class="st4" d="M90.51,334.12c0-0.14-0.01-0.27-0.01-0.39c-0.01-0.12-0.01-0.23-0.01-0.33h0.49c0,0.08,0,0.17,0.01,0.25
			c0.01,0.08,0.01,0.17,0.01,0.26h0.01c0.03-0.07,0.08-0.15,0.15-0.22c0.06-0.07,0.14-0.13,0.23-0.19c0.09-0.05,0.19-0.1,0.3-0.13
			c0.11-0.03,0.23-0.05,0.36-0.05c0.03,0,0.07,0,0.1,0.01c0.03,0.01,0.07,0.01,0.1,0.03l-0.03,0.52c-0.09-0.03-0.18-0.04-0.28-0.04
			c-0.32,0-0.55,0.1-0.69,0.3s-0.22,0.48-0.22,0.83v1.49H90.5L90.51,334.12L90.51,334.12z"/>
		<path class="st4" d="M94.51,333.82H93.6v1.53c0,0.1,0,0.19,0.01,0.28c0.01,0.08,0.02,0.16,0.05,0.22
			c0.03,0.06,0.08,0.11,0.14,0.15c0.06,0.04,0.15,0.06,0.26,0.06c0.07,0,0.15-0.01,0.23-0.03c0.08-0.02,0.15-0.04,0.22-0.08
			l0.02,0.46c-0.09,0.04-0.18,0.07-0.29,0.08s-0.21,0.03-0.31,0.03c-0.18,0-0.33-0.03-0.44-0.07s-0.2-0.12-0.26-0.2
			c-0.06-0.09-0.1-0.19-0.12-0.32c-0.02-0.13-0.03-0.27-0.03-0.43v-1.68h-0.67v-0.43h0.67v-0.87h0.51v0.87h0.91V333.82z"/>
	</g>
	<polygon class="st3" points="75.03,305.67 79.12,305.67 86.9,312.13 95.21,305.67 99.17,305.67 99.17,328.99 75.03,328.99 	"/>
	<polygon class="st3" points="124.11,328.99 100.51,328.99 112.31,305.67 	"/>
	<g>
		<path class="st3" d="M172.31,328.79v-17.27h-3.95v-5.85h18.69v5.85h-3.95v17.27H172.31z"/>
	</g>
	<path class="st3" d="M73.18,305.67H71h-9.08c-1.12,0-2.18,0.21-3.18,0.63c-0.97,0.41-1.83,0.97-2.55,1.67
		c-0.73,0.71-1.31,1.54-1.73,2.47c-0.43,0.96-0.65,1.99-0.65,3.07c0,1.08,0.22,2.11,0.65,3.07c0.42,0.94,1,1.77,1.73,2.48
		c0.73,0.71,1.59,1.27,2.56,1.67c0.21,0.09,0.42,0.17,0.64,0.24h-2.29h-2.18v2.1v3.83v2.1h2.18h8.79c1.12,0,2.18-0.21,3.18-0.63
		c0.97-0.41,1.83-0.97,2.56-1.68c0.73-0.71,1.31-1.54,1.73-2.48c0.42-0.95,0.64-1.98,0.64-3.06c0-1.07-0.22-2.1-0.64-3.06
		c-0.42-0.94-1-1.78-1.73-2.49c-0.73-0.71-1.6-1.27-2.58-1.67c-0.22-0.09-0.43-0.17-0.65-0.24H71h2.18v-2.1v-3.82L73.18,305.67
		L73.18,305.67z"/>
</g>
</svg>
