<?xml version="1.0" encoding="utf-8"?>
<!-- Generator: Adobe Illustrator 25.2.1, SVG Export Plug-In . SVG Version: 6.00 Build 0)  -->
<svg version="1.1" id="Laag_1" xmlns="http://www.w3.org/2000/svg" xmlns:xlink="http://www.w3.org/1999/xlink" x="0px" y="0px"
	 viewBox="0 0 1374 1374" style="enable-background:new 0 0 1374 1374;" xml:space="preserve">
<style type="text/css">
	.st0{fill:none;stroke:#0A0C06;stroke-width:10;stroke-linejoin:bevel;stroke-miterlimit:22.9256;}
	.st1{fill:#F28A19;}
	.st2{fill:#553289;}
	.st3{fill:#0066FF;stroke:#0A0C06;stroke-width:10;stroke-linejoin:bevel;stroke-miterlimit:22.9256;}
</style>
<g>
	<line class="st0" x1="522.2" y1="439.8" x2="522.4" y2="439.7"/>
	<line class="st0" x1="523.5" y1="439" x2="523.7" y2="438.8"/>
	<line class="st0" x1="861.6" y1="439.7" x2="861.8" y2="439.8"/>
	<line class="st0" x1="1167.9" y1="233.6" x2="1167.9" y2="1140.4"/>
	<path class="st0" d="M1011.4,687c0-114.1-60.9-219.6-159.7-276.6s-220.6-57.1-319.4,0c-96.2,55.5-159.7,164-159.7,276.6"/>
	<path class="st0" d="M372.6,687c0,176.4,143,319.4,319.4,319.4s319.4-143,319.4-319.4"/>
	<line class="st0" x1="230.2" y1="212.8" x2="238.6" y2="211.1"/>
	<path class="st0" d="M230.2,212.8c-5.7,2.3-10.2,6.8-12.5,12.5"/>
	<line class="st0" x1="216.1" y1="233.6" x2="217.8" y2="225.2"/>
	<line class="st0" x1="238.6" y1="211.1" x2="1145.4" y2="211.1"/>
	<line class="st0" x1="1145.4" y1="1162.9" x2="238.6" y2="1162.9"/>
	<path class="st0" d="M1153.8,1161.2c5.7-2.3,10.2-6.8,12.5-12.5"/>
	<line class="st0" x1="1153.8" y1="1161.2" x2="1145.4" y2="1162.9"/>
	<line class="st0" x1="1167.9" y1="1140.4" x2="1166.2" y2="1148.8"/>
	<line class="st0" x1="1145.4" y1="211.1" x2="1153.8" y2="212.8"/>
	<path class="st0" d="M1166.2,225.2c-2.3-5.7-6.8-10.2-12.5-12.5"/>
	<line class="st0" x1="1166.2" y1="225.2" x2="1167.9" y2="233.6"/>
	<line class="st0" x1="77.4" y1="5" x2="1306.6" y2="5"/>
	<line class="st0" x1="1374" y1="72.4" x2="1374" y2="1301.6"/>
	<line class="st0" x1="1306.6" y1="1369" x2="77.4" y2="1369"/>
	<line class="st0" x1="10" y1="1301.6" x2="10" y2="72.4"/>
	<path class="st0" d="M1374,72.4c0-17.9-7.1-35-19.7-47.7C1341.6,12.1,1324.5,5,1306.6,5"/>
	<path class="st0" d="M1306.6,1369c17.9,0,35-7.1,47.6-19.7c12.6-12.6,19.7-29.8,19.7-47.6"/>
	<path class="st0" d="M10,1301.6c0,17.9,7.1,35,19.7,47.7s29.8,19.7,47.6,19.7"/>
	<path class="st0" d="M77.4,5c-17.9,0-35,7.1-47.7,19.7C17.1,37.4,10,54.5,10,72.4"/>
	<line class="st0" x1="216.1" y1="1140.4" x2="216.1" y2="233.6"/>
	<line class="st0" x1="238.6" y1="1162.9" x2="230.2" y2="1161.2"/>
	<path class="st0" d="M217.8,1148.8c2.3,5.7,6.8,10.2,12.5,12.5"/>
	<line class="st0" x1="217.8" y1="1148.8" x2="216.1" y2="1140.4"/>
</g>
<g>
	<path class="st1" d="M743.9,1213.7h-3.5v-2.8c0-10.8-8.8-19.5-19.6-19.5H720c-10.7,0-19.3,8.6-19.3,19.2v3.2v39.5h39.7h2.5
		c11,0,20-8.9,20-19.8v-0.8C762.9,1222.1,754.4,1213.7,743.9,1213.7"/>
	<path class="st1" d="M599.7,1190.6c-17.5,0-31.8,14.1-31.8,31.6s14.2,31.6,31.8,31.6c17.5,0,31.8-14.1,31.8-31.6
		S617.3,1190.6,599.7,1190.6"/>
	<path class="st1" d="M540.7,1191.6h-28.7l-0.1,61.2h53.4l0,0c0-7.2-3.7-13.6-9.3-17.2c5.8-4.5,9.5-11.5,9.5-19.4
		C565.4,1202.6,554.3,1191.6,540.7,1191.6"/>
	<path class="st1" d="M729.6,1257.3h-28.7l-0.1,61.3h53.4l0,0c0-7.2-3.7-13.6-9.3-17.3c5.8-4.5,9.5-11.5,9.5-19.4
		C754.3,1268.3,743.2,1257.3,729.6,1257.3"/>
	<path class="st1" d="M787,1257.3h-28.7l-0.1,61.3h53.4l0,0c0-7.2-3.7-13.6-9.3-17.3c5.8-4.5,9.5-11.5,9.5-19.4
		C811.8,1268.3,800.7,1257.3,787,1257.3"/>
	<path class="st1" d="M678.3,1213.7h-3.5v-2.8c0-10.8-8.8-19.5-19.6-19.5h-0.8c-10.7,0-19.3,8.6-19.3,19.2v3.2v39.5h39.7h2.5
		c11,0,20-8.9,20-19.8v-0.8C697.2,1222.1,688.8,1213.7,678.3,1213.7"/>
	<g>
		<path class="st2" d="M521.8,1338.3h-1.3l-2.3-6.2h0l-2,6.2h-1.4l-2.6-8.1h1.5l1.8,6.2h0l2.1-6.2h1.4l2.1,6.2h0l1.8-6.2h1.5
			L521.8,1338.3z"/>
		<path class="st2" d="M533.2,1336.8c-0.5,0.6-1,1.1-1.6,1.3c-0.6,0.2-1.2,0.4-2,0.4c-0.6,0-1.2-0.1-1.7-0.3
			c-0.5-0.2-0.9-0.5-1.3-0.9c-0.3-0.4-0.6-0.8-0.8-1.3c-0.2-0.5-0.3-1.1-0.3-1.7c0-0.6,0.1-1.2,0.3-1.7c0.2-0.5,0.5-1,0.9-1.3
			c0.4-0.4,0.8-0.7,1.3-0.9c0.5-0.2,1.1-0.3,1.7-0.3c0.6,0,1.1,0.1,1.6,0.3c0.5,0.2,0.9,0.5,1.2,0.8s0.6,0.8,0.8,1.3
			c0.2,0.5,0.3,1.1,0.3,1.8v0.4h-6.5c0,0.3,0.1,0.7,0.2,1c0.1,0.3,0.3,0.6,0.6,0.8s0.5,0.4,0.8,0.6s0.7,0.2,1,0.2
			c0.6,0,1.1-0.1,1.5-0.3c0.4-0.2,0.8-0.5,1.1-0.9L533.2,1336.8z M532,1333.5c0-0.7-0.2-1.2-0.7-1.7c-0.4-0.4-1-0.6-1.8-0.6
			s-1.4,0.2-1.8,0.6s-0.7,1-0.8,1.7H532z"/>
		<path class="st2" d="M540.5,1325.3h1.3v13h-1.3V1325.3z"/>
		<path class="st2" d="M544,1334.2c0-0.6,0.1-1.2,0.3-1.7c0.2-0.5,0.5-1,0.9-1.3s0.8-0.7,1.4-0.9c0.5-0.2,1.1-0.3,1.7-0.3
			s1.2,0.1,1.7,0.3c0.5,0.2,1,0.5,1.4,0.9s0.7,0.8,0.9,1.3c0.2,0.5,0.3,1.1,0.3,1.7s-0.1,1.2-0.3,1.7c-0.2,0.5-0.5,1-0.9,1.3
			s-0.8,0.7-1.4,0.9c-0.5,0.2-1.1,0.3-1.7,0.3c-0.6,0-1.2-0.1-1.7-0.3c-0.5-0.2-1-0.5-1.4-0.9s-0.7-0.8-0.9-1.3
			C544.2,1335.4,544,1334.9,544,1334.2z M545.5,1334.2c0,0.4,0.1,0.8,0.2,1.2s0.3,0.7,0.6,0.9c0.2,0.3,0.6,0.5,0.9,0.6
			s0.7,0.2,1.2,0.2s0.8-0.1,1.2-0.2s0.7-0.4,0.9-0.6s0.5-0.6,0.6-0.9s0.2-0.8,0.2-1.2s-0.1-0.8-0.2-1.2s-0.3-0.7-0.6-0.9
			c-0.2-0.3-0.6-0.5-0.9-0.6s-0.7-0.2-1.2-0.2s-0.8,0.1-1.2,0.2s-0.7,0.4-0.9,0.6s-0.5,0.6-0.6,0.9
			C545.6,1333.4,545.5,1333.8,545.5,1334.2z"/>
		<path class="st2" d="M558.5,1338.3H557l-3.3-8.1h1.6l2.5,6.3h0l2.4-6.3h1.5L558.5,1338.3z"/>
		<path class="st2" d="M570.4,1336.8c-0.5,0.6-1,1.1-1.6,1.3c-0.6,0.2-1.2,0.4-2,0.4c-0.6,0-1.2-0.1-1.7-0.3
			c-0.5-0.2-0.9-0.5-1.3-0.9c-0.3-0.4-0.6-0.8-0.8-1.3c-0.2-0.5-0.3-1.1-0.3-1.7c0-0.6,0.1-1.2,0.3-1.7c0.2-0.5,0.5-1,0.9-1.3
			c0.4-0.4,0.8-0.7,1.3-0.9c0.5-0.2,1.1-0.3,1.7-0.3c0.6,0,1.1,0.1,1.6,0.3c0.5,0.2,0.9,0.5,1.2,0.8c0.3,0.4,0.6,0.8,0.8,1.3
			c0.2,0.5,0.3,1.1,0.3,1.8v0.4h-6.5c0,0.3,0.1,0.7,0.2,1c0.1,0.3,0.3,0.6,0.6,0.8s0.5,0.4,0.8,0.6s0.7,0.2,1,0.2
			c0.6,0,1.1-0.1,1.5-0.3c0.4-0.2,0.8-0.5,1.1-0.9L570.4,1336.8z M569.2,1333.5c0-0.7-0.2-1.2-0.7-1.7c-0.4-0.4-1-0.6-1.8-0.6
			s-1.4,0.2-1.8,0.6s-0.7,1-0.8,1.7H569.2z"/>
		<path class="st2" d="M577.8,1336.2c0.3,0.3,0.6,0.6,0.9,0.8c0.3,0.2,0.7,0.3,1.2,0.3c0.2,0,0.4,0,0.6-0.1s0.4-0.1,0.6-0.2
			s0.3-0.2,0.4-0.4c0.1-0.2,0.2-0.3,0.2-0.6c0-0.2,0-0.4-0.2-0.5s-0.2-0.2-0.4-0.4c-0.2-0.1-0.3-0.2-0.5-0.2
			c-0.2-0.1-0.4-0.1-0.6-0.2c-0.4-0.1-0.7-0.2-1.1-0.3c-0.3-0.1-0.7-0.2-0.9-0.4c-0.3-0.2-0.5-0.4-0.6-0.6c-0.2-0.3-0.2-0.6-0.2-1
			c0-0.4,0.1-0.7,0.3-1s0.4-0.6,0.7-0.7s0.6-0.3,1-0.4s0.7-0.2,1.1-0.2c0.6,0,1.1,0.1,1.6,0.3c0.5,0.2,0.9,0.6,1.2,1.1l-1.1,0.7
			c-0.2-0.3-0.4-0.5-0.7-0.7c-0.3-0.2-0.6-0.3-1-0.3c-0.2,0-0.4,0-0.6,0.1s-0.4,0.1-0.5,0.2s-0.3,0.2-0.4,0.4
			c-0.1,0.1-0.2,0.3-0.2,0.5c0,0.2,0,0.3,0.2,0.4s0.3,0.2,0.5,0.3s0.4,0.2,0.7,0.2s0.5,0.1,0.8,0.2c0.4,0.1,0.7,0.2,1,0.3
			s0.6,0.2,0.8,0.4s0.4,0.4,0.6,0.7c0.1,0.3,0.2,0.6,0.2,1c0,0.5-0.1,0.8-0.3,1.2c-0.2,0.3-0.4,0.6-0.7,0.8s-0.7,0.3-1,0.4
			c-0.4,0.1-0.8,0.1-1.2,0.1c-0.7,0-1.3-0.1-1.8-0.3c-0.5-0.2-1-0.6-1.4-1.2L577.8,1336.2z"/>
		<path class="st2" d="M585,1332.1c0-0.4,0-0.7,0-1c0-0.3,0-0.6,0-0.9h1.3c0,0.2,0,0.4,0,0.7c0,0.2,0,0.4,0,0.7h0
			c0.1-0.2,0.2-0.4,0.4-0.6s0.4-0.3,0.6-0.5c0.2-0.1,0.5-0.3,0.8-0.3c0.3-0.1,0.6-0.1,0.9-0.1c0.4,0,0.8,0.1,1.1,0.2
			c0.3,0.1,0.5,0.2,0.7,0.4c0.2,0.2,0.3,0.3,0.5,0.5c0.1,0.2,0.2,0.3,0.3,0.5c0.3-0.5,0.7-0.9,1-1.1c0.4-0.3,0.9-0.4,1.5-0.4
			c0.6,0,1.1,0.1,1.5,0.2s0.7,0.4,1,0.7c0.2,0.3,0.4,0.7,0.5,1.1c0.1,0.4,0.2,0.9,0.2,1.4v4.9h-1.3v-4.8c0-0.3,0-0.6-0.1-0.8
			c-0.1-0.3-0.2-0.5-0.3-0.7c-0.2-0.2-0.3-0.4-0.6-0.5s-0.6-0.2-1-0.2c-0.3,0-0.6,0.1-0.8,0.2c-0.2,0.1-0.5,0.3-0.7,0.5
			c-0.2,0.2-0.3,0.5-0.5,0.8c-0.1,0.3-0.2,0.6-0.2,1v4.7h-1.3v-4.6c0-0.9-0.1-1.5-0.4-1.9c-0.2-0.4-0.6-0.6-1.2-0.6
			c-0.4,0-0.8,0.1-1.1,0.2c-0.3,0.2-0.6,0.4-0.8,0.6c-0.2,0.3-0.3,0.6-0.5,1c-0.1,0.4-0.2,0.8-0.2,1.3v3.9H585L585,1332.1
			L585,1332.1L585,1332.1z"/>
		<path class="st2" d="M599.6,1331.2c0.4-0.4,0.9-0.7,1.5-0.9s1.2-0.3,1.7-0.3c1.2,0,2.1,0.3,2.6,0.8c0.5,0.6,0.8,1.4,0.8,2.6v3.5
			c0,0.2,0,0.5,0,0.7c0,0.2,0,0.5,0.1,0.7h-1.3c0-0.2-0.1-0.4-0.1-0.6c0-0.2,0-0.4,0-0.6h0c-0.3,0.4-0.6,0.8-1.1,1
			c-0.5,0.3-1,0.4-1.6,0.4c-0.4,0-0.8-0.1-1.2-0.2c-0.4-0.1-0.7-0.2-1-0.5c-0.3-0.2-0.5-0.4-0.7-0.8c-0.2-0.3-0.2-0.6-0.2-1
			c0-0.7,0.2-1.2,0.5-1.6c0.3-0.4,0.8-0.7,1.3-0.8c0.5-0.2,1.1-0.3,1.7-0.3c0.6,0,1.1-0.1,1.6-0.1h0.5v-0.2c0-0.6-0.2-1-0.5-1.3
			c-0.3-0.3-0.8-0.4-1.5-0.4c-0.4,0-0.9,0.1-1.3,0.2s-0.8,0.4-1.1,0.7L599.6,1331.2z M603.5,1334.4c-0.9,0-1.5,0.1-2.1,0.4
			s-0.8,0.6-0.8,1.2c0,0.5,0.2,0.9,0.5,1.1c0.3,0.2,0.8,0.3,1.3,0.3c0.4,0,0.7-0.1,1-0.2c0.3-0.1,0.5-0.3,0.7-0.5
			c0.2-0.2,0.3-0.5,0.5-0.8c0.1-0.3,0.2-0.6,0.2-0.9v-0.5L603.5,1334.4L603.5,1334.4z"/>
		<path class="st2" d="M608.7,1332.1c0-0.4,0-0.7,0-1c0-0.3,0-0.6,0-0.9h1.3c0,0.2,0,0.4,0,0.7c0,0.2,0,0.4,0,0.7h0
			c0.1-0.2,0.2-0.4,0.4-0.6s0.4-0.3,0.6-0.5s0.5-0.3,0.8-0.3c0.3-0.1,0.6-0.1,0.9-0.1c0.1,0,0.2,0,0.3,0c0.1,0,0.2,0,0.3,0.1
			l-0.1,1.4c-0.2-0.1-0.5-0.1-0.7-0.1c-0.8,0-1.4,0.3-1.8,0.8s-0.6,1.3-0.6,2.2v3.9h-1.3L608.7,1332.1L608.7,1332.1L608.7,1332.1z"
			/>
		<path class="st2" d="M619.2,1331.3h-2.4v4c0,0.3,0,0.5,0,0.7c0,0.2,0.1,0.4,0.1,0.6c0.1,0.2,0.2,0.3,0.4,0.4s0.4,0.2,0.7,0.2
			c0.2,0,0.4,0,0.6-0.1c0.2,0,0.4-0.1,0.6-0.2l0,1.2c-0.2,0.1-0.5,0.2-0.8,0.2s-0.5,0.1-0.8,0.1c-0.5,0-0.9-0.1-1.2-0.2
			c-0.3-0.1-0.5-0.3-0.7-0.5c-0.2-0.2-0.3-0.5-0.3-0.8s-0.1-0.7-0.1-1.1v-4.4h-1.8v-1.1h1.8v-2.3h1.3v2.3h2.4L619.2,1331.3
			L619.2,1331.3z"/>
	</g>
	<polygon class="st1" points="568,1257.3 578.7,1257.3 599.2,1274.3 621.1,1257.3 631.5,1257.3 631.5,1318.6 568,1318.6 	"/>
	<polygon class="st1" points="697.1,1318.6 635,1318.6 666.1,1257.3 	"/>
	<g>
		<path class="st1" d="M824,1318.1v-45.4h-10.4v-15.4h49.2v15.4h-10.4v45.4H824z"/>
	</g>
	<path class="st1" d="M563.1,1257.3h-5.7h-23.9c-2.9,0-5.7,0.6-8.4,1.7c-2.5,1.1-4.8,2.6-6.7,4.4c-1.9,1.9-3.5,4-4.6,6.5
		c-1.1,2.5-1.7,5.2-1.7,8.1s0.6,5.6,1.7,8.1c1.1,2.5,2.6,4.7,4.6,6.5s4.2,3.3,6.7,4.4c0.5,0.2,1.1,0.4,1.7,0.6h-6H515v5.5v10.1v5.5
		h5.7h23.1c2.9,0,5.7-0.6,8.4-1.7c2.5-1.1,4.8-2.6,6.8-4.4s3.5-4.1,4.5-6.5c1.1-2.5,1.7-5.2,1.7-8.1c0-2.8-0.6-5.5-1.7-8.1
		c-1.1-2.5-2.6-4.7-4.6-6.5c-1.9-1.9-4.2-3.3-6.8-4.4c-0.6-0.2-1.1-0.4-1.7-0.6h6.9h5.7v-5.5v-10.1L563.1,1257.3L563.1,1257.3z"/>
</g>
<circle class="st3" cx="692" cy="687" r="319.4"/>
</svg>
