<?xml version="1.0" encoding="utf-8"?>
<!-- Generator: Adobe Illustrator 24.2.1, SVG Export Plug-In . SVG Version: 6.00 Build 0)  -->
<svg version="1.1" id="Laag_1" xmlns="http://www.w3.org/2000/svg" xmlns:xlink="http://www.w3.org/1999/xlink" x="0px" y="0px"
	 viewBox="0 0 1374 1374" style="enable-background:new 0 0 1374 1374;" xml:space="preserve">
<style type="text/css">
	.st0{fill:none;stroke:#0A0C06;stroke-width:10;stroke-linejoin:bevel;stroke-miterlimit:22.9256;}
	.st1{fill:#F28A19;}
	.st2{fill:#553289;}
</style>
<g>
	<line class="st0" x1="517.24" y1="439.81" x2="517.43" y2="439.68"/>
	<line class="st0" x1="518.45" y1="438.99" x2="518.73" y2="438.79"/>
	<line class="st0" x1="856.58" y1="439.68" x2="856.76" y2="439.81"/>
	<line class="st0" x1="1162.86" y1="233.63" x2="1162.86" y2="1140.37"/>
	<path class="st0" d="M1006.42,687c0-114.11-60.88-219.56-159.71-276.62s-220.59-57.06-319.42,0
		c-98.82,57.05-159.7,162.5-159.7,276.62"/>
	<path class="st0" d="M367.59,687c0,176.41,143.01,319.42,319.42,319.42s319.41-143.01,319.42-319.41"/>
	<line class="st0" x1="225.23" y1="212.76" x2="233.63" y2="211.14"/>
	<path class="st0" d="M225.23,212.76c-5.66,2.31-10.16,6.8-12.47,12.47"/>
	<line class="st0" x1="211.14" y1="233.63" x2="212.76" y2="225.23"/>
	<line class="st0" x1="233.63" y1="211.14" x2="1140.38" y2="211.14"/>
	<line class="st0" x1="1140.38" y1="1162.86" x2="233.63" y2="1162.86"/>
	<path class="st0" d="M1148.77,1161.24c5.68-2.28,10.18-6.79,12.47-12.47"/>
	<line class="st0" x1="1148.77" y1="1161.24" x2="1140.38" y2="1162.86"/>
	<line class="st0" x1="1162.86" y1="1140.37" x2="1161.24" y2="1148.77"/>
	<line class="st0" x1="1140.38" y1="211.14" x2="1148.77" y2="212.76"/>
	<path class="st0" d="M1161.24,225.23c-2.31-5.67-6.8-10.16-12.47-12.47"/>
	<line class="st0" x1="1161.24" y1="225.23" x2="1162.86" y2="233.63"/>
	<line class="st0" x1="72.38" y1="5" x2="1301.63" y2="5"/>
	<line class="st0" x1="1369" y1="72.37" x2="1369" y2="1301.62"/>
	<line class="st0" x1="1301.63" y1="1369" x2="72.38" y2="1369"/>
	<line class="st0" x1="5" y1="1301.62" x2="5" y2="72.37"/>
	<path class="st0" d="M1369,72.37c0-17.87-7.09-35.01-19.73-47.65C1336.64,12.09,1319.5,4.99,1301.63,5"/>
	<path class="st0" d="M1301.63,1369c17.87,0,35.01-7.09,47.64-19.73c12.64-12.64,19.73-29.77,19.73-47.64"/>
	<path class="st0" d="M5,1301.62c0,17.87,7.09,35.01,19.73,47.65S54.51,1369,72.38,1369"/>
	<path class="st0" d="M72.38,5c-17.87-0.01-35.01,7.09-47.65,19.73C12.1,37.37,5,54.5,5,72.37"/>
	<line class="st0" x1="211.14" y1="1140.37" x2="211.14" y2="233.63"/>
	<line class="st0" x1="233.63" y1="1162.86" x2="225.23" y2="1161.24"/>
	<path class="st0" d="M212.76,1148.77c2.31,5.66,6.8,10.16,12.47,12.47"/>
	<line class="st0" x1="212.76" y1="1148.77" x2="211.14" y2="1140.37"/>
</g>
<g>
	<path class="st1" d="M743.94,1213.66h-3.51v-2.84c0-10.79-8.79-19.53-19.64-19.53h-0.78c-10.66,0-19.29,8.59-19.29,19.18v3.18
		v39.48h39.72h2.54c11.02,0,19.95-8.88,19.95-19.83v-0.78C762.92,1222.11,754.43,1213.66,743.94,1213.66"/>
	<path class="st1" d="M599.73,1190.64c-17.54,0-31.77,14.14-31.77,31.58s14.22,31.58,31.77,31.58c17.54,0,31.77-14.14,31.77-31.58
		S617.27,1190.64,599.73,1190.64"/>
	<path class="st1" d="M540.67,1191.63h-28.74l-0.11,61.19h53.41l0,0c0-7.21-3.72-13.55-9.34-17.25c5.79-4.5,9.51-11.5,9.51-19.36
		C565.39,1202.63,554.32,1191.63,540.67,1191.63"/>
	<path class="st1" d="M729.56,1257.29h-28.74l-0.11,61.31h53.41l0,0c0-7.22-3.72-13.58-9.34-17.28c5.79-4.51,9.51-11.52,9.51-19.4
		C754.28,1268.31,743.22,1257.29,729.56,1257.29"/>
	<path class="st1" d="M787.04,1257.29H758.3l-0.11,61.31h53.41l0,0c0-7.22-3.72-13.58-9.34-17.28c5.79-4.51,9.51-11.52,9.51-19.4
		C811.77,1268.31,800.7,1257.29,787.04,1257.29"/>
	<path class="st1" d="M678.27,1213.66h-3.51v-2.84c0-10.79-8.79-19.53-19.64-19.53h-0.79c-10.66,0-19.29,8.59-19.29,19.18v3.18
		v39.48h39.72h2.54c11.02,0,19.95-8.88,19.95-19.83v-0.78C697.25,1222.11,688.75,1213.66,678.27,1213.66"/>
	<g>
		<path class="st2" d="M521.78,1338.27h-1.33l-2.3-6.2h-0.04l-2.04,6.2h-1.39l-2.63-8.05h1.49l1.85,6.2h0.04l2.09-6.2h1.42l2.13,6.2
			h0.04l1.83-6.2h1.45L521.78,1338.27z"/>
		<path class="st2" d="M533.16,1336.81c-0.48,0.62-1.01,1.05-1.59,1.3c-0.58,0.24-1.24,0.37-2.01,0.37c-0.63,0-1.21-0.11-1.71-0.33
			c-0.51-0.22-0.94-0.53-1.29-0.9c-0.35-0.38-0.63-0.83-0.81-1.34c-0.19-0.52-0.28-1.07-0.28-1.65c0-0.62,0.1-1.19,0.31-1.71
			c0.21-0.53,0.5-0.97,0.86-1.34c0.37-0.37,0.8-0.67,1.32-0.87c0.51-0.21,1.06-0.31,1.66-0.31c0.57,0,1.09,0.1,1.56,0.28
			c0.48,0.19,0.88,0.47,1.22,0.83s0.6,0.81,0.79,1.33c0.19,0.53,0.28,1.12,0.28,1.78v0.43h-6.55c0.02,0.34,0.1,0.67,0.25,0.99
			c0.14,0.32,0.34,0.59,0.57,0.83c0.23,0.24,0.5,0.42,0.81,0.56c0.31,0.14,0.66,0.21,1.02,0.21c0.59,0,1.09-0.1,1.49-0.31
			c0.4-0.21,0.77-0.51,1.09-0.91L533.16,1336.81z M532,1333.52c-0.02-0.69-0.25-1.24-0.68-1.65c-0.42-0.41-1.01-0.62-1.76-0.62
			s-1.36,0.21-1.82,0.62c-0.46,0.41-0.74,0.96-0.83,1.65H532z"/>
		<path class="st2" d="M540.48,1325.26h1.35v13.01h-1.35V1325.26z"/>
		<path class="st2" d="M544.05,1334.25c0-0.63,0.11-1.21,0.33-1.72c0.22-0.52,0.52-0.96,0.9-1.33c0.38-0.37,0.83-0.67,1.37-0.87
			c0.53-0.21,1.11-0.31,1.74-0.31c0.63,0,1.2,0.1,1.73,0.31c0.53,0.21,0.99,0.5,1.37,0.87c0.38,0.37,0.68,0.81,0.9,1.33
			c0.22,0.52,0.33,1.09,0.33,1.72s-0.11,1.21-0.33,1.72c-0.22,0.52-0.52,0.96-0.9,1.33c-0.38,0.37-0.83,0.66-1.37,0.87
			c-0.53,0.21-1.11,0.31-1.73,0.31c-0.63,0-1.2-0.1-1.74-0.31c-0.53-0.21-0.99-0.5-1.37-0.87c-0.38-0.37-0.68-0.81-0.9-1.33
			C544.16,1335.45,544.05,1334.88,544.05,1334.25z M545.51,1334.25c0,0.42,0.07,0.81,0.2,1.18s0.33,0.67,0.58,0.95
			c0.25,0.27,0.56,0.48,0.91,0.64c0.35,0.16,0.74,0.23,1.18,0.23c0.44,0,0.83-0.07,1.18-0.23c0.35-0.16,0.66-0.37,0.91-0.64
			s0.45-0.58,0.58-0.95s0.2-0.76,0.2-1.18c0-0.42-0.07-0.81-0.2-1.18s-0.33-0.67-0.58-0.95c-0.25-0.27-0.56-0.48-0.91-0.64
			c-0.35-0.16-0.74-0.23-1.18-0.23c-0.44,0-0.83,0.07-1.18,0.23c-0.35,0.16-0.66,0.37-0.91,0.64c-0.25,0.27-0.45,0.58-0.58,0.95
			C545.57,1333.43,545.51,1333.82,545.51,1334.25z"/>
		<path class="st2" d="M558.49,1338.27H557l-3.31-8.05h1.58l2.53,6.31h0.04l2.41-6.31h1.45L558.49,1338.27z"/>
		<path class="st2" d="M570.39,1336.81c-0.48,0.62-1.01,1.05-1.59,1.3c-0.58,0.24-1.24,0.37-2.01,0.37c-0.63,0-1.21-0.11-1.71-0.33
			c-0.51-0.22-0.94-0.53-1.29-0.9c-0.35-0.38-0.63-0.83-0.81-1.34c-0.19-0.52-0.28-1.07-0.28-1.65c0-0.62,0.1-1.19,0.31-1.71
			c0.21-0.53,0.5-0.97,0.86-1.34c0.37-0.37,0.8-0.67,1.32-0.87c0.51-0.21,1.06-0.31,1.66-0.31c0.57,0,1.09,0.1,1.56,0.28
			c0.48,0.19,0.88,0.47,1.22,0.83c0.34,0.36,0.6,0.81,0.79,1.33c0.19,0.53,0.28,1.12,0.28,1.78v0.43h-6.55
			c0.02,0.34,0.1,0.67,0.25,0.99c0.14,0.32,0.34,0.59,0.57,0.83c0.23,0.24,0.5,0.42,0.81,0.56c0.31,0.14,0.66,0.21,1.02,0.21
			c0.59,0,1.09-0.1,1.49-0.31c0.4-0.21,0.77-0.51,1.09-0.91L570.39,1336.81z M569.22,1333.52c-0.02-0.69-0.25-1.24-0.68-1.65
			c-0.42-0.41-1.01-0.62-1.76-0.62s-1.36,0.21-1.82,0.62c-0.46,0.41-0.74,0.96-0.83,1.65H569.22z"/>
		<path class="st2" d="M577.76,1336.16c0.27,0.33,0.56,0.6,0.87,0.79c0.32,0.19,0.71,0.29,1.21,0.29c0.21,0,0.42-0.02,0.63-0.07
			s0.41-0.12,0.58-0.22s0.31-0.23,0.42-0.38c0.1-0.16,0.16-0.34,0.16-0.56c0-0.21-0.05-0.39-0.15-0.53s-0.23-0.25-0.39-0.36
			c-0.16-0.1-0.35-0.18-0.55-0.23c-0.21-0.06-0.42-0.11-0.64-0.16c-0.38-0.08-0.74-0.17-1.09-0.27c-0.34-0.1-0.65-0.24-0.91-0.41
			c-0.26-0.16-0.47-0.38-0.63-0.64c-0.16-0.27-0.23-0.6-0.23-1.01c0-0.39,0.09-0.73,0.26-1.03c0.17-0.3,0.4-0.55,0.69-0.74
			c0.29-0.19,0.61-0.34,0.97-0.44c0.36-0.1,0.73-0.16,1.11-0.16c0.57,0,1.11,0.12,1.6,0.34c0.49,0.23,0.87,0.6,1.15,1.12l-1.12,0.74
			c-0.17-0.29-0.4-0.52-0.69-0.7c-0.28-0.18-0.63-0.27-1.03-0.27c-0.19,0-0.37,0.02-0.57,0.07s-0.36,0.12-0.51,0.21
			c-0.15,0.09-0.28,0.21-0.37,0.36c-0.1,0.14-0.15,0.31-0.15,0.49c0,0.17,0.05,0.32,0.16,0.44c0.11,0.12,0.26,0.23,0.45,0.32
			c0.19,0.09,0.41,0.17,0.66,0.24c0.25,0.07,0.51,0.13,0.77,0.17c0.36,0.07,0.7,0.16,1.02,0.27c0.32,0.11,0.6,0.25,0.85,0.44
			c0.25,0.19,0.43,0.41,0.57,0.69c0.14,0.27,0.21,0.61,0.21,1.01c0,0.46-0.09,0.85-0.28,1.17c-0.19,0.32-0.43,0.58-0.74,0.78
			s-0.66,0.35-1.04,0.44c-0.39,0.09-0.78,0.14-1.18,0.14c-0.69,0-1.29-0.1-1.79-0.32c-0.5-0.21-0.95-0.61-1.36-1.18L577.76,1336.16z
			"/>
		<path class="st2" d="M584.96,1332.13c0-0.37-0.01-0.71-0.04-1.03c-0.02-0.32-0.04-0.61-0.04-0.88h1.28c0,0.21,0.01,0.44,0.01,0.65
			c0.01,0.21,0.01,0.44,0.01,0.67h0.04c0.09-0.19,0.22-0.38,0.39-0.57s0.36-0.35,0.6-0.49c0.23-0.14,0.49-0.26,0.78-0.34
			c0.29-0.09,0.6-0.13,0.94-0.13c0.44,0,0.8,0.05,1.1,0.16c0.29,0.11,0.54,0.24,0.74,0.39c0.19,0.16,0.35,0.32,0.46,0.5
			c0.11,0.18,0.2,0.33,0.27,0.47c0.3-0.48,0.65-0.86,1.04-1.13c0.39-0.27,0.9-0.41,1.53-0.41c0.57,0,1.06,0.07,1.45,0.23
			c0.39,0.16,0.71,0.38,0.95,0.67c0.25,0.29,0.42,0.65,0.52,1.07c0.1,0.42,0.16,0.89,0.16,1.4v4.89h-1.35v-4.82
			c0-0.27-0.03-0.55-0.09-0.81c-0.06-0.27-0.16-0.5-0.31-0.7c-0.15-0.21-0.35-0.37-0.6-0.5s-0.58-0.19-0.97-0.19
			c-0.29,0-0.56,0.06-0.81,0.17c-0.25,0.12-0.48,0.27-0.66,0.48c-0.19,0.21-0.34,0.46-0.45,0.75c-0.11,0.3-0.16,0.61-0.16,0.97v4.65
			h-1.35v-4.56c0-0.9-0.12-1.53-0.36-1.9c-0.25-0.37-0.64-0.56-1.19-0.56c-0.44,0-0.82,0.07-1.13,0.22
			c-0.32,0.15-0.58,0.36-0.78,0.64c-0.2,0.27-0.35,0.6-0.45,0.98c-0.1,0.38-0.15,0.8-0.15,1.26v3.92h-1.35v-6.14H584.96z"/>
		<path class="st2" d="M599.61,1331.25c0.42-0.42,0.91-0.74,1.48-0.94c0.57-0.2,1.15-0.3,1.74-0.3c1.2,0,2.06,0.28,2.6,0.84
			c0.53,0.56,0.8,1.42,0.8,2.56v3.46c0,0.23,0.01,0.47,0.04,0.72c0.02,0.24,0.05,0.47,0.09,0.68h-1.3
			c-0.04-0.18-0.07-0.38-0.07-0.61c-0.01-0.22-0.01-0.42-0.01-0.59h-0.04c-0.27,0.41-0.62,0.76-1.06,1.01
			c-0.45,0.27-0.98,0.4-1.6,0.4c-0.42,0-0.8-0.05-1.17-0.16c-0.36-0.1-0.68-0.25-0.95-0.46c-0.27-0.2-0.48-0.45-0.65-0.75
			c-0.16-0.3-0.25-0.64-0.25-1.04c0-0.67,0.17-1.18,0.52-1.57c0.34-0.38,0.77-0.66,1.29-0.84c0.51-0.19,1.06-0.3,1.66-0.34
			c0.6-0.04,1.14-0.07,1.64-0.07h0.52v-0.24c0-0.58-0.18-1.03-0.53-1.33c-0.35-0.3-0.85-0.44-1.48-0.44c-0.44,0-0.87,0.07-1.29,0.21
			c-0.42,0.14-0.8,0.36-1.12,0.66L599.61,1331.25z M603.52,1334.39c-0.86,0-1.55,0.12-2.06,0.36c-0.51,0.24-0.76,0.64-0.76,1.18
			c0,0.5,0.17,0.87,0.51,1.07c0.34,0.21,0.77,0.32,1.27,0.32c0.39,0,0.74-0.07,1.03-0.2c0.3-0.13,0.54-0.31,0.74-0.53
			c0.19-0.21,0.34-0.47,0.45-0.76c0.1-0.3,0.16-0.61,0.17-0.94v-0.52L603.52,1334.39L603.52,1334.39z"/>
		<path class="st2" d="M608.7,1332.13c0-0.37-0.01-0.71-0.04-1.03c-0.02-0.32-0.04-0.61-0.04-0.88h1.28c0,0.21,0.01,0.44,0.01,0.65
			c0.01,0.21,0.01,0.44,0.01,0.67h0.04c0.09-0.19,0.22-0.38,0.39-0.57s0.36-0.35,0.6-0.49s0.49-0.26,0.78-0.34
			c0.29-0.09,0.6-0.13,0.94-0.13c0.09,0,0.19,0.01,0.28,0.01c0.09,0.01,0.19,0.04,0.28,0.07l-0.09,1.36
			c-0.23-0.07-0.48-0.1-0.73-0.1c-0.83,0-1.44,0.27-1.81,0.8c-0.37,0.53-0.57,1.27-0.57,2.19v3.92h-1.35v-6.14H608.7z"/>
		<path class="st2" d="M619.23,1331.35h-2.39v4.03c0,0.27,0.01,0.51,0.01,0.73c0.01,0.22,0.06,0.42,0.14,0.58
			c0.08,0.17,0.2,0.3,0.36,0.4c0.16,0.1,0.39,0.15,0.69,0.15c0.19,0,0.39-0.02,0.6-0.07c0.21-0.04,0.4-0.11,0.59-0.21l0.05,1.22
			c-0.23,0.1-0.48,0.18-0.77,0.22s-0.55,0.07-0.8,0.07c-0.48,0-0.87-0.07-1.16-0.19c-0.29-0.13-0.51-0.3-0.68-0.53
			c-0.16-0.23-0.27-0.51-0.32-0.85c-0.05-0.34-0.07-0.71-0.07-1.13v-4.43h-1.76v-1.14h1.76v-2.29h1.35v2.29h2.39V1331.35z"/>
	</g>
	<polygon class="st1" points="567.96,1257.28 578.73,1257.28 599.19,1274.27 621.08,1257.28 631.49,1257.28 631.49,1318.64 
		567.96,1318.64 	"/>
	<polygon class="st1" points="697.12,1318.64 635.02,1318.64 666.06,1257.29 	"/>
	<g>
		<path class="st1" d="M823.95,1318.11v-45.44h-10.39v-15.38h49.18v15.38h-10.39v45.44H823.95z"/>
	</g>
	<path class="st1" d="M563.1,1257.28h-5.73h-23.9c-2.93,0-5.74,0.56-8.36,1.65c-2.54,1.07-4.8,2.55-6.72,4.4
		c-1.92,1.86-3.46,4.04-4.56,6.49c-1.14,2.52-1.71,5.23-1.71,8.07c0,2.84,0.57,5.55,1.71,8.08c1.1,2.46,2.64,4.66,4.56,6.52
		c1.92,1.86,4.18,3.34,6.72,4.4c0.55,0.23,1.11,0.44,1.68,0.62h-6.03h-5.73v5.53v10.07v5.53h5.73h23.14c2.93,0,5.74-0.56,8.36-1.65
		c2.55-1.07,4.83-2.55,6.75-4.41c1.92-1.86,3.46-4.05,4.55-6.52c1.12-2.51,1.68-5.22,1.68-8.05c0-2.82-0.57-5.53-1.68-8.05
		c-1.09-2.48-2.63-4.69-4.56-6.54c-1.93-1.87-4.21-3.35-6.78-4.4c-0.57-0.23-1.14-0.44-1.72-0.62h6.87h5.73v-5.53v-10.06
		L563.1,1257.28L563.1,1257.28z"/>
</g>
</svg>
