<?xml version="1.0" encoding="utf-8"?>
<!-- Generator: Adobe Illustrator 27.0.0, SVG Export Plug-In . SVG Version: 6.00 Build 0)  -->
<svg version="1.1" id="Laag_1" xmlns="http://www.w3.org/2000/svg" xmlns:xlink="http://www.w3.org/1999/xlink" x="0px" y="0px"
	 viewBox="0 0 115.01 115.01" style="enable-background:new 0 0 115.01 115.01;" xml:space="preserve">
<style type="text/css">
	.st0{fill:none;}
	.st1{fill:none;stroke:#231916;stroke-miterlimit:22.9256;}
	.st2{fill-rule:evenodd;clip-rule:evenodd;fill:#231916;}
	.st3{fill:#231916;}
	.st4{font-family:'ArialMT';}
	.st5{font-size:10.68px;}
	.st6{font-size:7px;}
</style>
<g>
	<path d="M74.28,44.81c-0.38,0-0.68,0.16-0.91,0.48c-0.29,0.41-0.43,1.17-0.43,2.28s0.13,1.84,0.39,2.21
		c0.26,0.37,0.58,0.55,0.96,0.55s0.7-0.18,0.96-0.55c0.26-0.37,0.39-1.1,0.39-2.21c0-1.11-0.13-1.85-0.39-2.21
		C74.99,44.99,74.67,44.81,74.28,44.81z"/>
	<path d="M69.04,44.81c-0.38,0-0.68,0.16-0.91,0.48c-0.29,0.41-0.43,1.17-0.43,2.28s0.13,1.84,0.39,2.21
		c0.26,0.37,0.58,0.55,0.96,0.55c0.38,0,0.7-0.18,0.96-0.55s0.39-1.1,0.39-2.21c0-1.11-0.13-1.85-0.39-2.21
		C69.75,44.99,69.43,44.81,69.04,44.81z"/>
	<path d="M51.65,35.82c0.42,0,0.77-0.16,1.05-0.49c0.28-0.33,0.42-0.86,0.42-1.61c0-0.77-0.15-1.33-0.45-1.69
		c-0.3-0.36-0.68-0.54-1.13-0.54c-0.43,0-0.8,0.17-1.1,0.51c-0.3,0.34-0.45,0.84-0.45,1.51c0,0.74,0.17,1.3,0.51,1.7
		S51.22,35.82,51.65,35.82z"/>
	<path d="M73.97,27.34c0.15,0,0.27-0.05,0.37-0.16c0.1-0.1,0.16-0.23,0.16-0.37s-0.05-0.27-0.16-0.37c-0.1-0.1-0.23-0.16-0.37-0.16
		c-0.14,0-0.27,0.05-0.37,0.16c-0.1,0.1-0.15,0.23-0.15,0.37s0.05,0.27,0.15,0.37C73.71,27.29,73.83,27.34,73.97,27.34z"/>
	<g>
		<rect x="49.28" y="44.15" class="st0" width="0.83" height="0.95"/>
		<path class="st0" d="M40.89,32.4c-1.27,1.18-2.11,2.12-2.54,2.83c-0.43,0.71-0.69,1.46-0.77,2.26h7.93v-2.1h-4.49
			c0.12-0.2,0.27-0.41,0.46-0.63c0.19-0.21,0.64-0.65,1.36-1.3c0.71-0.65,1.21-1.16,1.48-1.51c0.41-0.53,0.71-1.03,0.91-1.51
			c0.19-0.48,0.29-0.99,0.29-1.52c0-0.93-0.33-1.71-1-2.34c-0.67-0.63-1.58-0.94-2.74-0.94c-1.06,0-1.95,0.27-2.66,0.81
			s-1.13,1.44-1.26,2.68l2.25,0.23c0.04-0.66,0.2-1.13,0.48-1.42s0.65-0.43,1.13-0.43c0.48,0,0.85,0.14,1.12,0.41
			c0.27,0.27,0.41,0.66,0.41,1.16c0,0.46-0.16,0.92-0.47,1.38C42.54,30.81,41.91,31.45,40.89,32.4z"/>
		<rect x="49.28" y="46.01" class="st0" width="0.83" height="4.88"/>
		<path class="st0" d="M47.4,46.07c-0.16,0.11-0.34,0.34-0.53,0.69v-0.74h-0.75v4.88h0.83v-2.56c0-0.35,0.05-0.67,0.14-0.97
			c0.06-0.19,0.16-0.34,0.31-0.45s0.31-0.16,0.49-0.16c0.2,0,0.4,0.06,0.61,0.18l0.29-0.77c-0.29-0.18-0.57-0.27-0.85-0.27
			C47.74,45.9,47.56,45.96,47.4,46.07z"/>
		<polygon class="st0" points="40.54,50.9 41.43,50.9 41.43,47.83 44.59,47.83 44.59,47.04 41.43,47.04 41.43,44.95 45.09,44.95 
			45.09,44.15 40.54,44.15 		"/>
		<path class="st0" d="M73.97,27.92c0.3,0,0.56-0.11,0.78-0.32c0.22-0.22,0.32-0.47,0.32-0.78s-0.11-0.56-0.32-0.78
			c-0.21-0.21-0.47-0.32-0.78-0.32c-0.3,0-0.56,0.11-0.78,0.32c-0.22,0.21-0.32,0.47-0.32,0.78c0,0.3,0.11,0.56,0.32,0.78
			C73.41,27.81,73.67,27.92,73.97,27.92z"/>
		<path class="st0" d="M78.04,30.94c0.54,0,0.99-0.13,1.34-0.4c0.35-0.27,0.61-0.68,0.76-1.23L79.15,29
			c-0.09,0.37-0.23,0.64-0.42,0.81s-0.43,0.26-0.7,0.26c-0.37,0-0.67-0.14-0.9-0.41c-0.23-0.27-0.34-0.73-0.34-1.37
			c0-0.6,0.12-1.04,0.35-1.31c0.23-0.27,0.54-0.4,0.91-0.4c0.27,0,0.5,0.08,0.69,0.23c0.19,0.15,0.31,0.36,0.37,0.62l1.01-0.24
			c-0.11-0.4-0.29-0.72-0.52-0.93c-0.39-0.37-0.89-0.55-1.51-0.55c-0.71,0-1.28,0.23-1.71,0.7c-0.43,0.47-0.65,1.12-0.65,1.96
			c0,0.8,0.22,1.42,0.65,1.88C76.82,30.71,77.37,30.94,78.04,30.94z"/>
		<path class="st0" d="M51.54,37.69c1.11,0,2.02-0.36,2.73-1.09c0.71-0.73,1.06-1.7,1.06-2.91c0-1.14-0.34-2.07-1.01-2.79
			c-0.67-0.72-1.48-1.08-2.43-1.08c-0.84,0-1.54,0.33-2.1,1c0.09-1.36,0.29-2.25,0.62-2.68c0.33-0.43,0.73-0.64,1.21-0.64
			c0.36,0,0.65,0.11,0.88,0.32c0.23,0.21,0.36,0.55,0.42,1l2.19-0.24c-0.16-0.96-0.54-1.68-1.12-2.19c-0.59-0.5-1.33-0.75-2.23-0.75
			c-1.28,0-2.32,0.48-3.12,1.43c-0.8,0.96-1.2,2.51-1.2,4.68c0,2.11,0.38,3.63,1.15,4.55C49.37,37.23,50.35,37.69,51.54,37.69z"/>
		<rect x="57.51" y="35.23" class="st0" width="2.26" height="2.26"/>
		<path class="st0" d="M30.91,42.12h52.77c-7.21-0.98-16.39-1.57-26.39-1.57S38.12,41.13,30.91,42.12z"/>
		<path class="st0" d="M55.6,45.03c-0.35,0.31-0.75,0.57-1.21,0.79v0.8c0.26-0.1,0.55-0.24,0.87-0.43c0.32-0.19,0.58-0.38,0.78-0.57
			v5.28h0.83v-6.77h-0.53C56.2,44.42,55.95,44.72,55.6,45.03z"/>
		<path class="st0" d="M70.68,44.97c-0.18-0.27-0.4-0.48-0.68-0.63c-0.27-0.15-0.59-0.22-0.95-0.22c-0.49,0-0.9,0.13-1.22,0.4
			c-0.32,0.26-0.57,0.64-0.73,1.12c-0.16,0.49-0.25,1.13-0.25,1.92c0,1.27,0.22,2.18,0.67,2.74c0.37,0.47,0.88,0.7,1.53,0.7
			c0.49,0,0.9-0.13,1.23-0.4s0.57-0.64,0.73-1.13c0.16-0.49,0.24-1.12,0.24-1.92c0-0.67-0.05-1.2-0.15-1.59S70.86,45.25,70.68,44.97
			z"/>
		<path class="st0" d="M75.92,44.97c-0.18-0.27-0.4-0.48-0.68-0.63c-0.27-0.15-0.59-0.22-0.95-0.22c-0.49,0-0.9,0.13-1.22,0.4
			c-0.32,0.26-0.57,0.64-0.73,1.12c-0.16,0.49-0.25,1.13-0.25,1.92c0,1.27,0.22,2.18,0.67,2.74c0.37,0.47,0.88,0.7,1.53,0.7
			c0.49,0,0.9-0.13,1.23-0.4s0.57-0.64,0.73-1.13c0.16-0.49,0.24-1.12,0.24-1.92c0-0.67-0.05-1.2-0.15-1.59
			C76.23,45.58,76.09,45.25,75.92,44.97z"/>
		<path class="st0" d="M60.39,49.65c0.14-0.15,0.46-0.43,0.96-0.85c0.59-0.5,1.02-0.9,1.28-1.19c0.26-0.29,0.44-0.56,0.55-0.82
			s0.17-0.53,0.17-0.8c0-0.53-0.19-0.98-0.57-1.33c-0.38-0.36-0.89-0.54-1.54-0.54c-0.64,0-1.15,0.17-1.53,0.5s-0.6,0.82-0.66,1.45
			l0.85,0.09c0-0.42,0.12-0.75,0.36-0.99c0.24-0.24,0.56-0.36,0.96-0.36c0.38,0,0.68,0.11,0.92,0.34c0.23,0.23,0.35,0.5,0.35,0.83
			c0,0.31-0.13,0.64-0.39,1c-0.26,0.35-0.75,0.83-1.49,1.43c-0.47,0.39-0.83,0.73-1.08,1.02s-0.43,0.59-0.55,0.9
			c-0.07,0.18-0.1,0.38-0.1,0.57h4.46v-0.8h-3.31C60.13,49.95,60.25,49.8,60.39,49.65z"/>
		<rect x="64.69" y="46.01" class="st0" width="0.94" height="0.94"/>
		<rect x="64.69" y="49.95" class="st0" width="0.94" height="0.94"/>
		<g>
			<path class="st0" d="M40.89,32.4c-1.27,1.18-2.11,2.12-2.54,2.83c-0.43,0.71-0.69,1.46-0.77,2.26h7.93v-2.1h-4.49
				c0.12-0.2,0.27-0.41,0.46-0.63c0.19-0.21,0.64-0.65,1.36-1.3c0.71-0.65,1.21-1.16,1.48-1.51c0.41-0.53,0.71-1.03,0.91-1.51
				c0.19-0.48,0.29-0.99,0.29-1.52c0-0.93-0.33-1.71-1-2.34c-0.67-0.63-1.58-0.94-2.74-0.94c-1.06,0-1.95,0.27-2.66,0.81
				s-1.13,1.44-1.26,2.68l2.25,0.23c0.04-0.66,0.2-1.13,0.48-1.42s0.65-0.43,1.13-0.43c0.48,0,0.85,0.14,1.12,0.41
				c0.27,0.27,0.41,0.66,0.41,1.16c0,0.46-0.16,0.92-0.47,1.38C42.54,30.81,41.91,31.45,40.89,32.4z"/>
			<polygon class="st0" points="40.54,50.9 41.43,50.9 41.43,47.83 44.59,47.83 44.59,47.04 41.43,47.04 41.43,44.95 45.09,44.95 
				45.09,44.15 40.54,44.15 			"/>
			<path class="st0" d="M47.4,46.07c-0.16,0.11-0.34,0.34-0.53,0.69v-0.74h-0.75v4.88h0.83v-2.56c0-0.35,0.05-0.67,0.14-0.97
				c0.06-0.19,0.16-0.34,0.31-0.45s0.31-0.16,0.49-0.16c0.2,0,0.4,0.06,0.61,0.18l0.29-0.77c-0.29-0.18-0.57-0.27-0.85-0.27
				C47.74,45.9,47.56,45.96,47.4,46.07z"/>
			<path class="st0" d="M51.54,37.69c1.11,0,2.02-0.36,2.73-1.09c0.71-0.73,1.06-1.7,1.06-2.91c0-1.14-0.34-2.07-1.01-2.79
				c-0.67-0.72-1.48-1.08-2.43-1.08c-0.84,0-1.54,0.33-2.1,1c0.09-1.36,0.29-2.25,0.62-2.68c0.33-0.43,0.73-0.64,1.21-0.64
				c0.36,0,0.65,0.11,0.88,0.32c0.23,0.21,0.36,0.55,0.42,1l2.19-0.24c-0.16-0.96-0.54-1.68-1.12-2.19
				c-0.59-0.5-1.33-0.75-2.23-0.75c-1.28,0-2.32,0.48-3.12,1.43c-0.8,0.96-1.2,2.51-1.2,4.68c0,2.11,0.38,3.63,1.15,4.55
				C49.37,37.23,50.35,37.69,51.54,37.69z"/>
			<path class="st0" d="M78.04,30.94c0.54,0,0.99-0.13,1.34-0.4c0.35-0.27,0.61-0.68,0.76-1.23L79.15,29
				c-0.09,0.37-0.23,0.64-0.42,0.81s-0.43,0.26-0.7,0.26c-0.37,0-0.67-0.14-0.9-0.41c-0.23-0.27-0.34-0.73-0.34-1.37
				c0-0.6,0.12-1.04,0.35-1.31c0.23-0.27,0.54-0.4,0.91-0.4c0.27,0,0.5,0.08,0.69,0.23c0.19,0.15,0.31,0.36,0.37,0.62l1.01-0.24
				c-0.11-0.4-0.29-0.72-0.52-0.93c-0.39-0.37-0.89-0.55-1.51-0.55c-0.71,0-1.28,0.23-1.71,0.7c-0.43,0.47-0.65,1.12-0.65,1.96
				c0,0.8,0.22,1.42,0.65,1.88C76.82,30.71,77.37,30.94,78.04,30.94z"/>
			<rect x="49.28" y="44.15" class="st0" width="0.83" height="0.95"/>
			<path class="st0" d="M73.97,27.92c0.3,0,0.56-0.11,0.78-0.32c0.22-0.22,0.32-0.47,0.32-0.78s-0.11-0.56-0.32-0.78
				c-0.21-0.21-0.47-0.32-0.78-0.32c-0.3,0-0.56,0.11-0.78,0.32c-0.22,0.21-0.32,0.47-0.32,0.78c0,0.3,0.11,0.56,0.32,0.78
				C73.41,27.81,73.67,27.92,73.97,27.92z"/>
			<rect x="57.51" y="35.23" class="st0" width="2.26" height="2.26"/>
			<rect x="49.28" y="46.01" class="st0" width="0.83" height="4.88"/>
			<path class="st0" d="M30.91,42.12h52.77c-7.21-0.98-16.39-1.57-26.39-1.57S38.12,41.13,30.91,42.12z"/>
			<path class="st0" d="M75.92,44.97c-0.18-0.27-0.4-0.48-0.68-0.63c-0.27-0.15-0.59-0.22-0.95-0.22c-0.49,0-0.9,0.13-1.22,0.4
				c-0.32,0.26-0.57,0.64-0.73,1.12c-0.16,0.49-0.25,1.13-0.25,1.92c0,1.27,0.22,2.18,0.67,2.74c0.37,0.47,0.88,0.7,1.53,0.7
				c0.49,0,0.9-0.13,1.23-0.4s0.57-0.64,0.73-1.13c0.16-0.49,0.24-1.12,0.24-1.92c0-0.67-0.05-1.2-0.15-1.59
				C76.23,45.58,76.09,45.25,75.92,44.97z"/>
			<path class="st0" d="M55.6,45.03c-0.35,0.31-0.75,0.57-1.21,0.79v0.8c0.26-0.1,0.55-0.24,0.87-0.43
				c0.32-0.19,0.58-0.38,0.78-0.57v5.28h0.83v-6.77h-0.53C56.2,44.42,55.95,44.72,55.6,45.03z"/>
			<path class="st0" d="M70.68,44.97c-0.18-0.27-0.4-0.48-0.68-0.63c-0.27-0.15-0.59-0.22-0.95-0.22c-0.49,0-0.9,0.13-1.22,0.4
				c-0.32,0.26-0.57,0.64-0.73,1.12c-0.16,0.49-0.25,1.13-0.25,1.92c0,1.27,0.22,2.18,0.67,2.74c0.37,0.47,0.88,0.7,1.53,0.7
				c0.49,0,0.9-0.13,1.23-0.4s0.57-0.64,0.73-1.13c0.16-0.49,0.24-1.12,0.24-1.92c0-0.67-0.05-1.2-0.15-1.59
				S70.86,45.25,70.68,44.97z"/>
			<path class="st0" d="M60.39,49.65c0.14-0.15,0.46-0.43,0.96-0.85c0.59-0.5,1.02-0.9,1.28-1.19c0.26-0.29,0.44-0.56,0.55-0.82
				s0.17-0.53,0.17-0.8c0-0.53-0.19-0.98-0.57-1.33c-0.38-0.36-0.89-0.54-1.54-0.54c-0.64,0-1.15,0.17-1.53,0.5s-0.6,0.82-0.66,1.45
				l0.85,0.09c0-0.42,0.12-0.75,0.36-0.99c0.24-0.24,0.56-0.36,0.96-0.36c0.38,0,0.68,0.11,0.92,0.34c0.23,0.23,0.35,0.5,0.35,0.83
				c0,0.31-0.13,0.64-0.39,1c-0.26,0.35-0.75,0.83-1.49,1.43c-0.47,0.39-0.83,0.73-1.08,1.02s-0.43,0.59-0.55,0.9
				c-0.07,0.18-0.1,0.38-0.1,0.57h4.46v-0.8h-3.31C60.13,49.95,60.25,49.8,60.39,49.65z"/>
			<rect x="64.69" y="46.01" class="st0" width="0.94" height="0.94"/>
			<rect x="64.69" y="49.95" class="st0" width="0.94" height="0.94"/>
			<path d="M19.22,14.64v39.25h75.36V14.64H19.22z M76.39,26.41c0.43-0.47,1.01-0.7,1.71-0.7c0.62,0,1.12,0.18,1.51,0.55
				c0.23,0.22,0.4,0.53,0.52,0.93l-1.01,0.24c-0.06-0.26-0.18-0.47-0.37-0.62c-0.19-0.15-0.42-0.23-0.69-0.23
				c-0.37,0-0.68,0.13-0.91,0.4c-0.23,0.27-0.35,0.7-0.35,1.31c0,0.64,0.11,1.09,0.34,1.37c0.23,0.27,0.53,0.41,0.9,0.41
				c0.27,0,0.5-0.09,0.7-0.26s0.34-0.44,0.42-0.81l0.99,0.31c-0.15,0.55-0.4,0.96-0.76,1.23c-0.35,0.27-0.8,0.4-1.34,0.4
				c-0.67,0-1.22-0.23-1.66-0.69c-0.43-0.46-0.65-1.09-0.65-1.88C75.74,27.53,75.96,26.88,76.39,26.41z M73.2,26.04
				c0.21-0.21,0.47-0.32,0.78-0.32c0.3,0,0.56,0.11,0.78,0.32c0.22,0.22,0.32,0.47,0.32,0.78s-0.11,0.56-0.32,0.78
				c-0.21,0.22-0.47,0.32-0.78,0.32c-0.3,0-0.56-0.11-0.78-0.32c-0.22-0.22-0.32-0.47-0.32-0.78C72.87,26.51,72.98,26.25,73.2,26.04
				z M67.18,31.94c-0.33-0.36-0.75-0.54-1.27-0.54c-0.65,0-1.23,0.29-1.75,0.86l-1.84-0.27l1.16-6.14h5.98v2.12H65.2l-0.35,2
				c0.5-0.25,1.02-0.38,1.55-0.38c1,0,1.85,0.36,2.55,1.09c0.7,0.73,1.05,1.68,1.05,2.84c0,0.97-0.28,1.84-0.85,2.6
				c-0.77,1.04-1.83,1.56-3.2,1.56c-1.09,0-1.98-0.29-2.66-0.88s-1.1-1.37-1.23-2.36l2.25-0.23c0.06,0.51,0.25,0.91,0.57,1.21
				c0.32,0.3,0.68,0.45,1.09,0.45c0.47,0,0.87-0.19,1.2-0.58c0.33-0.38,0.49-0.96,0.49-1.73C67.66,32.85,67.5,32.3,67.18,31.94z
				 M57.51,35.23h2.26v2.26h-2.26V35.23z M48.65,27.08c0.8-0.96,1.84-1.43,3.12-1.43c0.9,0,1.64,0.25,2.23,0.75
				c0.59,0.5,0.96,1.23,1.12,2.19l-2.19,0.24c-0.05-0.45-0.19-0.78-0.42-1c-0.23-0.21-0.52-0.32-0.88-0.32
				c-0.48,0-0.88,0.21-1.21,0.64c-0.33,0.43-0.54,1.32-0.62,2.68c0.56-0.67,1.26-1,2.1-1c0.94,0,1.75,0.36,2.43,1.08
				c0.67,0.72,1.01,1.65,1.01,2.79c0,1.21-0.35,2.18-1.06,2.91c-0.71,0.73-1.62,1.09-2.73,1.09c-1.19,0-2.17-0.46-2.94-1.39
				c-0.77-0.93-1.15-2.44-1.15-4.55C47.45,29.59,47.85,28.03,48.65,27.08z M42.83,27.93c-0.27-0.27-0.65-0.41-1.12-0.41
				c-0.47,0-0.85,0.14-1.13,0.43s-0.44,0.76-0.48,1.42l-2.25-0.23c0.13-1.24,0.56-2.14,1.26-2.68s1.59-0.81,2.66-0.81
				c1.16,0,2.08,0.31,2.74,0.94c0.67,0.63,1,1.41,1,2.34c0,0.53-0.1,1.04-0.29,1.52c-0.19,0.48-0.49,0.98-0.91,1.51
				c-0.27,0.35-0.77,0.85-1.48,1.51c-0.71,0.65-1.17,1.09-1.36,1.3c-0.19,0.21-0.34,0.42-0.46,0.63h4.49v2.1h-7.93
				c0.09-0.79,0.34-1.55,0.77-2.26c0.43-0.71,1.28-1.65,2.54-2.83c1.02-0.95,1.64-1.59,1.88-1.93c0.31-0.47,0.47-0.93,0.47-1.38
				C43.24,28.58,43.1,28.2,42.83,27.93z M45.09,44.95h-3.66v2.09h3.16v0.8h-3.16v3.06h-0.89v-6.74h4.55V44.95z M48.5,46.94
				c-0.2-0.12-0.4-0.18-0.61-0.18c-0.18,0-0.34,0.05-0.49,0.16s-0.25,0.26-0.31,0.45c-0.09,0.29-0.14,0.62-0.14,0.97v2.56h-0.83
				v-4.88h0.75v0.74c0.19-0.35,0.37-0.57,0.53-0.69c0.16-0.11,0.34-0.17,0.53-0.17c0.28,0,0.56,0.09,0.85,0.27L48.5,46.94z
				 M50.11,50.9h-0.83v-4.88h0.83V50.9z M50.11,45.11h-0.83v-0.95h0.83V45.11z M56.87,50.9h-0.83v-5.28
				c-0.2,0.19-0.46,0.38-0.78,0.57c-0.32,0.19-0.61,0.33-0.87,0.43v-0.8c0.46-0.22,0.87-0.48,1.21-0.79
				c0.35-0.31,0.59-0.61,0.74-0.9h0.53V50.9z M63.35,50.9h-4.46c-0.01-0.2,0.03-0.39,0.1-0.57c0.11-0.3,0.3-0.6,0.55-0.9
				s0.61-0.63,1.08-1.02c0.73-0.6,1.23-1.08,1.49-1.43c0.26-0.35,0.39-0.68,0.39-1c0-0.33-0.12-0.6-0.35-0.83
				c-0.23-0.23-0.54-0.34-0.92-0.34c-0.4,0-0.72,0.12-0.96,0.36c-0.24,0.24-0.36,0.57-0.36,0.99l-0.85-0.09
				c0.06-0.63,0.28-1.12,0.66-1.45s0.89-0.5,1.53-0.5c0.65,0,1.16,0.18,1.54,0.54c0.38,0.36,0.57,0.8,0.57,1.33
				c0,0.27-0.06,0.54-0.17,0.8s-0.29,0.54-0.55,0.82c-0.26,0.29-0.68,0.68-1.28,1.19c-0.5,0.42-0.82,0.7-0.96,0.85
				c-0.14,0.15-0.26,0.3-0.35,0.45h3.31V50.9z M65.64,50.9h-0.94v-0.94h0.94V50.9z M65.64,46.95h-0.94v-0.94h0.94V46.95z M71,49.49
				c-0.16,0.49-0.41,0.86-0.73,1.13s-0.73,0.4-1.23,0.4c-0.65,0-1.16-0.23-1.53-0.7c-0.44-0.56-0.67-1.47-0.67-2.74
				c0-0.8,0.08-1.44,0.25-1.92c0.16-0.49,0.41-0.86,0.73-1.12c0.32-0.26,0.73-0.4,1.22-0.4c0.36,0,0.68,0.07,0.95,0.22
				c0.27,0.15,0.5,0.36,0.68,0.63c0.18,0.27,0.32,0.61,0.42,1s0.15,0.93,0.15,1.59C71.25,48.36,71.17,49,71,49.49z M76.24,49.49
				c-0.16,0.49-0.41,0.86-0.73,1.13s-0.73,0.4-1.23,0.4c-0.65,0-1.16-0.23-1.53-0.7c-0.44-0.56-0.67-1.47-0.67-2.74
				c0-0.8,0.08-1.44,0.25-1.92c0.16-0.49,0.41-0.86,0.73-1.12c0.32-0.26,0.73-0.4,1.22-0.4c0.36,0,0.68,0.07,0.95,0.22
				c0.27,0.15,0.5,0.36,0.68,0.63c0.18,0.27,0.32,0.61,0.42,1c0.1,0.39,0.15,0.93,0.15,1.59C76.49,48.36,76.41,49,76.24,49.49z
				 M30.91,42.12c7.21-0.98,16.39-1.57,26.39-1.57s19.17,0.59,26.39,1.57H30.91z"/>
		</g>
	</g>
</g>
<path class="st1" d="M1.87,0.5h111.26c0.76,0,1.37,0.62,1.37,1.37v111.26c0,0.76-0.62,1.37-1.37,1.37H1.87
	c-0.75,0-1.37-0.62-1.37-1.37V1.87C0.5,1.12,1.12,0.5,1.87,0.5z"/>
<polygon class="st2" points="91.24,71.6 93.36,74.77 95.48,77.95 91.24,77.95 86.99,77.95 89.12,74.77 "/>
<polygon class="st2" points="91.24,102.54 93.36,99.36 95.48,96.19 91.24,96.19 86.99,96.19 89.12,99.36 "/>
<text transform="matrix(1 0 0 1 54.2499 90.8637)" class="st3 st4 st5">F</text>
<path d="M22.94,70.91c2.59-0.61,5.41,1.11,6.09,3.68c0.75,2.48-0.66,5.34-3.07,6.25c-2.36,0.98-5.32-0.07-6.5-2.34
	c-0.84-1.5-0.86-3.43-0.04-4.94C20.12,72.21,21.44,71.19,22.94,70.91 M22.92,71.94c-1.84,0.46-3.19,2.28-3.11,4.18
	c0.02,1.77,1.32,3.41,3.02,3.87c1.39,0.43,2.98,0.02,4.02-0.96c1.16-1.07,1.62-2.82,1.12-4.3C27.38,72.65,25.01,71.33,22.92,71.94z"
	/>
<path d="M23.45,74.35c0.14-0.7,0.36-1.37,0.54-2.07c0.34,1.12,0.7,2.27,0.55,3.44c0.82,0,1.59,0.34,2.39,0.5
	c-0.61,0.16-1.2,0.36-1.8,0.48c-0.57,0.07-1.12,0.02-1.7,0.04C23.45,75.96,23.42,75.15,23.45,74.35z"/>
<g>
	<path d="M23.35,91.49c2.59-0.61,5.41,1.11,6.09,3.68c0.75,2.48-0.66,5.34-3.07,6.25c-2.36,0.98-5.32-0.07-6.5-2.34
		c-0.84-1.5-0.86-3.43-0.04-4.94C20.53,92.79,21.85,91.77,23.35,91.49 M23.33,92.52c-1.84,0.46-3.19,2.28-3.11,4.18
		c0.02,1.77,1.32,3.41,3.02,3.87c1.39,0.43,2.98,0.02,4.02-0.96c1.16-1.07,1.62-2.82,1.12-4.3C27.79,93.24,25.42,91.92,23.33,92.52z
		"/>
	<text transform="matrix(1 0 0 1 21.5141 99.0776)" class="st3 st4 st6">M</text>
</g>
</svg>
