<?xml version="1.0" encoding="utf-8"?>
<!-- Generator: Adobe Illustrator 27.0.0, SVG Export Plug-In . SVG Version: 6.00 Build 0)  -->
<svg version="1.1" id="Laag_1" xmlns="http://www.w3.org/2000/svg" xmlns:xlink="http://www.w3.org/1999/xlink" x="0px" y="0px"
	 viewBox="0 0 115 115" style="enable-background:new 0 0 115 115;" xml:space="preserve">
<style type="text/css">
	.st0{fill:none;stroke:#231916;stroke-miterlimit:22.9256;}
	.st1{fill-rule:evenodd;clip-rule:evenodd;fill:#231916;}
	.st2{fill:#231916;}
	.st3{font-family:'ArialMT';}
	.st4{font-size:10.68px;}
	.st5{font-size:7px;}
	.st6{fill:none;}
	.st7{fill:#D400D0;}
</style>
<path class="st0" d="M1.9,0.5h111.3c0.8,0,1.4,0.6,1.4,1.4v111.3c0,0.8-0.6,1.4-1.4,1.4H1.9c-0.8,0-1.4-0.6-1.4-1.4V1.9
	C0.5,1.1,1.1,0.5,1.9,0.5z"/>
<polygon class="st1" points="91.2,71.6 93.4,74.8 95.5,77.9 91.2,77.9 87,77.9 89.1,74.8 "/>
<polygon class="st1" points="91.2,102.5 93.4,99.4 95.5,96.2 91.2,96.2 87,96.2 89.1,99.4 "/>
<text transform="matrix(1 0 0 1 54.2499 90.8637)" class="st2 st3 st4">F</text>
<path d="M22.9,70.9c2.6-0.6,5.4,1.1,6.1,3.7c0.8,2.5-0.7,5.3-3.1,6.2c-2.4,1-5.3-0.1-6.5-2.3c-0.8-1.5-0.9-3.4,0-4.9
	C20.1,72.2,21.4,71.2,22.9,70.9 M22.9,71.9c-1.8,0.5-3.2,2.3-3.1,4.2c0,1.8,1.3,3.4,3,3.9c1.4,0.4,3,0,4-1c1.2-1.1,1.6-2.8,1.1-4.3
	C27.4,72.7,25,71.3,22.9,71.9z"/>
<path d="M23.5,74.3c0.1-0.7,0.4-1.4,0.5-2.1c0.3,1.1,0.7,2.3,0.5,3.4c0.8,0,1.6,0.3,2.4,0.5c-0.6,0.2-1.2,0.4-1.8,0.5
	c-0.6,0.1-1.1,0-1.7,0C23.5,76,23.4,75.2,23.5,74.3z"/>
<g>
	<path d="M23.4,91.5c2.6-0.6,5.4,1.1,6.1,3.7c0.8,2.5-0.7,5.3-3.1,6.2c-2.4,1-5.3-0.1-6.5-2.3c-0.8-1.5-0.9-3.4,0-4.9
		C20.5,92.8,21.9,91.8,23.4,91.5 M23.3,92.5c-1.8,0.5-3.2,2.3-3.1,4.2c0,1.8,1.3,3.4,3,3.9c1.4,0.4,3,0,4-1c1.2-1.1,1.6-2.8,1.1-4.3
		C27.8,93.2,25.4,91.9,23.3,92.5z"/>
	<text transform="matrix(1 0 0 1 21.5141 99.0776)" class="st2 st3 st5">M</text>
</g>
<path class="st6" d="M29.8,50c-0.1,0-0.1,0-0.2,0c0,0-0.1-0.1-0.1-0.1c0,0,0-0.1,0-0.3v-1.9H30v-0.4h-0.5v-1.1L29,46.4v0.8h-0.4v0.4
	H29v1.9c0,0.3,0,0.5,0.1,0.6c0,0.1,0.1,0.2,0.2,0.2s0.3,0.1,0.5,0.1c0.1,0,0.3,0,0.4,0L30,50C29.9,50,29.9,50,29.8,50z"/>
<path class="st6" d="M35.3,50c-0.1,0-0.2,0-0.2,0c0,0-0.1-0.1-0.1-0.1c0,0,0-0.1,0-0.3v-1.9h0.5v-0.4H35v-1.1l-0.6,0.3v0.8h-0.4v0.4
	h0.4v1.9c0,0.3,0,0.5,0.1,0.6c0,0.1,0.1,0.2,0.2,0.2c0.1,0.1,0.3,0.1,0.5,0.1c0.1,0,0.3,0,0.4,0L35.6,50C35.5,50,35.4,50,35.3,50z"
	/>
<path class="st6" d="M27.2,48.1c-0.2-0.1-0.5-0.2-1-0.3s-0.8-0.2-0.9-0.3c-0.1-0.1-0.2-0.2-0.2-0.4c0-0.2,0.1-0.3,0.2-0.5
	c0.2-0.1,0.4-0.2,0.8-0.2c0.3,0,0.6,0.1,0.8,0.2s0.3,0.4,0.3,0.6l0.6,0c0-0.3-0.1-0.5-0.2-0.7c-0.1-0.2-0.3-0.4-0.6-0.5
	c-0.3-0.1-0.5-0.2-0.9-0.2c-0.3,0-0.6,0-0.8,0.1c-0.2,0.1-0.4,0.2-0.6,0.5c-0.1,0.2-0.2,0.4-0.2,0.6c0,0.2,0,0.4,0.2,0.6
	c0.1,0.2,0.3,0.3,0.5,0.4c0.2,0.1,0.5,0.2,0.9,0.3c0.4,0.1,0.7,0.2,0.8,0.2c0.2,0.1,0.3,0.2,0.4,0.3s0.1,0.2,0.1,0.4s0,0.3-0.1,0.4
	s-0.2,0.2-0.4,0.3C26.7,50,26.5,50,26.3,50c-0.3,0-0.5,0-0.7-0.1s-0.4-0.2-0.5-0.3C25,49.4,25,49.2,24.9,49L24.4,49
	c0,0.3,0.1,0.6,0.2,0.8c0.2,0.2,0.4,0.4,0.6,0.5c0.3,0.1,0.6,0.2,1,0.2c0.3,0,0.6-0.1,0.9-0.2c0.3-0.1,0.4-0.3,0.6-0.5
	s0.2-0.4,0.2-0.7c0-0.2-0.1-0.5-0.2-0.6C27.6,48.4,27.4,48.2,27.2,48.1z"/>
<path class="st6" d="M33.4,49.1v-0.7c0-0.2,0-0.4,0-0.5c0-0.2-0.1-0.3-0.2-0.4c-0.1-0.1-0.2-0.2-0.4-0.2c-0.2-0.1-0.4-0.1-0.7-0.1
	c-0.3,0-0.5,0-0.7,0.1c-0.2,0.1-0.4,0.2-0.5,0.3c-0.1,0.1-0.2,0.3-0.2,0.6l0.5,0.1c0.1-0.2,0.2-0.4,0.3-0.5c0.1-0.1,0.3-0.1,0.6-0.1
	c0.3,0,0.5,0.1,0.6,0.2c0.1,0.1,0.2,0.2,0.2,0.5c0,0,0,0.1,0,0.1c-0.2,0.1-0.5,0.1-1,0.2c-0.2,0-0.4,0-0.5,0.1
	c-0.2,0-0.3,0.1-0.4,0.2c-0.1,0.1-0.2,0.2-0.3,0.3c-0.1,0.1-0.1,0.3-0.1,0.4c0,0.3,0.1,0.5,0.3,0.7c0.2,0.2,0.5,0.3,0.8,0.3
	c0.2,0,0.4,0,0.6-0.1s0.4-0.2,0.6-0.4c0,0.2,0.1,0.3,0.1,0.4v0h0.6c-0.1-0.1-0.1-0.2-0.1-0.4C33.4,50,33.4,49.6,33.4,49.1z M32.8,49
	c0,0.2,0,0.4-0.1,0.5c-0.1,0.2-0.2,0.3-0.4,0.4c-0.2,0.1-0.4,0.1-0.6,0.1c-0.2,0-0.4,0-0.5-0.1c-0.1-0.1-0.2-0.2-0.2-0.4
	c0-0.1,0-0.2,0.1-0.3c0-0.1,0.1-0.1,0.2-0.2c0.1,0,0.2-0.1,0.5-0.1c0.4-0.1,0.7-0.1,0.9-0.2V49z"/>
<path class="st6" d="M23.5,35.7v-3.9h-0.3c-0.1,0.2-0.2,0.3-0.4,0.5c-0.2,0.2-0.4,0.3-0.7,0.5v0.5c0.2-0.1,0.3-0.1,0.5-0.2
	c0.2-0.1,0.3-0.2,0.5-0.3v3.1H23.5z"/>
<rect x="22" y="36.6" class="st6" width="14.1" height="0.8"/>
<rect x="45.2" y="47.2" class="st6" width="0.6" height="0.6"/>
<path class="st6" d="M38.3,49c0,0.3,0,0.5-0.1,0.6c-0.1,0.1-0.2,0.3-0.3,0.3c-0.1,0.1-0.3,0.1-0.5,0.1c-0.2,0-0.3,0-0.4-0.1
	s-0.2-0.2-0.2-0.3c0-0.1,0-0.3,0-0.6v-1.8h-0.5v2c0,0.2,0,0.4,0,0.5c0,0.2,0.1,0.3,0.2,0.4c0.1,0.1,0.2,0.2,0.4,0.3
	c0.2,0.1,0.3,0.1,0.5,0.1c0.4,0,0.8-0.2,1-0.5v0.5h0.5v-3.2h-0.5V49z"/>
<rect x="45.2" y="49.8" class="st6" width="0.6" height="0.6"/>
<path class="st6" d="M47.1,34.6c-0.1-0.2-0.3-0.4-0.4-0.5c-0.1-0.1-0.2-0.1-0.3-0.2c0.4-0.1,0.7-0.2,0.8-0.4s0.3-0.4,0.3-0.7
	c0-0.2-0.1-0.4-0.2-0.6S47,32,46.9,31.9c-0.2-0.1-0.5-0.1-0.8-0.1h-1.7v3.9h0.5V34h0.6c0.1,0,0.2,0,0.3,0c0.1,0,0.2,0.1,0.2,0.1
	c0.1,0,0.2,0.1,0.3,0.3c0.1,0.1,0.2,0.3,0.4,0.5l0.5,0.8h0.6L47.1,34.6z M46,33.5h-1.1v-1.3h1.2c0.3,0,0.5,0.1,0.6,0.2
	c0.1,0.1,0.2,0.3,0.2,0.5c0,0.1,0,0.2-0.1,0.3s-0.2,0.2-0.3,0.2S46.2,33.5,46,33.5z"/>
<path class="st6" d="M41.9,48.8c-0.1-0.1-0.4-0.2-0.8-0.3c-0.3-0.1-0.4-0.1-0.5-0.1c-0.1,0-0.2-0.1-0.2-0.1c0,0-0.1-0.1-0.1-0.2
	c0-0.1,0-0.2,0.2-0.3c0.1-0.1,0.3-0.1,0.5-0.1c0.2,0,0.4,0,0.5,0.1c0.1,0.1,0.2,0.2,0.2,0.4l0.5-0.1c0-0.2-0.1-0.4-0.2-0.5
	c-0.1-0.1-0.2-0.2-0.4-0.3s-0.4-0.1-0.7-0.1c-0.2,0-0.3,0-0.5,0.1c-0.2,0-0.3,0.1-0.4,0.2c-0.1,0.1-0.2,0.2-0.3,0.3
	s-0.1,0.3-0.1,0.4c0,0.2,0,0.3,0.1,0.4c0.1,0.1,0.2,0.2,0.4,0.3c0.2,0.1,0.4,0.2,0.8,0.3c0.3,0.1,0.5,0.1,0.6,0.2
	c0.1,0.1,0.2,0.2,0.2,0.3c0,0.1-0.1,0.3-0.2,0.4c-0.1,0.1-0.3,0.2-0.6,0.2c-0.3,0-0.5,0-0.6-0.2c-0.1-0.1-0.2-0.3-0.3-0.5l-0.5,0.1
	c0.1,0.3,0.2,0.6,0.4,0.8c0.2,0.2,0.5,0.3,1,0.3c0.2,0,0.5,0,0.7-0.1c0.2-0.1,0.3-0.2,0.5-0.4c0.1-0.2,0.2-0.3,0.2-0.5
	c0-0.2,0-0.3-0.1-0.5C42.2,48.9,42.1,48.8,41.9,48.8z"/>
<path class="st6" d="M40.6,34.5c0.3-0.3,0.6-0.5,0.7-0.7c0.2-0.2,0.3-0.3,0.3-0.5c0.1-0.2,0.1-0.3,0.1-0.5c0-0.3-0.1-0.6-0.3-0.8
	c-0.2-0.2-0.5-0.3-0.9-0.3c-0.4,0-0.7,0.1-0.9,0.3c-0.2,0.2-0.3,0.5-0.4,0.8l0.5,0c0-0.2,0.1-0.4,0.2-0.6s0.3-0.2,0.6-0.2
	c0.2,0,0.4,0.1,0.5,0.2c0.1,0.1,0.2,0.3,0.2,0.5c0,0.2-0.1,0.4-0.2,0.6c-0.2,0.2-0.4,0.5-0.9,0.8c-0.3,0.2-0.5,0.4-0.6,0.6
	c-0.2,0.2-0.2,0.3-0.3,0.5c0,0.1-0.1,0.2-0.1,0.3h2.6v-0.5h-1.9c0-0.1,0.1-0.2,0.2-0.3C40.2,34.9,40.3,34.7,40.6,34.5z"/>
<path class="st6" d="M24.5,29.4c-0.2,0.1-0.4,0.1-0.6,0.1c-0.3,0-0.5,0-0.7-0.1c-0.2-0.1-0.3-0.2-0.4-0.4c-0.1-0.1-0.2-0.3-0.2-0.5
	l-0.6,0c0,0.3,0.1,0.6,0.2,0.8c0.2,0.2,0.4,0.4,0.6,0.5c0.3,0.1,0.6,0.2,1,0.2c0.3,0,0.6-0.1,0.9-0.2s0.5-0.3,0.6-0.5
	c0.1-0.2,0.2-0.4,0.2-0.7c0-0.2-0.1-0.5-0.2-0.6c-0.1-0.2-0.3-0.3-0.6-0.5c-0.2-0.1-0.5-0.2-1-0.3c-0.5-0.1-0.8-0.2-0.9-0.3
	c-0.1-0.1-0.2-0.2-0.2-0.4c0-0.2,0.1-0.3,0.2-0.5c0.2-0.1,0.4-0.2,0.8-0.2c0.3,0,0.6,0.1,0.8,0.2c0.2,0.1,0.3,0.4,0.3,0.6l0.6,0
	c0-0.3-0.1-0.5-0.2-0.7c-0.1-0.2-0.3-0.4-0.6-0.5c-0.3-0.1-0.6-0.2-0.9-0.2c-0.3,0-0.6,0.1-0.8,0.2s-0.4,0.2-0.6,0.5
	c-0.1,0.2-0.2,0.4-0.2,0.6c0,0.2,0,0.4,0.2,0.6c0.1,0.2,0.3,0.3,0.5,0.4c0.2,0.1,0.4,0.2,0.9,0.3c0.4,0.1,0.7,0.2,0.8,0.2
	c0.2,0.1,0.3,0.2,0.4,0.3c0.1,0.1,0.1,0.2,0.1,0.4c0,0.1,0,0.3-0.1,0.4C24.8,29.3,24.6,29.4,24.5,29.4z"/>
<rect x="46.8" y="26.7" class="st6" width="0.6" height="0.6"/>
<polygon class="st6" points="45.2,30 45.2,26 46.7,26 46.7,25.5 43.1,25.5 43.1,26 43.1,26 44.6,26 44.6,30 "/>
<polygon class="st6" points="84.6,22.5 29.7,22.5 29.7,23.3 84.6,23.3 "/>
<rect x="46.8" y="29.4" class="st6" width="0.6" height="0.6"/>
<path class="st6" d="M42.6,28.6L42,28.4c-0.1,0.4-0.2,0.7-0.5,0.9c-0.2,0.2-0.5,0.3-0.8,0.3c-0.3,0-0.5-0.1-0.8-0.2
	c-0.2-0.1-0.4-0.4-0.5-0.6c-0.1-0.3-0.2-0.6-0.2-1c0-0.3,0-0.6,0.1-0.9c0.1-0.3,0.3-0.5,0.5-0.7c0.2-0.2,0.5-0.2,0.9-0.2
	c0.3,0,0.5,0.1,0.8,0.2c0.2,0.1,0.4,0.4,0.5,0.7l0.6-0.1c-0.1-0.4-0.3-0.7-0.6-1s-0.7-0.3-1.1-0.3c-0.4,0-0.8,0.1-1.1,0.3
	c-0.3,0.2-0.6,0.4-0.8,0.8c-0.2,0.4-0.3,0.8-0.3,1.2c0,0.4,0.1,0.8,0.2,1.2c0.2,0.4,0.4,0.7,0.7,0.9c0.3,0.2,0.7,0.3,1.2,0.3
	c0.5,0,0.9-0.1,1.2-0.4S42.5,29,42.6,28.6z"/>
<polygon class="st6" points="37.8,29.5 35.1,29.5 35.1,27.9 37.5,27.9 37.5,27.4 35.1,27.4 35.1,26 37.7,26 37.7,25.5 34.5,25.5 
	34.5,30 37.8,30 "/>
<path class="st6" d="M27,34.5h1.6l0.5,1.2h0.6l-1.6-3.9h-0.6L26,35.7h0.5L27,34.5z M27.5,32.9c0.1-0.2,0.2-0.5,0.2-0.8
	c0.1,0.2,0.2,0.5,0.3,0.8l0.4,1.1h-1.3L27.5,32.9z"/>
<polygon class="st6" points="29.8,29.5 27.1,29.5 27.1,27.9 29.6,27.9 29.6,27.4 27.1,27.4 27.1,26 29.8,26 29.8,25.5 26.5,25.5 
	26.5,30 29.8,30 "/>
<path class="st6" d="M35.6,35.7v-3.9h-0.5v1.4c-0.1-0.1-0.2-0.2-0.3-0.3c-0.1-0.1-0.3-0.1-0.5-0.1c-0.2,0-0.4,0.1-0.6,0.2
	s-0.3,0.3-0.4,0.5c-0.1,0.2-0.1,0.5-0.1,0.8c0,0.3,0.1,0.5,0.2,0.8c0.1,0.2,0.2,0.4,0.4,0.5c0.2,0.1,0.4,0.2,0.6,0.2
	c0.3,0,0.6-0.1,0.8-0.4v0.4H35.6z M35,35.1c-0.2,0.2-0.3,0.3-0.5,0.3c-0.2,0-0.4-0.1-0.5-0.3c-0.2-0.2-0.2-0.5-0.2-0.8
	c0-0.4,0.1-0.7,0.2-0.8c0.2-0.2,0.3-0.3,0.5-0.3c0.2,0,0.4,0.1,0.6,0.3c0.1,0.2,0.2,0.5,0.2,0.9C35.2,34.7,35.1,34.9,35,35.1z"/>
<polygon class="st6" points="33.6,29.5 31.4,29.5 31.4,25.5 30.8,25.5 30.8,30 33.6,30 "/>
<path class="st6" d="M32.5,35.7v-3.9H32v1.4c-0.1-0.1-0.2-0.2-0.3-0.3c-0.1-0.1-0.3-0.1-0.5-0.1c-0.2,0-0.4,0.1-0.6,0.2
	s-0.3,0.3-0.4,0.5C30,33.7,30,34,30,34.3c0,0.3,0.1,0.5,0.2,0.8c0.1,0.2,0.2,0.4,0.4,0.5c0.2,0.1,0.4,0.2,0.6,0.2
	c0.3,0,0.6-0.1,0.8-0.4v0.4H32.5z M31.8,35.1c-0.2,0.2-0.3,0.3-0.5,0.3c-0.2,0-0.4-0.1-0.5-0.3c-0.2-0.2-0.2-0.5-0.2-0.8
	c0-0.4,0.1-0.7,0.2-0.8c0.2-0.2,0.3-0.3,0.5-0.3c0.2,0,0.4,0.1,0.6,0.3c0.1,0.2,0.2,0.5,0.2,0.9C32,34.7,31.9,34.9,31.8,35.1z"/>
<rect x="49" y="46" class="st6" width="0.6" height="4.5"/>
<rect x="66.2" y="46" class="st6" width="0.6" height="0.6"/>
<path class="st6" d="M69,47.2c-0.4,0-0.7,0.1-1,0.4c-0.3,0.3-0.5,0.7-0.5,1.3c0,0.5,0.1,1,0.4,1.3c0.3,0.3,0.7,0.4,1.1,0.4
	c0.3,0,0.5-0.1,0.8-0.2c0.2-0.1,0.4-0.3,0.5-0.6c0.1-0.2,0.2-0.6,0.2-1c0-0.5-0.1-0.9-0.4-1.2C69.8,47.3,69.5,47.2,69,47.2z
	 M69.7,49.8c-0.2,0.2-0.4,0.3-0.7,0.3c-0.3,0-0.5-0.1-0.7-0.3c-0.2-0.2-0.3-0.5-0.3-0.9c0-0.4,0.1-0.7,0.3-0.9
	c0.2-0.2,0.4-0.3,0.7-0.3c0.3,0,0.5,0.1,0.7,0.3c0.2,0.2,0.3,0.5,0.3,0.9C70,49.3,69.9,49.6,69.7,49.8z"/>
<rect x="66.2" y="47.2" class="st6" width="0.6" height="3.2"/>
<path class="st6" d="M70.5,33.6c0.2-0.1,0.3-0.2,0.4-0.3C71,33.1,71,33,71,32.8c0-0.2,0-0.3-0.1-0.5c-0.1-0.2-0.2-0.3-0.4-0.4
	c-0.2-0.1-0.4-0.1-0.6-0.1c-0.3,0-0.6,0.1-0.8,0.3c-0.2,0.2-0.3,0.4-0.4,0.8l0.5,0.1c0-0.2,0.1-0.4,0.2-0.5c0.1-0.1,0.3-0.2,0.5-0.2
	s0.3,0.1,0.5,0.2s0.2,0.3,0.2,0.4c0,0.2-0.1,0.4-0.2,0.5c-0.2,0.1-0.3,0.2-0.5,0.2c0,0,0,0-0.1,0l0,0.4c0.1,0,0.2,0,0.3,0
	c0.2,0,0.4,0.1,0.6,0.2c0.1,0.2,0.2,0.3,0.2,0.5c0,0.2-0.1,0.4-0.2,0.6c-0.2,0.2-0.3,0.2-0.6,0.2c-0.2,0-0.4-0.1-0.5-0.2
	s-0.2-0.3-0.3-0.6l-0.5,0.1c0,0.3,0.2,0.6,0.4,0.8c0.2,0.2,0.5,0.3,0.9,0.3c0.4,0,0.7-0.1,1-0.4c0.2-0.2,0.4-0.5,0.3-0.9
	c0-0.2-0.1-0.5-0.2-0.6C70.9,33.7,70.7,33.6,70.5,33.6z"/>
<path class="st6" d="M64.9,48.8c-0.2-0.1-0.4-0.2-0.8-0.3c-0.3-0.1-0.4-0.1-0.5-0.1c-0.1,0-0.2-0.1-0.2-0.1c0,0-0.1-0.1-0.1-0.2
	c0-0.1,0-0.2,0.2-0.3c0.1-0.1,0.3-0.1,0.5-0.1c0.2,0,0.4,0,0.5,0.1c0.1,0.1,0.2,0.2,0.2,0.4l0.5-0.1c0-0.2-0.1-0.4-0.2-0.5
	s-0.2-0.2-0.4-0.3s-0.4-0.1-0.7-0.1c-0.2,0-0.3,0-0.5,0.1c-0.1,0-0.3,0.1-0.3,0.2c-0.1,0.1-0.2,0.2-0.3,0.3s-0.1,0.3-0.1,0.4
	c0,0.2,0,0.3,0.1,0.4s0.2,0.2,0.3,0.3c0.2,0.1,0.4,0.2,0.8,0.3c0.3,0.1,0.5,0.1,0.6,0.2c0.1,0.1,0.2,0.2,0.2,0.3
	c0,0.1-0.1,0.3-0.2,0.4c-0.1,0.1-0.3,0.2-0.6,0.2c-0.3,0-0.5,0-0.6-0.2c-0.1-0.1-0.2-0.3-0.3-0.5l-0.5,0.1c0.1,0.3,0.2,0.6,0.4,0.8
	c0.2,0.2,0.5,0.3,1,0.3c0.2,0,0.5,0,0.7-0.1c0.2-0.1,0.4-0.2,0.5-0.4c0.1-0.2,0.2-0.3,0.2-0.5c0-0.2,0-0.3-0.1-0.5
	S65,48.8,64.9,48.8z"/>
<path class="st6" d="M64.3,35.5c0.2-0.2,0.4-0.4,0.4-0.7l-0.5-0.1c-0.1,0.2-0.2,0.4-0.3,0.4c-0.1,0.1-0.3,0.1-0.5,0.1
	c-0.2,0-0.4-0.1-0.6-0.2c-0.2-0.2-0.2-0.4-0.3-0.7h2.1c0-0.1,0-0.1,0-0.1c0-0.5-0.1-0.8-0.4-1.1s-0.5-0.4-0.9-0.4
	c-0.4,0-0.7,0.1-1,0.4s-0.4,0.6-0.4,1.1c0,0.5,0.1,0.8,0.4,1.1c0.2,0.2,0.6,0.4,1,0.4C63.8,35.8,64.1,35.7,64.3,35.5z M62.9,33.4
	c0.1-0.2,0.3-0.2,0.6-0.2c0.2,0,0.5,0.1,0.6,0.3c0.1,0.1,0.2,0.3,0.2,0.5h-1.6C62.7,33.8,62.7,33.6,62.9,33.4z"/>
<path class="st6" d="M73.9,48c0-0.2-0.1-0.3-0.2-0.4c-0.1-0.1-0.2-0.2-0.4-0.3c-0.2-0.1-0.3-0.1-0.5-0.1c-0.5,0-0.8,0.2-1,0.5v-0.5
	h-0.5v3.2h0.5v-1.8c0-0.4,0.1-0.7,0.3-0.8c0.2-0.2,0.4-0.2,0.6-0.2c0.1,0,0.3,0,0.4,0.1c0.1,0.1,0.2,0.2,0.2,0.3
	c0,0.1,0.1,0.3,0.1,0.5v2H74v-2C74,48.2,74,48.1,73.9,48z"/>
<path class="st6" d="M78.9,32.8c-0.4,0-0.7,0.1-1,0.4s-0.4,0.6-0.4,1.1c0,0.5,0.1,0.8,0.4,1.1c0.2,0.2,0.6,0.4,1,0.4
	c0.3,0,0.6-0.1,0.8-0.2c0.2-0.2,0.4-0.4,0.4-0.7l-0.5-0.1c-0.1,0.2-0.2,0.3-0.3,0.4c-0.1,0.1-0.3,0.1-0.5,0.1
	c-0.2,0-0.4-0.1-0.6-0.2c-0.1-0.2-0.2-0.4-0.3-0.7h2.1c0-0.1,0-0.1,0-0.1c0-0.5-0.1-0.8-0.4-1.1S79.2,32.8,78.9,32.8z M78.1,34
	c0-0.2,0.1-0.4,0.2-0.6c0.1-0.2,0.3-0.2,0.6-0.2c0.2,0,0.4,0.1,0.6,0.3c0.1,0.1,0.2,0.3,0.2,0.5H78.1z"/>
<path class="st6" d="M82.6,34.2c-0.1-0.1-0.4-0.1-0.7-0.2c-0.2-0.1-0.4-0.1-0.4-0.1c-0.1,0-0.1-0.1-0.2-0.1c0,0-0.1-0.1-0.1-0.2
	c0-0.1,0-0.2,0.1-0.3c0.1-0.1,0.2-0.1,0.5-0.1c0.2,0,0.3,0,0.4,0.1c0.1,0.1,0.2,0.2,0.2,0.3l0.5-0.1c0-0.2-0.1-0.3-0.2-0.4
	c-0.1-0.1-0.2-0.2-0.4-0.3c-0.2-0.1-0.4-0.1-0.6-0.1c-0.2,0-0.3,0-0.4,0.1c-0.1,0-0.2,0.1-0.3,0.1c-0.1,0.1-0.2,0.2-0.2,0.3
	s-0.1,0.2-0.1,0.3c0,0.1,0,0.3,0.1,0.4c0.1,0.1,0.2,0.2,0.3,0.3c0.1,0.1,0.4,0.1,0.7,0.2c0.3,0.1,0.4,0.1,0.5,0.2
	c0.1,0.1,0.1,0.1,0.1,0.3c0,0.1,0,0.2-0.2,0.3c-0.1,0.1-0.3,0.1-0.5,0.1c-0.2,0-0.4,0-0.5-0.2c-0.1-0.1-0.2-0.2-0.2-0.4l-0.5,0.1
	c0,0.3,0.2,0.5,0.4,0.7c0.2,0.2,0.5,0.2,0.8,0.2c0.2,0,0.4,0,0.6-0.1c0.2-0.1,0.3-0.2,0.4-0.3c0.1-0.1,0.1-0.3,0.2-0.5
	c0-0.2,0-0.3-0.1-0.4C82.9,34.3,82.8,34.3,82.6,34.2z"/>
<path class="st6" d="M87.8,35.3c-0.1,0-0.1,0-0.2,0s-0.1,0-0.1-0.1c0,0,0-0.1,0-0.3v-1.7H88v-0.4h-0.5v-1L87,32.2v0.7h-0.4v0.4H87
	v1.6c0,0.3,0,0.5,0.1,0.6c0,0.1,0.1,0.2,0.2,0.2c0.1,0,0.2,0.1,0.4,0.1c0.1,0,0.2,0,0.4,0L88,35.2C87.9,35.3,87.8,35.3,87.8,35.3z"
	/>
<path class="st6" d="M76,34.1C76,34,75.9,34,75.7,33.9c0.4-0.1,0.6-0.2,0.8-0.4s0.3-0.4,0.3-0.7c0-0.2,0-0.4-0.2-0.6
	c-0.1-0.2-0.3-0.3-0.4-0.4c-0.2-0.1-0.4-0.1-0.8-0.1h-1.7v3.9h0.5V34h0.6c0.1,0,0.2,0,0.3,0c0.1,0,0.2,0.1,0.2,0.1
	c0.1,0,0.2,0.1,0.3,0.3c0.1,0.1,0.2,0.3,0.4,0.5l0.5,0.8h0.7l-0.7-1.1C76.3,34.4,76.2,34.2,76,34.1z M75.3,33.5h-1.1v-1.3h1.2
	c0.3,0,0.5,0.1,0.6,0.2s0.2,0.3,0.2,0.5c0,0.1,0,0.2-0.1,0.3s-0.2,0.2-0.3,0.2S75.5,33.5,75.3,33.5z"/>
<path class="st6" d="M56.2,49.9c-0.1,0.1-0.3,0.2-0.5,0.2c-0.3,0-0.5-0.1-0.7-0.3c-0.2-0.2-0.2-0.5-0.2-1c0-0.4,0.1-0.7,0.3-0.9
	c0.2-0.2,0.4-0.3,0.7-0.3c0.2,0,0.3,0.1,0.5,0.2s0.2,0.3,0.3,0.5l0.5-0.1c-0.1-0.3-0.2-0.6-0.4-0.8c-0.2-0.2-0.5-0.3-0.9-0.3
	c-0.3,0-0.5,0.1-0.8,0.2c-0.2,0.1-0.4,0.3-0.5,0.6c-0.1,0.3-0.2,0.6-0.2,0.9c0,0.5,0.1,1,0.4,1.2c0.3,0.3,0.6,0.4,1.1,0.4
	c0.4,0,0.7-0.1,0.9-0.3c0.2-0.2,0.4-0.5,0.4-0.9l-0.5-0.1C56.5,49.6,56.4,49.8,56.2,49.9z"/>
<path class="st6" d="M54.7,33.3c0.1,0,0.1,0.1,0.2,0.2c0,0.1,0.1,0.2,0.1,0.4v1.8h0.5v-2c0-0.3-0.1-0.6-0.2-0.7
	c-0.2-0.2-0.4-0.2-0.7-0.2c-0.4,0-0.7,0.2-0.9,0.5c0-0.2-0.2-0.3-0.3-0.4c-0.1-0.1-0.3-0.1-0.5-0.1c-0.2,0-0.4,0-0.5,0.1
	C52.2,33,52,33.1,52,33.3v-0.4h-0.4v2.8H52v-1.5c0-0.3,0-0.5,0.1-0.6s0.1-0.2,0.2-0.3c0.1-0.1,0.2-0.1,0.4-0.1c0.2,0,0.3,0,0.4,0.2
	c0.1,0.1,0.1,0.3,0.1,0.5v1.8h0.5V34c0-0.3,0.1-0.5,0.2-0.6c0.1-0.1,0.3-0.2,0.5-0.2C54.5,33.2,54.6,33.2,54.7,33.3z"/>
<path class="st6" d="M84.9,32.8c-0.4,0-0.7,0.1-1,0.4s-0.4,0.6-0.4,1.1c0,0.5,0.1,0.8,0.4,1.1c0.2,0.2,0.6,0.4,1,0.4
	c0.3,0,0.6-0.1,0.8-0.2c0.2-0.2,0.4-0.4,0.4-0.7l-0.5-0.1c-0.1,0.2-0.2,0.3-0.3,0.4c-0.1,0.1-0.3,0.1-0.5,0.1
	c-0.2,0-0.4-0.1-0.6-0.2c-0.1-0.2-0.2-0.4-0.3-0.7h2.1c0-0.1,0-0.1,0-0.1c0-0.5-0.1-0.8-0.4-1.1S85.3,32.8,84.9,32.8z M84.1,34
	c0-0.2,0.1-0.4,0.2-0.6c0.2-0.2,0.3-0.2,0.6-0.2c0.2,0,0.4,0.1,0.6,0.3c0.1,0.1,0.2,0.3,0.2,0.5H84.1z"/>
<rect x="57.7" y="46" class="st6" width="0.5" height="4.5"/>
<path class="st6" d="M50.3,35.5c0.2-0.2,0.4-0.4,0.4-0.7l-0.5-0.1c-0.1,0.2-0.2,0.4-0.3,0.4c-0.1,0.1-0.3,0.1-0.4,0.1
	c-0.2,0-0.4-0.1-0.6-0.2s-0.2-0.4-0.3-0.7h2.1c0-0.1,0-0.1,0-0.1c0-0.5-0.1-0.8-0.4-1.1s-0.5-0.4-0.9-0.4c-0.4,0-0.7,0.1-1,0.4
	s-0.4,0.6-0.4,1.1c0,0.5,0.1,0.8,0.4,1.1c0.2,0.2,0.6,0.4,1,0.4C49.9,35.8,50.1,35.7,50.3,35.5z M49,33.4c0.1-0.2,0.3-0.2,0.6-0.2
	c0.2,0,0.5,0.1,0.6,0.3c0.1,0.1,0.2,0.3,0.2,0.5h-1.6C48.7,33.8,48.8,33.6,49,33.4z"/>
<path class="st6" d="M57.4,32.8c-0.3,0-0.6,0.1-0.9,0.3c-0.3,0.2-0.4,0.6-0.4,1.2c0,0.5,0.1,0.8,0.4,1.1c0.2,0.2,0.6,0.4,1,0.4
	c0.2,0,0.5,0,0.7-0.2s0.4-0.3,0.5-0.5c0.1-0.2,0.2-0.5,0.2-0.9c0-0.4-0.1-0.8-0.4-1.1C58.1,32.9,57.8,32.8,57.4,32.8z M58,35.1
	c-0.2,0.2-0.4,0.3-0.6,0.3s-0.4-0.1-0.6-0.3c-0.2-0.2-0.2-0.5-0.2-0.8c0-0.4,0.1-0.6,0.2-0.8c0.2-0.2,0.4-0.3,0.6-0.3
	c0.2,0,0.4,0.1,0.6,0.3c0.2,0.2,0.2,0.4,0.2,0.8C58.2,34.6,58.1,34.9,58,35.1z"/>
<path class="st6" d="M53.4,48c0-0.2-0.1-0.3-0.2-0.4c-0.1-0.1-0.2-0.2-0.4-0.3c-0.2-0.1-0.3-0.1-0.5-0.1c-0.4,0-0.8,0.2-1,0.5v-0.5
	h-0.5v3.2h0.5v-1.8c0-0.4,0.1-0.7,0.3-0.8c0.2-0.2,0.4-0.2,0.6-0.2c0.1,0,0.3,0,0.4,0.1c0.1,0.1,0.2,0.2,0.2,0.3
	c0,0.1,0.1,0.3,0.1,0.5v2h0.5v-2C53.4,48.2,53.4,48.1,53.4,48z"/>
<path class="st6" d="M60.6,35.7l1.1-2.8h-0.5l-0.6,1.7c-0.1,0.2-0.1,0.4-0.2,0.5c0-0.2-0.1-0.4-0.2-0.6l-0.6-1.7h-0.5l1.1,2.8H60.6z
	"/>
<path class="st6" d="M61.3,49c0,0.3,0,0.5-0.1,0.6c-0.1,0.1-0.2,0.3-0.3,0.3c-0.1,0.1-0.3,0.1-0.5,0.1S60.1,50,60,50
	c-0.1-0.1-0.2-0.2-0.2-0.3c0-0.1,0-0.3,0-0.6v-1.8h-0.6v2c0,0.2,0,0.4,0,0.5c0,0.2,0.1,0.3,0.2,0.4c0.1,0.1,0.2,0.2,0.4,0.3
	c0.2,0.1,0.4,0.1,0.5,0.1c0.4,0,0.8-0.2,1-0.5v0.5h0.5v-3.2h-0.5V49z"/>
<path d="M31.4,49.2c-0.1,0-0.2,0.1-0.2,0.2c-0.1,0.1-0.1,0.2-0.1,0.3c0,0.2,0.1,0.3,0.2,0.4c0.1,0.1,0.3,0.1,0.5,0.1
	c0.2,0,0.4,0,0.6-0.1c0.2-0.1,0.3-0.2,0.4-0.4c0.1-0.1,0.1-0.3,0.1-0.5v-0.2c-0.2,0.1-0.5,0.2-0.9,0.2
	C31.7,49.1,31.5,49.1,31.4,49.2z"/>
<path d="M28,33c-0.1-0.3-0.2-0.6-0.3-0.8c0,0.2-0.1,0.5-0.2,0.8l-0.4,1.2h1.3L28,33z"/>
<path d="M57.4,33.2c-0.2,0-0.4,0.1-0.6,0.3c-0.2,0.2-0.2,0.5-0.2,0.8c0,0.4,0.1,0.6,0.2,0.8c0.2,0.2,0.4,0.3,0.6,0.3
	s0.4-0.1,0.6-0.3c0.2-0.2,0.2-0.5,0.2-0.8c0-0.4-0.1-0.6-0.2-0.8C57.8,33.3,57.6,33.2,57.4,33.2z"/>
<path d="M50.1,33.5c-0.1-0.2-0.3-0.3-0.6-0.3c-0.2,0-0.4,0.1-0.6,0.2c-0.2,0.1-0.2,0.3-0.2,0.6h1.6C50.3,33.8,50.2,33.6,50.1,33.5z"
	/>
<path d="M64,33.5c-0.1-0.2-0.3-0.3-0.6-0.3c-0.2,0-0.4,0.1-0.6,0.2c-0.2,0.1-0.2,0.3-0.2,0.6h1.6C64.2,33.8,64.2,33.6,64,33.5z"/>
<path d="M73.7,20.6c0.3,0,0.6-0.1,0.9-0.4c0.2-0.2,0.3-0.6,0.3-1.1c0-0.5-0.1-0.9-0.3-1.1c-0.2-0.2-0.5-0.4-0.9-0.4S73,17.8,72.8,18
	c-0.2,0.2-0.3,0.6-0.3,1.1c0,0.5,0.1,0.9,0.3,1.1C73,20.5,73.3,20.6,73.7,20.6z"/>
<path d="M78.7,18.8c0.1,0,0.2-0.1,0.2-0.2s0.1-0.2,0.1-0.3c0-0.1,0-0.3-0.1-0.3c-0.1-0.1-0.2-0.1-0.3-0.2c-0.1,0-0.3,0-0.6,0h-0.7
	v1.1h0.6C78.3,18.8,78.6,18.8,78.7,18.8z"/>
<path d="M42.3,20.5c0.1,0,0.2-0.1,0.3-0.2c0.1-0.1,0.1-0.2,0.1-0.4c0-0.1,0-0.2-0.1-0.3s-0.2-0.2-0.3-0.2s-0.4-0.1-0.8-0.1H41v1.1
	h0.8C42.1,20.6,42.3,20.6,42.3,20.5z"/>
<path d="M42.1,18.7c0.1,0,0.3-0.1,0.4-0.2c0.1-0.1,0.1-0.2,0.1-0.3c0-0.1,0-0.2-0.1-0.3s-0.2-0.1-0.3-0.2c-0.1,0-0.3,0-0.7,0H41v1
	h0.6C41.9,18.7,42.1,18.7,42.1,18.7z"/>
<path d="M46.8,33.2c0.1-0.1,0.1-0.2,0.1-0.3c0-0.2-0.1-0.3-0.2-0.5c-0.1-0.1-0.3-0.2-0.6-0.2h-1.2v1.3H46c0.2,0,0.4,0,0.6-0.1
	S46.8,33.3,46.8,33.2z"/>
<path d="M78.9,33.2c-0.2,0-0.4,0.1-0.6,0.2c-0.2,0.1-0.2,0.3-0.2,0.6h1.6c0-0.2-0.1-0.4-0.2-0.5C79.3,33.3,79.1,33.2,78.9,33.2z"/>
<path d="M76.2,33.2c0.1-0.1,0.1-0.2,0.1-0.3c0-0.2-0.1-0.3-0.2-0.5s-0.4-0.2-0.6-0.2h-1.2v1.3h1.1c0.2,0,0.4,0,0.6-0.1
	S76.1,33.3,76.2,33.2z"/>
<path d="M84.9,33.2c-0.2,0-0.4,0.1-0.6,0.2c-0.2,0.1-0.2,0.3-0.2,0.6h1.6c0-0.2-0.1-0.4-0.2-0.5C85.4,33.3,85.2,33.2,84.9,33.2z"/>
<path d="M35,33.5c-0.2-0.2-0.3-0.3-0.6-0.3c-0.2,0-0.4,0.1-0.5,0.3c-0.1,0.2-0.2,0.5-0.2,0.8c0,0.4,0.1,0.6,0.2,0.8
	c0.1,0.2,0.3,0.3,0.5,0.3c0.2,0,0.4-0.1,0.5-0.3c0.1-0.2,0.2-0.4,0.2-0.8C35.2,33.9,35.1,33.7,35,33.5z"/>
<path d="M31.8,33.5c-0.2-0.2-0.3-0.3-0.6-0.3c-0.2,0-0.4,0.1-0.5,0.3c-0.1,0.2-0.2,0.5-0.2,0.8c0,0.4,0.1,0.6,0.2,0.8
	c0.1,0.2,0.3,0.3,0.5,0.3c0.2,0,0.4-0.1,0.5-0.3c0.1-0.2,0.2-0.4,0.2-0.8C32,33.9,31.9,33.7,31.8,33.5z"/>
<polygon points="51.2,18.3 51.1,18.7 51.4,18.7 "/>
<polygon points="50.8,19.4 50.6,20 51.8,20 51.4,18.9 51.4,19.4 "/>
<path d="M69,47.6c-0.3,0-0.5,0.1-0.7,0.3c-0.2,0.2-0.3,0.5-0.3,0.9c0,0.4,0.1,0.7,0.3,0.9c0.2,0.2,0.4,0.3,0.7,0.3
	c0.3,0,0.5-0.1,0.7-0.3c0.2-0.2,0.3-0.5,0.3-1c0-0.4-0.1-0.7-0.3-0.9C69.5,47.7,69.3,47.6,69,47.6z"/>
<polygon class="st7" points="51.4,18.7 51.4,18.7 51.4,18.9 "/>
<g>
	<rect x="46.8" y="29.4" class="st6" width="0.6" height="0.6"/>
	<polygon class="st6" points="37.8,29.5 35.1,29.5 35.1,27.9 37.5,27.9 37.5,27.4 35.1,27.4 35.1,26 37.7,26 37.7,25.5 34.5,25.5 
		34.5,30 37.8,30 	"/>
	<polygon class="st6" points="27,34.5 28.6,34.5 29.1,35.7 29.7,35.7 28.1,31.8 27.5,31.8 26,35.7 26.5,35.7 	"/>
	<polygon class="st6" points="33.6,29.5 31.4,29.5 31.4,25.5 30.8,25.5 30.8,30 33.6,30 	"/>
	<path class="st6" d="M24.5,29.4c-0.2,0.1-0.4,0.1-0.6,0.1c-0.3,0-0.5,0-0.7-0.1c-0.2-0.1-0.3-0.2-0.4-0.4c-0.1-0.1-0.2-0.3-0.2-0.5
		l-0.6,0c0,0.3,0.1,0.6,0.2,0.8c0.2,0.2,0.4,0.4,0.6,0.5c0.3,0.1,0.6,0.2,1,0.2c0.3,0,0.6-0.1,0.9-0.2s0.5-0.3,0.6-0.5
		c0.1-0.2,0.2-0.4,0.2-0.7c0-0.2-0.1-0.5-0.2-0.6c-0.1-0.2-0.3-0.3-0.6-0.5c-0.2-0.1-0.5-0.2-1-0.3c-0.5-0.1-0.8-0.2-0.9-0.3
		c-0.1-0.1-0.2-0.2-0.2-0.4c0-0.2,0.1-0.3,0.2-0.5c0.2-0.1,0.4-0.2,0.8-0.2c0.3,0,0.6,0.1,0.8,0.2c0.2,0.1,0.3,0.4,0.3,0.6l0.6,0
		c0-0.3-0.1-0.5-0.2-0.7c-0.1-0.2-0.3-0.4-0.6-0.5c-0.3-0.1-0.6-0.2-0.9-0.2c-0.3,0-0.6,0.1-0.8,0.2s-0.4,0.2-0.6,0.5
		c-0.1,0.2-0.2,0.4-0.2,0.6c0,0.2,0,0.4,0.2,0.6c0.1,0.2,0.3,0.3,0.5,0.4c0.2,0.1,0.4,0.2,0.9,0.3c0.4,0.1,0.7,0.2,0.8,0.2
		c0.2,0.1,0.3,0.2,0.4,0.3c0.1,0.1,0.1,0.2,0.1,0.4c0,0.1,0,0.3-0.1,0.4C24.8,29.3,24.6,29.4,24.5,29.4z"/>
	<path class="st6" d="M35.6,35.7v-3.9h-0.5v1.4c-0.1-0.1-0.2-0.2-0.3-0.3c-0.1-0.1-0.3-0.1-0.5-0.1c-0.2,0-0.4,0.1-0.6,0.2
		s-0.3,0.3-0.4,0.5c-0.1,0.2-0.1,0.5-0.1,0.8c0,0.3,0.1,0.5,0.2,0.8c0.1,0.2,0.2,0.4,0.4,0.5c0.2,0.1,0.4,0.2,0.6,0.2
		c0.3,0,0.6-0.1,0.8-0.4v0.4H35.6z"/>
	<path class="st6" d="M32.5,35.7v-3.9H32v1.4c-0.1-0.1-0.2-0.2-0.3-0.3c-0.1-0.1-0.3-0.1-0.5-0.1c-0.2,0-0.4,0.1-0.6,0.2
		s-0.3,0.3-0.4,0.5C30,33.7,30,34,30,34.3c0,0.3,0.1,0.5,0.2,0.8c0.1,0.2,0.2,0.4,0.4,0.5c0.2,0.1,0.4,0.2,0.6,0.2
		c0.3,0,0.6-0.1,0.8-0.4v0.4H32.5z"/>
	<polygon class="st6" points="29.8,29.5 27.1,29.5 27.1,27.9 29.6,27.9 29.6,27.4 27.1,27.4 27.1,26 29.8,26 29.8,25.5 26.5,25.5 
		26.5,30 29.8,30 	"/>
	<path class="st6" d="M35.3,50c-0.1,0-0.2,0-0.2,0c0,0-0.1-0.1-0.1-0.1c0,0,0-0.1,0-0.3v-1.9h0.5v-0.4H35v-1.1l-0.6,0.3v0.8h-0.4
		v0.4h0.4v1.9c0,0.3,0,0.5,0.1,0.6c0,0.1,0.1,0.2,0.2,0.2c0.1,0.1,0.3,0.1,0.5,0.1c0.1,0,0.3,0,0.4,0L35.6,50
		C35.5,50,35.4,50,35.3,50z"/>
	<path class="st6" d="M33.4,49.1v-0.7c0-0.2,0-0.4,0-0.5c0-0.2-0.1-0.3-0.2-0.4c-0.1-0.1-0.2-0.2-0.4-0.2c-0.2-0.1-0.4-0.1-0.7-0.1
		c-0.3,0-0.5,0-0.7,0.1c-0.2,0.1-0.4,0.2-0.5,0.3c-0.1,0.1-0.2,0.3-0.2,0.6l0.5,0.1c0.1-0.2,0.2-0.4,0.3-0.5
		c0.1-0.1,0.3-0.1,0.6-0.1c0.3,0,0.5,0.1,0.6,0.2c0.1,0.1,0.2,0.2,0.2,0.5c0,0,0,0.1,0,0.1c-0.2,0.1-0.5,0.1-1,0.2
		c-0.2,0-0.4,0-0.5,0.1c-0.2,0-0.3,0.1-0.4,0.2c-0.1,0.1-0.2,0.2-0.3,0.3c-0.1,0.1-0.1,0.3-0.1,0.4c0,0.3,0.1,0.5,0.3,0.7
		c0.2,0.2,0.5,0.3,0.8,0.3c0.2,0,0.4,0,0.6-0.1s0.4-0.2,0.6-0.4c0,0.2,0.1,0.3,0.1,0.4v0h0.6c-0.1-0.1-0.1-0.2-0.1-0.4
		C33.4,50,33.4,49.6,33.4,49.1z"/>
	<path class="st6" d="M23.5,35.7v-3.9h-0.3c-0.1,0.2-0.2,0.3-0.4,0.5c-0.2,0.2-0.4,0.3-0.7,0.5v0.5c0.2-0.1,0.3-0.1,0.5-0.2
		c0.2-0.1,0.3-0.2,0.5-0.3v3.1H23.5z"/>
	<rect x="22" y="36.6" class="st6" width="14.1" height="0.8"/>
	<path class="st6" d="M29.8,50c-0.1,0-0.1,0-0.2,0c0,0-0.1-0.1-0.1-0.1c0,0,0-0.1,0-0.3v-1.9H30v-0.4h-0.5v-1.1L29,46.4v0.8h-0.4
		v0.4H29v1.9c0,0.3,0,0.5,0.1,0.6c0,0.1,0.1,0.2,0.2,0.2s0.3,0.1,0.5,0.1c0.1,0,0.3,0,0.4,0L30,50C29.9,50,29.9,50,29.8,50z"/>
	<path class="st6" d="M27.2,48.1c-0.2-0.1-0.5-0.2-1-0.3s-0.8-0.2-0.9-0.3c-0.1-0.1-0.2-0.2-0.2-0.4c0-0.2,0.1-0.3,0.2-0.5
		c0.2-0.1,0.4-0.2,0.8-0.2c0.3,0,0.6,0.1,0.8,0.2s0.3,0.4,0.3,0.6l0.6,0c0-0.3-0.1-0.5-0.2-0.7c-0.1-0.2-0.3-0.4-0.6-0.5
		c-0.3-0.1-0.5-0.2-0.9-0.2c-0.3,0-0.6,0-0.8,0.1c-0.2,0.1-0.4,0.2-0.6,0.5c-0.1,0.2-0.2,0.4-0.2,0.6c0,0.2,0,0.4,0.2,0.6
		c0.1,0.2,0.3,0.3,0.5,0.4c0.2,0.1,0.5,0.2,0.9,0.3c0.4,0.1,0.7,0.2,0.8,0.2c0.2,0.1,0.3,0.2,0.4,0.3s0.1,0.2,0.1,0.4s0,0.3-0.1,0.4
		s-0.2,0.2-0.4,0.3C26.7,50,26.5,50,26.3,50c-0.3,0-0.5,0-0.7-0.1s-0.4-0.2-0.5-0.3C25,49.4,25,49.2,24.9,49L24.4,49
		c0,0.3,0.1,0.6,0.2,0.8c0.2,0.2,0.4,0.4,0.6,0.5c0.3,0.1,0.6,0.2,1,0.2c0.3,0,0.6-0.1,0.9-0.2c0.3-0.1,0.4-0.3,0.6-0.5
		s0.2-0.4,0.2-0.7c0-0.2-0.1-0.5-0.2-0.6C27.6,48.4,27.4,48.2,27.2,48.1z"/>
	<path class="st6" d="M36.3,21.1c0.3,0.2,0.7,0.3,1.2,0.3c0.4,0,0.7-0.1,1-0.2c0.3-0.1,0.6-0.3,0.8-0.5V19h-1.9v0.7h1v0.5
		c-0.1,0.1-0.3,0.2-0.5,0.3c-0.2,0.1-0.4,0.1-0.5,0.1c-0.4,0-0.7-0.1-0.9-0.4c-0.2-0.3-0.3-0.6-0.3-1.1c0-0.5,0.1-0.8,0.3-1.1
		s0.5-0.4,0.9-0.4c0.2,0,0.5,0.1,0.6,0.2s0.3,0.3,0.3,0.5l0.9-0.2c-0.1-0.4-0.3-0.7-0.6-0.9c-0.3-0.2-0.7-0.3-1.2-0.3
		c-0.4,0-0.8,0.1-1,0.2c-0.4,0.2-0.6,0.5-0.8,0.8s-0.3,0.7-0.3,1.2c0,0.4,0.1,0.8,0.3,1.1S35.9,20.9,36.3,21.1z"/>
	<polygon class="st6" points="61.7,20.6 59.3,20.6 59.3,19.4 61.4,19.4 61.4,18.7 59.3,18.7 59.3,17.7 61.6,17.7 61.6,17 58.4,17 
		58.4,21.3 61.7,21.3 	"/>
	<polygon class="st6" points="63.4,21.3 64.3,21.3 64.3,17.7 65.5,17.7 65.5,17 62.1,17 62.1,17.7 63.4,17.7 	"/>
	<polygon class="st6" points="51.7,20.6 49.3,20.6 49.3,19.4 50.8,19.4 50.6,20 51.8,20 51.4,18.9 51.4,18.7 51.4,18.7 51.2,18.3 
		51.1,18.7 49.3,18.7 49.3,17.7 51.6,17.7 51.6,17 48.4,17 48.4,21.3 51.7,21.3 	"/>
	<polygon class="st6" points="54.9,18.5 56.6,21.3 57.5,21.3 57.5,17 56.7,17 56.7,19.9 54.9,17 54.1,17 54.1,21.3 54.9,21.3 	"/>
	<polygon class="st6" points="67.6,21.3 68.5,18.1 69.3,21.3 70.3,21.3 71.3,17 70.4,17 69.8,20 69,17 68,17 67.2,19.9 66.6,17 
		65.7,17 66.7,21.3 	"/>
	<path class="st6" d="M77.3,19.5h0.2c0.2,0,0.3,0,0.4,0c0.1,0,0.2,0.1,0.3,0.2c0.1,0.1,0.2,0.3,0.5,0.6l0.6,0.9h1l-0.5-0.8
		c-0.2-0.3-0.4-0.6-0.5-0.7c-0.1-0.1-0.3-0.3-0.5-0.4c0.4-0.1,0.7-0.2,0.8-0.4c0.2-0.2,0.3-0.5,0.3-0.8c0-0.3-0.1-0.5-0.2-0.7
		s-0.3-0.3-0.5-0.4C79,17,78.7,17,78.2,17h-1.8v4.3h0.9V19.5z"/>
	<path class="st6" d="M73.7,21.4c0.6,0,1.1-0.2,1.5-0.6s0.6-0.9,0.6-1.6c0-0.7-0.2-1.2-0.6-1.6c-0.4-0.4-0.9-0.6-1.5-0.6
		c-0.3,0-0.7,0.1-0.9,0.2c-0.2,0.1-0.4,0.2-0.6,0.4s-0.3,0.4-0.4,0.6c-0.1,0.3-0.2,0.7-0.2,1.1c0,0.7,0.2,1.2,0.6,1.6
		C72.5,21.2,73,21.4,73.7,21.4z"/>
	<polygon class="st6" points="47.7,20.6 45.3,20.6 45.3,19.4 47.4,19.4 47.4,18.7 45.3,18.7 45.3,17.7 47.6,17.7 47.6,17 44.4,17 
		44.4,21.3 47.7,21.3 	"/>
	<rect x="46.8" y="26.7" class="st6" width="0.6" height="0.6"/>
	<polygon class="st6" points="33.2,20.6 30.8,20.6 33.1,17.7 33.1,17 30,17 30,17.7 32,17.7 29.7,20.5 29.7,21.3 33.2,21.3 	"/>
	<polygon class="st6" points="84.6,22.5 29.7,22.5 29.7,23.3 84.6,23.3 	"/>
	<rect x="33.7" y="17" class="st6" width="0.9" height="4.3"/>
	<path class="st6" d="M38.3,49c0,0.3,0,0.5-0.1,0.6c-0.1,0.1-0.2,0.3-0.3,0.3c-0.1,0.1-0.3,0.1-0.5,0.1c-0.2,0-0.3,0-0.4-0.1
		s-0.2-0.2-0.2-0.3c0-0.1,0-0.3,0-0.6v-1.8h-0.5v2c0,0.2,0,0.4,0,0.5c0,0.2,0.1,0.3,0.2,0.4c0.1,0.1,0.2,0.2,0.4,0.3
		c0.2,0.1,0.3,0.1,0.5,0.1c0.4,0,0.8-0.2,1-0.5v0.5h0.5v-3.2h-0.5V49z"/>
	<path class="st6" d="M42.6,21.3c0.2,0,0.4-0.1,0.6-0.2s0.3-0.3,0.4-0.4c0.1-0.2,0.1-0.4,0.1-0.6c0-0.2-0.1-0.5-0.2-0.6
		s-0.3-0.3-0.6-0.4c0.2-0.1,0.3-0.2,0.4-0.4s0.2-0.4,0.2-0.6c0-0.2,0-0.4-0.1-0.5c-0.1-0.1-0.2-0.3-0.3-0.4s-0.3-0.1-0.4-0.2
		s-0.4,0-0.8,0h-1.7v4.3h1.5C42.1,21.3,42.4,21.3,42.6,21.3z"/>
	<path class="st6" d="M87.8,35.3c-0.1,0-0.1,0-0.2,0s-0.1,0-0.1-0.1c0,0,0-0.1,0-0.3v-1.7H88v-0.4h-0.5v-1L87,32.2v0.7h-0.4v0.4H87
		v1.6c0,0.3,0,0.5,0.1,0.6c0,0.1,0.1,0.2,0.2,0.2c0.1,0,0.2,0.1,0.4,0.1c0.1,0,0.2,0,0.4,0L88,35.2C87.9,35.3,87.8,35.3,87.8,35.3z"
		/>
	<path class="st6" d="M69,47.2c-0.4,0-0.7,0.1-1,0.4c-0.3,0.3-0.5,0.7-0.5,1.3c0,0.5,0.1,1,0.4,1.3c0.3,0.3,0.7,0.4,1.1,0.4
		c0.3,0,0.5-0.1,0.8-0.2c0.2-0.1,0.4-0.3,0.5-0.6c0.1-0.2,0.2-0.6,0.2-1c0-0.5-0.1-0.9-0.4-1.2C69.8,47.3,69.5,47.2,69,47.2z"/>
	<path class="st6" d="M69.9,35.4c-0.2,0-0.4-0.1-0.5-0.2s-0.2-0.3-0.3-0.6l-0.5,0.1c0,0.3,0.2,0.6,0.4,0.8c0.2,0.2,0.5,0.3,0.9,0.3
		c0.4,0,0.7-0.1,1-0.4c0.2-0.2,0.4-0.5,0.3-0.9c0-0.2-0.1-0.5-0.2-0.6c-0.1-0.2-0.3-0.3-0.5-0.3c0.2-0.1,0.3-0.2,0.4-0.3
		C71,33.1,71,33,71,32.8c0-0.2,0-0.3-0.1-0.5c-0.1-0.2-0.2-0.3-0.4-0.4c-0.2-0.1-0.4-0.1-0.6-0.1c-0.3,0-0.6,0.1-0.8,0.3
		c-0.2,0.2-0.3,0.4-0.4,0.8l0.5,0.1c0-0.2,0.1-0.4,0.2-0.5c0.1-0.1,0.3-0.2,0.5-0.2s0.3,0.1,0.5,0.2s0.2,0.3,0.2,0.4
		c0,0.2-0.1,0.4-0.2,0.5c-0.2,0.1-0.3,0.2-0.5,0.2c0,0,0,0-0.1,0l0,0.4c0.1,0,0.2,0,0.3,0c0.2,0,0.4,0.1,0.6,0.2
		c0.1,0.2,0.2,0.3,0.2,0.5c0,0.2-0.1,0.4-0.2,0.6C70.3,35.3,70.1,35.4,69.9,35.4z"/>
	<rect x="66.2" y="46" class="st6" width="0.6" height="0.6"/>
	<path class="st6" d="M64.7,34.3c0-0.5-0.1-0.8-0.4-1.1s-0.5-0.4-0.9-0.4c-0.4,0-0.7,0.1-1,0.4s-0.4,0.6-0.4,1.1
		c0,0.5,0.1,0.8,0.4,1.1c0.2,0.2,0.6,0.4,1,0.4c0.3,0,0.6-0.1,0.8-0.2c0.2-0.2,0.4-0.4,0.4-0.7l-0.5-0.1c-0.1,0.2-0.2,0.4-0.3,0.4
		c-0.1,0.1-0.3,0.1-0.5,0.1c-0.2,0-0.4-0.1-0.6-0.2c-0.2-0.2-0.2-0.4-0.3-0.7h2.1C64.7,34.3,64.7,34.3,64.7,34.3z"/>
	<path class="st6" d="M73.9,48c0-0.2-0.1-0.3-0.2-0.4c-0.1-0.1-0.2-0.2-0.4-0.3c-0.2-0.1-0.3-0.1-0.5-0.1c-0.5,0-0.8,0.2-1,0.5v-0.5
		h-0.5v3.2h0.5v-1.8c0-0.4,0.1-0.7,0.3-0.8c0.2-0.2,0.4-0.2,0.6-0.2c0.1,0,0.3,0,0.4,0.1c0.1,0.1,0.2,0.2,0.2,0.3
		c0,0.1,0.1,0.3,0.1,0.5v2H74v-2C74,48.2,74,48.1,73.9,48z"/>
	<path class="st6" d="M40.6,34.5c0.3-0.3,0.6-0.5,0.7-0.7c0.2-0.2,0.3-0.3,0.3-0.5c0.1-0.2,0.1-0.3,0.1-0.5c0-0.3-0.1-0.6-0.3-0.8
		c-0.2-0.2-0.5-0.3-0.9-0.3c-0.4,0-0.7,0.1-0.9,0.3c-0.2,0.2-0.3,0.5-0.4,0.8l0.5,0c0-0.2,0.1-0.4,0.2-0.6s0.3-0.2,0.6-0.2
		c0.2,0,0.4,0.1,0.5,0.2c0.1,0.1,0.2,0.3,0.2,0.5c0,0.2-0.1,0.4-0.2,0.6c-0.2,0.2-0.4,0.5-0.9,0.8c-0.3,0.2-0.5,0.4-0.6,0.6
		c-0.2,0.2-0.2,0.3-0.3,0.5c0,0.1-0.1,0.2-0.1,0.3h2.6v-0.5h-1.9c0-0.1,0.1-0.2,0.2-0.3C40.2,34.9,40.3,34.7,40.6,34.5z"/>
	<rect x="66.2" y="47.2" class="st6" width="0.6" height="3.2"/>
	<path class="st6" d="M84.9,32.8c-0.4,0-0.7,0.1-1,0.4s-0.4,0.6-0.4,1.1c0,0.5,0.1,0.8,0.4,1.1c0.2,0.2,0.6,0.4,1,0.4
		c0.3,0,0.6-0.1,0.8-0.2c0.2-0.2,0.4-0.4,0.4-0.7l-0.5-0.1c-0.1,0.2-0.2,0.3-0.3,0.4c-0.1,0.1-0.3,0.1-0.5,0.1
		c-0.2,0-0.4-0.1-0.6-0.2c-0.1-0.2-0.2-0.4-0.3-0.7h2.1c0-0.1,0-0.1,0-0.1c0-0.5-0.1-0.8-0.4-1.1S85.3,32.8,84.9,32.8z"/>
	<polygon class="st6" points="81.6,20 82.3,19.3 83.5,21.3 84.6,21.3 82.9,18.7 84.5,17 83.4,17 81.6,18.9 81.6,17 80.8,17 
		80.8,21.3 81.6,21.3 	"/>
	<path class="st6" d="M61.3,49c0,0.3,0,0.5-0.1,0.6c-0.1,0.1-0.2,0.3-0.3,0.3c-0.1,0.1-0.3,0.1-0.5,0.1S60.1,50,60,50
		c-0.1-0.1-0.2-0.2-0.2-0.3c0-0.1,0-0.3,0-0.6v-1.8h-0.6v2c0,0.2,0,0.4,0,0.5c0,0.2,0.1,0.3,0.2,0.4c0.1,0.1,0.2,0.2,0.4,0.3
		c0.2,0.1,0.4,0.1,0.5,0.1c0.4,0,0.8-0.2,1-0.5v0.5h0.5v-3.2h-0.5V49z"/>
	<path class="st6" d="M82.6,34.2c-0.1-0.1-0.4-0.1-0.7-0.2c-0.2-0.1-0.4-0.1-0.4-0.1c-0.1,0-0.1-0.1-0.2-0.1c0,0-0.1-0.1-0.1-0.2
		c0-0.1,0-0.2,0.1-0.3c0.1-0.1,0.2-0.1,0.5-0.1c0.2,0,0.3,0,0.4,0.1c0.1,0.1,0.2,0.2,0.2,0.3l0.5-0.1c0-0.2-0.1-0.3-0.2-0.4
		c-0.1-0.1-0.2-0.2-0.4-0.3c-0.2-0.1-0.4-0.1-0.6-0.1c-0.2,0-0.3,0-0.4,0.1c-0.1,0-0.2,0.1-0.3,0.1c-0.1,0.1-0.2,0.2-0.2,0.3
		s-0.1,0.2-0.1,0.3c0,0.1,0,0.3,0.1,0.4c0.1,0.1,0.2,0.2,0.3,0.3c0.1,0.1,0.4,0.1,0.7,0.2c0.3,0.1,0.4,0.1,0.5,0.2
		c0.1,0.1,0.1,0.1,0.1,0.3c0,0.1,0,0.2-0.2,0.3c-0.1,0.1-0.3,0.1-0.5,0.1c-0.2,0-0.4,0-0.5-0.2c-0.1-0.1-0.2-0.2-0.2-0.4l-0.5,0.1
		c0,0.3,0.2,0.5,0.4,0.7c0.2,0.2,0.5,0.2,0.8,0.2c0.2,0,0.4,0,0.6-0.1c0.2-0.1,0.3-0.2,0.4-0.3c0.1-0.1,0.1-0.3,0.2-0.5
		c0-0.2,0-0.3-0.1-0.4C82.9,34.3,82.8,34.3,82.6,34.2z"/>
	<path class="st6" d="M76,34.1C76,34,75.9,34,75.7,33.9c0.4-0.1,0.6-0.2,0.8-0.4s0.3-0.4,0.3-0.7c0-0.2,0-0.4-0.2-0.6
		c-0.1-0.2-0.3-0.3-0.4-0.4c-0.2-0.1-0.4-0.1-0.8-0.1h-1.7v3.9h0.5V34h0.6c0.1,0,0.2,0,0.3,0c0.1,0,0.2,0.1,0.2,0.1
		c0.1,0,0.2,0.1,0.3,0.3c0.1,0.1,0.2,0.3,0.4,0.5l0.5,0.8h0.7l-0.7-1.1C76.3,34.4,76.2,34.2,76,34.1z"/>
	<path class="st6" d="M78.9,32.8c-0.4,0-0.7,0.1-1,0.4s-0.4,0.6-0.4,1.1c0,0.5,0.1,0.8,0.4,1.1c0.2,0.2,0.6,0.4,1,0.4
		c0.3,0,0.6-0.1,0.8-0.2c0.2-0.2,0.4-0.4,0.4-0.7l-0.5-0.1c-0.1,0.2-0.2,0.3-0.3,0.4c-0.1,0.1-0.3,0.1-0.5,0.1
		c-0.2,0-0.4-0.1-0.6-0.2c-0.1-0.2-0.2-0.4-0.3-0.7h2.1c0-0.1,0-0.1,0-0.1c0-0.5-0.1-0.8-0.4-1.1S79.2,32.8,78.9,32.8z"/>
	<path class="st6" d="M64.9,48.8c-0.2-0.1-0.4-0.2-0.8-0.3c-0.3-0.1-0.4-0.1-0.5-0.1c-0.1,0-0.2-0.1-0.2-0.1c0,0-0.1-0.1-0.1-0.2
		c0-0.1,0-0.2,0.2-0.3c0.1-0.1,0.3-0.1,0.5-0.1c0.2,0,0.4,0,0.5,0.1c0.1,0.1,0.2,0.2,0.2,0.4l0.5-0.1c0-0.2-0.1-0.4-0.2-0.5
		s-0.2-0.2-0.4-0.3s-0.4-0.1-0.7-0.1c-0.2,0-0.3,0-0.5,0.1c-0.1,0-0.3,0.1-0.3,0.2c-0.1,0.1-0.2,0.2-0.3,0.3s-0.1,0.3-0.1,0.4
		c0,0.2,0,0.3,0.1,0.4s0.2,0.2,0.3,0.3c0.2,0.1,0.4,0.2,0.8,0.3c0.3,0.1,0.5,0.1,0.6,0.2c0.1,0.1,0.2,0.2,0.2,0.3
		c0,0.1-0.1,0.3-0.2,0.4c-0.1,0.1-0.3,0.2-0.6,0.2c-0.3,0-0.5,0-0.6-0.2c-0.1-0.1-0.2-0.3-0.3-0.5l-0.5,0.1c0.1,0.3,0.2,0.6,0.4,0.8
		c0.2,0.2,0.5,0.3,1,0.3c0.2,0,0.5,0,0.7-0.1c0.2-0.1,0.4-0.2,0.5-0.4c0.1-0.2,0.2-0.3,0.2-0.5c0-0.2,0-0.3-0.1-0.5
		S65,48.8,64.9,48.8z"/>
	<rect x="45.2" y="47.2" class="st6" width="0.6" height="0.6"/>
	<path class="st6" d="M46.7,34.1c-0.1-0.1-0.2-0.1-0.3-0.2c0.4-0.1,0.7-0.2,0.8-0.4s0.3-0.4,0.3-0.7c0-0.2-0.1-0.4-0.2-0.6
		S47,32,46.9,31.9c-0.2-0.1-0.5-0.1-0.8-0.1h-1.7v3.9h0.5V34h0.6c0.1,0,0.2,0,0.3,0c0.1,0,0.2,0.1,0.2,0.1c0.1,0,0.2,0.1,0.3,0.3
		c0.1,0.1,0.2,0.3,0.4,0.5l0.5,0.8h0.6l-0.7-1.1C47,34.4,46.8,34.2,46.7,34.1z"/>
	<rect x="49" y="46" class="st6" width="0.6" height="4.5"/>
	<rect x="45.2" y="49.8" class="st6" width="0.6" height="0.6"/>
	<path class="st6" d="M41.9,48.8c-0.1-0.1-0.4-0.2-0.8-0.3c-0.3-0.1-0.4-0.1-0.5-0.1c-0.1,0-0.2-0.1-0.2-0.1c0,0-0.1-0.1-0.1-0.2
		c0-0.1,0-0.2,0.2-0.3c0.1-0.1,0.3-0.1,0.5-0.1c0.2,0,0.4,0,0.5,0.1c0.1,0.1,0.2,0.2,0.2,0.4l0.5-0.1c0-0.2-0.1-0.4-0.2-0.5
		c-0.1-0.1-0.2-0.2-0.4-0.3s-0.4-0.1-0.7-0.1c-0.2,0-0.3,0-0.5,0.1c-0.2,0-0.3,0.1-0.4,0.2c-0.1,0.1-0.2,0.2-0.3,0.3
		s-0.1,0.3-0.1,0.4c0,0.2,0,0.3,0.1,0.4c0.1,0.1,0.2,0.2,0.4,0.3c0.2,0.1,0.4,0.2,0.8,0.3c0.3,0.1,0.5,0.1,0.6,0.2
		c0.1,0.1,0.2,0.2,0.2,0.3c0,0.1-0.1,0.3-0.2,0.4c-0.1,0.1-0.3,0.2-0.6,0.2c-0.3,0-0.5,0-0.6-0.2c-0.1-0.1-0.2-0.3-0.3-0.5l-0.5,0.1
		c0.1,0.3,0.2,0.6,0.4,0.8c0.2,0.2,0.5,0.3,1,0.3c0.2,0,0.5,0,0.7-0.1c0.2-0.1,0.3-0.2,0.5-0.4c0.1-0.2,0.2-0.3,0.2-0.5
		c0-0.2,0-0.3-0.1-0.5C42.2,48.9,42.1,48.8,41.9,48.8z"/>
	<path class="st6" d="M42.6,28.6L42,28.4c-0.1,0.4-0.2,0.7-0.5,0.9c-0.2,0.2-0.5,0.3-0.8,0.3c-0.3,0-0.5-0.1-0.8-0.2
		c-0.2-0.1-0.4-0.4-0.5-0.6c-0.1-0.3-0.2-0.6-0.2-1c0-0.3,0-0.6,0.1-0.9c0.1-0.3,0.3-0.5,0.5-0.7c0.2-0.2,0.5-0.2,0.9-0.2
		c0.3,0,0.5,0.1,0.8,0.2c0.2,0.1,0.4,0.4,0.5,0.7l0.6-0.1c-0.1-0.4-0.3-0.7-0.6-1s-0.7-0.3-1.1-0.3c-0.4,0-0.8,0.1-1.1,0.3
		c-0.3,0.2-0.6,0.4-0.8,0.8c-0.2,0.4-0.3,0.8-0.3,1.2c0,0.4,0.1,0.8,0.2,1.2c0.2,0.4,0.4,0.7,0.7,0.9c0.3,0.2,0.7,0.3,1.2,0.3
		c0.5,0,0.9-0.1,1.2-0.4S42.5,29,42.6,28.6z"/>
	<polygon class="st6" points="45.2,30 45.2,26 46.7,26 46.7,25.5 43.1,25.5 43.1,26 43.1,26 44.6,26 44.6,30 	"/>
	<path class="st6" d="M56.2,49.9c-0.1,0.1-0.3,0.2-0.5,0.2c-0.3,0-0.5-0.1-0.7-0.3c-0.2-0.2-0.2-0.5-0.2-1c0-0.4,0.1-0.7,0.3-0.9
		c0.2-0.2,0.4-0.3,0.7-0.3c0.2,0,0.3,0.1,0.5,0.2s0.2,0.3,0.3,0.5l0.5-0.1c-0.1-0.3-0.2-0.6-0.4-0.8c-0.2-0.2-0.5-0.3-0.9-0.3
		c-0.3,0-0.5,0.1-0.8,0.2c-0.2,0.1-0.4,0.3-0.5,0.6c-0.1,0.3-0.2,0.6-0.2,0.9c0,0.5,0.1,1,0.4,1.2c0.3,0.3,0.6,0.4,1.1,0.4
		c0.4,0,0.7-0.1,0.9-0.3c0.2-0.2,0.4-0.5,0.4-0.9l-0.5-0.1C56.5,49.6,56.4,49.8,56.2,49.9z"/>
	<rect x="57.7" y="46" class="st6" width="0.5" height="4.5"/>
	<path class="st6" d="M57.4,32.8c-0.3,0-0.6,0.1-0.9,0.3c-0.3,0.2-0.4,0.6-0.4,1.2c0,0.5,0.1,0.8,0.4,1.1c0.2,0.2,0.6,0.4,1,0.4
		c0.2,0,0.5,0,0.7-0.2s0.4-0.3,0.5-0.5c0.1-0.2,0.2-0.5,0.2-0.9c0-0.4-0.1-0.8-0.4-1.1C58.1,32.9,57.8,32.8,57.4,32.8z"/>
	<path class="st6" d="M60.6,35.7l1.1-2.8h-0.5l-0.6,1.7c-0.1,0.2-0.1,0.4-0.2,0.5c0-0.2-0.1-0.4-0.2-0.6l-0.6-1.7h-0.5l1.1,2.8H60.6
		z"/>
	<path class="st6" d="M50.3,34.8c-0.1,0.2-0.2,0.4-0.3,0.4c-0.1,0.1-0.3,0.1-0.4,0.1c-0.2,0-0.4-0.1-0.6-0.2s-0.2-0.4-0.3-0.7h2.1
		c0-0.1,0-0.1,0-0.1c0-0.5-0.1-0.8-0.4-1.1s-0.5-0.4-0.9-0.4c-0.4,0-0.7,0.1-1,0.4s-0.4,0.6-0.4,1.1c0,0.5,0.1,0.8,0.4,1.1
		c0.2,0.2,0.6,0.4,1,0.4c0.3,0,0.6-0.1,0.8-0.2c0.2-0.2,0.4-0.4,0.4-0.7L50.3,34.8z"/>
	<path class="st6" d="M55.4,35.7v-2c0-0.3-0.1-0.6-0.2-0.7c-0.2-0.2-0.4-0.2-0.7-0.2c-0.4,0-0.7,0.2-0.9,0.5c0-0.2-0.2-0.3-0.3-0.4
		c-0.1-0.1-0.3-0.1-0.5-0.1c-0.2,0-0.4,0-0.5,0.1C52.2,33,52,33.1,52,33.3v-0.4h-0.4v2.8H52v-1.5c0-0.3,0-0.5,0.1-0.6
		s0.1-0.2,0.2-0.3c0.1-0.1,0.2-0.1,0.4-0.1c0.2,0,0.3,0,0.4,0.2c0.1,0.1,0.1,0.3,0.1,0.5v1.8h0.5V34c0-0.3,0.1-0.5,0.2-0.6
		c0.1-0.1,0.3-0.2,0.5-0.2c0.1,0,0.2,0,0.3,0.1s0.1,0.1,0.2,0.2c0,0.1,0.1,0.2,0.1,0.4v1.8H55.4z"/>
	<path class="st6" d="M53.4,48c0-0.2-0.1-0.3-0.2-0.4c-0.1-0.1-0.2-0.2-0.4-0.3c-0.2-0.1-0.3-0.1-0.5-0.1c-0.4,0-0.8,0.2-1,0.5v-0.5
		h-0.5v3.2h0.5v-1.8c0-0.4,0.1-0.7,0.3-0.8c0.2-0.2,0.4-0.2,0.6-0.2c0.1,0,0.3,0,0.4,0.1c0.1,0.1,0.2,0.2,0.2,0.3
		c0,0.1,0.1,0.3,0.1,0.5v2h0.5v-2C53.4,48.2,53.4,48.1,53.4,48z"/>
	<path d="M53,39.5c-0.2-0.1-0.4-0.1-0.8-0.1h-1v3.6h1c0.3,0,0.5,0,0.7-0.1c0.2-0.1,0.3-0.1,0.4-0.2c0.1-0.1,0.3-0.3,0.3-0.6
		c0.1-0.2,0.1-0.5,0.1-0.9c0-0.5-0.1-0.9-0.2-1.1C53.4,39.7,53.2,39.6,53,39.5z"/>
	<path d="M68.4,43.1c0.3,0,0.5-0.1,0.7-0.4s0.3-0.8,0.3-1.5c0-0.8-0.1-1.3-0.3-1.5s-0.4-0.4-0.7-0.4c-0.3,0-0.5,0.1-0.6,0.3
		c-0.2,0.3-0.3,0.8-0.3,1.6s0.1,1.3,0.3,1.5S68.2,43.1,68.4,43.1z"/>
	<path d="M40.3,40.8c-0.2-0.2-0.4-0.3-0.7-0.3c-0.3,0-0.5,0.1-0.7,0.3s-0.3,0.5-0.3,1s0.1,0.8,0.3,1s0.4,0.3,0.7,0.3
		c0.3,0,0.5-0.1,0.7-0.3c0.2-0.2,0.3-0.5,0.3-1C40.5,41.3,40.4,41,40.3,40.8z"/>
	<path d="M61.7,39.3c-0.3,0-0.5,0.1-0.6,0.3c-0.2,0.3-0.3,0.8-0.3,1.6s0.1,1.3,0.3,1.5s0.4,0.4,0.7,0.4c0.3,0,0.5-0.1,0.7-0.4
		s0.3-0.8,0.3-1.5c0-0.8-0.1-1.3-0.3-1.5S62,39.3,61.7,39.3z"/>
	<path d="M75.5,39.3c-0.3,0-0.5,0.1-0.6,0.3c-0.2,0.3-0.3,0.8-0.3,1.6s0.1,1.3,0.3,1.5s0.4,0.4,0.7,0.4c0.3,0,0.5-0.1,0.7-0.4
		s0.3-0.8,0.3-1.5c0-0.8-0.1-1.3-0.3-1.5S75.8,39.3,75.5,39.3z"/>
	<path d="M30.4,40.8c-0.2-0.2-0.4-0.3-0.7-0.3c-0.3,0-0.5,0.1-0.7,0.3s-0.3,0.4-0.3,0.7h1.9C30.6,41.2,30.5,41,30.4,40.8z"/>
	<path d="M72.7,42.7c0.2-0.3,0.3-0.8,0.3-1.5c0-0.8-0.1-1.3-0.3-1.5s-0.4-0.4-0.7-0.4c-0.3,0-0.5,0.1-0.6,0.3
		c-0.2,0.3-0.3,0.8-0.3,1.6s0.1,1.3,0.3,1.5s0.4,0.4,0.7,0.4C72.3,43.1,72.5,43,72.7,42.7z"/>
	<path d="M19.6,14.7v39.1h75.1V14.7H19.6z M80.8,17h0.9v1.9l1.8-1.9h1.2l-1.6,1.7l1.7,2.6h-1.1l-1.2-2L81.6,20v1.3h-0.9V17z
		 M76.4,17h1.8c0.5,0,0.8,0,1,0.1c0.2,0.1,0.4,0.2,0.5,0.4s0.2,0.4,0.2,0.7c0,0.3-0.1,0.6-0.3,0.8c-0.2,0.2-0.5,0.3-0.8,0.4
		c0.2,0.1,0.3,0.2,0.5,0.4c0.1,0.1,0.3,0.4,0.5,0.7l0.5,0.8h-1l-0.6-0.9c-0.2-0.3-0.4-0.5-0.5-0.6c-0.1-0.1-0.2-0.1-0.3-0.2
		c-0.1,0-0.2,0-0.4,0h-0.2v1.8h-0.9V17z M71.8,18.1c0.1-0.2,0.2-0.4,0.4-0.6s0.4-0.3,0.6-0.4c0.3-0.1,0.6-0.2,0.9-0.2
		c0.6,0,1.1,0.2,1.5,0.6c0.4,0.4,0.6,0.9,0.6,1.6c0,0.7-0.2,1.2-0.6,1.6s-0.9,0.6-1.5,0.6c-0.6,0-1.1-0.2-1.5-0.6
		c-0.4-0.4-0.6-0.9-0.6-1.6C71.6,18.7,71.6,18.4,71.8,18.1z M66.6,17l0.6,3l0.8-3h1l0.8,3l0.7-3h0.9l-1,4.3h-0.9l-0.9-3.2l-0.9,3.2
		h-0.9l-1-4.3H66.6z M62.1,17h3.4v0.7h-1.3v3.6h-0.9v-3.6h-1.3V17z M58.4,17h3.2v0.7h-2.3v1h2.2v0.7h-2.2v1.2h2.4v0.7h-3.3V17z
		 M54.1,17h0.8l1.8,2.9V17h0.8v4.3h-0.9l-1.7-2.8v2.8h-0.8V17z M48.4,17h3.2v0.7h-2.3v1h1.8l0.1-0.4l0.1,0.4h0.1v0.2l0.4,1.1h-1.2
		l0.2-0.6h-1.5v1.2h2.4v0.7h-3.3V17z M44.4,17h3.2v0.7h-2.3v1h2.2v0.7h-2.2v1.2h2.4v0.7h-3.3V17z M40.1,17h1.7c0.3,0,0.6,0,0.8,0
		s0.3,0.1,0.4,0.2s0.2,0.2,0.3,0.4c0.1,0.2,0.1,0.3,0.1,0.5c0,0.2-0.1,0.4-0.2,0.6s-0.3,0.3-0.4,0.4c0.3,0.1,0.5,0.2,0.6,0.4
		s0.2,0.4,0.2,0.6c0,0.2,0,0.4-0.1,0.6c-0.1,0.2-0.2,0.3-0.4,0.4s-0.4,0.2-0.6,0.2c-0.1,0-0.5,0-1,0h-1.5V17z M35.5,17.9
		c0.2-0.3,0.5-0.6,0.8-0.8c0.3-0.1,0.6-0.2,1-0.2c0.5,0,0.9,0.1,1.2,0.3c0.3,0.2,0.5,0.5,0.6,0.9l-0.9,0.2c-0.1-0.2-0.2-0.4-0.3-0.5
		s-0.4-0.2-0.6-0.2c-0.4,0-0.7,0.1-0.9,0.4s-0.3,0.6-0.3,1.1c0,0.5,0.1,0.9,0.3,1.1c0.2,0.3,0.5,0.4,0.9,0.4c0.2,0,0.4,0,0.5-0.1
		c0.2-0.1,0.3-0.2,0.5-0.3v-0.5h-1V19h1.9v1.7c-0.2,0.2-0.4,0.3-0.8,0.5c-0.3,0.1-0.7,0.2-1,0.2c-0.4,0-0.8-0.1-1.2-0.3
		s-0.6-0.5-0.8-0.8s-0.3-0.7-0.3-1.1C35.3,18.7,35.4,18.3,35.5,17.9z M33.7,17h0.9v4.3h-0.9V17z M29.7,20.5l2.3-2.8h-2V17h3.1v0.7
		l-2.4,2.9h2.4v0.7h-3.5V20.5z M29.7,22.5h54.9v0.8h-55L29.7,22.5z M70.5,34c-0.1-0.1-0.3-0.2-0.6-0.2c-0.1,0-0.2,0-0.3,0l0-0.4
		c0,0,0.1,0,0.1,0c0.2,0,0.4,0,0.5-0.2c0.2-0.1,0.2-0.3,0.2-0.5c0-0.2-0.1-0.3-0.2-0.4s-0.3-0.2-0.5-0.2s-0.3,0.1-0.5,0.2
		c-0.1,0.1-0.2,0.3-0.2,0.5l-0.5-0.1c0.1-0.3,0.2-0.6,0.4-0.8c0.2-0.2,0.5-0.3,0.8-0.3c0.2,0,0.4,0,0.6,0.1c0.2,0.1,0.3,0.2,0.4,0.4
		c0.1,0.2,0.1,0.3,0.1,0.5c0,0.2,0,0.3-0.1,0.5c-0.1,0.1-0.2,0.2-0.4,0.3c0.2,0,0.4,0.2,0.5,0.3c0.1,0.2,0.2,0.4,0.2,0.6
		c0,0.3-0.1,0.6-0.3,0.9c-0.2,0.2-0.6,0.4-1,0.4c-0.3,0-0.6-0.1-0.9-0.3c-0.2-0.2-0.4-0.5-0.4-0.8l0.5-0.1c0.1,0.3,0.2,0.5,0.3,0.6
		s0.3,0.2,0.5,0.2c0.2,0,0.4-0.1,0.6-0.2c0.2-0.2,0.2-0.3,0.2-0.6C70.7,34.3,70.6,34.2,70.5,34z M62.9,35.1c0.1,0.2,0.4,0.2,0.6,0.2
		c0.2,0,0.3,0,0.5-0.1c0.1-0.1,0.2-0.2,0.3-0.4l0.5,0.1c-0.1,0.3-0.2,0.5-0.4,0.7c-0.2,0.2-0.5,0.2-0.8,0.2c-0.4,0-0.7-0.1-1-0.4
		c-0.2-0.3-0.4-0.6-0.4-1.1c0-0.5,0.1-0.8,0.4-1.1s0.6-0.4,1-0.4c0.4,0,0.7,0.1,0.9,0.4s0.4,0.6,0.4,1.1c0,0,0,0.1,0,0.1h-2.1
		C62.6,34.7,62.7,35,62.9,35.1z M54.8,33.5c0-0.1-0.1-0.2-0.2-0.2s-0.2-0.1-0.3-0.1c-0.2,0-0.4,0.1-0.5,0.2
		c-0.1,0.1-0.2,0.4-0.2,0.6v1.7h-0.5v-1.8c0-0.2,0-0.4-0.1-0.5c-0.1-0.1-0.2-0.2-0.4-0.2c-0.1,0-0.3,0-0.4,0.1
		c-0.1,0.1-0.2,0.2-0.2,0.3S52,34,52,34.2v1.5h-0.5v-2.8H52v0.4c0.1-0.1,0.2-0.2,0.4-0.3c0.2-0.1,0.3-0.1,0.5-0.1
		c0.2,0,0.4,0,0.5,0.1c0.1,0.1,0.2,0.2,0.3,0.4c0.2-0.3,0.5-0.5,0.9-0.5c0.3,0,0.5,0.1,0.7,0.2c0.1,0.2,0.2,0.4,0.2,0.7v2h-0.5v-1.8
		C54.9,33.7,54.9,33.6,54.8,33.5z M46.8,27.4v-0.6h0.6v0.6H46.8z M47.5,29.4V30h-0.6v-0.6H47.5z M43.1,26L43.1,26v-0.5h3.5V26h-1.5
		V30h-0.6V26H43.1z M41.8,35.2v0.5h-2.6c0-0.1,0-0.2,0.1-0.3c0.1-0.2,0.2-0.3,0.3-0.5c0.1-0.2,0.4-0.4,0.6-0.6
		c0.4-0.4,0.7-0.6,0.9-0.8c0.1-0.2,0.2-0.4,0.2-0.6c0-0.2-0.1-0.4-0.2-0.5c-0.1-0.1-0.3-0.2-0.5-0.2c-0.2,0-0.4,0.1-0.6,0.2
		s-0.2,0.3-0.2,0.6l-0.5,0c0-0.4,0.2-0.7,0.4-0.8c0.2-0.2,0.5-0.3,0.9-0.3c0.4,0,0.7,0.1,0.9,0.3c0.2,0.2,0.3,0.5,0.3,0.8
		c0,0.2,0,0.3-0.1,0.5c-0.1,0.2-0.2,0.3-0.3,0.5c-0.2,0.2-0.4,0.4-0.7,0.7c-0.3,0.2-0.5,0.4-0.6,0.5c-0.1,0.1-0.2,0.2-0.2,0.3H41.8z
		 M40.7,30c-0.5,0-0.9-0.1-1.2-0.3c-0.3-0.2-0.5-0.5-0.7-0.9c-0.2-0.4-0.2-0.8-0.2-1.2c0-0.5,0.1-0.9,0.3-1.2
		c0.2-0.3,0.4-0.6,0.8-0.8c0.3-0.2,0.7-0.3,1.1-0.3c0.5,0,0.8,0.1,1.1,0.3s0.5,0.5,0.6,1l-0.6,0.1c-0.1-0.3-0.2-0.6-0.5-0.7
		c-0.2-0.2-0.5-0.2-0.8-0.2c-0.3,0-0.6,0.1-0.9,0.2c-0.2,0.2-0.4,0.4-0.5,0.7c-0.1,0.3-0.1,0.6-0.1,0.9c0,0.4,0.1,0.7,0.2,1
		c0.1,0.3,0.3,0.5,0.5,0.6c0.2,0.1,0.5,0.2,0.8,0.2c0.3,0,0.6-0.1,0.8-0.3c0.2-0.2,0.4-0.5,0.5-0.9l0.6,0.2
		c-0.1,0.5-0.3,0.9-0.7,1.1S41.2,30,40.7,30z M34.4,35.7c-0.2,0-0.4-0.1-0.6-0.2c-0.2-0.1-0.3-0.3-0.4-0.5c-0.1-0.2-0.2-0.5-0.2-0.8
		c0-0.3,0.1-0.5,0.1-0.8c0.1-0.2,0.2-0.4,0.4-0.5s0.4-0.2,0.6-0.2c0.2,0,0.3,0,0.5,0.1c0.1,0.1,0.2,0.2,0.3,0.3v-1.4h0.5v3.9h-0.5
		v-0.4C35,35.6,34.7,35.7,34.4,35.7z M31.2,35.8c-0.2,0-0.4-0.1-0.6-0.2c-0.2-0.1-0.3-0.3-0.4-0.5C30,34.8,30,34.6,30,34.3
		c0-0.3,0-0.5,0.1-0.8c0.1-0.2,0.2-0.4,0.4-0.5s0.4-0.2,0.6-0.2c0.2,0,0.3,0,0.5,0.1c0.1,0.1,0.2,0.2,0.3,0.3v-1.4h0.5v3.9H32v-0.4
		C31.8,35.6,31.6,35.8,31.2,35.8z M30.8,30v-4.5h0.6v4h2.2V30H30.8z M34.5,30v-4.5h3.2V26h-2.7v1.4h2.5v0.5h-2.5v1.5h2.8V30H34.5z
		 M26.5,25.5h3.2V26h-2.7v1.4h2.5v0.5h-2.5v1.5h2.8V30h-3.3V25.5z M27.5,31.8h0.6l1.6,3.9h-0.6l-0.5-1.2H27l-0.4,1.2H26L27.5,31.8z
		 M24.8,28.4c-0.1-0.1-0.2-0.2-0.4-0.3c-0.1,0-0.4-0.1-0.8-0.2c-0.4-0.1-0.7-0.2-0.9-0.3c-0.2-0.1-0.4-0.2-0.5-0.4
		c-0.1-0.2-0.2-0.4-0.2-0.6c0-0.2,0.1-0.4,0.2-0.6c0.1-0.2,0.3-0.4,0.6-0.5s0.5-0.2,0.8-0.2c0.3,0,0.6,0.1,0.9,0.2
		c0.2,0.1,0.4,0.3,0.6,0.5c0.1,0.2,0.2,0.4,0.2,0.7l-0.6,0c0-0.3-0.1-0.5-0.3-0.6c-0.2-0.1-0.4-0.2-0.8-0.2c-0.4,0-0.6,0.1-0.8,0.2
		c-0.2,0.1-0.2,0.3-0.2,0.5c0,0.2,0.1,0.3,0.2,0.4c0.1,0.1,0.4,0.2,0.9,0.3c0.5,0.1,0.8,0.2,1,0.3c0.3,0.1,0.5,0.3,0.6,0.5
		c0.1,0.2,0.2,0.4,0.2,0.6c0,0.2-0.1,0.5-0.2,0.7c-0.1,0.2-0.3,0.4-0.6,0.5s-0.5,0.2-0.9,0.2c-0.4,0-0.8-0.1-1-0.2
		c-0.3-0.1-0.5-0.3-0.6-0.5c-0.2-0.2-0.2-0.5-0.2-0.8l0.6,0c0,0.2,0.1,0.4,0.2,0.5c0.1,0.1,0.2,0.3,0.4,0.4c0.2,0.1,0.4,0.1,0.7,0.1
		c0.2,0,0.4,0,0.6-0.1s0.3-0.2,0.4-0.3c0.1-0.1,0.1-0.2,0.1-0.4C25,28.6,24.9,28.5,24.8,28.4z M22.6,33c-0.2,0.1-0.4,0.2-0.5,0.2
		v-0.5c0.3-0.1,0.5-0.3,0.7-0.5c0.2-0.2,0.3-0.4,0.4-0.5h0.3v3.9H23v-3.1C22.9,32.7,22.8,32.8,22.6,33z M22,36.6H36v0.8H22V36.6z
		 M31.5,40.5v-0.4h0.4v-0.8l0.6-0.3v1.2h0.6v0.4h-0.6v2c0,0.2,0,0.3,0,0.3c0,0,0.1,0.1,0.1,0.1s0.1,0,0.2,0c0.1,0,0.1,0,0.3,0
		l0.1,0.5c-0.2,0-0.3,0.1-0.4,0.1c-0.2,0-0.4,0-0.5-0.1S32,43.3,32,43.2c0-0.1-0.1-0.3-0.1-0.7v-1.9H31.5z M24.3,43.5h-0.6v-4.7h0.6
		l2.4,3.7v-3.7h0.6v4.7h-0.6l-2.4-3.7V43.5z M27.7,49.9c-0.1,0.2-0.3,0.4-0.6,0.5c-0.3,0.1-0.5,0.2-0.9,0.2c-0.4,0-0.8-0.1-1-0.2
		c-0.3-0.1-0.5-0.3-0.6-0.5c-0.2-0.2-0.2-0.5-0.2-0.8l0.6-0.1c0,0.2,0.1,0.4,0.2,0.6c0.1,0.1,0.2,0.3,0.5,0.3S26,50,26.3,50
		c0.2,0,0.4,0,0.6-0.1c0.2-0.1,0.3-0.2,0.4-0.3s0.1-0.2,0.1-0.4s0-0.3-0.1-0.4s-0.2-0.2-0.4-0.3c-0.1,0-0.4-0.1-0.8-0.2
		c-0.4-0.1-0.7-0.2-0.9-0.3c-0.2-0.1-0.4-0.2-0.5-0.4c-0.1-0.2-0.2-0.3-0.2-0.6c0-0.2,0.1-0.4,0.2-0.6c0.1-0.2,0.3-0.3,0.6-0.5
		c0.2-0.1,0.5-0.1,0.8-0.1c0.3,0,0.6,0,0.9,0.2c0.2,0.1,0.5,0.3,0.6,0.5c0.1,0.2,0.2,0.4,0.2,0.7l-0.6,0c0-0.3-0.1-0.5-0.3-0.6
		s-0.4-0.2-0.8-0.2c-0.4,0-0.6,0.1-0.8,0.2c-0.2,0.1-0.2,0.3-0.2,0.5c0,0.2,0.1,0.3,0.2,0.4c0.1,0.1,0.4,0.2,0.9,0.3s0.8,0.2,1,0.3
		c0.3,0.1,0.5,0.3,0.6,0.5c0.1,0.2,0.2,0.4,0.2,0.6C28,49.5,27.9,49.7,27.7,49.9z M28.1,41.8c0-0.6,0.1-1,0.4-1.3
		c0.3-0.3,0.7-0.5,1.1-0.5c0.5,0,0.8,0.2,1.1,0.5c0.3,0.3,0.4,0.7,0.4,1.3c0,0,0,0.1,0,0.2h-2.5c0,0.4,0.1,0.7,0.3,0.9
		c0.2,0.2,0.4,0.3,0.7,0.3c0.2,0,0.4-0.1,0.5-0.2c0.1-0.1,0.3-0.3,0.4-0.5l0.6,0.1c-0.1,0.3-0.3,0.6-0.5,0.8c-0.3,0.2-0.6,0.3-1,0.3
		c-0.5,0-0.9-0.2-1.2-0.5C28.2,42.8,28.1,42.4,28.1,41.8z M29.7,50.5c-0.2,0-0.4,0-0.5-0.1s-0.2-0.1-0.2-0.2c0-0.1-0.1-0.3-0.1-0.6
		v-1.9h-0.4v-0.4H29v-0.8l0.5-0.3v1.1H30v0.4h-0.5v1.9c0,0.2,0,0.3,0,0.3c0,0,0,0.1,0.1,0.1c0,0,0.1,0,0.2,0c0.1,0,0.1,0,0.2,0
		l0.1,0.5C30,50.5,29.8,50.5,29.7,50.5z M33,50.5L33,50.5c-0.1-0.1-0.1-0.3-0.1-0.4c-0.2,0.2-0.4,0.3-0.6,0.4s-0.4,0.1-0.6,0.1
		c-0.4,0-0.6-0.1-0.8-0.3c-0.2-0.2-0.3-0.4-0.3-0.7c0-0.2,0-0.3,0.1-0.4c0.1-0.1,0.2-0.2,0.3-0.3c0.1-0.1,0.2-0.1,0.4-0.2
		c0.1,0,0.3-0.1,0.5-0.1c0.4-0.1,0.8-0.1,1-0.2c0-0.1,0-0.1,0-0.1c0-0.2,0-0.4-0.2-0.5c-0.1-0.1-0.4-0.2-0.6-0.2
		c-0.3,0-0.5,0.1-0.6,0.1c-0.1,0.1-0.2,0.2-0.3,0.5l-0.5-0.1c0-0.2,0.1-0.4,0.2-0.6c0.1-0.1,0.3-0.2,0.5-0.3
		c0.2-0.1,0.5-0.1,0.7-0.1c0.3,0,0.5,0,0.7,0.1c0.2,0.1,0.3,0.2,0.4,0.2c0.1,0.1,0.1,0.2,0.2,0.4c0,0.1,0,0.3,0,0.5v0.7
		c0,0.5,0,0.8,0,1c0,0.1,0.1,0.3,0.1,0.4H33z M35.2,50.5c-0.2,0-0.3,0-0.5-0.1c-0.1-0.1-0.2-0.1-0.2-0.2c0-0.1-0.1-0.3-0.1-0.6v-1.9
		h-0.4v-0.4h0.4v-0.8l0.6-0.3v1.1h0.5v0.4H35v1.9c0,0.2,0,0.3,0,0.3c0,0,0,0.1,0.1,0.1c0,0,0.1,0,0.2,0c0.1,0,0.1,0,0.2,0l0.1,0.5
		C35.5,50.5,35.4,50.5,35.2,50.5z M35.6,41.5l-0.1-0.6l-0.7,2.6h-0.6l-1-3.4h0.6l0.5,1.9l0.2,0.7c0,0,0.1-0.3,0.2-0.7l0.5-2h0.6
		l0.5,2l0.2,0.6l0.2-0.7l0.6-1.9h0.6l-1.1,3.4h-0.6L35.6,41.5z M38.9,50.5h-0.5V50c-0.2,0.4-0.6,0.5-1,0.5c-0.2,0-0.4,0-0.5-0.1
		c-0.2-0.1-0.3-0.2-0.4-0.3c-0.1-0.1-0.1-0.2-0.2-0.4c0-0.1,0-0.3,0-0.5v-2h0.5V49c0,0.3,0,0.5,0,0.6c0,0.1,0.1,0.3,0.2,0.3
		s0.2,0.1,0.4,0.1c0.2,0,0.3,0,0.5-0.1c0.1-0.1,0.2-0.2,0.3-0.3c0.1-0.2,0.1-0.4,0.1-0.6v-1.7h0.5V50.5z M38.4,43.1
		c-0.3-0.3-0.4-0.7-0.4-1.3c0-0.6,0.2-1.1,0.5-1.4c0.3-0.2,0.6-0.4,1.1-0.4c0.5,0,0.8,0.2,1.1,0.5s0.4,0.7,0.4,1.3
		c0,0.4-0.1,0.8-0.2,1c-0.1,0.2-0.3,0.4-0.6,0.6s-0.5,0.2-0.8,0.2C39.1,43.5,38.7,43.4,38.4,43.1z M42.2,50
		c-0.1,0.2-0.3,0.3-0.5,0.4c-0.2,0.1-0.4,0.1-0.7,0.1c-0.4,0-0.7-0.1-1-0.3c-0.2-0.2-0.4-0.4-0.4-0.8l0.5-0.1c0,0.2,0.1,0.4,0.3,0.5
		c0.1,0.1,0.3,0.2,0.6,0.2c0.2,0,0.4,0,0.6-0.2c0.1-0.1,0.2-0.2,0.2-0.4c0-0.1,0-0.2-0.2-0.3c-0.1,0-0.3-0.1-0.6-0.2
		c-0.4-0.1-0.7-0.2-0.8-0.3c-0.2-0.1-0.3-0.2-0.4-0.3c-0.1-0.1-0.1-0.3-0.1-0.4c0-0.1,0-0.3,0.1-0.4s0.2-0.2,0.3-0.3
		c0.1-0.1,0.2-0.1,0.4-0.2c0.1,0,0.3-0.1,0.5-0.1c0.2,0,0.5,0,0.7,0.1s0.3,0.2,0.4,0.3c0.1,0.1,0.2,0.3,0.2,0.5l-0.5,0.1
		c0-0.2-0.1-0.3-0.2-0.4c-0.1-0.1-0.3-0.1-0.5-0.1c-0.2,0-0.4,0-0.5,0.1c-0.1,0.1-0.2,0.2-0.2,0.3c0,0.1,0,0.1,0.1,0.2
		c0,0.1,0.1,0.1,0.2,0.1c0,0,0.2,0.1,0.5,0.1c0.4,0.1,0.7,0.2,0.8,0.3c0.2,0.1,0.3,0.2,0.4,0.3c0.1,0.1,0.1,0.3,0.1,0.5
		C42.4,49.7,42.3,49.9,42.2,50z M43.4,40.7c-0.1-0.1-0.3-0.1-0.4-0.1c-0.1,0-0.2,0-0.3,0.1s-0.2,0.2-0.2,0.3
		c-0.1,0.2-0.1,0.4-0.1,0.7v1.8h-0.6v-3.4h0.5v0.5c0.1-0.2,0.3-0.4,0.4-0.5c0.1-0.1,0.2-0.1,0.4-0.1c0.2,0,0.4,0.1,0.6,0.2
		L43.4,40.7z M45.9,50.5h-0.6v-0.6h0.6V50.5z M45.9,47.9h-0.6v-0.6h0.6V47.9z M45.9,43.5l-1.1-1.7l-0.4,0.4v1.3h-0.6v-4.7h0.6v2.7
		l1.4-1.4h0.7l-1.3,1.2l1.4,2.1H45.9z M47.1,35.7l-0.5-0.8c-0.1-0.2-0.3-0.4-0.4-0.5c-0.1-0.1-0.2-0.2-0.3-0.3
		c-0.1,0-0.2-0.1-0.2-0.1c-0.1,0-0.2,0-0.3,0h-0.6v1.7h-0.5v-3.9h1.7c0.3,0,0.6,0,0.8,0.1c0.2,0.1,0.3,0.2,0.4,0.4s0.2,0.4,0.2,0.6
		c0,0.3-0.1,0.5-0.3,0.7s-0.5,0.3-0.8,0.4c0.1,0.1,0.2,0.1,0.3,0.2c0.2,0.1,0.3,0.3,0.4,0.5l0.7,1.1H47.1z M49.6,50.5H49V46h0.6
		V50.5z M48.9,43.5v-4.7h0.6v4.7H48.9z M49.5,35.8c-0.4,0-0.7-0.1-1-0.4c-0.2-0.3-0.4-0.6-0.4-1.1c0-0.5,0.1-0.8,0.4-1.1
		s0.6-0.4,1-0.4c0.4,0,0.7,0.1,0.9,0.4s0.4,0.6,0.4,1.1c0,0,0,0.1,0,0.1h-2.1c0,0.3,0.1,0.5,0.3,0.7s0.4,0.2,0.6,0.2
		c0.2,0,0.3,0,0.4-0.1c0.1-0.1,0.2-0.2,0.3-0.4l0.5,0.1c-0.1,0.3-0.2,0.5-0.4,0.7C50.1,35.7,49.9,35.8,49.5,35.8z M53.4,50.5h-0.5
		v-2c0-0.2,0-0.4-0.1-0.5c0-0.1-0.1-0.2-0.2-0.3c-0.1-0.1-0.2-0.1-0.4-0.1c-0.2,0-0.4,0.1-0.6,0.2c-0.2,0.1-0.3,0.4-0.3,0.8v1.8
		h-0.5v-3.2h0.5v0.5c0.2-0.4,0.6-0.5,1-0.5c0.2,0,0.4,0,0.5,0.1c0.2,0.1,0.3,0.2,0.4,0.3c0.1,0.1,0.1,0.2,0.2,0.4c0,0.1,0,0.3,0,0.5
		V50.5L53.4,50.5L53.4,50.5z M53.6,43.2c-0.2,0.1-0.3,0.2-0.6,0.2s-0.5,0.1-0.7,0.1h-1.7v-4.7h1.6c0.4,0,0.6,0,0.8,0.1
		c0.3,0.1,0.5,0.2,0.7,0.3c0.2,0.2,0.4,0.5,0.6,0.8c0.1,0.3,0.2,0.7,0.2,1.1c0,0.4,0,0.7-0.1,0.9c-0.1,0.3-0.2,0.5-0.3,0.7
		C53.9,42.9,53.7,43.1,53.6,43.2z M56.6,50.2c-0.2,0.2-0.5,0.3-0.9,0.3c-0.4,0-0.8-0.1-1.1-0.4c-0.3-0.3-0.4-0.7-0.4-1.2
		c0-0.3,0.1-0.7,0.2-0.9c0.1-0.3,0.3-0.5,0.5-0.6c0.2-0.1,0.5-0.2,0.8-0.2c0.3,0,0.6,0.1,0.9,0.3c0.2,0.2,0.4,0.4,0.4,0.8l-0.5,0.1
		c0-0.2-0.1-0.4-0.3-0.5s-0.3-0.2-0.5-0.2c-0.3,0-0.5,0.1-0.7,0.3c-0.2,0.2-0.3,0.5-0.3,0.9c0,0.4,0.1,0.8,0.2,1
		c0.2,0.2,0.4,0.3,0.7,0.3c0.2,0,0.4-0.1,0.5-0.2c0.1-0.1,0.2-0.3,0.3-0.6l0.5,0.1C57,49.7,56.8,50,56.6,50.2z M57.7,42.8v0.7H57
		v-0.7H57.7z M57,40.8v-0.7h0.7v0.7H57z M58.2,50.5h-0.5V46h0.5V50.5z M58.5,35.1c-0.1,0.2-0.3,0.4-0.5,0.5s-0.4,0.2-0.7,0.2
		c-0.4,0-0.7-0.1-1-0.4c-0.2-0.2-0.4-0.6-0.4-1.1c0-0.5,0.2-0.9,0.4-1.2c0.2-0.2,0.5-0.3,0.9-0.3c0.4,0,0.7,0.1,1,0.4
		c0.2,0.3,0.4,0.6,0.4,1.1C58.7,34.6,58.7,34.9,58.5,35.1z M59.6,32.9l0.6,1.7c0.1,0.2,0.1,0.4,0.2,0.6c0-0.2,0.1-0.3,0.2-0.5
		l0.6-1.7h0.5l-1.1,2.8h-0.5l-1.1-2.8H59.6z M61.9,50.5h-0.5V50c-0.2,0.4-0.6,0.5-1,0.5c-0.2,0-0.4,0-0.5-0.1
		c-0.2-0.1-0.3-0.2-0.4-0.3c-0.1-0.1-0.1-0.2-0.2-0.4c0-0.1,0-0.3,0-0.5v-2h0.6V49c0,0.3,0,0.5,0,0.6c0,0.1,0.1,0.3,0.2,0.3
		c0.1,0.1,0.2,0.1,0.4,0.1s0.3,0,0.5-0.1c0.1-0.1,0.2-0.2,0.3-0.3c0.1-0.2,0.1-0.4,0.1-0.6v-1.7h0.5V50.5z M61.7,43.5
		c-0.4,0-0.8-0.2-1.1-0.5c-0.3-0.4-0.5-1-0.5-1.9c0-0.5,0.1-1,0.2-1.3c0.1-0.3,0.3-0.6,0.5-0.8c0.2-0.2,0.5-0.3,0.8-0.3
		c0.2,0,0.5,0.1,0.7,0.2c0.2,0.1,0.3,0.2,0.5,0.4c0.1,0.2,0.2,0.4,0.3,0.7c0.1,0.3,0.1,0.6,0.1,1.1c0,0.5-0.1,1-0.2,1.3
		c-0.1,0.3-0.3,0.6-0.5,0.8C62.3,43.5,62.1,43.5,61.7,43.5z M65.2,50c-0.1,0.2-0.3,0.3-0.5,0.4c-0.2,0.1-0.4,0.1-0.7,0.1
		c-0.4,0-0.7-0.1-1-0.3c-0.2-0.2-0.4-0.4-0.4-0.8l0.5-0.1c0,0.2,0.1,0.4,0.3,0.5c0.1,0.1,0.3,0.2,0.6,0.2c0.2,0,0.4,0,0.6-0.2
		c0.1-0.1,0.2-0.2,0.2-0.4c0-0.1,0-0.2-0.2-0.3c-0.1,0-0.3-0.1-0.6-0.2c-0.4-0.1-0.7-0.2-0.8-0.3c-0.2-0.1-0.3-0.2-0.3-0.3
		s-0.1-0.3-0.1-0.4c0-0.1,0-0.3,0.1-0.4s0.2-0.2,0.3-0.3c0.1-0.1,0.2-0.1,0.3-0.2c0.2,0,0.3-0.1,0.5-0.1c0.2,0,0.5,0,0.7,0.1
		s0.3,0.2,0.4,0.3s0.2,0.3,0.2,0.5l-0.5,0.1c0-0.2-0.1-0.3-0.2-0.4c-0.1-0.1-0.3-0.1-0.5-0.1c-0.2,0-0.4,0-0.5,0.1
		c-0.1,0.1-0.2,0.2-0.2,0.3c0,0.1,0,0.1,0.1,0.2c0,0.1,0.1,0.1,0.2,0.1c0,0,0.2,0.1,0.5,0.1c0.4,0.1,0.7,0.2,0.8,0.3
		c0.1,0.1,0.3,0.2,0.4,0.3s0.1,0.3,0.1,0.5C65.3,49.7,65.3,49.9,65.2,50z M65.3,42.4l-0.2-0.3l-0.9,1.3h-0.7l1.2-1.8l-1.1-1.6h0.7
		l0.5,0.8c0.1,0.2,0.2,0.3,0.2,0.4c0.1-0.1,0.2-0.3,0.3-0.4l0.6-0.8h0.7l-1.2,1.6l1.3,1.8H66L65.3,42.4z M66.7,50.5h-0.6v-3.2h0.6
		V50.5z M66.7,46.6h-0.6V46h0.6V46.6z M66.9,41.2c0-0.5,0.1-1,0.2-1.3c0.1-0.3,0.3-0.6,0.5-0.8c0.2-0.2,0.5-0.3,0.8-0.3
		c0.2,0,0.5,0.1,0.7,0.2c0.2,0.1,0.3,0.2,0.5,0.4c0.1,0.2,0.2,0.4,0.3,0.7c0.1,0.3,0.1,0.6,0.1,1.1c0,0.5-0.1,1-0.2,1.3
		c-0.1,0.3-0.3,0.6-0.5,0.8c-0.2,0.2-0.5,0.3-0.8,0.3c-0.4,0-0.8-0.2-1.1-0.5C67.1,42.7,66.9,42,66.9,41.2z M70.3,49.8
		c-0.1,0.2-0.3,0.4-0.5,0.6c-0.2,0.1-0.5,0.2-0.8,0.2c-0.5,0-0.8-0.1-1.1-0.4c-0.3-0.3-0.4-0.7-0.4-1.3c0-0.6,0.2-1.1,0.5-1.3
		c0.3-0.2,0.6-0.4,1-0.4c0.4,0,0.8,0.1,1.1,0.4c0.3,0.3,0.4,0.7,0.4,1.2C70.5,49.2,70.5,49.5,70.3,49.8z M70.9,43.1
		c-0.3-0.4-0.5-1-0.5-1.9c0-0.5,0.1-1,0.2-1.3c0.1-0.3,0.3-0.6,0.5-0.8c0.2-0.2,0.5-0.3,0.8-0.3c0.2,0,0.5,0.1,0.7,0.2
		c0.2,0.1,0.3,0.2,0.5,0.4c0.1,0.2,0.2,0.4,0.3,0.7c0.1,0.3,0.1,0.6,0.1,1.1c0,0.5-0.1,1-0.2,1.3c-0.1,0.3-0.3,0.6-0.5,0.8
		c-0.2,0.2-0.5,0.3-0.8,0.3C71.5,43.5,71.2,43.4,70.9,43.1z M74,50.5h-0.5v-2c0-0.2,0-0.4-0.1-0.5c0-0.1-0.1-0.2-0.2-0.3
		c-0.1-0.1-0.2-0.1-0.4-0.1c-0.2,0-0.4,0.1-0.6,0.2c-0.2,0.1-0.3,0.4-0.3,0.8v1.8h-0.5v-3.2h0.5v0.5c0.2-0.4,0.6-0.5,1-0.5
		c0.2,0,0.4,0,0.5,0.1c0.2,0.1,0.3,0.2,0.4,0.3c0.1,0.1,0.1,0.2,0.2,0.4c0,0.1,0,0.3,0,0.5V50.5L74,50.5L74,50.5z M76.9,42.5
		c-0.1,0.3-0.3,0.6-0.5,0.8c-0.2,0.2-0.5,0.3-0.8,0.3c-0.4,0-0.8-0.2-1.1-0.5c-0.3-0.4-0.5-1-0.5-1.9c0-0.5,0.1-1,0.2-1.3
		c0.1-0.3,0.3-0.6,0.5-0.8c0.2-0.2,0.5-0.3,0.8-0.3c0.2,0,0.5,0.1,0.7,0.2c0.2,0.1,0.3,0.2,0.5,0.4c0.1,0.2,0.2,0.4,0.3,0.7
		c0.1,0.3,0.1,0.6,0.1,1.1C77.1,41.7,77,42.2,76.9,42.5z M76.5,35.7L76,34.9c-0.2-0.2-0.3-0.4-0.4-0.5c-0.1-0.1-0.2-0.2-0.3-0.3
		c-0.1,0-0.2-0.1-0.2-0.1c-0.1,0-0.2,0-0.3,0h-0.6v1.7h-0.5v-3.9h1.7c0.4,0,0.6,0,0.8,0.1c0.2,0.1,0.3,0.2,0.4,0.4
		c0.1,0.2,0.2,0.4,0.2,0.6c0,0.3-0.1,0.5-0.3,0.7s-0.5,0.3-0.8,0.4C75.9,34,76,34,76,34.1c0.1,0.1,0.3,0.3,0.4,0.5l0.7,1.1H76.5z
		 M80.2,34.4H78c0,0.3,0.1,0.5,0.3,0.7c0.2,0.2,0.4,0.2,0.6,0.2c0.2,0,0.3,0,0.5-0.1c0.1-0.1,0.2-0.2,0.3-0.4l0.5,0.1
		c-0.1,0.3-0.2,0.5-0.4,0.7c-0.2,0.2-0.5,0.2-0.8,0.2c-0.4,0-0.7-0.1-1-0.4c-0.2-0.3-0.4-0.6-0.4-1.1c0-0.5,0.1-0.8,0.4-1.1
		s0.6-0.4,1-0.4c0.4,0,0.7,0.1,0.9,0.4s0.4,0.6,0.4,1.1C80.2,34.3,80.2,34.3,80.2,34.4z M82.9,35.3c-0.1,0.1-0.2,0.2-0.4,0.3
		c-0.2,0.1-0.4,0.1-0.6,0.1c-0.4,0-0.6-0.1-0.8-0.2c-0.2-0.1-0.3-0.4-0.4-0.7l0.5-0.1c0,0.2,0.1,0.3,0.2,0.4
		c0.1,0.1,0.3,0.2,0.5,0.2c0.2,0,0.4,0,0.5-0.1c0.1-0.1,0.2-0.2,0.2-0.3c0-0.1,0-0.2-0.1-0.3c-0.1,0-0.2-0.1-0.5-0.2
		c-0.3-0.1-0.6-0.2-0.7-0.2c-0.1-0.1-0.2-0.2-0.3-0.3c-0.1-0.1-0.1-0.2-0.1-0.4c0-0.1,0-0.2,0.1-0.3s0.1-0.2,0.2-0.3
		c0.1-0.1,0.2-0.1,0.3-0.1c0.1,0,0.3-0.1,0.4-0.1c0.2,0,0.4,0,0.6,0.1c0.2,0.1,0.3,0.1,0.4,0.3c0.1,0.1,0.1,0.3,0.2,0.4l-0.5,0.1
		c0-0.2-0.1-0.3-0.2-0.3c-0.1-0.1-0.2-0.1-0.4-0.1c-0.2,0-0.4,0-0.5,0.1c-0.1,0.1-0.1,0.2-0.1,0.3c0,0.1,0,0.1,0.1,0.2
		c0,0,0.1,0.1,0.2,0.1c0,0,0.2,0.1,0.4,0.1c0.3,0.1,0.6,0.2,0.7,0.2c0.1,0.1,0.2,0.1,0.3,0.2c0.1,0.1,0.1,0.2,0.1,0.4
		C83.1,35,83,35.2,82.9,35.3z M86.2,34.4h-2.1c0,0.3,0.1,0.5,0.3,0.7c0.2,0.2,0.4,0.2,0.6,0.2c0.2,0,0.3,0,0.5-0.1
		c0.1-0.1,0.2-0.2,0.3-0.4l0.5,0.1c-0.1,0.3-0.2,0.5-0.4,0.7c-0.2,0.2-0.5,0.2-0.8,0.2c-0.4,0-0.7-0.1-1-0.4
		c-0.2-0.3-0.4-0.6-0.4-1.1c0-0.5,0.1-0.8,0.4-1.1s0.6-0.4,1-0.4c0.4,0,0.7,0.1,0.9,0.4s0.4,0.6,0.4,1.1
		C86.2,34.3,86.2,34.3,86.2,34.4z M87.7,35.7c-0.2,0-0.3,0-0.4-0.1c-0.1-0.1-0.2-0.1-0.2-0.2c0-0.1-0.1-0.3-0.1-0.6v-1.6h-0.4v-0.4
		H87v-0.7l0.5-0.3v1H88v0.4h-0.5v1.7c0,0.1,0,0.2,0,0.3c0,0,0,0.1,0.1,0.1s0.1,0,0.2,0c0.1,0,0.1,0,0.2,0l0.1,0.4
		C87.9,35.7,87.8,35.7,87.7,35.7z"/>
</g>
</svg>
