<?xml version="1.0" encoding="utf-8"?>
<!-- Generator: Adobe Illustrator 24.2.1, SVG Export Plug-In . SVG Version: 6.00 Build 0)  -->
<svg version="1.1" id="Laag_1" xmlns="http://www.w3.org/2000/svg" xmlns:xlink="http://www.w3.org/1999/xlink" x="0px" y="0px"
	 viewBox="0 0 471.25 200.33" style="enable-background:new 0 0 471.25 200.33;" xml:space="preserve">
<style type="text/css">
	.st0{fill:#F28A19;}
</style>
<path class="st0" d="M311.72,31.7h-4.71v-3.83c0-14.57-11.81-26.38-26.38-26.38h-1.05c-14.31,0-25.91,11.6-25.91,25.91v4.3v53.34
	h53.34h3.41c14.8,0,26.79-12,26.79-26.79V57.2C337.21,43.12,325.8,31.7,311.72,31.7"/>
<path class="st0" d="M118.06,0.61c-23.56,0-42.66,19.1-42.66,42.66c0,23.56,19.1,42.66,42.66,42.66c23.56,0,42.66-19.1,42.66-42.66
	C160.72,19.71,141.62,0.61,118.06,0.61"/>
<path class="st0" d="M38.75,1.94H0.15L0,84.6h71.72v0c0-9.74-4.99-18.31-12.54-23.31c7.77-6.08,12.77-15.53,12.77-26.16
	C71.95,16.8,57.08,1.94,38.75,1.94"/>
<path class="st0" d="M292.41,90.64h-38.6l-0.15,82.82h71.72v0c0-9.76-4.99-18.34-12.54-23.35c7.77-6.09,12.77-15.56,12.77-26.21
	C325.61,105.53,310.75,90.64,292.41,90.64"/>
<path class="st0" d="M369.6,90.64h-38.6l-0.15,82.82h71.72v0c0-9.76-4.99-18.34-12.54-23.35c7.77-6.09,12.77-15.56,12.77-26.21
	C402.8,105.53,387.94,90.64,369.6,90.64"/>
<path class="st0" d="M223.53,31.7h-4.71v-3.83c0-14.57-11.81-26.38-26.38-26.38h-1.06c-14.31,0-25.91,11.6-25.91,25.91v4.3v53.34
	h53.34h3.41c14.8,0,26.79-12,26.79-26.79V57.2C249.02,43.12,237.61,31.7,223.53,31.7"/>
<g>
	<path class="st0" d="M13.39,200.05H11.6l-3.09-8.37H8.46l-2.74,8.37H3.86l-3.53-10.88h2l2.49,8.37h0.05l2.81-8.37h1.91l2.86,8.37
		h0.05l2.46-8.37h1.95L13.39,200.05z"/>
	<path class="st0" d="M28.67,198.07c-0.65,0.84-1.36,1.42-2.14,1.76c-0.78,0.33-1.67,0.5-2.7,0.5c-0.85,0-1.62-0.15-2.3-0.45
		c-0.68-0.3-1.26-0.71-1.73-1.22c-0.47-0.51-0.84-1.12-1.09-1.81c-0.26-0.7-0.38-1.44-0.38-2.23c0-0.84,0.14-1.61,0.42-2.31
		c0.28-0.71,0.67-1.31,1.16-1.81c0.5-0.5,1.08-0.9,1.77-1.17c0.68-0.28,1.43-0.42,2.23-0.42c0.76,0,1.46,0.13,2.09,0.38
		c0.64,0.25,1.18,0.63,1.64,1.12c0.46,0.49,0.81,1.09,1.06,1.79c0.25,0.71,0.37,1.51,0.37,2.41v0.58h-8.79
		c0.03,0.46,0.14,0.91,0.34,1.34c0.19,0.43,0.45,0.8,0.76,1.12c0.31,0.32,0.67,0.57,1.09,0.76c0.42,0.19,0.88,0.28,1.37,0.28
		c0.79,0,1.46-0.14,2-0.42c0.54-0.28,1.03-0.69,1.46-1.23L28.67,198.07z M27.11,193.63c-0.03-0.93-0.33-1.67-0.91-2.23
		c-0.57-0.56-1.36-0.84-2.37-0.84c-1.01,0-1.82,0.28-2.44,0.84c-0.62,0.56-0.99,1.3-1.12,2.23H27.11z"/>
	<path class="st0" d="M38.5,182.47h1.81v17.58H38.5V182.47z"/>
	<path class="st0" d="M43.29,194.61c0-0.85,0.15-1.63,0.44-2.33c0.29-0.7,0.7-1.3,1.21-1.8c0.51-0.5,1.12-0.9,1.84-1.17
		c0.71-0.28,1.49-0.42,2.33-0.42c0.84,0,1.61,0.14,2.32,0.42c0.71,0.28,1.33,0.67,1.84,1.17c0.51,0.5,0.91,1.1,1.21,1.8
		c0.29,0.7,0.44,1.47,0.44,2.33s-0.15,1.63-0.44,2.33c-0.29,0.7-0.7,1.3-1.21,1.8c-0.51,0.5-1.12,0.89-1.84,1.17
		c-0.71,0.28-1.49,0.42-2.32,0.42c-0.84,0-1.61-0.14-2.33-0.42c-0.71-0.28-1.33-0.67-1.84-1.17c-0.51-0.5-0.91-1.1-1.21-1.8
		C43.44,196.23,43.29,195.46,43.29,194.61z M45.25,194.61c0,0.57,0.09,1.1,0.27,1.59c0.18,0.49,0.44,0.91,0.78,1.28
		c0.34,0.36,0.75,0.65,1.22,0.86c0.47,0.21,1,0.31,1.59,0.31c0.59,0,1.12-0.1,1.59-0.31c0.47-0.21,0.88-0.5,1.22-0.86
		c0.34-0.36,0.6-0.79,0.78-1.28c0.18-0.49,0.27-1.02,0.27-1.59s-0.09-1.1-0.27-1.59c-0.18-0.49-0.44-0.91-0.78-1.28
		c-0.34-0.36-0.75-0.65-1.22-0.86c-0.47-0.21-1-0.31-1.59-0.31c-0.59,0-1.12,0.1-1.59,0.31c-0.47,0.21-0.88,0.5-1.22,0.86
		c-0.34,0.36-0.6,0.79-0.78,1.28C45.33,193.5,45.25,194.03,45.25,194.61z"/>
	<path class="st0" d="M62.68,200.05h-2l-4.44-10.88h2.12l3.4,8.53h0.05l3.23-8.53h1.95L62.68,200.05z"/>
	<path class="st0" d="M78.66,198.07c-0.65,0.84-1.36,1.42-2.14,1.76c-0.78,0.33-1.67,0.5-2.7,0.5c-0.85,0-1.62-0.15-2.3-0.45
		c-0.68-0.3-1.26-0.71-1.73-1.22c-0.47-0.51-0.84-1.12-1.09-1.81c-0.26-0.7-0.38-1.44-0.38-2.23c0-0.84,0.14-1.61,0.42-2.31
		c0.28-0.71,0.67-1.31,1.16-1.81c0.5-0.5,1.08-0.9,1.77-1.17c0.68-0.28,1.43-0.42,2.23-0.42c0.76,0,1.46,0.13,2.09,0.38
		c0.64,0.25,1.18,0.63,1.64,1.12c0.46,0.49,0.81,1.09,1.06,1.79c0.25,0.71,0.37,1.51,0.37,2.41v0.58h-8.79
		c0.03,0.46,0.14,0.91,0.34,1.34c0.19,0.43,0.45,0.8,0.76,1.12c0.31,0.32,0.67,0.57,1.09,0.76c0.42,0.19,0.88,0.28,1.37,0.28
		c0.79,0,1.46-0.14,2-0.42c0.54-0.28,1.03-0.69,1.46-1.23L78.66,198.07z M77.1,193.63c-0.03-0.93-0.33-1.67-0.91-2.23
		c-0.57-0.56-1.36-0.84-2.37-0.84c-1.01,0-1.82,0.28-2.44,0.84c-0.62,0.56-0.99,1.3-1.12,2.23H77.1z"/>
	<path class="st0" d="M88.56,197.19c0.36,0.45,0.75,0.81,1.17,1.07c0.43,0.26,0.96,0.39,1.62,0.39c0.28,0,0.56-0.03,0.85-0.09
		c0.29-0.06,0.55-0.16,0.78-0.3c0.23-0.14,0.42-0.31,0.56-0.52c0.14-0.21,0.21-0.46,0.21-0.76c0-0.29-0.07-0.53-0.2-0.72
		c-0.13-0.19-0.31-0.34-0.52-0.48c-0.22-0.13-0.47-0.24-0.74-0.31c-0.28-0.08-0.57-0.15-0.86-0.21c-0.51-0.11-1-0.23-1.46-0.37
		c-0.46-0.14-0.87-0.32-1.22-0.55c-0.35-0.22-0.63-0.52-0.84-0.87c-0.21-0.36-0.31-0.81-0.31-1.37c0-0.53,0.12-0.99,0.35-1.39
		c0.23-0.4,0.54-0.74,0.93-1c0.39-0.26,0.82-0.46,1.3-0.6c0.48-0.14,0.98-0.21,1.49-0.21c0.77,0,1.49,0.16,2.15,0.46
		c0.66,0.31,1.17,0.81,1.55,1.51l-1.51,1c-0.23-0.39-0.54-0.7-0.92-0.94c-0.38-0.24-0.84-0.36-1.38-0.36c-0.25,0-0.5,0.03-0.76,0.09
		c-0.26,0.06-0.48,0.16-0.69,0.28c-0.2,0.12-0.37,0.28-0.5,0.48c-0.13,0.19-0.2,0.42-0.2,0.66c0,0.23,0.07,0.43,0.22,0.59
		c0.15,0.16,0.35,0.31,0.6,0.43c0.26,0.12,0.55,0.23,0.88,0.33c0.33,0.09,0.68,0.17,1.03,0.23c0.48,0.09,0.94,0.21,1.37,0.36
		c0.43,0.15,0.81,0.34,1.14,0.59c0.33,0.25,0.58,0.56,0.77,0.93c0.19,0.37,0.28,0.83,0.28,1.37c0,0.62-0.12,1.15-0.37,1.58
		c-0.25,0.43-0.58,0.79-0.99,1.06c-0.41,0.27-0.88,0.47-1.4,0.59c-0.52,0.12-1.05,0.19-1.59,0.19c-0.93,0-1.73-0.14-2.41-0.43
		c-0.67-0.29-1.28-0.82-1.83-1.59L88.56,197.19z"/>
	<path class="st0" d="M98.23,191.75c0-0.5-0.02-0.96-0.05-1.39c-0.03-0.43-0.05-0.83-0.05-1.19h1.72c0,0.29,0.01,0.59,0.02,0.88
		c0.02,0.29,0.02,0.6,0.02,0.91h0.05c0.12-0.26,0.3-0.52,0.52-0.77c0.22-0.25,0.49-0.47,0.8-0.66c0.31-0.19,0.66-0.35,1.05-0.46
		c0.39-0.12,0.81-0.17,1.26-0.17c0.59,0,1.08,0.07,1.48,0.22c0.39,0.15,0.72,0.33,0.99,0.53c0.26,0.21,0.47,0.43,0.62,0.67
		c0.15,0.24,0.27,0.45,0.36,0.64c0.4-0.65,0.87-1.16,1.39-1.52c0.53-0.36,1.21-0.55,2.05-0.55c0.77,0,1.43,0.1,1.95,0.31
		c0.53,0.21,0.95,0.51,1.28,0.91c0.33,0.39,0.56,0.88,0.7,1.44c0.14,0.57,0.21,1.2,0.21,1.89v6.6h-1.81v-6.51
		c0-0.37-0.04-0.74-0.12-1.09c-0.08-0.36-0.22-0.67-0.42-0.95c-0.2-0.28-0.47-0.5-0.81-0.67c-0.34-0.17-0.78-0.26-1.3-0.26
		c-0.39,0-0.75,0.08-1.09,0.23c-0.34,0.16-0.64,0.37-0.89,0.65c-0.26,0.28-0.46,0.62-0.6,1.01c-0.15,0.4-0.22,0.83-0.22,1.31v6.28
		h-1.81v-6.16c0-1.21-0.16-2.07-0.49-2.57c-0.33-0.5-0.86-0.76-1.6-0.76c-0.59,0-1.1,0.1-1.52,0.3c-0.43,0.2-0.78,0.49-1.05,0.86
		c-0.27,0.37-0.47,0.81-0.6,1.33c-0.13,0.51-0.2,1.08-0.2,1.7v5.3h-1.81V191.75z"/>
	<path class="st0" d="M117.9,190.56c0.56-0.57,1.22-1,1.99-1.27c0.77-0.27,1.55-0.41,2.34-0.41c1.61,0,2.77,0.38,3.49,1.14
		c0.71,0.76,1.07,1.92,1.07,3.46v4.67c0,0.31,0.02,0.63,0.05,0.97c0.03,0.33,0.07,0.64,0.12,0.92h-1.74
		c-0.06-0.25-0.1-0.52-0.1-0.83c-0.01-0.3-0.01-0.57-0.01-0.8h-0.05c-0.36,0.56-0.83,1.02-1.43,1.37c-0.6,0.36-1.31,0.54-2.15,0.54
		c-0.56,0-1.08-0.07-1.57-0.21c-0.49-0.14-0.91-0.34-1.28-0.62c-0.36-0.27-0.65-0.61-0.87-1.01c-0.22-0.4-0.33-0.87-0.33-1.4
		c0-0.9,0.23-1.6,0.7-2.12c0.46-0.51,1.04-0.89,1.73-1.14c0.69-0.25,1.43-0.4,2.23-0.46c0.8-0.06,1.53-0.09,2.2-0.09h0.7v-0.33
		c0-0.79-0.24-1.39-0.71-1.79c-0.47-0.4-1.14-0.6-1.99-0.6c-0.59,0-1.17,0.1-1.73,0.29c-0.57,0.19-1.07,0.49-1.5,0.89L117.9,190.56z
		 M123.16,194.81c-1.16,0-2.08,0.16-2.77,0.49c-0.68,0.33-1.02,0.86-1.02,1.6c0,0.68,0.23,1.17,0.69,1.45
		c0.46,0.29,1.03,0.43,1.71,0.43c0.53,0,0.99-0.09,1.38-0.27c0.4-0.18,0.72-0.42,0.99-0.71c0.26-0.29,0.46-0.64,0.6-1.03
		c0.14-0.4,0.22-0.82,0.23-1.27v-0.7H123.16z"/>
	<path class="st0" d="M130.11,191.75c0-0.5-0.02-0.96-0.05-1.39c-0.03-0.43-0.05-0.83-0.05-1.19h1.72c0,0.29,0.01,0.59,0.02,0.88
		c0.02,0.29,0.02,0.6,0.02,0.91h0.05c0.12-0.26,0.3-0.52,0.52-0.77c0.22-0.25,0.49-0.47,0.8-0.66c0.31-0.19,0.66-0.35,1.05-0.46
		c0.39-0.12,0.81-0.17,1.26-0.17c0.12,0,0.25,0.01,0.37,0.02c0.12,0.02,0.25,0.05,0.37,0.09l-0.12,1.84
		c-0.31-0.09-0.64-0.14-0.98-0.14c-1.12,0-1.93,0.36-2.43,1.08c-0.5,0.72-0.76,1.71-0.76,2.96v5.3h-1.81V191.75z"/>
	<path class="st0" d="M144.25,190.7h-3.21v5.44c0,0.36,0.01,0.69,0.02,0.99c0.02,0.3,0.08,0.57,0.19,0.79
		c0.11,0.23,0.27,0.4,0.49,0.54c0.22,0.13,0.53,0.2,0.93,0.2c0.26,0,0.53-0.03,0.81-0.09c0.28-0.06,0.54-0.15,0.79-0.28l0.07,1.65
		c-0.31,0.14-0.65,0.24-1.03,0.3c-0.38,0.06-0.74,0.09-1.08,0.09c-0.65,0-1.17-0.09-1.56-0.26c-0.39-0.17-0.69-0.41-0.91-0.72
		c-0.22-0.31-0.36-0.69-0.43-1.15c-0.07-0.46-0.1-0.96-0.1-1.52v-5.98h-2.37v-1.54h2.37v-3.09h1.81v3.09h3.21V190.7z"/>
</g>
<polygon class="st0" points="75.4,90.63 89.86,90.63 117.34,113.59 146.73,90.63 160.72,90.63 160.72,173.52 75.4,173.52 "/>
<polygon class="st0" points="248.84,173.52 165.45,173.52 207.14,90.64 "/>
<g>
	<path class="st0" d="M419.16,172.81v-61.39h-13.95V90.64h66.04v20.78H457.3v61.39H419.16z"/>
</g>
<path class="st0" d="M68.87,90.63h-7.69H29.09c-3.94,0-7.71,0.75-11.22,2.23c-3.41,1.44-6.45,3.45-9.02,5.95
	c-2.58,2.51-4.64,5.46-6.12,8.77c-1.53,3.4-2.3,7.07-2.3,10.9c0,3.83,0.77,7.5,2.29,10.91c1.48,3.33,3.55,6.3,6.13,8.81
	c2.58,2.51,5.61,4.51,9.03,5.95c0.74,0.31,1.49,0.59,2.25,0.84h-8.1H4.33v7.47v13.6v7.47h7.69h31.07c3.94,0,7.71-0.75,11.23-2.23
	c3.43-1.44,6.48-3.45,9.06-5.96c2.58-2.51,4.64-5.47,6.11-8.81c1.5-3.39,2.26-7.05,2.26-10.87c0-3.81-0.76-7.47-2.25-10.87
	c-1.47-3.35-3.53-6.33-6.12-8.84c-2.59-2.52-5.65-4.52-9.1-5.95c-0.76-0.31-1.53-0.6-2.31-0.84h9.22h7.69v-7.47V98.1V90.63
	L68.87,90.63z"/>
</svg>
