<?xml version="1.0" encoding="utf-8"?>
<!-- Generator: Adobe Illustrator 24.2.1, SVG Export Plug-In . SVG Version: 6.00 Build 0)  -->
<svg version="1.1" id="Laag_1" xmlns="http://www.w3.org/2000/svg" xmlns:xlink="http://www.w3.org/1999/xlink" x="0px" y="0px"
	 viewBox="0 0 72.8 268.6" style="enable-background:new 0 0 72.8 268.6;" xml:space="preserve">
<style type="text/css">
	.st0{fill:none;stroke:#1D1D1B;stroke-width:0.216;stroke-linejoin:bevel;stroke-miterlimit:22.9256;}
	.st1{fill:none;stroke:#1D1D1B;stroke-width:2;stroke-linejoin:bevel;stroke-miterlimit:22.9256;}
	.st2{fill:none;stroke:#1D1D1B;stroke-width:0.5;stroke-linejoin:bevel;stroke-miterlimit:22.9256;}
	.st3{fill:none;stroke:#0066FF;stroke-width:0.5;stroke-linejoin:bevel;stroke-miterlimit:22.9256;}
	.st4{fill:#FF0000;stroke:#FF0419;stroke-width:0.5;stroke-linejoin:bevel;stroke-miterlimit:22.9256;}
	.st5{fill:none;stroke:#0066FF;stroke-width:0.5;stroke-miterlimit:10;}
	.st6{fill:#0066FF;}
	.st7{fill:#F28A19;}
	.st8{fill:#553289;}
</style>
<line class="st0" x1="60.4" y1="0.8" x2="12.4" y2="0.8"/>
<line class="st0" x1="72" y1="12.4" x2="72" y2="256.3"/>
<line class="st0" x1="60.4" y1="267.8" x2="12.4" y2="267.8"/>
<line class="st0" x1="0.8" y1="256.3" x2="0.8" y2="12.4"/>
<path class="st0" d="M72,12.4C72,6,66.8,0.8,60.4,0.8"/>
<path class="st0" d="M60.4,267.8c3.1,0,6-1.2,8.2-3.4c2.2-2.2,3.4-5.1,3.4-8.2"/>
<path class="st0" d="M12.4,0.8c-3.1,0-6,1.2-8.2,3.4s-3.4,5.1-3.4,8.2"/>
<path class="st0" d="M0.8,256.3c0,3.1,1.2,6,3.4,8.2s5.1,3.4,8.2,3.4"/>
<path class="st1" d="M12.4,1c16,0,32,0,48.1,0"/>
<line class="st0" x1="12.4" y1="1" x2="12.4" y2="0.8"/>
<line class="st0" x1="60.4" y1="0.8" x2="60.4" y2="1"/>
<path class="st0" d="M70.9,12.4c0-5.8-4.7-10.5-10.5-10.5"/>
<path class="st0" d="M12.4,1.9c16,0,32.1,0,48.1,0"/>
<path class="st0" d="M12.4,1.9C6.6,1.9,1.9,6.6,1.9,12.4"/>
<line class="st0" x1="1.9" y1="12.4" x2="1.9" y2="256.3"/>
<path class="st0" d="M1.9,256.3c0,5.8,4.7,10.5,10.5,10.5"/>
<path class="st0" d="M60.5,266.7c-16,0-32.1,0-48.1,0"/>
<path class="st0" d="M60.5,266.7c5.8,0,10.5-4.7,10.5-10.5"/>
<line class="st0" x1="70.9" y1="256.3" x2="70.9" y2="12.4"/>
<line class="st2" x1="46.6" y1="77.8" x2="56.4" y2="77.8"/>
<path class="st2" d="M56.4,77.8c3.7,0,6.7,3,6.7,6.7s-3,6.7-6.7,6.7"/>
<line class="st2" x1="56.4" y1="91.1" x2="46.6" y2="91.1"/>
<path class="st2" d="M46.6,91.1c-3.7,0-6.7-3-6.7-6.7s3-6.7,6.7-6.7"/>
<line class="st2" x1="46.6" y1="104.5" x2="56.4" y2="104.5"/>
<path class="st2" d="M56.4,104.5c3.7,0,6.7,3,6.7,6.7s-3,6.7-6.7,6.7"/>
<line class="st2" x1="56.4" y1="117.8" x2="46.6" y2="117.8"/>
<path class="st2" d="M46.6,117.8c-3.7,0-6.7-3-6.7-6.7s3-6.7,6.7-6.7"/>
<line class="st2" x1="46.6" y1="131.2" x2="56.4" y2="131.2"/>
<path class="st2" d="M56.4,131.2c3.7,0,6.7,3,6.7,6.7s-3,6.7-6.7,6.7"/>
<line class="st2" x1="56.4" y1="144.6" x2="46.6" y2="144.6"/>
<path class="st2" d="M46.6,144.6c-3.7,0-6.7-3-6.7-6.7s3-6.7,6.7-6.7"/>
<line class="st2" x1="46.6" y1="157.9" x2="56.4" y2="157.9"/>
<path class="st2" d="M56.4,157.9c3.7,0,6.7,3,6.7,6.7s-3,6.7-6.7,6.7"/>
<line class="st2" x1="56.4" y1="171.3" x2="46.6" y2="171.3"/>
<path class="st2" d="M46.6,171.3c-3.7,0-6.7-3-6.7-6.7s3-6.7,6.7-6.7"/>
<line class="st2" x1="46.6" y1="184.6" x2="56.4" y2="184.6"/>
<path class="st2" d="M56.4,184.6c3.7,0,6.7,3,6.7,6.7s-3,6.7-6.7,6.7"/>
<line class="st2" x1="56.4" y1="198" x2="46.6" y2="198"/>
<path class="st2" d="M46.6,198c-3.7,0-6.7-3-6.7-6.7s3-6.7,6.7-6.7"/>
<path class="st2" d="M16.4,91.1c-3.7,0-6.7-3-6.7-6.7s3-6.7,6.7-6.7"/>
<line class="st2" x1="16.4" y1="77.8" x2="26.2" y2="77.8"/>
<path class="st2" d="M26.2,77.8c3.7,0,6.7,3,6.7,6.7s-3,6.7-6.7,6.7"/>
<line class="st2" x1="26.2" y1="91.1" x2="16.4" y2="91.1"/>
<path class="st2" d="M16.4,117.8c-3.7,0-6.7-3-6.7-6.7s3-6.7,6.7-6.7"/>
<line class="st2" x1="16.4" y1="104.5" x2="26.2" y2="104.5"/>
<path class="st2" d="M26.2,104.5c3.7,0,6.7,3,6.7,6.7s-3,6.7-6.7,6.7"/>
<line class="st2" x1="26.2" y1="117.8" x2="16.4" y2="117.8"/>
<path class="st2" d="M16.4,144.6c-3.7,0-6.7-3-6.7-6.7s3-6.7,6.7-6.7"/>
<line class="st2" x1="16.4" y1="131.2" x2="26.2" y2="131.2"/>
<path class="st2" d="M26.2,131.2c3.7,0,6.7,3,6.7,6.7s-3,6.7-6.7,6.7"/>
<line class="st2" x1="26.2" y1="144.6" x2="16.4" y2="144.6"/>
<path class="st2" d="M16.4,171.3c-3.7,0-6.7-3-6.7-6.7s3-6.7,6.7-6.7"/>
<line class="st2" x1="16.4" y1="157.9" x2="26.2" y2="157.9"/>
<path class="st2" d="M26.2,157.9c3.7,0,6.7,3,6.7,6.7s-3,6.7-6.7,6.7"/>
<line class="st2" x1="26.2" y1="171.3" x2="16.4" y2="171.3"/>
<path class="st2" d="M16.4,198c-3.7,0-6.7-3-6.7-6.7s3-6.7,6.7-6.7"/>
<line class="st2" x1="16.4" y1="184.6" x2="26.2" y2="184.6"/>
<path class="st2" d="M26.2,184.6c3.7,0,6.7,3,6.7,6.7s-3,6.7-6.7,6.7"/>
<line class="st2" x1="26.2" y1="198" x2="16.4" y2="198"/>
<path class="st3" d="M28.4,54.2c0-4.4,3.6-8,8-8s8,3.6,8,8"/>
<path class="st3" d="M44.4,54.2c0,4.4-3.6,8-8,8s-8-3.6-8-8"/>
<path class="st3" d="M26.6,25.7c0-5.4,4.4-9.8,9.8-9.8s9.8,4.4,9.8,9.8"/>
<path class="st3" d="M46.2,25.7c0,5.4-4.4,9.8-9.8,9.8s-9.8-4.4-9.8-9.8"/>
<path class="st4" d="M57.9,15.7c0,0.3,0.2,0.6,0.4,0.7s0.6,0.1,0.8,0s0.4-0.4,0.4-0.7"/>
<path class="st4" d="M59.5,15.7c0-0.3-0.2-0.6-0.4-0.7c-0.2-0.1-0.6-0.1-0.8,0s-0.4,0.4-0.4,0.7"/>
<path class="st3" d="M26.7,26.9c0.1,0.9,0.3,1.7,0.6,2.5c0.4,1,1,2,1.8,2.9"/>
<path class="st3" d="M30,33.1c1.5,1.3,3.3,2.1,5.2,2.3"/>
<path class="st3" d="M37.3,35.5c0.1,0,0.3,0,0.4,0"/>
<path class="st3" d="M37.9,35.4c1.8-0.3,3.5-1.1,4.9-2.3"/>
<path class="st3" d="M43,33c0.1-0.1,0.1-0.1,0.2-0.2"/>
<path class="st3" d="M43.4,32.5l0.1-0.1"/>
<path class="st3" d="M43.8,32.1c0-0.1,0.1-0.1,0.1-0.2"/>
<path class="st3" d="M44,31.9c0.6-0.8,1.1-1.6,1.5-2.5s0.6-1.8,0.7-2.8"/>
<line class="st0" x1="60.4" y1="267.8" x2="15" y2="267.8"/>
<line class="st0" x1="0.8" y1="256.3" x2="0.8" y2="12.4"/>
<line class="st0" x1="60.4" y1="267.8" x2="60.4" y2="267.6"/>
<path class="st1" d="M60.4,267.6c-16,0-32,0-48.1,0"/>
<line class="st0" x1="12.4" y1="267.6" x2="12.4" y2="267.8"/>
<line class="st0" x1="12.4" y1="267.8" x2="15" y2="267.8"/>
<line class="st0" x1="15" y1="267.8" x2="15" y2="267.8"/>
<path class="st0" d="M1.6,260.2c1.7,4.5,6,7.6,10.8,7.6"/>
<line class="st0" x1="1" y1="256.3" x2="0.8" y2="256.3"/>
<path class="st0" d="M0.8,256.3c0,1.3,0.2,2.7,0.7,4"/>
<line class="st0" x1="1.5" y1="260.2" x2="1.6" y2="260.2"/>
<line class="st1" x1="1" y1="256.3" x2="1" y2="12.4"/>
<line class="st0" x1="1" y1="12.4" x2="0.8" y2="12.4"/>
<line class="st0" x1="1.9" y1="12.4" x2="1" y2="12.4"/>
<line class="st0" x1="1" y1="256.3" x2="1.9" y2="256.3"/>
<line class="st0" x1="12.4" y1="267.6" x2="12.4" y2="266.7"/>
<path class="st1" d="M12.4,267.6c-0.7,0-1.5-0.1-2.2-0.2s-1.4-0.4-2.1-0.6c-1.4-0.6-2.7-1.4-3.7-2.5c-1.1-1.1-1.9-2.3-2.5-3.7
	c-0.6-1.4-0.8-2.8-0.8-4.3"/>
<path class="st1" d="M71.8,256.3c0,0.7-0.1,1.5-0.2,2.2s-0.4,1.4-0.6,2.1c-0.6,1.4-1.4,2.7-2.5,3.7c-1.1,1.1-2.3,1.9-3.7,2.5
	c-1.4,0.6-2.8,0.8-4.3,0.8"/>
<path class="st0" d="M60.5,266.7c0,0.3,0,0.6,0,0.9"/>
<line class="st0" x1="70.9" y1="256.3" x2="71.8" y2="256.3"/>
<line class="st1" x1="71.8" y1="256.3" x2="71.8" y2="12.4"/>
<line class="st0" x1="71.8" y1="12.4" x2="70.9" y2="12.4"/>
<line class="st0" x1="60.4" y1="1" x2="60.5" y2="1.9"/>
<path class="st1" d="M60.4,1c0.7,0,1.5,0.1,2.2,0.2s1.4,0.4,2.1,0.6c1.4,0.6,2.7,1.4,3.7,2.5c1.1,1.1,1.9,2.3,2.5,3.7
	s0.8,2.8,0.8,4.3"/>
<line class="st0" x1="71.8" y1="256.3" x2="72" y2="256.3"/>
<line class="st0" x1="72" y1="12.4" x2="71.8" y2="12.4"/>
<path class="st1" d="M1,12.4c0-0.7,0.1-1.5,0.2-2.2s0.4-1.4,0.6-2.1c0.6-1.4,1.4-2.7,2.5-3.7C5.4,3.3,6.6,2.5,8,1.9
	C9.4,1.3,10.9,1,12.4,1"/>
<path class="st0" d="M12.4,1.9c0-0.3,0-0.6,0-0.9"/>
<path class="st2" d="M42.8,89.9c0.8,0.6,1.7,0.9,2.7,1.1"/>
<path class="st2" d="M41.4,88.6C40.5,87.4,40,86,40,84.5s0.5-2.9,1.4-4.1"/>
<path class="st2" d="M45.5,77.9c-0.9,0.2-1.8,0.5-2.6,1"/>
<path class="st2" d="M60.3,79c-0.8-0.6-1.7-0.9-2.7-1.1"/>
<path class="st2" d="M61.7,80.4c0.9,1.2,1.4,2.6,1.4,4.1s-0.5,2.9-1.4,4.1"/>
<path class="st2" d="M57.5,91.1c0.9-0.2,1.8-0.5,2.6-1"/>
<path class="st2" d="M12.6,196.8c0.8,0.6,1.7,0.9,2.7,1.1"/>
<path class="st2" d="M11.1,195.4c-0.9-1.2-1.4-2.6-1.4-4.1s0.5-2.9,1.4-4.1"/>
<path class="st2" d="M15.3,184.7c-0.9,0.2-1.8,0.5-2.6,1"/>
<path class="st2" d="M30,185.8c-0.8-0.6-1.7-0.9-2.7-1.1"/>
<path class="st2" d="M31.4,187.2c0.9,1.2,1.4,2.6,1.4,4.1s-0.5,2.9-1.4,4.1"/>
<path class="st2" d="M27.3,197.9c0.9-0.2,1.8-0.5,2.6-1"/>
<path class="st2" d="M42.8,196.8c0.8,0.6,1.7,0.9,2.7,1.1"/>
<path class="st2" d="M41.4,195.4c-0.9-1.2-1.4-2.6-1.4-4.1s0.5-2.9,1.4-4.1"/>
<path class="st2" d="M45.5,184.7c-0.9,0.2-1.8,0.5-2.6,1"/>
<path class="st2" d="M60.3,185.8c-0.8-0.6-1.7-0.9-2.7-1.1"/>
<path class="st2" d="M61.7,187.2c0.9,1.2,1.4,2.6,1.4,4.1s-0.5,2.9-1.4,4.1"/>
<path class="st2" d="M57.5,197.9c0.9-0.2,1.8-0.5,2.6-1"/>
<path class="st2" d="M42.8,170.1c0.8,0.6,1.7,0.9,2.7,1.1"/>
<path class="st2" d="M41.4,168.7c-0.9-1.2-1.4-2.6-1.4-4.1s0.5-2.9,1.4-4.1"/>
<path class="st2" d="M43.5,158.7c-0.2,0.1-0.4,0.2-0.6,0.3"/>
<path class="st2" d="M45.5,158c-0.7,0.1-1.4,0.3-2,0.7"/>
<path class="st2" d="M60.3,159.1c-0.8-0.6-1.7-0.9-2.7-1.1"/>
<path class="st2" d="M61.7,160.5c0.9,1.2,1.4,2.6,1.4,4.1s-0.5,2.9-1.4,4.1"/>
<path class="st2" d="M57.5,171.2c0.9-0.2,1.8-0.5,2.6-1"/>
<path class="st2" d="M12.6,170.1c0.8,0.6,1.7,0.9,2.7,1.1"/>
<path class="st2" d="M11.1,168.7c-0.9-1.2-1.4-2.6-1.4-4.1s0.5-2.9,1.4-4.1"/>
<path class="st2" d="M15.3,158c-0.9,0.2-1.8,0.5-2.6,1"/>
<path class="st2" d="M30,159.1c-0.8-0.6-1.7-0.9-2.7-1.1"/>
<path class="st2" d="M31.4,160.5c0.9,1.2,1.4,2.6,1.4,4.1s-0.5,2.9-1.4,4.1"/>
<path class="st2" d="M27.3,171.2c0.9-0.2,1.8-0.5,2.6-1"/>
<path class="st2" d="M12.6,143.3c0.8,0.6,1.7,0.9,2.7,1.1"/>
<path class="st2" d="M11.1,142c-0.9-1.2-1.4-2.6-1.4-4.1s0.5-2.9,1.4-4.1"/>
<path class="st2" d="M12.7,132.3l0.1-0.1"/>
<path class="st2" d="M15.3,131.3c-0.8,0.1-1.7,0.4-2.4,0.9"/>
<path class="st2" d="M30,132.4c-0.8-0.6-1.7-0.9-2.7-1.1"/>
<path class="st2" d="M31.4,133.8c0.9,1.2,1.4,2.6,1.4,4.1s-0.5,2.9-1.4,4.1"/>
<path class="st2" d="M27.3,144.5c0.9-0.2,1.8-0.5,2.6-1"/>
<path class="st2" d="M42.8,143.3c0.8,0.6,1.7,0.9,2.7,1.1"/>
<path class="st2" d="M41.4,142c-0.9-1.2-1.4-2.6-1.4-4.1s0.5-2.9,1.4-4.1"/>
<path class="st2" d="M43,132.3l0.1-0.1"/>
<path class="st2" d="M45.5,131.3c-0.8,0.1-1.7,0.4-2.4,0.9"/>
<path class="st2" d="M60.3,132.4c-0.8-0.6-1.7-0.9-2.7-1.1"/>
<path class="st2" d="M61.7,133.8c0.9,1.2,1.4,2.6,1.4,4.1s-0.5,2.9-1.4,4.1"/>
<path class="st2" d="M57.5,144.5c0.9-0.2,1.8-0.5,2.6-1"/>
<path class="st2" d="M12.6,116.6c0.8,0.6,1.7,0.9,2.7,1.1"/>
<path class="st2" d="M11.1,115.3c-0.9-1.2-1.4-2.6-1.4-4.1s0.5-2.9,1.4-4.1"/>
<path class="st2" d="M15.3,104.6c-0.9,0.2-1.8,0.5-2.6,1"/>
<path class="st2" d="M30,105.7c-0.8-0.6-1.7-0.9-2.7-1.1"/>
<path class="st2" d="M31.4,107.1c0.9,1.2,1.4,2.6,1.4,4.1s-0.5,2.9-1.4,4.1"/>
<path class="st2" d="M27.3,117.8c0.9-0.2,1.8-0.5,2.6-1"/>
<path class="st2" d="M42.8,116.6c0.8,0.6,1.7,0.9,2.7,1.1"/>
<path class="st2" d="M41.4,115.3c-0.9-1.2-1.4-2.6-1.4-4.1s0.5-2.9,1.4-4.1"/>
<path class="st2" d="M45.5,104.6c-0.9,0.2-1.8,0.5-2.6,1"/>
<path class="st2" d="M60.3,105.7c-0.8-0.6-1.7-0.9-2.7-1.1"/>
<path class="st2" d="M61.7,107.1c0.9,1.2,1.4,2.6,1.4,4.1s-0.5,2.9-1.4,4.1"/>
<path class="st2" d="M57.5,117.8c0.9-0.2,1.8-0.5,2.6-1"/>
<path class="st2" d="M12.6,89.9c0.8,0.6,1.7,0.9,2.7,1.1"/>
<path class="st2" d="M11.1,88.6c-0.9-1.2-1.4-2.6-1.4-4.1s0.5-2.9,1.4-4.1"/>
<path class="st2" d="M15.3,77.9c-0.9,0.2-1.8,0.5-2.6,1"/>
<path class="st2" d="M30,79c-0.8-0.6-1.7-0.9-2.7-1.1"/>
<path class="st2" d="M31.4,80.4c0.9,1.2,1.4,2.6,1.4,4.1s-0.5,2.9-1.4,4.1"/>
<path class="st2" d="M27.3,91.1c0.9-0.2,1.8-0.5,2.6-1"/>
<path class="st3" d="M46.2,24.8c-0.1-0.9-0.3-1.9-0.7-2.8s-0.9-1.7-1.5-2.5"/>
<path class="st3" d="M44,19.5l-0.1-0.1"/>
<path class="st3" d="M43.6,19l-0.1-0.1"/>
<path class="st3" d="M43.2,18.6c-0.1-0.1-0.1-0.1-0.2-0.2"/>
<path class="st3" d="M42.8,18.3c-1.4-1.2-3.1-2-4.9-2.3"/>
<path class="st3" d="M37.7,16c-0.1,0-0.3,0-0.4,0"/>
<path class="st3" d="M35.4,16c-2,0.2-3.9,1-5.4,2.3"/>
<path class="st3" d="M29.1,19.2C28.4,20,27.8,21,27.3,22c-0.3,0.8-0.5,1.7-0.7,2.5"/>
<path class="st3" d="M44.4,55v0.1"/>
<path class="st3" d="M44.4,55.2c-0.1,0.7-0.3,1.4-0.5,2.1c-0.3,0.8-0.7,1.5-1.3,2.1"/>
<path class="st3" d="M42.2,59.7l-0.1,0.1c-1.2,1.2-2.7,1.9-4.3,2.2"/>
<path class="st3" d="M37.2,62.2c0.1,0,0.3,0,0.4-0.1"/>
<path class="st3" d="M36.8,62.2c0.1,0,0.2,0,0.3,0"/>
<path class="st3" d="M36.8,62.2c-0.1,0-0.1,0-0.2,0"/>
<path class="st3" d="M36.6,62.2c-0.1,0-0.1,0-0.2,0"/>
<path class="st3" d="M36,62.2c-0.1,0-0.1,0-0.2,0"/>
<path class="st3" d="M35.8,62.2c-0.1,0-0.1,0-0.2,0"/>
<path class="st3" d="M31,60.1c1.3,1.1,2.9,1.9,4.6,2"/>
<path class="st3" d="M30.9,60l-0.1-0.1"/>
<path class="st3" d="M30.7,59.8l-0.1-0.1"/>
<path class="st3" d="M30.3,59.4c0.1,0.1,0.1,0.2,0.2,0.2"/>
<path class="st3" d="M30.3,59.4l-0.1-0.1"/>
<path class="st3" d="M28.5,55.3c0.2,1.4,0.8,2.7,1.6,3.8"/>
<path class="st3" d="M30.2,49.1c-1,1.2-1.6,2.6-1.7,4.1"/>
<path class="st3" d="M30.7,48.5c-0.2,0.2-0.3,0.4-0.5,0.6"/>
<path class="st3" d="M30.7,48.5l0.1-0.1"/>
<path class="st3" d="M35.6,46.2c-1.7,0.2-3.3,0.9-4.6,2"/>
<path class="st3" d="M35.6,46.2c0.1,0,0.1,0,0.2,0"/>
<path class="st3" d="M35.8,46.2c0.1,0,0.1,0,0.2,0"/>
<path class="st3" d="M36.4,46.2c0.1,0,0.1,0,0.2,0"/>
<path class="st3" d="M36.6,46.2c0.1,0,0.1,0,0.2,0"/>
<path class="st3" d="M37.2,46.2c-0.1,0-0.2,0-0.3,0"/>
<path class="st3" d="M37.6,46.3c-0.1,0-0.2,0-0.3,0"/>
<path class="st3" d="M41.9,48.4c-1.1-1.1-2.6-1.8-4.1-2.1"/>
<path class="st3" d="M42.2,48.7c-0.1-0.1-0.1-0.2-0.2-0.2"/>
<path class="st3" d="M44.4,53.2c-0.2-1.5-0.8-2.9-1.7-4.1"/>
<path class="st3" d="M44.4,53.3v0.1"/>
<path class="st3" d="M28.6,54.2c0,4.3,3.5,7.8,7.8,7.8s7.8-3.5,7.8-7.8"/>
<path class="st3" d="M44.2,54.2c0-4.3-3.5-7.8-7.8-7.8s-7.8,3.5-7.8,7.8"/>
<path class="st3" d="M26.8,25.7c0,5.3,4.3,9.6,9.6,9.6S46,31,46,25.7"/>
<path class="st3" d="M46,25.7c0-5.3-4.3-9.6-9.6-9.6s-9.6,4.3-9.6,9.6"/>
<line class="st2" x1="46.6" y1="91" x2="56.4" y2="91"/>
<path class="st2" d="M56.4,91c3.6,0,6.5-2.9,6.5-6.5S60,78,56.4,78"/>
<line class="st2" x1="56.4" y1="78" x2="46.6" y2="78"/>
<path class="st2" d="M46.6,78c-3.6,0-6.5,2.9-6.5,6.5S43,91,46.6,91"/>
<path class="st2" d="M16.4,78c-3.6,0-6.5,2.9-6.5,6.5s2.9,6.5,6.5,6.5"/>
<line class="st2" x1="16.4" y1="91" x2="26.2" y2="91"/>
<path class="st2" d="M26.2,91c3.6,0,6.5-2.9,6.5-6.5S29.8,78,26.2,78"/>
<line class="st2" x1="26.2" y1="78" x2="16.4" y2="78"/>
<line class="st2" x1="56.4" y1="104.7" x2="46.6" y2="104.7"/>
<path class="st2" d="M46.6,104.7c-3.6,0-6.5,2.9-6.5,6.5s2.9,6.5,6.5,6.5"/>
<line class="st2" x1="46.6" y1="117.7" x2="56.4" y2="117.7"/>
<path class="st2" d="M56.4,117.7c3.6,0,6.5-2.9,6.5-6.5s-2.9-6.5-6.5-6.5"/>
<path class="st2" d="M26.2,117.7c3.6,0,6.5-2.9,6.5-6.5s-2.9-6.5-6.5-6.5"/>
<line class="st2" x1="26.2" y1="104.7" x2="16.4" y2="104.7"/>
<path class="st2" d="M16.4,104.7c-3.6,0-6.5,2.9-6.5,6.5s2.9,6.5,6.5,6.5"/>
<line class="st2" x1="16.4" y1="117.7" x2="26.2" y2="117.7"/>
<path class="st2" d="M26.2,144.4c3.6,0,6.5-2.9,6.5-6.5s-2.9-6.5-6.5-6.5"/>
<line class="st2" x1="26.2" y1="131.4" x2="16.4" y2="131.4"/>
<path class="st2" d="M16.4,131.4c-3.6,0-6.5,2.9-6.5,6.5s2.9,6.5,6.5,6.5"/>
<line class="st2" x1="16.4" y1="144.4" x2="26.2" y2="144.4"/>
<line class="st2" x1="56.4" y1="131.4" x2="46.6" y2="131.4"/>
<path class="st2" d="M46.6,131.4c-3.6,0-6.5,2.9-6.5,6.5s2.9,6.5,6.5,6.5"/>
<line class="st2" x1="46.6" y1="144.4" x2="56.4" y2="144.4"/>
<path class="st2" d="M56.4,144.4c3.6,0,6.5-2.9,6.5-6.5s-2.9-6.5-6.5-6.5"/>
<line class="st2" x1="56.4" y1="158.1" x2="46.6" y2="158.1"/>
<path class="st2" d="M46.6,158.1c-3.6,0-6.5,2.9-6.5,6.5s2.9,6.5,6.5,6.5"/>
<line class="st2" x1="46.6" y1="171.1" x2="56.4" y2="171.1"/>
<path class="st2" d="M56.4,171.1c3.6,0,6.5-2.9,6.5-6.5s-2.9-6.5-6.5-6.5"/>
<path class="st2" d="M26.2,171.1c3.6,0,6.5-2.9,6.5-6.5s-2.9-6.5-6.5-6.5"/>
<line class="st2" x1="26.2" y1="158.1" x2="16.4" y2="158.1"/>
<path class="st2" d="M16.4,158.1c-3.6,0-6.5,2.9-6.5,6.5s2.9,6.5,6.5,6.5"/>
<line class="st2" x1="16.4" y1="171.1" x2="26.2" y2="171.1"/>
<path class="st2" d="M26.2,197.8c3.6,0,6.5-2.9,6.5-6.5s-2.9-6.5-6.5-6.5"/>
<line class="st2" x1="26.2" y1="184.8" x2="16.4" y2="184.8"/>
<path class="st2" d="M16.4,184.8c-3.6,0-6.5,2.9-6.5,6.5s2.9,6.5,6.5,6.5"/>
<line class="st2" x1="16.4" y1="197.8" x2="26.2" y2="197.8"/>
<line class="st2" x1="56.4" y1="184.8" x2="46.6" y2="184.8"/>
<path class="st2" d="M46.6,184.8c-3.6,0-6.5,2.9-6.5,6.5s2.9,6.5,6.5,6.5"/>
<line class="st2" x1="46.6" y1="197.8" x2="56.4" y2="197.8"/>
<path class="st2" d="M56.4,197.8c3.6,0,6.5-2.9,6.5-6.5s-2.9-6.5-6.5-6.5"/>
<path class="st2" d="M62.1,87.7c0.2-0.4,0.4-0.8,0.6-1.3"/>
<path class="st2" d="M10,83.2c0.4-2,1.7-3.6,3.4-4.5"/>
<path class="st2" d="M62.1,114.4c0.2-0.4,0.4-0.8,0.6-1.3"/>
<path class="st2" d="M10,109.9c0.4-2,1.7-3.6,3.4-4.5"/>
<path class="st2" d="M10,136.6c0.4-2,1.7-3.6,3.4-4.5"/>
<path class="st2" d="M62.1,141.1c0.2-0.4,0.4-0.8,0.6-1.3"/>
<path class="st2" d="M62.1,167.8c0.2-0.4,0.4-0.8,0.6-1.3"/>
<path class="st2" d="M10,163.3c0.4-2,1.7-3.6,3.4-4.5"/>
<path class="st2" d="M10,190c0.4-2,1.7-3.6,3.4-4.5"/>
<path class="st2" d="M62.1,194.4c0.1-0.1,0.1-0.2,0.1-0.3"/>
<path d="M24.4,193.6v-4.5h-0.5l-0.8,0.7v0.5l0.8-0.7v4H24.4z M21.6,192.4c0-0.2,0-0.4-0.1-0.5s-0.2-0.3-0.3-0.4
	c-0.1-0.1-0.1-0.1-0.2-0.1s-0.2-0.1-0.3-0.1c-0.1,0-0.2-0.1-0.4-0.1l-0.5-0.1c-0.1,0-0.2,0-0.2-0.1c-0.1,0-0.1-0.1-0.2-0.1
	s-0.1-0.1-0.2-0.1c-0.1-0.1-0.1-0.1-0.2-0.2c0-0.1,0-0.2,0-0.3c0-0.2,0-0.3,0.1-0.4c0.1-0.1,0.2-0.2,0.3-0.3
	c0.1-0.1,0.3-0.1,0.5-0.1s0.3,0,0.4,0s0.2,0.1,0.3,0.1c0.1,0.1,0.2,0.1,0.3,0.2l0.3-0.3c-0.1-0.1-0.3-0.2-0.4-0.3s-0.3-0.1-0.4-0.2
	c-0.2,0-0.3-0.1-0.5-0.1c-0.3,0-0.6,0.1-0.8,0.2c-0.2,0.1-0.4,0.3-0.5,0.4c-0.1,0.2-0.2,0.4-0.2,0.7c0,0.2,0,0.3,0.1,0.5
	c0.1,0.1,0.1,0.3,0.3,0.4c0.1,0.1,0.2,0.2,0.4,0.2c0.1,0.1,0.3,0.1,0.5,0.1l0.5,0.1c0.1,0,0.2,0,0.3,0.1c0.1,0,0.1,0,0.2,0.1
	l0.1,0.1c0.1,0.1,0.1,0.1,0.2,0.2c0,0.1,0.1,0.2,0.1,0.3c0,0.2,0,0.3-0.1,0.4c-0.1,0.1-0.2,0.2-0.4,0.3c-0.2,0.1-0.3,0.1-0.6,0.1
	c-0.2,0-0.3,0-0.5,0c-0.1,0-0.3-0.1-0.4-0.2c-0.1-0.1-0.2-0.2-0.4-0.3l-0.3,0.3c0.1,0.1,0.3,0.3,0.4,0.3c0.2,0.1,0.3,0.2,0.5,0.2
	s0.4,0.1,0.6,0.1s0.4,0,0.6-0.1s0.4-0.1,0.5-0.3c0.1-0.1,0.2-0.2,0.3-0.4C21.6,192.8,21.6,192.6,21.6,192.4z"/>
<path d="M55,193.6v-0.4h-1.9l1.6-2c0.1-0.1,0.1-0.2,0.2-0.3c0.1-0.1,0.1-0.2,0.1-0.3s0-0.2,0-0.3c0-0.2-0.1-0.5-0.2-0.6
	c-0.1-0.2-0.2-0.3-0.4-0.4c-0.2-0.1-0.4-0.1-0.6-0.2c-0.2,0-0.4,0-0.5,0.1c-0.2,0.1-0.3,0.1-0.4,0.3c-0.1,0.1-0.2,0.2-0.2,0.4
	c-0.1,0.1-0.1,0.3-0.1,0.5H53c0-0.1,0-0.3,0.1-0.4c0-0.1,0.1-0.2,0.2-0.3c0.1-0.1,0.2-0.1,0.2-0.1c0.1,0,0.2,0,0.3,0
	c0.2,0,0.3,0,0.4,0.1c0.1,0.1,0.2,0.2,0.3,0.3s0.1,0.3,0.1,0.4c0,0.1,0,0.2-0.1,0.3c0,0.1-0.1,0.2-0.2,0.3l-1.8,2.2v0.4H55z
	 M51.5,192.4c0-0.2,0-0.4-0.1-0.5s-0.2-0.3-0.3-0.4c-0.1-0.1-0.1-0.1-0.2-0.1c-0.1,0-0.2-0.1-0.3-0.1s-0.2-0.1-0.4-0.1l-0.5-0.1
	c-0.1,0-0.2,0-0.2-0.1c-0.1,0-0.1-0.1-0.2-0.1c-0.1,0-0.1-0.1-0.2-0.1c-0.1-0.1-0.1-0.1-0.2-0.2c0-0.1,0-0.2,0-0.3
	c0-0.2,0-0.3,0.1-0.4c0.1-0.1,0.2-0.2,0.3-0.3s0.3-0.1,0.5-0.1s0.3,0,0.4,0c0.1,0,0.2,0.1,0.3,0.1c0.1,0.1,0.2,0.1,0.3,0.2l0.3-0.3
	c-0.1-0.1-0.3-0.2-0.4-0.3c-0.1-0.1-0.3-0.1-0.4-0.2c-0.2,0-0.3-0.1-0.5-0.1c-0.3,0-0.6,0.1-0.8,0.2c-0.2,0.1-0.4,0.3-0.5,0.4
	c-0.1,0.2-0.2,0.4-0.2,0.7c0,0.2,0,0.3,0.1,0.5c0.1,0.1,0.1,0.3,0.3,0.4c0.1,0.1,0.2,0.2,0.4,0.2c0.1,0.1,0.3,0.1,0.5,0.1l0.5,0.1
	c0.1,0,0.2,0,0.3,0.1c0.1,0,0.1,0,0.2,0.1l0.1,0.1c0.1,0.1,0.1,0.1,0.2,0.2c0,0.1,0.1,0.2,0.1,0.3c0,0.2,0,0.3-0.1,0.4
	c-0.1,0.1-0.2,0.2-0.4,0.3s-0.3,0.1-0.6,0.1c-0.2,0-0.3,0-0.5,0c-0.1,0-0.3-0.1-0.4-0.2c-0.1-0.1-0.2-0.2-0.4-0.3l-0.3,0.3
	c0.1,0.1,0.3,0.3,0.4,0.3c0.2,0.1,0.3,0.2,0.5,0.2s0.4,0.1,0.6,0.1c0.2,0,0.4,0,0.6-0.1c0.2-0.1,0.4-0.1,0.5-0.3
	c0.1-0.1,0.2-0.2,0.3-0.4C51.5,192.8,51.5,192.6,51.5,192.4z"/>
<rect x="36.2" y="23.6" class="st5" width="0.4" height="4.5"/>
<path class="st6" d="M35.6,56.3c0.3,0.1,0.5,0.2,0.8,0.2s0.6-0.1,0.8-0.2l0,0c0.3-0.1,0.5-0.3,0.7-0.5l0,0l0,0l0,0l0,0
	c0.2-0.2,0.4-0.4,0.5-0.7l0,0c0.1-0.3,0.2-0.5,0.2-0.8s-0.1-0.6-0.2-0.8l0,0c-0.1-0.3-0.3-0.5-0.5-0.7l0,0l0,0l0,0l0,0
	c-0.2-0.2-0.4-0.4-0.7-0.5l0,0c-0.3-0.1-0.5-0.2-0.8-0.2s-0.6,0.1-0.8,0.2l0,0c-0.3,0.1-0.5,0.3-0.7,0.5l0,0l0,0l0,0l0,0
	c-0.2,0.2-0.4,0.4-0.5,0.7l0,0c-0.1,0.3-0.2,0.5-0.2,0.8s0.1,0.6,0.2,0.8l0,0c0.1,0.3,0.3,0.5,0.5,0.7l0,0l0,0l0,0l0,0
	C35.1,56,35.4,56.2,35.6,56.3L35.6,56.3z M36.5,56.9c-0.4,0-0.7-0.1-1-0.2l0,0c-0.3-0.1-0.6-0.3-0.9-0.6l0,0l0,0l0,0l0,0
	c-0.2-0.2-0.4-0.5-0.6-0.9l0,0c-0.1-0.3-0.2-0.6-0.2-1s0.1-0.7,0.2-1l0,0c0.1-0.3,0.3-0.6,0.6-0.9l0,0l0,0l0,0l0,0
	c0.2-0.2,0.5-0.4,0.9-0.6l0,0c0.3-0.1,0.6-0.2,1-0.2s0.7,0.1,1,0.2l0,0c0.3,0.1,0.6,0.3,0.9,0.6l0,0l0,0l0,0l0,0
	c0.2,0.2,0.4,0.5,0.6,0.9l0,0c0.1,0.3,0.2,0.6,0.2,1s-0.1,0.7-0.2,1l0,0c-0.1,0.3-0.3,0.6-0.6,0.9l0,0l0,0l0,0l0,0
	c-0.2,0.2-0.5,0.4-0.9,0.6l0,0C37.2,56.8,36.8,56.9,36.5,56.9z"/>
<rect x="21.1" y="82.3" width="0.4" height="4.5"/>
<rect x="21.1" y="109" width="0.4" height="4.5"/>
<rect x="21.1" y="135.7" width="0.4" height="4.5"/>
<rect x="21.1" y="162.4" width="0.4" height="4.5"/>
<path d="M50.8,86.6c0.3,0.1,0.5,0.2,0.8,0.2s0.6-0.1,0.8-0.2l0,0c0.3-0.1,0.5-0.3,0.7-0.5l0,0l0,0l0,0l0,0c0.2-0.2,0.4-0.4,0.5-0.7
	l0,0c0.1-0.3,0.2-0.5,0.2-0.8s-0.1-0.6-0.2-0.8l0,0c-0.1-0.3-0.3-0.5-0.5-0.7l0,0l0,0l0,0l0,0c-0.2-0.2-0.4-0.4-0.7-0.5l0,0
	c-0.3-0.1-0.5-0.2-0.8-0.2s-0.6,0.1-0.8,0.2l0,0c-0.3,0.1-0.5,0.3-0.7,0.5l0,0l0,0l0,0l0,0c-0.2,0.2-0.4,0.4-0.5,0.7l0,0
	c-0.1,0.3-0.2,0.5-0.2,0.8s0.1,0.6,0.2,0.8l0,0c0.1,0.3,0.3,0.5,0.5,0.7l0,0l0,0l0,0l0,0C50.3,86.3,50.5,86.5,50.8,86.6L50.8,86.6z
	 M51.6,87.2c-0.4,0-0.7-0.1-1-0.2l0,0c-0.3-0.1-0.6-0.3-0.9-0.6l0,0l0,0l0,0l0,0c-0.2-0.2-0.4-0.5-0.6-0.9l0,0
	c-0.1-0.3-0.2-0.6-0.2-1s0.1-0.7,0.2-1l0,0c0.1-0.3,0.3-0.6,0.6-0.9l0,0l0,0l0,0l0,0c0.2-0.2,0.5-0.4,0.9-0.6l0,0
	c0.3-0.1,0.6-0.2,1-0.2s0.7,0.1,1,0.2l0,0c0.3,0.1,0.6,0.3,0.9,0.6l0,0l0,0l0,0l0,0c0.2,0.2,0.4,0.5,0.6,0.9l0,0
	c0.1,0.3,0.2,0.6,0.2,1s-0.1,0.7-0.2,1l0,0c-0.1,0.3-0.3,0.6-0.6,0.9l0,0l0,0l0,0l0,0c-0.2,0.2-0.5,0.4-0.9,0.6l0,0
	C52.3,87.1,52,87.2,51.6,87.2z"/>
<path d="M50.8,113.3c0.3,0.1,0.5,0.2,0.8,0.2s0.6-0.1,0.8-0.2l0,0c0.3-0.1,0.5-0.3,0.7-0.5l0,0l0,0l0,0l0,0c0.2-0.2,0.4-0.4,0.5-0.7
	l0,0c0.1-0.3,0.2-0.5,0.2-0.8s-0.1-0.6-0.2-0.8l0,0c-0.1-0.3-0.3-0.5-0.5-0.7l0,0l0,0l0,0l0,0c-0.2-0.2-0.4-0.4-0.7-0.5l0,0
	c-0.3-0.1-0.5-0.2-0.8-0.2s-0.6,0.1-0.8,0.2l0,0c-0.3,0.1-0.5,0.3-0.7,0.5l0,0l0,0l0,0l0,0c-0.2,0.2-0.4,0.4-0.5,0.7l0,0
	c-0.1,0.3-0.2,0.5-0.2,0.8s0.1,0.6,0.2,0.8l0,0c0.1,0.3,0.3,0.5,0.5,0.7l0,0l0,0l0,0l0,0C50.3,113,50.5,113.2,50.8,113.3L50.8,113.3
	z M51.6,113.9c-0.4,0-0.7-0.1-1-0.2l0,0c-0.3-0.1-0.6-0.3-0.9-0.6l0,0l0,0l0,0l0,0c-0.2-0.2-0.4-0.5-0.6-0.9l0,0
	c-0.1-0.3-0.2-0.6-0.2-1s0.1-0.7,0.2-1l0,0c0.1-0.3,0.3-0.6,0.6-0.9l0,0l0,0l0,0l0,0c0.2-0.2,0.5-0.4,0.9-0.6l0,0
	c0.3-0.1,0.6-0.2,1-0.2s0.7,0.1,1,0.2l0,0c0.3,0.1,0.6,0.3,0.9,0.6l0,0l0,0l0,0l0,0c0.2,0.2,0.4,0.5,0.6,0.9l0,0
	c0.1,0.3,0.2,0.6,0.2,1s-0.1,0.7-0.2,1l0,0c-0.1,0.3-0.3,0.6-0.6,0.9l0,0l0,0l0,0l0,0c-0.2,0.2-0.5,0.4-0.9,0.6l0,0
	C52.3,113.8,52,113.9,51.6,113.9z"/>
<path d="M50.8,140c0.3,0.1,0.5,0.2,0.8,0.2s0.6-0.1,0.8-0.2l0,0c0.3-0.1,0.5-0.3,0.7-0.5l0,0l0,0l0,0l0,0c0.2-0.2,0.4-0.4,0.5-0.7
	l0,0c0.1-0.3,0.2-0.5,0.2-0.8s-0.1-0.6-0.2-0.8l0,0c-0.1-0.3-0.3-0.5-0.5-0.7l0,0l0,0l0,0l0,0c-0.2-0.2-0.4-0.4-0.7-0.5l0,0
	c-0.3-0.1-0.5-0.2-0.8-0.2s-0.6,0.1-0.8,0.2l0,0c-0.3,0.1-0.5,0.3-0.7,0.5l0,0l0,0l0,0l0,0c-0.2,0.2-0.4,0.4-0.5,0.7l0,0
	c-0.1,0.3-0.2,0.5-0.2,0.8s0.1,0.6,0.2,0.8l0,0c0.1,0.3,0.3,0.5,0.5,0.7l0,0l0,0l0,0l0,0C50.3,139.7,50.5,139.9,50.8,140L50.8,140z
	 M51.6,140.6c-0.4,0-0.7-0.1-1-0.2l0,0c-0.3-0.1-0.6-0.3-0.9-0.6l0,0l0,0l0,0l0,0c-0.2-0.2-0.4-0.5-0.6-0.9l0,0
	c-0.1-0.3-0.2-0.6-0.2-1s0.1-0.7,0.2-1l0,0c0.1-0.3,0.3-0.6,0.6-0.9l0,0l0,0l0,0l0,0c0.2-0.2,0.5-0.4,0.9-0.6l0,0
	c0.3-0.1,0.6-0.2,1-0.2s0.7,0.1,1,0.2l0,0c0.3,0.1,0.6,0.3,0.9,0.6l0,0l0,0l0,0l0,0c0.2,0.2,0.4,0.5,0.6,0.9l0,0
	c0.1,0.3,0.2,0.6,0.2,1s-0.1,0.7-0.2,1l0,0c-0.1,0.3-0.3,0.6-0.6,0.9l0,0l0,0l0,0l0,0c-0.2,0.2-0.5,0.4-0.9,0.6l0,0
	C52.3,140.5,52,140.6,51.6,140.6z"/>
<path d="M50.8,166.7c0.3,0.1,0.5,0.2,0.8,0.2s0.6-0.1,0.8-0.2l0,0c0.3-0.1,0.5-0.3,0.7-0.5l0,0l0,0l0,0l0,0c0.2-0.2,0.4-0.4,0.5-0.7
	l0,0c0.1-0.3,0.2-0.5,0.2-0.8s-0.1-0.6-0.2-0.8l0,0c-0.1-0.3-0.3-0.5-0.5-0.7l0,0l0,0l0,0l0,0c-0.2-0.2-0.4-0.4-0.7-0.5l0,0
	c-0.3-0.1-0.5-0.2-0.8-0.2s-0.6,0.1-0.8,0.2l0,0c-0.3,0.1-0.5,0.3-0.7,0.5l0,0l0,0l0,0l0,0c-0.2,0.2-0.4,0.4-0.5,0.7l0,0
	c-0.1,0.3-0.2,0.5-0.2,0.8s0.1,0.6,0.2,0.8l0,0c0.1,0.3,0.3,0.5,0.5,0.7l0,0l0,0l0,0l0,0C50.3,166.4,50.5,166.6,50.8,166.7
	L50.8,166.7z M51.6,167.3c-0.4,0-0.7-0.1-1-0.2l0,0c-0.3-0.1-0.6-0.3-0.9-0.6l0,0l0,0l0,0l0,0c-0.2-0.2-0.4-0.5-0.6-0.9l0,0
	c-0.1-0.3-0.2-0.6-0.2-1s0.1-0.7,0.2-1l0,0c0.1-0.3,0.3-0.6,0.6-0.9l0,0l0,0l0,0l0,0c0.2-0.2,0.5-0.4,0.9-0.6l0,0
	c0.3-0.1,0.6-0.2,1-0.2s0.7,0.1,1,0.2l0,0c0.3,0.1,0.6,0.3,0.9,0.6l0,0l0,0l0,0l0,0c0.2,0.2,0.4,0.5,0.6,0.9l0,0
	c0.1,0.3,0.2,0.6,0.2,1s-0.1,0.7-0.2,1l0,0c-0.1,0.3-0.3,0.6-0.6,0.9l0,0l0,0l0,0l0,0c-0.2,0.2-0.5,0.4-0.9,0.6l0,0
	C52.3,167.2,52,167.3,51.6,167.3z"/>
<g>
	<path class="st7" d="M44.36,237.49h-0.52v-0.42c0-1.61-1.31-2.92-2.93-2.92h-0.12c-1.59,0-2.88,1.28-2.88,2.86v0.48v5.9h5.93h0.38
		c1.65,0,2.98-1.33,2.98-2.96v-0.12C47.2,238.75,45.93,237.49,44.36,237.49"/>
	<path class="st7" d="M22.83,234.06c-2.62,0-4.74,2.11-4.74,4.71c0,2.6,2.12,4.71,4.74,4.71s4.74-2.11,4.74-4.71
		C27.57,236.17,25.45,234.06,22.83,234.06"/>
	<path class="st7" d="M14.01,234.2H9.72l-0.02,9.14h7.97l0,0c0-1.08-0.55-2.02-1.39-2.58c0.86-0.67,1.42-1.72,1.42-2.89
		C17.7,235.85,16.05,234.2,14.01,234.2"/>
	<path class="st7" d="M42.22,244.01h-4.29l-0.02,9.15h7.97l0,0c0-1.08-0.55-2.03-1.39-2.58c0.86-0.67,1.42-1.72,1.42-2.9
		C45.91,245.65,44.25,244.01,42.22,244.01"/>
	<path class="st7" d="M50.8,244.01h-4.29l-0.02,9.15h7.97l0,0c0-1.08-0.55-2.03-1.39-2.58c0.86-0.67,1.42-1.72,1.42-2.9
		C54.49,245.65,52.84,244.01,50.8,244.01"/>
	<path class="st7" d="M34.56,237.49h-0.52v-0.42c0-1.61-1.31-2.92-2.93-2.92h-0.12c-1.59,0-2.88,1.28-2.88,2.86v0.48v5.9h5.93h0.38
		c1.65,0,2.98-1.33,2.98-2.96v-0.12C37.39,238.75,36.12,237.49,34.56,237.49"/>
	<g>
		<path class="st8" d="M11.19,256.1h-0.2l-0.34-0.93h-0.01l-0.3,0.93h-0.21l-0.39-1.2h0.22l0.28,0.93h0.01l0.31-0.93h0.21l0.32,0.93
			h0.01l0.27-0.93h0.22L11.19,256.1z"/>
		<path class="st8" d="M12.89,255.88c-0.07,0.09-0.15,0.16-0.24,0.19c-0.09,0.04-0.19,0.06-0.3,0.06c-0.09,0-0.18-0.02-0.26-0.05
			c-0.08-0.03-0.14-0.08-0.19-0.13c-0.05-0.06-0.09-0.12-0.12-0.2c-0.03-0.08-0.04-0.16-0.04-0.25c0-0.09,0.02-0.18,0.05-0.26
			c0.03-0.08,0.07-0.14,0.13-0.2c0.06-0.06,0.12-0.1,0.2-0.13c0.08-0.03,0.16-0.05,0.25-0.05c0.08,0,0.16,0.01,0.23,0.04
			c0.07,0.03,0.13,0.07,0.18,0.12c0.05,0.05,0.09,0.12,0.12,0.2c0.03,0.08,0.04,0.17,0.04,0.27v0.06h-0.98
			c0,0.05,0.02,0.1,0.04,0.15c0.02,0.05,0.05,0.09,0.08,0.12c0.03,0.04,0.07,0.06,0.12,0.08c0.05,0.02,0.1,0.03,0.15,0.03
			c0.09,0,0.16-0.02,0.22-0.05c0.06-0.03,0.11-0.08,0.16-0.14L12.89,255.88z M12.72,255.39c0-0.1-0.04-0.18-0.1-0.25
			c-0.06-0.06-0.15-0.09-0.26-0.09s-0.2,0.03-0.27,0.09c-0.07,0.06-0.11,0.14-0.12,0.25H12.72z"/>
		<path class="st8" d="M13.98,254.16h0.2v1.94h-0.2V254.16z"/>
		<path class="st8" d="M14.52,255.5c0-0.09,0.02-0.18,0.05-0.26c0.03-0.08,0.08-0.14,0.13-0.2s0.12-0.1,0.2-0.13
			c0.08-0.03,0.17-0.05,0.26-0.05s0.18,0.02,0.26,0.05s0.15,0.07,0.2,0.13s0.1,0.12,0.13,0.2c0.03,0.08,0.05,0.16,0.05,0.26
			c0,0.1-0.02,0.18-0.05,0.26c-0.03,0.08-0.08,0.14-0.13,0.2c-0.06,0.06-0.12,0.1-0.2,0.13c-0.08,0.03-0.17,0.05-0.26,0.05
			c-0.09,0-0.18-0.02-0.26-0.05c-0.08-0.03-0.15-0.07-0.2-0.13c-0.06-0.06-0.1-0.12-0.13-0.2C14.53,255.68,14.52,255.59,14.52,255.5
			z M14.73,255.5c0,0.06,0.01,0.12,0.03,0.18s0.05,0.1,0.09,0.14c0.04,0.04,0.08,0.07,0.14,0.1s0.11,0.03,0.18,0.03
			c0.07,0,0.12-0.01,0.18-0.03s0.1-0.06,0.14-0.1c0.04-0.04,0.07-0.09,0.09-0.14s0.03-0.11,0.03-0.18c0-0.06-0.01-0.12-0.03-0.18
			s-0.05-0.1-0.09-0.14c-0.04-0.04-0.08-0.07-0.14-0.1s-0.11-0.03-0.18-0.03c-0.07,0-0.12,0.01-0.18,0.03s-0.1,0.06-0.14,0.1
			c-0.04,0.04-0.07,0.09-0.09,0.14C14.74,255.37,14.73,255.43,14.73,255.5z"/>
		<path class="st8" d="M16.67,256.1h-0.22l-0.49-1.2h0.24l0.38,0.94h0.01l0.36-0.94h0.22L16.67,256.1z"/>
		<path class="st8" d="M18.45,255.88c-0.07,0.09-0.15,0.16-0.24,0.19c-0.09,0.04-0.19,0.06-0.3,0.06c-0.09,0-0.18-0.02-0.26-0.05
			c-0.08-0.03-0.14-0.08-0.19-0.13c-0.05-0.06-0.09-0.12-0.12-0.2c-0.03-0.08-0.04-0.16-0.04-0.25c0-0.09,0.02-0.18,0.05-0.26
			c0.03-0.08,0.07-0.14,0.13-0.2c0.06-0.06,0.12-0.1,0.2-0.13c0.08-0.03,0.16-0.05,0.25-0.05c0.08,0,0.16,0.01,0.23,0.04
			c0.07,0.03,0.13,0.07,0.18,0.12c0.05,0.05,0.09,0.12,0.12,0.2c0.03,0.08,0.04,0.17,0.04,0.27v0.06h-0.98
			c0,0.05,0.02,0.1,0.04,0.15c0.02,0.05,0.05,0.09,0.08,0.12s0.07,0.06,0.12,0.08c0.05,0.02,0.1,0.03,0.15,0.03
			c0.09,0,0.16-0.02,0.22-0.05s0.11-0.08,0.16-0.14L18.45,255.88z M18.28,255.39c0-0.1-0.04-0.18-0.1-0.25
			c-0.06-0.06-0.15-0.09-0.26-0.09c-0.11,0-0.2,0.03-0.27,0.09c-0.07,0.06-0.11,0.14-0.12,0.25H18.28z"/>
		<path class="st8" d="M19.55,255.78c0.04,0.05,0.08,0.09,0.13,0.12c0.05,0.03,0.11,0.04,0.18,0.04c0.03,0,0.06,0,0.09-0.01
			c0.03-0.01,0.06-0.02,0.09-0.03s0.05-0.03,0.06-0.06s0.02-0.05,0.02-0.08c0-0.03-0.01-0.06-0.02-0.08s-0.03-0.04-0.06-0.05
			c-0.02-0.01-0.05-0.03-0.08-0.03c-0.03-0.01-0.06-0.02-0.1-0.02c-0.06-0.01-0.11-0.03-0.16-0.04c-0.05-0.02-0.1-0.04-0.14-0.06
			c-0.04-0.02-0.07-0.06-0.09-0.1c-0.02-0.04-0.03-0.09-0.03-0.15c0-0.06,0.01-0.11,0.04-0.15s0.06-0.08,0.1-0.11
			s0.09-0.05,0.14-0.07c0.05-0.02,0.11-0.02,0.17-0.02c0.09,0,0.17,0.02,0.24,0.05c0.07,0.03,0.13,0.09,0.17,0.17l-0.17,0.11
			c-0.03-0.04-0.06-0.08-0.1-0.1c-0.04-0.03-0.09-0.04-0.15-0.04c-0.03,0-0.06,0-0.08,0.01c-0.03,0.01-0.05,0.02-0.08,0.03
			c-0.02,0.01-0.04,0.03-0.06,0.05c-0.01,0.02-0.02,0.05-0.02,0.07c0,0.03,0.01,0.05,0.02,0.07s0.04,0.03,0.07,0.05
			c0.03,0.01,0.06,0.03,0.1,0.04c0.04,0.01,0.08,0.02,0.11,0.03c0.05,0.01,0.1,0.02,0.15,0.04s0.09,0.04,0.13,0.07
			c0.04,0.03,0.06,0.06,0.09,0.1c0.02,0.04,0.03,0.09,0.03,0.15c0,0.07-0.01,0.13-0.04,0.17c-0.03,0.05-0.06,0.09-0.11,0.12
			c-0.05,0.03-0.1,0.05-0.16,0.07c-0.06,0.01-0.12,0.02-0.18,0.02c-0.1,0-0.19-0.02-0.27-0.05c-0.07-0.03-0.14-0.09-0.2-0.18
			L19.55,255.78z"/>
		<path class="st8" d="M20.62,255.18c0-0.06,0-0.11-0.01-0.15c0-0.05-0.01-0.09-0.01-0.13h0.19c0,0.03,0,0.07,0,0.1
			c0,0.03,0,0.07,0,0.1h0.01c0.01-0.03,0.03-0.06,0.06-0.09c0.02-0.03,0.05-0.05,0.09-0.07c0.03-0.02,0.07-0.04,0.12-0.05
			c0.04-0.01,0.09-0.02,0.14-0.02c0.07,0,0.12,0.01,0.16,0.02c0.04,0.02,0.08,0.04,0.11,0.06c0.03,0.02,0.05,0.05,0.07,0.07
			c0.02,0.03,0.03,0.05,0.04,0.07c0.04-0.07,0.1-0.13,0.15-0.17c0.06-0.04,0.13-0.06,0.23-0.06c0.09,0,0.16,0.01,0.22,0.03
			c0.06,0.02,0.11,0.06,0.14,0.1c0.04,0.04,0.06,0.1,0.08,0.16c0.02,0.06,0.02,0.13,0.02,0.21v0.73h-0.2v-0.72
			c0-0.04,0-0.08-0.01-0.12c-0.01-0.04-0.02-0.07-0.05-0.1s-0.05-0.06-0.09-0.07c-0.04-0.02-0.09-0.03-0.14-0.03
			c-0.04,0-0.08,0.01-0.12,0.03c-0.04,0.02-0.07,0.04-0.1,0.07c-0.03,0.03-0.05,0.07-0.07,0.11c-0.02,0.04-0.02,0.09-0.02,0.14v0.69
			h-0.2v-0.68c0-0.13-0.02-0.23-0.05-0.28c-0.04-0.06-0.1-0.08-0.18-0.08c-0.07,0-0.12,0.01-0.17,0.03
			c-0.05,0.02-0.09,0.05-0.12,0.1c-0.03,0.04-0.05,0.09-0.07,0.15c-0.01,0.06-0.02,0.12-0.02,0.19v0.59h-0.2L20.62,255.18
			L20.62,255.18z"/>
		<path class="st8" d="M22.81,255.05c0.06-0.06,0.14-0.11,0.22-0.14c0.09-0.03,0.17-0.05,0.26-0.05c0.18,0,0.31,0.04,0.39,0.13
			c0.08,0.08,0.12,0.21,0.12,0.38v0.52c0,0.03,0,0.07,0.01,0.11c0,0.04,0.01,0.07,0.01,0.1h-0.19c-0.01-0.03-0.01-0.06-0.01-0.09
			c0-0.03,0-0.06,0-0.09h-0.01c-0.04,0.06-0.09,0.11-0.16,0.15c-0.07,0.04-0.15,0.06-0.24,0.06c-0.06,0-0.12-0.01-0.17-0.02
			c-0.05-0.02-0.1-0.04-0.14-0.07c-0.04-0.03-0.07-0.07-0.1-0.11c-0.02-0.04-0.04-0.1-0.04-0.15c0-0.1,0.03-0.18,0.08-0.23
			c0.05-0.06,0.12-0.1,0.19-0.13c0.08-0.03,0.16-0.04,0.25-0.05c0.09-0.01,0.17-0.01,0.24-0.01h0.08v-0.04
			c0-0.09-0.03-0.15-0.08-0.2c-0.05-0.04-0.13-0.07-0.22-0.07c-0.07,0-0.13,0.01-0.19,0.03c-0.06,0.02-0.12,0.05-0.17,0.1
			L22.81,255.05z M23.4,255.52c-0.13,0-0.23,0.02-0.31,0.05c-0.08,0.04-0.11,0.1-0.11,0.18c0,0.08,0.03,0.13,0.08,0.16
			c0.05,0.03,0.11,0.05,0.19,0.05c0.06,0,0.11-0.01,0.15-0.03c0.04-0.02,0.08-0.05,0.11-0.08c0.03-0.03,0.05-0.07,0.07-0.11
			c0.02-0.04,0.02-0.09,0.03-0.14v-0.08L23.4,255.52L23.4,255.52z"/>
		<path class="st8" d="M24.17,255.18c0-0.06,0-0.11-0.01-0.15c0-0.05-0.01-0.09-0.01-0.13h0.19c0,0.03,0,0.07,0,0.1
			c0,0.03,0,0.07,0,0.1h0.01c0.01-0.03,0.03-0.06,0.06-0.09c0.02-0.03,0.05-0.05,0.09-0.07s0.07-0.04,0.12-0.05
			c0.04-0.01,0.09-0.02,0.14-0.02c0.01,0,0.03,0,0.04,0c0.01,0,0.03,0.01,0.04,0.01l-0.01,0.2c-0.03-0.01-0.07-0.02-0.11-0.02
			c-0.12,0-0.21,0.04-0.27,0.12c-0.06,0.08-0.08,0.19-0.08,0.33v0.59h-0.2L24.17,255.18L24.17,255.18z"/>
		<path class="st8" d="M25.74,255.07h-0.36v0.6c0,0.04,0,0.08,0,0.11c0,0.03,0.01,0.06,0.02,0.09c0.01,0.03,0.03,0.04,0.05,0.06
			c0.02,0.01,0.06,0.02,0.1,0.02c0.03,0,0.06,0,0.09-0.01c0.03-0.01,0.06-0.02,0.09-0.03l0.01,0.18c-0.03,0.02-0.07,0.03-0.11,0.03
			c-0.04,0.01-0.08,0.01-0.12,0.01c-0.07,0-0.13-0.01-0.17-0.03c-0.04-0.02-0.08-0.05-0.1-0.08c-0.02-0.03-0.04-0.08-0.05-0.13
			c-0.01-0.05-0.01-0.11-0.01-0.17v-0.66h-0.26v-0.17h0.26v-0.34h0.2v0.34h0.36V255.07z"/>
	</g>
	<polygon class="st7" points="18.09,244 19.69,244 22.75,246.54 26.02,244 27.57,244 27.57,253.17 18.09,253.17 	"/>
	<polygon class="st7" points="37.37,253.17 28.1,253.17 32.73,244.01 	"/>
	<g>
		<path class="st7" d="M56.31,253.09v-6.79h-1.55v-2.3h7.34v2.3h-1.55v6.79H56.31z"/>
	</g>
	<path class="st7" d="M17.36,244h-0.86h-3.57c-0.44,0-0.86,0.08-1.25,0.25c-0.38,0.16-0.72,0.38-1,0.66
		c-0.29,0.28-0.52,0.6-0.68,0.97c-0.17,0.38-0.26,0.78-0.26,1.2c0,0.42,0.09,0.83,0.25,1.21c0.16,0.37,0.39,0.7,0.68,0.97
		c0.29,0.28,0.62,0.5,1,0.66c0.08,0.03,0.17,0.07,0.25,0.09h-0.9h-0.86v0.83v1.5v0.83h0.86h3.45c0.44,0,0.86-0.08,1.25-0.25
		c0.38-0.16,0.72-0.38,1.01-0.66c0.29-0.28,0.52-0.6,0.68-0.97c0.17-0.37,0.25-0.78,0.25-1.2c0-0.42-0.08-0.83-0.25-1.2
		c-0.16-0.37-0.39-0.7-0.68-0.98c-0.29-0.28-0.63-0.5-1.01-0.66c-0.08-0.03-0.17-0.07-0.26-0.09h1.03h0.86v-0.83v-1.5L17.36,244
		L17.36,244z"/>
</g>
</svg>
