<?xml version="1.0" encoding="utf-8"?>
<!-- Generator: Adobe Illustrator 24.2.1, SVG Export Plug-In . SVG Version: 6.00 Build 0)  -->
<svg version="1.1" id="Laag_1" xmlns="http://www.w3.org/2000/svg" xmlns:xlink="http://www.w3.org/1999/xlink" x="0px" y="0px"
	 viewBox="0 0 2188.6 691.6" style="enable-background:new 0 0 2188.6 691.6;" xml:space="preserve">
<style type="text/css">
	.st0{fill:#1D1D1B;stroke:#1D1D1B;stroke-miterlimit:22.9256;}
	.st1{fill:#1D1D1B;}
	.st2{font-family:'ArialMT';}
	.st3{font-size:22.9372px;}
	.st4{fill:none;stroke:#1D1D1B;stroke-miterlimit:22.9256;}
	.st5{fill:none;stroke:#0A0C06;stroke-width:10;stroke-linejoin:bevel;stroke-miterlimit:22.9256;}
	.st6{fill:none;stroke:#0A0C06;stroke-width:5;stroke-linejoin:bevel;stroke-miterlimit:22.9256;}
	.st7{fill:none;}
	.st8{fill:none;stroke:#868686;stroke-width:10;stroke-miterlimit:22.9256;}
	.st9{fill:none;stroke:#1D1D1B;stroke-width:5;stroke-miterlimit:22.9256;}
	.st10{fill:none;stroke:#1D1D1B;stroke-width:10;stroke-miterlimit:22.9256;}
	.st11{font-size:27.1725px;}
	.st12{fill:#0066FF;stroke:#0066FF;stroke-width:10;stroke-miterlimit:22.9256;}
	.st13{font-size:52.844px;}
	.st14{fill:#F28A19;}
	.st15{fill:#553289;}
</style>
<g>
	<path d="M1167.6,571.7c3.7-0.7,7.4,0,11.2,0.7c3.7,1.5,6.7,3.7,8.9,6.7c2.2,3,3,6.7,3,10.4c-8.9,3-17.9,5.2-26.1,8.2
		c1.5,1.5,3,3,5.2,3c4.5,0.7,8.9-0.7,11.9-4.5c2.2,2.2,4.5,4.5,6,6.7c-3,3-6,4.5-9.7,6c-4.5,1.5-9.7,1.5-14.1-0.7
		c-4.5-1.5-7.4-4.5-9.7-8.2c-2.2-3.7-3-8.2-2.2-12.7c0.7-3.7,2.2-8.2,5.2-10.4C1160.2,573.9,1163.9,571.7,1167.6,571.7
		 M1164.6,583.6c-2.2,2.2-3,4.5-3,7.4c6-2.2,12.7-3.7,18.6-6c-1.5-1.5-3-3-5.2-3.7C1171.3,579.1,1166.9,580.6,1164.6,583.6z"/>
	<g id="_x23_ec0444ff_1_">
		<path d="M953.5,553.8h3.7c8.9,0.7,18.6,4.5,24.6,11.9c5.2,6,8.9,14.9,8.9,23.1c0,6.7-2.2,13.4-5.2,18.6c-5.2,0.7-9.7,1.5-14.9,1.5
			c-8.2,0.7-17.1,0.7-25.3,0c11.9-11.9,23.1-23.8,35-35.7c0-2.2-0.7-4.5-3-6.7c-2.2-2.2-4.5-3-7.4-3.7c-4.5-0.7-8.9-0.7-13.4-0.7
			c-8.2,0-17.1,0.7-25.3,1.5C936.4,558.3,945.3,553.8,953.5,553.8z"/>
		<path d="M927.4,568c12.7-1.5,26.1-3,39.5-1.5c-11.9,11.9-23.1,23.8-35,35.7c0,2.2,0.7,4.5,3,6.7c2.2,2.2,6,3,8.9,3.7
			c12.7,1.5,26.1,0,38.7-1.5c-3.7,4.5-8.2,7.4-13.4,9.7c-7.4,3-15.6,3.7-23.1,1.5c-6.7-2.2-12.7-6-17.1-11.2
			c-4.5-6-7.4-12.7-8.2-20.1v-3.7C921.5,579.9,923.7,573.9,927.4,568z"/>
	</g>
	<path d="M1054,556.8c3-0.7,6,0.7,6.7,3.7c1.5,2.2,0.7,5.2-1.5,7.4s-6,2.2-8.2,0.7s-3-5.2-2.2-7.4
		C1050.3,558.3,1051.7,556.8,1054,556.8z"/>
	<path d="M1110.5,559c3.7,0,6.7,0,10.4,0c0,6,0,11.2,0,17.1c2.2-2.2,4.5-3.7,7.4-4.5c3.7-0.7,8.2,0,11.2,1.5c3.7,2.2,6.7,6,8.2,9.7
		c0.7,3,1.5,6.7,0.7,9.7c0,3.7-1.5,7.4-3.7,10.4s-5.2,5.2-8.2,6c-3,1.5-6.7,1.5-10.4,0c-2.2-0.7-4.5-2.2-6-4.5c0,1.5,0,3,0,5.2
		c-3.7,0-6.7,0-10.4,0C1110.5,592.5,1110.5,576.1,1110.5,559 M1128.4,579.9c-2.2,0-4.5,1.5-6,3c-2.2,2.2-2.2,6-2.2,8.9
		c0.7,3,1.5,5.2,3.7,6.7c3,2.2,7.4,2.2,10.4,0s3.7-6,3.7-8.9s-0.7-6-3-7.4C1134.4,580.6,1131.4,579.9,1128.4,579.9z"/>
	<path d="M1074.1,573.2c3-1.5,6.7-2.2,9.7-1.5c3.7,0.7,7.4,3,10.4,6.7c0-2.2,0-3.7,0-6c3.7,0,7.4,0,10.4,0c0,10.4,0,20.8,0,31.3
		c0,4.5-0.7,8.9-2.2,13.4c-1.5,3.7-3.7,6.7-6.7,8.9s-7.4,3.7-11.9,3.7h-2.2c-6.7,0-13.4-3-17.9-8.2c2.2-2.2,4.5-4.5,6.7-6.7
		c3,3,6.7,5.2,10.4,6c3.7,0.7,8.2-0.7,10.4-4.5c2.2-3,2.2-6.7,2.2-10.4c-1.5,1.5-3.7,3.7-6,4.5c-3,1.5-6.7,1.5-9.7,0.7
		c-3.7-0.7-7.4-3-9.7-6c-3-3.7-4.5-8.2-4.5-12.7s0.7-8.2,3-11.9C1068.9,576.1,1071.8,573.9,1074.1,573.2 M1083,579.9
		c-2.2,0.7-3.7,1.5-5.2,3.7s-2.2,6-2.2,8.9c0,3,1.5,5.2,3.7,7.4c2.2,1.5,6,2.2,8.2,0.7c2.2-0.7,3.7-2.2,4.5-3.7
		c1.5-3,2.2-6.7,0.7-9.7c-0.7-2.2-2.2-4.5-3.7-6C1087.5,579.9,1085.2,579.9,1083,579.9z"/>
	<path d="M1211,571.7c3.7-0.7,7.4,0,11.2,0.7c3.7,1.5,6.7,3.7,8.9,6.7c2.2,3,3,6.7,3,10.4c-8.9,3-17.9,5.2-26.1,8.2
		c1.5,1.5,3,3,5.2,3c4.5,0.7,8.9-0.7,11.9-4.5c2.2,2.2,4.5,4.5,6,6.7c-3,3-6,4.5-9.7,6c-4.5,1.5-9.7,1.5-14.1-0.7
		c-4.5-1.5-7.4-4.5-9.7-8.2s-3-8.2-2.2-12.7c0.7-3.7,2.2-8.2,5.2-10.4C1203.6,573.9,1207.3,571.7,1211,571.7 M1208.1,583.6
		c-2.2,2.2-3,4.5-3,7.4c6-2.2,12.7-3.7,18.6-6c-1.5-1.5-3-3-5.2-3.7C1214.8,579.1,1210.3,580.6,1208.1,583.6z"/>
	<path d="M1013.8,571.7c10.4,0,20.1,0,30.5,0c0,3,0,5.2,0,8.2c-6,6.7-11.9,13.4-17.9,20.8c6.7,0,12.7,0,19.4,0c0,3,0,6,0,8.9
		c-11.2,0-21.6,0-32.8,0c0-3,0-6,0-8.9c6-6.7,11.9-13.4,17.9-20.1c-5.2,0-11.2,0-16.4,0C1013.8,577.6,1013.8,574.7,1013.8,571.7z"/>
	<path d="M1049.5,609.6c0-12.7,0-25.3,0-38c3.7,0,7.4,0,10.4,0c0,12.7,0,25.3,0,38C1057,609.6,1053.2,609.6,1049.5,609.6z"/>
</g>
<rect x="1712" y="139" class="st0" width="2.4" height="26.8"/>
<polygon class="st0" points="1681.2,129.3 1681.2,128.5 1746.1,128.5 1746.1,175.5 1680.4,175.5 1680.4,128.5 1681.2,128.5 
	1681.2,129.3 1682,129.3 1682,173.9 1744.5,173.9 1744.5,130.1 1681.2,130.1 1681.2,129.3 1682,129.3 "/>
<rect x="1712" y="74.1" class="st0" width="2.4" height="26.8"/>
<polygon class="st0" points="1681.2,64.4 1681.2,63.6 1746.1,63.6 1746.1,110.6 1680.4,110.6 1680.4,63.6 1681.2,63.6 1681.2,64.4 
	1682,64.4 1682,109 1744.5,109 1744.5,65.2 1681.2,65.2 1681.2,64.4 1682,64.4 "/>
<rect x="1699.9" y="216.1" class="st0" width="26.8" height="2.4"/>
<rect x="1712" y="203.9" class="st0" width="2.4" height="26.8"/>
<polygon class="st0" points="1681.2,194.2 1681.2,193.4 1746.1,193.4 1746.1,240.5 1680.4,240.5 1680.4,193.4 1681.2,193.4 
	1681.2,194.2 1682,194.2 1682,238.8 1744.5,238.8 1744.5,195 1681.2,195 1681.2,194.2 1682,194.2 "/>
<polygon class="st0" points="1681.2,388.9 1681.2,388.1 1746.1,388.1 1746.1,435.2 1680.4,435.2 1680.4,388.1 1681.2,388.1 
	1681.2,388.9 1682,388.9 1682,433.6 1744.5,433.6 1744.5,389.7 1681.2,389.7 1681.2,388.9 1682,388.9 "/>
<text transform="matrix(1 0 0 1 1689.8617 419.9261)" class="st1 st2 st3">1</text>
<text transform="matrix(1 0 0 1 1689.8617 419.9261)" class="st4 st2 st3">1</text>
<text transform="matrix(1 0 0 1 1703.8929 419.9261)" class="st1 st2 st3">/</text>
<text transform="matrix(1 0 0 1 1703.8929 419.9261)" class="st4 st2 st3">/</text>
<text transform="matrix(1 0 0 1 1711.5336 419.9261)" class="st1 st2 st3">R</text>
<text transform="matrix(1 0 0 1 1711.5336 419.9261)" class="st4 st2 st3">R</text>
<text transform="matrix(1 0 0 1 1729.3734 419.9261)" class="st1 st2 st3">-</text>
<text transform="matrix(1 0 0 1 1729.3734 419.9261)" class="st4 st2 st3">-</text>
<rect x="1699.9" y="281" class="st0" width="26.8" height="2.4"/>
<polygon class="st0" points="1681.2,259.1 1681.2,258.3 1746.1,258.3 1746.1,305.4 1680.4,305.4 1680.4,258.3 1681.2,258.3 
	1681.2,259.1 1682,259.1 1682,303.7 1744.5,303.7 1744.5,259.9 1681.2,259.9 1681.2,259.1 1682,259.1 "/>
<rect x="1712" y="268.9" class="st0" width="2.4" height="26.8"/>
<polygon class="st0" points="1681.2,453.8 1681.2,453 1746.1,453 1746.1,500.1 1680.4,500.1 1680.4,453 1681.2,453 1681.2,453.8 
	1682,453.8 1682,498.5 1744.5,498.5 1744.5,454.7 1681.2,454.7 1681.2,453.8 1682,453.8 "/>
<polygon class="st0" points="1681.2,519.6 1681.2,518.8 1746.1,518.8 1746.1,565 1680.4,565 1680.4,518.8 1681.2,518.8 
	1681.2,519.6 1682,519.6 1682,563.4 1744.5,563.4 1744.5,520.4 1681.2,520.4 1681.2,519.6 1682,519.6 "/>
<polygon class="st0" points="1681.2,583.7 1681.2,582.8 1746.1,582.8 1746.1,629.9 1680.4,629.9 1680.4,582.8 1681.2,582.8 
	1681.2,583.7 1682,583.7 1682,628.3 1744.5,628.3 1744.5,584.5 1681.2,584.5 1681.2,583.7 1682,583.7 "/>
<rect x="1699.9" y="345.9" class="st0" width="26.8" height="2.4"/>
<polygon class="st0" points="1681.2,324 1681.2,323.2 1746.1,323.2 1746.1,370.3 1680.4,370.3 1680.4,323.2 1681.2,323.2 
	1681.2,324 1682,324 1682,368.6 1744.5,368.6 1744.5,324.8 1681.2,324.8 1681.2,324 1682,324 "/>
<rect x="1712" y="333.8" class="st0" width="2.4" height="26.8"/>
<text transform="matrix(1 0 0 1 1689.5297 484.8324)" class="st1 st2 st3">2</text>
<text transform="matrix(1 0 0 1 1689.5297 484.8324)" class="st4 st2 st3">2</text>
<text transform="matrix(1 0 0 1 1703.557 484.8324)" class="st1 st2 st3">/</text>
<text transform="matrix(1 0 0 1 1703.557 484.8324)" class="st4 st2 st3">/</text>
<text transform="matrix(1 0 0 1 1711.2054 484.8324)" class="st1 st2 st3">G</text>
<text transform="matrix(1 0 0 1 1711.2054 484.8324)" class="st4 st2 st3">G</text>
<text transform="matrix(1 0 0 1 1730.3187 484.8324)" class="st1 st2 st3">-</text>
<text transform="matrix(1 0 0 1 1730.3187 484.8324)" class="st4 st2 st3">-</text>
<text transform="matrix(1 0 0 1 1690.8578 549.9613)" class="st1 st2 st3">3</text>
<text transform="matrix(1 0 0 1 1690.8578 549.9613)" class="st4 st2 st3">3</text>
<text transform="matrix(1 0 0 1 1704.889 549.9613)" class="st1 st2 st3">/</text>
<text transform="matrix(1 0 0 1 1704.889 549.9613)" class="st4 st2 st3">/</text>
<text transform="matrix(1 0 0 1 1712.5375 549.9613)" class="st1 st2 st3">B</text>
<text transform="matrix(1 0 0 1 1712.5375 549.9613)" class="st4 st2 st3">B</text>
<text transform="matrix(1 0 0 1 1729.1078 549.9613)" class="st1 st2 st3">-</text>
<text transform="matrix(1 0 0 1 1729.1078 549.9613)" class="st4 st2 st3">-</text>
<text transform="matrix(1 0 0 1 1687.8851 614.6332)" class="st1 st2 st3">4</text>
<text transform="matrix(1 0 0 1 1687.8851 614.6332)" class="st4 st2 st3">4</text>
<text transform="matrix(1 0 0 1 1701.9164 614.6332)" class="st1 st2 st3">/</text>
<text transform="matrix(1 0 0 1 1701.9164 614.6332)" class="st4 st2 st3">/</text>
<text transform="matrix(1 0 0 1 1709.5609 614.6332)" class="st1 st2 st3">W</text>
<text transform="matrix(1 0 0 1 1709.5609 614.6332)" class="st4 st2 st3">W</text>
<text transform="matrix(1 0 0 1 1732.0726 614.6332)" class="st1 st2 st3">-</text>
<text transform="matrix(1 0 0 1 1732.0726 614.6332)" class="st4 st2 st3">-</text>
<path class="st5" d="M2185.1,23c-6.5-6.5-16.2-16.2-19.5-19.5"/>
<path class="st6" d="M2185.1,669.7c0-215.8,0-538.7,0-646.7l-19.5-19.5c-714.8,0-1785.8,0-2143.6,0C15.5,10,5.7,19.8,2.5,23
	c0,215.8,0,538.7,0,646.7c6.5,6.5,16.2,16.2,19.5,19.5c714.8,0,1786.6,0,2143.6,0C2172.1,682.6,2181.8,672.9,2185.1,669.7z"/>
<line class="st7" x1="1764.8" y1="110.6" x2="1764.8" y2="43.3"/>
<line class="st7" x1="1764.8" y1="179.6" x2="1764.8" y2="112.3"/>
<path class="st8" d="M1764.8,112.3"/>
<polygon class="st9" points="1666.6,660.7 521.8,660.7 521.8,649.4 425.2,649.4 425.2,43.3 521.8,43.3 521.8,31.9 1666.6,31.9 
	1666.6,43.3 1763.2,43.3 1763.2,649.4 1666.6,649.4 "/>
<line class="st7" x1="1764.8" y1="246.1" x2="1764.8" y2="179.6"/>
<path class="st8" d="M1764.8,179.6"/>
<line class="st7" x1="1764.8" y1="313.5" x2="1764.8" y2="246.1"/>
<path class="st8" d="M1764.8,246.1"/>
<line class="st7" x1="1764.8" y1="380.8" x2="1764.8" y2="313.5"/>
<path class="st8" d="M1764.8,313.5"/>
<line class="st7" x1="1764.8" y1="448.2" x2="1764.8" y2="380.8"/>
<path class="st8" d="M1764.8,380.8"/>
<line class="st7" x1="1764.8" y1="514.7" x2="1764.8" y2="448.2"/>
<path class="st8" d="M1764.8,448.2"/>
<line class="st7" x1="1764.8" y1="582" x2="1764.8" y2="514.7"/>
<path class="st8" d="M1764.8,514.7"/>
<line class="st7" x1="1764.8" y1="649.4" x2="1764.8" y2="582"/>
<path class="st8" d="M1764.8,582"/>
<path class="st10" d="M899.1,536.6"/>
<text transform="matrix(1 0 0 1 864.6899 520.4418)" class="st1 st2 st11">P</text>
<text transform="matrix(1 0 0 1 884.3227 520.4418)" class="st1 st2 st11">r</text>
<text transform="matrix(1 0 0 1 894.8813 520.4418)" class="st1 st2 st11">o</text>
<text transform="matrix(1 0 0 1 911.5063 520.4418)" class="st1 st2 st11">g</text>
<text transform="matrix(1 0 0 1 928.1235 520.4418)" class="st1 st2 st11">.</text>
<circle class="st1" cx="899.1" cy="466" r="19.5"/>
<circle class="st12" cx="899.1" cy="466" r="19.5"/>
<text transform="matrix(1 0 0 1 768.8977 293.473)" class="st2 st13">Zigbee LED Dimmer - RGBW</text>
<text transform="matrix(1 0 0 1 906.2908 356.8402)" class="st2 st13">ROB_200-005-0</text>
<g>
	<path class="st14" d="M1132.54,92.43h-4.17v-3.37c0-12.83-10.46-23.23-23.37-23.23h-0.93c-12.68,0-22.96,10.22-22.96,22.82v3.79
		v46.97h47.26h3.02c13.11,0,23.73-10.57,23.73-23.59v-0.92C1155.12,102.49,1145.01,92.43,1132.54,92.43"/>
	<path class="st14" d="M960.96,65.05c-20.87,0-37.79,16.82-37.79,37.57s16.92,37.57,37.79,37.57c20.87,0,37.79-16.82,37.79-37.57
		S981.84,65.05,960.96,65.05"/>
	<path class="st14" d="M890.7,66.22h-34.2l-0.13,72.79h63.54l0,0c0-8.58-4.42-16.12-11.11-20.53c6.88-5.35,11.31-13.68,11.31-23.04
		C920.11,79.31,906.94,66.22,890.7,66.22"/>
	<path class="st14" d="M1115.43,144.33h-34.2l-0.13,72.94h63.54l0,0c0-8.6-4.42-16.15-11.11-20.56c6.88-5.36,11.31-13.7,11.31-23.08
		C1144.84,157.45,1131.68,144.33,1115.43,144.33"/>
	<path class="st14" d="M1183.82,144.33h-34.2l-0.13,72.94h63.54l0,0c0-8.6-4.42-16.15-11.11-20.56c6.88-5.36,11.31-13.7,11.31-23.08
		C1213.23,157.45,1200.06,144.33,1183.82,144.33"/>
	<path class="st14" d="M1054.4,92.43h-4.17v-3.37c0-12.83-10.46-23.23-23.37-23.23h-0.94c-12.68,0-22.96,10.22-22.96,22.82v3.79
		v46.97h47.26h3.02c13.11,0,23.73-10.57,23.73-23.59v-0.92C1076.99,102.49,1066.88,92.43,1054.4,92.43"/>
	<g>
		<path class="st15" d="M868.23,240.69h-1.59l-2.74-7.37h-0.04l-2.43,7.37h-1.65l-3.13-9.58h1.77l2.21,7.37h0.04l2.49-7.37h1.69
			l2.53,7.37h0.04l2.18-7.37h1.73L868.23,240.69z"/>
		<path class="st15" d="M881.77,238.94c-0.58,0.74-1.2,1.25-1.9,1.55c-0.69,0.29-1.48,0.44-2.39,0.44c-0.75,0-1.44-0.13-2.04-0.4
			c-0.6-0.26-1.12-0.63-1.53-1.07c-0.42-0.45-0.74-0.99-0.97-1.59c-0.23-0.62-0.34-1.27-0.34-1.96c0-0.74,0.12-1.42,0.37-2.03
			c0.25-0.63,0.59-1.15,1.03-1.59c0.44-0.44,0.96-0.79,1.57-1.03c0.6-0.25,1.27-0.37,1.98-0.37c0.67,0,1.29,0.11,1.85,0.33
			c0.57,0.22,1.05,0.55,1.45,0.99c0.41,0.43,0.72,0.96,0.94,1.58c0.22,0.63,0.33,1.33,0.33,2.12v0.51h-7.79
			c0.03,0.41,0.12,0.8,0.3,1.18c0.17,0.38,0.4,0.7,0.67,0.99c0.27,0.28,0.59,0.5,0.97,0.67c0.37,0.17,0.78,0.25,1.21,0.25
			c0.7,0,1.29-0.12,1.77-0.37c0.48-0.25,0.91-0.61,1.29-1.08L881.77,238.94z M880.39,235.03c-0.03-0.82-0.29-1.47-0.81-1.96
			c-0.51-0.49-1.2-0.74-2.1-0.74c-0.89,0-1.61,0.25-2.16,0.74s-0.88,1.14-0.99,1.96H880.39z"/>
		<path class="st15" d="M890.48,225.21h1.6v15.48h-1.6V225.21z"/>
		<path class="st15" d="M894.72,235.9c0-0.75,0.13-1.44,0.39-2.05c0.26-0.62,0.62-1.14,1.07-1.59s0.99-0.79,1.63-1.03
			c0.63-0.25,1.32-0.37,2.06-0.37s1.43,0.12,2.06,0.37s1.18,0.59,1.63,1.03c0.45,0.44,0.81,0.97,1.07,1.59
			c0.26,0.62,0.39,1.29,0.39,2.05c0,0.76-0.13,1.44-0.39,2.05c-0.26,0.62-0.62,1.14-1.07,1.59c-0.45,0.44-0.99,0.78-1.63,1.03
			c-0.63,0.25-1.32,0.37-2.06,0.37c-0.74,0-1.43-0.12-2.06-0.37c-0.63-0.25-1.18-0.59-1.63-1.03c-0.45-0.44-0.81-0.97-1.07-1.59
			C894.85,237.32,894.72,236.64,894.72,235.9z M896.46,235.9c0,0.5,0.08,0.97,0.24,1.4c0.16,0.43,0.39,0.8,0.69,1.13
			c0.3,0.32,0.66,0.57,1.08,0.76c0.42,0.18,0.89,0.27,1.41,0.27s0.99-0.09,1.41-0.27s0.78-0.44,1.08-0.76
			c0.3-0.32,0.53-0.7,0.69-1.13c0.16-0.43,0.24-0.9,0.24-1.4s-0.08-0.97-0.24-1.4s-0.39-0.8-0.69-1.13
			c-0.3-0.32-0.66-0.57-1.08-0.76c-0.42-0.18-0.89-0.27-1.41-0.27s-0.99,0.09-1.41,0.27c-0.42,0.18-0.78,0.44-1.08,0.76
			s-0.53,0.7-0.69,1.13C896.53,234.92,896.46,235.39,896.46,235.9z"/>
		<path class="st15" d="M911.9,240.69h-1.77l-3.93-9.58h1.88l3.01,7.51h0.04l2.86-7.51h1.73L911.9,240.69z"/>
		<path class="st15" d="M926.06,238.94c-0.58,0.74-1.2,1.25-1.9,1.55c-0.69,0.29-1.48,0.44-2.39,0.44c-0.75,0-1.44-0.13-2.04-0.4
			c-0.6-0.26-1.12-0.63-1.53-1.07s-0.74-0.99-0.97-1.59c-0.23-0.62-0.34-1.27-0.34-1.96c0-0.74,0.12-1.42,0.37-2.03
			c0.25-0.63,0.59-1.15,1.03-1.59c0.44-0.44,0.96-0.79,1.57-1.03c0.6-0.25,1.27-0.37,1.98-0.37c0.67,0,1.29,0.11,1.85,0.33
			c0.57,0.22,1.05,0.55,1.45,0.99s0.72,0.96,0.94,1.58c0.22,0.63,0.33,1.33,0.33,2.12v0.51h-7.79c0.03,0.41,0.12,0.8,0.3,1.18
			c0.17,0.38,0.4,0.7,0.67,0.99c0.27,0.28,0.59,0.5,0.97,0.67c0.37,0.17,0.78,0.25,1.21,0.25c0.7,0,1.29-0.12,1.77-0.37
			c0.48-0.25,0.91-0.61,1.29-1.08L926.06,238.94z M924.67,235.03c-0.03-0.82-0.29-1.47-0.81-1.96c-0.51-0.49-1.2-0.74-2.1-0.74
			s-1.61,0.25-2.16,0.74c-0.55,0.49-0.88,1.14-0.99,1.96H924.67z"/>
		<path class="st15" d="M934.83,238.17c0.32,0.4,0.66,0.71,1.04,0.94c0.38,0.23,0.85,0.34,1.44,0.34c0.25,0,0.5-0.03,0.75-0.08
			c0.26-0.05,0.49-0.14,0.69-0.26c0.2-0.12,0.37-0.27,0.5-0.46c0.12-0.18,0.19-0.41,0.19-0.67c0-0.26-0.06-0.47-0.18-0.63
			s-0.27-0.3-0.46-0.42c-0.19-0.11-0.42-0.21-0.66-0.27c-0.25-0.07-0.5-0.13-0.76-0.18c-0.45-0.1-0.89-0.2-1.29-0.33
			s-0.77-0.28-1.08-0.48c-0.31-0.19-0.56-0.46-0.74-0.77c-0.19-0.32-0.27-0.71-0.27-1.21c0-0.47,0.11-0.87,0.31-1.22
			c0.2-0.35,0.48-0.65,0.82-0.88c0.35-0.23,0.73-0.41,1.15-0.53c0.43-0.12,0.87-0.18,1.32-0.18c0.68,0,1.32,0.14,1.9,0.41
			c0.58,0.27,1.04,0.71,1.37,1.33l-1.34,0.88c-0.2-0.34-0.48-0.62-0.82-0.83c-0.34-0.21-0.74-0.32-1.22-0.32
			c-0.22,0-0.44,0.03-0.67,0.08c-0.23,0.05-0.43,0.14-0.61,0.25c-0.18,0.11-0.33,0.25-0.44,0.42c-0.12,0.17-0.18,0.37-0.18,0.58
			c0,0.2,0.06,0.38,0.19,0.52c0.13,0.14,0.31,0.27,0.53,0.38c0.23,0.11,0.49,0.2,0.78,0.29c0.29,0.08,0.6,0.15,0.91,0.2
			c0.43,0.08,0.83,0.18,1.21,0.32c0.38,0.13,0.72,0.3,1.01,0.52c0.29,0.22,0.51,0.49,0.68,0.82c0.17,0.33,0.25,0.73,0.25,1.21
			c0,0.55-0.11,1.01-0.33,1.39c-0.22,0.38-0.51,0.7-0.88,0.93s-0.78,0.41-1.24,0.52c-0.46,0.11-0.93,0.17-1.41,0.17
			c-0.82,0-1.53-0.12-2.14-0.38c-0.59-0.26-1.13-0.72-1.62-1.4L934.83,238.17z"/>
		<path class="st15" d="M943.39,233.38c0-0.44-0.02-0.85-0.04-1.22c-0.03-0.38-0.04-0.73-0.04-1.05h1.52c0,0.26,0.01,0.52,0.02,0.77
			c0.02,0.26,0.02,0.53,0.02,0.8h0.04c0.11-0.23,0.27-0.46,0.46-0.68c0.19-0.22,0.43-0.41,0.71-0.58s0.58-0.31,0.93-0.41
			c0.35-0.11,0.72-0.15,1.12-0.15c0.52,0,0.96,0.06,1.31,0.19c0.35,0.13,0.64,0.29,0.88,0.47c0.23,0.18,0.42,0.38,0.55,0.59
			c0.13,0.21,0.24,0.4,0.32,0.56c0.35-0.57,0.77-1.02,1.23-1.34c0.47-0.32,1.07-0.48,1.82-0.48c0.68,0,1.27,0.09,1.73,0.27
			c0.47,0.18,0.84,0.45,1.13,0.8c0.29,0.34,0.5,0.77,0.62,1.27c0.12,0.5,0.19,1.06,0.19,1.66v5.81h-1.6v-5.73
			c0-0.33-0.04-0.65-0.11-0.96c-0.07-0.32-0.19-0.59-0.37-0.84s-0.42-0.44-0.72-0.59c-0.3-0.15-0.69-0.23-1.15-0.23
			c-0.35,0-0.66,0.07-0.97,0.2c-0.3,0.14-0.57,0.33-0.79,0.57c-0.23,0.25-0.41,0.55-0.53,0.89c-0.13,0.35-0.19,0.73-0.19,1.15v5.53
			h-1.6v-5.42c0-1.07-0.14-1.82-0.43-2.26c-0.29-0.44-0.76-0.67-1.42-0.67c-0.52,0-0.97,0.09-1.35,0.26
			c-0.38,0.18-0.69,0.43-0.93,0.76s-0.42,0.71-0.53,1.17c-0.12,0.45-0.18,0.95-0.18,1.5v4.67h-1.6v-7.3H943.39z"/>
		<path class="st15" d="M960.82,232.33c0.5-0.5,1.08-0.88,1.76-1.12s1.37-0.36,2.07-0.36c1.43,0,2.45,0.33,3.09,1
			c0.63,0.67,0.95,1.69,0.95,3.05v4.11c0,0.27,0.02,0.55,0.04,0.85c0.03,0.29,0.06,0.56,0.11,0.81h-1.54
			c-0.05-0.22-0.09-0.46-0.09-0.73c-0.01-0.26-0.01-0.5-0.01-0.7h-0.04c-0.32,0.49-0.74,0.9-1.27,1.21
			c-0.53,0.32-1.16,0.48-1.9,0.48c-0.5,0-0.96-0.06-1.39-0.18c-0.43-0.12-0.81-0.3-1.13-0.55c-0.32-0.24-0.58-0.54-0.77-0.89
			c-0.19-0.35-0.29-0.77-0.29-1.23c0-0.79,0.2-1.41,0.62-1.87c0.41-0.45,0.92-0.78,1.53-1c0.61-0.22,1.27-0.35,1.98-0.41
			c0.71-0.05,1.36-0.08,1.95-0.08h0.62v-0.29c0-0.7-0.21-1.22-0.63-1.58c-0.42-0.35-1.01-0.53-1.76-0.53
			c-0.52,0-1.04,0.09-1.53,0.26c-0.51,0.17-0.95,0.43-1.33,0.78L960.82,232.33z M965.48,236.07c-1.03,0-1.84,0.14-2.45,0.43
			c-0.6,0.29-0.9,0.76-0.9,1.41c0,0.6,0.2,1.03,0.61,1.28c0.41,0.26,0.91,0.38,1.51,0.38c0.47,0,0.88-0.08,1.22-0.24
			c0.35-0.16,0.64-0.37,0.88-0.63c0.23-0.26,0.41-0.56,0.53-0.91c0.12-0.35,0.19-0.72,0.2-1.12v-0.62L965.48,236.07L965.48,236.07z"
			/>
		<path class="st15" d="M971.64,233.38c0-0.44-0.02-0.85-0.04-1.22s-0.04-0.73-0.04-1.05h1.52c0,0.26,0.01,0.52,0.02,0.77
			c0.02,0.26,0.02,0.53,0.02,0.8h0.04c0.11-0.23,0.27-0.46,0.46-0.68c0.19-0.22,0.43-0.41,0.71-0.58s0.58-0.31,0.93-0.41
			c0.35-0.11,0.72-0.15,1.12-0.15c0.11,0,0.22,0.01,0.33,0.02c0.11,0.02,0.22,0.04,0.33,0.08l-0.11,1.62
			c-0.27-0.08-0.57-0.12-0.87-0.12c-0.99,0-1.71,0.32-2.15,0.95c-0.44,0.63-0.67,1.51-0.67,2.61v4.67h-1.6v-7.31H971.64z"/>
		<path class="st15" d="M984.17,232.45h-2.84v4.79c0,0.32,0.01,0.61,0.02,0.87c0.02,0.26,0.07,0.5,0.17,0.7
			c0.1,0.2,0.24,0.35,0.43,0.48c0.19,0.11,0.47,0.18,0.82,0.18c0.23,0,0.47-0.03,0.72-0.08c0.25-0.05,0.48-0.13,0.7-0.25l0.06,1.45
			c-0.27,0.12-0.58,0.21-0.91,0.26s-0.66,0.08-0.96,0.08c-0.58,0-1.04-0.08-1.38-0.23c-0.35-0.15-0.61-0.36-0.81-0.63
			c-0.19-0.27-0.32-0.61-0.38-1.01c-0.06-0.41-0.09-0.85-0.09-1.34v-5.27h-2.1v-1.36h2.1v-2.72h1.6v2.72h2.84V232.45z"/>
	</g>
	<polygon class="st14" points="923.17,144.33 935.98,144.33 960.33,164.55 986.36,144.33 998.76,144.33 998.76,217.32 
		923.17,217.32 	"/>
	<polygon class="st14" points="1076.83,217.32 1002.95,217.32 1039.88,144.33 	"/>
	<g>
		<path class="st14" d="M1227.72,216.7v-54.06h-12.36v-18.3h58.51v18.3h-12.36v54.06H1227.72z"/>
	</g>
	<path class="st14" d="M917.38,144.33h-6.81h-28.43c-3.49,0-6.83,0.66-9.94,1.96c-3.02,1.27-5.71,3.04-7.99,5.24
		c-2.29,2.21-4.11,4.81-5.42,7.72c-1.36,2.99-2.04,6.23-2.04,9.6c0,3.37,0.68,6.6,2.03,9.61c1.31,2.93,3.15,5.55,5.43,7.76
		s4.97,3.97,8,5.24c0.66,0.27,1.32,0.52,1.99,0.74h-7.18h-6.82v6.58v11.98v6.58h6.81h27.53c3.49,0,6.83-0.66,9.95-1.96
		c3.04-1.27,5.74-3.04,8.03-5.25c2.29-2.21,4.11-4.82,5.41-7.76c1.33-2.99,2-6.21,2-9.57c0-3.36-0.67-6.58-1.99-9.57
		c-1.3-2.95-3.13-5.57-5.42-7.78c-2.29-2.22-5.01-3.98-8.06-5.24c-0.67-0.27-1.36-0.53-2.05-0.74h8.17h6.81v-6.58V150.9
		L917.38,144.33L917.38,144.33z"/>
</g>
</svg>
